<svg width="58" height="44" viewBox="0 0 58 44" fill="none" xmlns="http://www.w3.org/2000/svg">
<path opacity="0.951" fill-rule="evenodd" clip-rule="evenodd" d="M57.7429 13.8665C57.7429 14.3176 57.7429 14.7687 57.7429 15.2198C57.3978 16.0727 56.7963 16.693 55.9384 17.0807C53.3445 18.3401 50.7506 19.5994 48.1567 20.8588C48.0627 25.5575 48.0063 30.2566 47.9875 34.9562C44.6812 39.158 40.4144 41.9211 35.1871 43.2454C28.3071 44.8433 21.8035 43.9034 15.6763 40.426C13.3853 38.9624 11.3741 37.1767 9.64261 35.069C9.60502 30.3322 9.56742 25.5955 9.52983 20.8588C8.38807 20.3255 7.26028 19.7616 6.14646 19.1671C6.05249 22.288 6.07129 25.4082 6.20285 28.5278C8.16108 29.6276 8.66858 31.2065 7.72537 33.2645C7.35612 33.8593 6.84861 34.2917 6.20285 34.5615C7.25882 37.6765 8.23625 40.8155 9.13511 43.9785C6.35322 43.9785 3.57134 43.9785 0.789454 43.9785C1.68725 40.8152 2.66467 37.6762 3.72171 34.5615C1.70338 33.3733 1.23348 31.738 2.31197 29.6556C2.69775 29.1759 3.16766 28.8 3.72171 28.5278C3.85328 25.0322 3.87207 21.536 3.7781 18.0393C2.93755 17.5909 2.0917 17.1585 1.24057 16.7424C0.714221 16.3117 0.300697 15.8041 0 15.2198C0 14.7312 0 14.2424 0 13.7537C0.305185 13.1282 0.756301 12.6207 1.35335 12.2312C9.59642 8.22234 17.8669 4.27513 26.1647 0.389382C28.4609 -0.225084 30.7165 -0.112305 32.9315 0.727719C40.7508 4.56221 48.5702 8.3967 56.3895 12.2312C57.0346 12.6305 57.4858 13.1756 57.7429 13.8665ZM27.9692 2.25024C29.3266 2.1328 30.6424 2.30197 31.9165 2.75774C39.7358 6.59223 47.5552 10.4267 55.3745 14.2612C55.4892 14.3795 55.5081 14.5111 55.4309 14.6559C54.8385 15.1499 54.1806 15.5446 53.4573 15.8401C46.2237 19.4003 38.9683 22.9342 31.6909 26.4414C29.9621 27.1098 28.2329 27.1098 26.5031 26.4414C20.6589 23.6508 14.832 20.8313 9.02233 17.9829C15.7138 17.1935 22.4055 16.404 29.097 15.6146C29.8736 15.3094 30.118 14.7643 29.8301 13.9793C29.6932 13.8046 29.524 13.6731 29.3226 13.5845C28.7962 13.5093 28.27 13.5093 27.7437 13.5845C20.3001 14.4679 12.8567 15.3514 5.4134 16.2348C4.50029 15.8725 3.59806 15.4778 2.7067 15.0507C2.23596 14.8806 2.16077 14.6175 2.48114 14.2612C9.97188 10.674 17.4529 7.06512 24.9242 3.43442C25.9059 2.91368 26.9209 2.51896 27.9692 2.25024ZM11.8418 21.8738C16.3882 24.0341 20.9369 26.1957 25.4881 28.3586C27.986 29.3568 30.4672 29.3193 32.9315 28.2458C37.2446 26.1363 41.5489 24.0122 45.8447 21.8738C45.9199 25.9714 45.9199 30.0691 45.8447 34.1667C40.8343 39.7053 34.575 42.2428 27.067 41.7793C20.9963 41.272 15.9401 38.7721 11.8982 34.2795C11.8418 30.1445 11.823 26.0092 11.8418 21.8738Z" fill="#14C88C"/>
</svg>
