<svg width="41" height="41" viewBox="0 0 41 41" fill="none" xmlns="http://www.w3.org/2000/svg">
<g clip-path="url(#clip0_81_671)">
<path opacity="0.931" fill-rule="evenodd" clip-rule="evenodd" d="M40.96 16.2959C40.96 16.5628 40.96 16.8298 40.96 17.0967C40.8101 17.3392 40.5965 17.5127 40.3193 17.6172C39.3285 17.9964 38.3409 18.3835 37.3564 18.7783C37.2497 19.6859 37.2497 20.5935 37.3564 21.501C37.8682 21.5634 38.2286 21.8303 38.4375 22.3018C38.5556 24.9797 38.7825 27.6489 39.1182 30.3096C39.1044 30.7246 38.9175 31.0316 38.5576 31.2305C37.9217 31.3185 37.2811 31.3585 36.6357 31.3506C35.9904 31.3585 35.3498 31.3185 34.7139 31.2305C34.3547 31.0333 34.1678 30.7263 34.1533 30.3096C34.4967 27.6764 34.7236 25.0338 34.834 22.3819C34.9951 21.853 35.3555 21.5594 35.915 21.501C36.0218 20.7803 36.0218 20.0596 35.915 19.3389C30.7751 21.3991 25.6234 23.4278 20.46 25.4248C13.832 22.8449 7.21221 20.2424 0.600586 17.6172C0.323407 17.5127 0.109865 17.3392 -0.0400391 17.0967C-0.0400391 16.8298 -0.0400391 16.5628 -0.0400391 16.2959C0.0782677 16.1112 0.238424 15.9644 0.44043 15.8555C6.77296 13.3621 13.0991 10.8529 19.4189 8.32813C19.7552 8.18623 20.1022 8.09278 20.46 8.04785C20.9553 8.1373 21.4358 8.28408 21.9014 8.48828C28.094 10.944 34.2868 13.3997 40.4795 15.8555C40.6815 15.9644 40.8417 16.1112 40.96 16.2959ZM20.3799 9.3291C26.5895 11.7399 32.7823 14.1956 38.958 16.6963C38.1497 17.0536 37.3356 17.4007 36.5156 17.7373C31.0378 17.1294 25.5525 16.5823 20.0596 16.0957C19.6813 16.2907 19.5612 16.5977 19.6992 17.0166C19.7964 17.1407 19.9166 17.234 20.0596 17.2969C24.6754 17.7932 29.2933 18.2737 33.9131 18.7383C29.4314 20.5213 24.9471 22.2964 20.46 24.0635C14.279 21.6385 8.11296 19.1828 1.96191 16.6963C8.10767 14.2367 14.2469 11.7809 20.3799 9.3291ZM36.0752 22.7822C36.4489 22.7822 36.8226 22.7822 37.1963 22.7822C37.1963 23.1026 37.1963 23.4229 37.1963 23.7432C36.8226 23.7432 36.4489 23.7432 36.0752 23.7432C36.0752 23.4229 36.0752 23.1026 36.0752 22.7822ZM35.9951 25.0244C36.4222 25.0244 36.8493 25.0244 37.2764 25.0244C37.4629 26.7035 37.6231 28.3852 37.7568 30.0694C37.0095 30.0694 36.262 30.0694 35.5146 30.0694C35.663 28.3866 35.8232 26.705 35.9951 25.0244Z" fill="white"/>
<path opacity="0.926" fill-rule="evenodd" clip-rule="evenodd" d="M31.751 22.542C32.3022 22.5192 32.5825 22.7861 32.5918 23.3428C32.8368 24.7857 33.0903 26.2271 33.3525 27.667C33.3006 28.3469 32.9535 28.7874 32.3115 28.9883C28.3163 29.7417 24.4993 31.0229 20.8604 32.832C20.5059 32.8954 20.1589 32.8686 19.8193 32.752C16.1904 30.917 12.3734 29.6357 8.36816 28.9082C7.95121 28.7028 7.69763 28.3691 7.60742 27.9072C7.81305 26.273 8.07996 24.6448 8.4082 23.0225C8.71987 22.5613 9.09359 22.5079 9.5293 22.8623C9.60321 22.9851 9.64325 23.1186 9.64941 23.2627C9.40822 24.7367 9.14132 26.2048 8.84863 27.667C12.8979 28.4506 16.7683 29.7586 20.46 31.5908C24.1516 29.7586 28.0221 28.4506 32.0713 27.667C31.7743 26.1921 31.5074 24.7107 31.2705 23.2227C31.2666 22.8681 31.4267 22.6411 31.751 22.542Z" fill="white"/>
</g>
<defs>
<clipPath id="clip0_81_671">
<rect width="41" height="41" fill="white"/>
</clipPath>
</defs>
</svg>
