<svg width="99" height="79" viewBox="0 0 99 79" fill="none" xmlns="http://www.w3.org/2000/svg">
<path d="M90.4341 67.683C99.7511 57.571 98.813 44.5854 98.7834 44.4373V4.93726C98.7834 3.62775 98.2632 2.37188 97.3372 1.44592C96.4113 0.519956 95.1554 -0.000244141 93.8459 -0.000244141H64.2209C58.7749 -0.000244141 54.3459 4.42869 54.3459 9.87476V44.4373C54.3459 45.7468 54.8661 47.0026 55.7921 47.9286C56.718 48.8546 57.9739 49.3748 59.2834 49.3748H74.481C74.3767 51.8158 73.6474 54.1892 72.3629 56.2675C69.8546 60.2224 65.1294 62.9233 58.3107 64.286L54.3459 65.076V78.9998H59.2834C73.0245 78.9998 83.5068 75.1929 90.4341 67.683ZM36.0871 67.683C45.4091 57.571 44.466 44.5854 44.4364 44.4373V4.93726C44.4364 3.62775 43.9162 2.37188 42.9902 1.44592C42.0643 0.519956 40.8084 -0.000244141 39.4989 -0.000244141H9.87389C4.42784 -0.000244141 -0.00109863 4.42869 -0.00109863 9.87476V44.4373C-0.00109863 45.7468 0.5191 47.0026 1.44506 47.9286C2.37102 48.8546 3.62689 49.3748 4.9364 49.3748H20.134C20.0297 51.8158 19.3004 54.1892 18.0158 56.2675C15.5076 60.2224 10.7824 62.9233 3.96371 64.286L-0.00109863 65.076V78.9998H4.9364C18.6775 78.9998 29.1598 75.1929 36.0871 67.683Z" fill="#7659FF" fill-opacity="0.1"/>
</svg>
