<svg width="18" height="14" viewBox="0 0 18 14" fill="none" xmlns="http://www.w3.org/2000/svg">
<path opacity="0.934" fill-rule="evenodd" clip-rule="evenodd" d="M17.0948 3.88334C17.0948 4.07255 17.0948 4.26173 17.0948 4.45094C17.0117 4.72923 16.8448 4.94626 16.594 5.10201C15.648 5.50825 14.702 5.91445 13.756 6.32069C14.2689 8.51476 13.4899 10.0005 11.4188 10.778C9.4406 11.4415 7.47069 11.4192 5.50907 10.7112C4.81462 10.445 4.23033 10.0277 3.75618 9.45918C3.58229 9.20503 3.45989 8.92681 3.38891 8.62448C3.38333 7.85631 3.36664 7.08838 3.33883 6.32069C2.89677 6.13578 2.45716 5.9466 2.01999 5.75308C1.99773 6.96618 1.99773 8.17931 2.01999 9.39241C2.56741 9.70532 2.68427 10.1394 2.37057 10.6946C2.47955 10.8457 2.55189 11.0127 2.58759 11.1954C2.67952 12.0061 2.73516 12.8185 2.75453 13.6327C2.6677 13.8515 2.50632 13.9684 2.2704 13.9833C1.90313 14.0056 1.53586 14.0056 1.16859 13.9833C0.815903 13.9293 0.648961 13.7235 0.667765 13.3656C0.725965 12.6753 0.787179 11.9853 0.851401 11.2955C0.863965 11.0681 0.947436 10.8734 1.10181 10.7112C0.765556 10.1587 0.876853 9.71908 1.4357 9.39241C1.47465 8.10155 1.48021 6.81052 1.45239 5.51937C1.09559 5.37079 0.745009 5.20942 0.400659 5.03524C0.212319 4.87481 0.078766 4.68002 0 4.45094C0 4.26173 0 4.07255 0 3.88334C0.134607 3.50939 0.390583 3.24783 0.76793 3.09871C3.03108 2.13964 5.29034 1.17139 7.54575 0.193933C8.05729 -0.00749504 8.58039 -0.052015 9.115 0.06038C9.26171 0.0981489 9.40638 0.142669 9.54905 0.193933C11.9235 1.20865 14.2941 2.23256 16.6607 3.26566C16.8686 3.43226 17.0133 3.63817 17.0948 3.88334ZM8.2469 0.54451C8.61528 0.512367 8.9714 0.56245 9.31533 0.694758C11.5707 1.67221 13.83 2.64046 16.0931 3.59954C16.5759 3.80164 16.6761 4.11883 16.3936 4.55111C13.9426 5.65576 11.4719 6.71861 8.98145 7.73969C8.51702 7.83665 8.07185 7.78099 7.64592 7.57275C5.96538 6.84932 4.28482 6.12593 2.60429 5.40251C4.17173 5.1116 5.74098 4.82779 7.31203 4.55111C7.67747 4.85474 8.1004 4.99941 8.58079 4.98515C9.05183 4.98966 9.45806 4.83384 9.79946 4.51772C10.0006 4.04561 9.86146 3.70615 9.38211 3.49937C8.82582 3.30018 8.26937 3.30018 7.71269 3.49937C7.46869 3.62101 7.27948 3.79907 7.14509 4.03359C5.32052 4.35438 3.49529 4.67157 1.66941 4.98515C1.33118 4.8725 1.00842 4.72783 0.701154 4.55111C0.47197 4.27028 0.483098 3.99759 0.734542 3.73309C3.22703 2.63121 5.73116 1.56836 8.2469 0.54451ZM8.34707 3.88334C8.64833 3.86681 8.93767 3.91689 9.21516 4.03359C9.27616 4.0636 9.32067 4.10814 9.34872 4.16714C9.23146 4.28714 9.08675 4.36503 8.91467 4.40086C8.51838 4.47692 8.13996 4.42126 7.77947 4.23392C7.76204 4.21519 7.75092 4.19292 7.74608 4.16714C7.79723 4.09646 7.86401 4.0408 7.94641 4.0002C8.08487 3.96317 8.21842 3.92421 8.34707 3.88334ZM13.1216 8.62448C13.0204 8.95439 12.8423 9.23819 12.5874 9.47588C11.8406 10.0605 10.9948 10.4277 10.0499 10.5777C8.51908 10.852 7.02773 10.7073 5.57584 10.1436C4.96003 9.89484 4.46478 9.49975 4.09006 8.95836C4.04085 8.84965 4.00192 8.73837 3.9732 8.62448C4.70695 9.29191 5.56392 9.73153 6.5441 9.94331C7.60481 10.1739 8.67324 10.2184 9.74938 10.0769C9.91859 9.97727 9.95755 9.83817 9.86624 9.65951C9.83609 9.61942 9.79716 9.59157 9.74938 9.57604C8.76389 9.67374 7.78451 9.62923 6.81121 9.44249C5.98575 9.28002 5.24006 8.94614 4.57419 8.44084C4.00265 7.95364 3.78005 7.33596 3.90643 6.58779C5.18917 7.1175 6.46908 7.65729 7.74608 8.20712C8.28029 8.36295 8.8145 8.36295 9.34872 8.20712C10.6257 7.65729 11.9056 7.1175 13.1884 6.58779C13.3045 7.31352 13.0931 7.92005 12.554 8.40745C12.2875 8.62989 11.9981 8.81906 11.6859 8.97505C11.5195 9.11161 11.5084 9.26186 11.6525 9.4258C11.7589 9.50393 11.8702 9.50947 11.9864 9.44249C12.4074 9.2272 12.7858 8.95452 13.1216 8.62448ZM1.66941 9.89323C1.85687 9.89697 1.96817 9.99159 2.0033 10.177C1.8846 10.4595 1.71209 10.4984 1.48578 10.2939C1.43214 10.1009 1.49335 9.96739 1.66941 9.89323ZM1.60264 10.995C1.79308 10.9595 1.9322 11.0263 2.01999 11.1954C2.11136 11.9389 2.18371 12.6846 2.23701 13.4324C1.892 13.4324 1.54699 13.4324 1.20198 13.4324C1.26928 12.6976 1.34162 11.9631 1.419 11.2288C1.45128 11.1246 1.51249 11.0467 1.60264 10.995Z" fill="#4A3AFF"/>
</svg>
