<svg width="95" height="44" viewBox="0 0 95 44" fill="none" xmlns="http://www.w3.org/2000/svg">
<g clip-path="url(#clip0_95_854)">
<path fill-rule="evenodd" clip-rule="evenodd" d="M15.8042 13.3114C15.7155 13.1436 15.5998 13.132 15.4569 13.2766C14.0809 14.2711 12.7146 15.279 11.3582 16.3003C11.3813 16.3235 11.4045 16.3467 11.4276 16.3699C13.0436 15.9309 14.6646 15.5138 16.2905 15.1187C17.0381 17.2813 17.7212 19.4593 18.3399 21.6526C16.0119 19.9782 13.6962 18.2868 11.3929 16.5784C9.05951 18.2613 6.73232 19.9527 4.41124 21.6526C5.19915 18.9274 6.05593 16.205 6.98161 13.4852C4.69721 11.7387 2.38157 10.0241 0.034668 8.3414C2.90607 8.31826 5.77747 8.29504 8.64887 8.27189C9.5362 5.51559 10.4509 2.76993 11.3929 0.0349121C12.2916 2.76721 13.1831 5.50128 14.0675 8.23714C16.9386 8.29504 19.81 8.32979 22.6817 8.3414C20.4158 10.0419 18.1233 11.6985 15.8042 13.3114Z" fill="#24AD79"/>
<path fill-rule="evenodd" clip-rule="evenodd" d="M24.8352 8.30664C28.0539 8.30664 31.2727 8.30664 34.4914 8.30664C34.4914 8.90909 34.4914 9.51146 34.4914 10.1139C33.241 10.1139 31.9905 10.1139 30.7401 10.1139C30.7401 13.4736 30.7401 16.8333 30.7401 20.1929C30.0223 20.1929 29.3044 20.1929 28.5865 20.1929C28.5865 16.8333 28.5865 13.4736 28.5865 10.1139C27.3361 10.1139 26.0857 10.1139 24.8352 10.1139C24.8352 9.51146 24.8352 8.90909 24.8352 8.30664Z" fill="white"/>
<path fill-rule="evenodd" clip-rule="evenodd" d="M73.3247 8.30664C73.9729 8.30664 74.6217 8.30664 75.2698 8.30664C75.2698 8.90909 75.2698 9.51146 75.2698 10.1139C74.6217 10.1139 73.9729 10.1139 73.3247 10.1139C73.3247 9.51146 73.3247 8.90909 73.3247 8.30664Z" fill="white"/>
<path fill-rule="evenodd" clip-rule="evenodd" d="M76.9373 8.30664C77.5854 8.30664 78.2342 8.30664 78.8824 8.30664C78.8824 12.2687 78.8824 16.2308 78.8824 20.1929C78.2342 20.1929 77.5854 20.1929 76.9373 20.1929C76.9373 16.2308 76.9373 12.2687 76.9373 8.30664Z" fill="white"/>
<path fill-rule="evenodd" clip-rule="evenodd" d="M58.5279 9.00171C59.1763 9.00171 59.8247 9.00171 60.4731 9.00171C60.4731 9.85898 60.4731 10.7163 60.4731 11.5736C61.052 11.5736 61.6309 11.5736 62.2098 11.5736C62.2098 12.0602 62.2098 12.5467 62.2098 13.0333C61.6309 13.0333 61.052 13.0333 60.4731 13.0333C60.4615 14.7249 60.4731 16.4163 60.5078 18.1076C60.5428 18.3522 60.6702 18.526 60.8899 18.6289C61.3103 18.6838 61.7271 18.6723 62.1403 18.5941C62.2316 19.1195 62.2316 19.6408 62.1403 20.1581C61.2236 20.3339 60.3205 20.2876 59.431 20.0191C58.8914 19.7329 58.6019 19.281 58.5627 18.6637C58.5279 16.787 58.5163 14.9102 58.5279 13.0333C58.0417 13.0333 57.5554 13.0333 57.0691 13.0333C57.0691 12.5467 57.0691 12.0602 57.0691 11.5736C57.5554 11.5736 58.0417 11.5736 58.5279 11.5736C58.5279 10.7163 58.5279 9.85898 58.5279 9.00171Z" fill="white"/>
<path fill-rule="evenodd" clip-rule="evenodd" d="M94.5129 11.5736C94.5129 12.0602 94.5129 12.5467 94.5129 13.0333C93.9572 13.0333 93.4014 13.0333 92.8456 13.0333C92.8338 14.7712 92.8456 16.509 92.8804 18.2466C92.9617 18.4203 93.0888 18.5478 93.2625 18.6289C93.6848 18.6836 94.1017 18.672 94.5129 18.5941C94.5129 19.1038 94.5129 19.6136 94.5129 20.1233C93.7543 20.2879 92.9901 20.2996 92.2204 20.1581C91.234 19.9109 90.7824 19.2737 90.8658 18.2466C90.831 16.509 90.8192 14.7712 90.831 13.0333C90.3677 13.0333 89.905 13.0333 89.4417 13.0333C89.4417 12.5467 89.4417 12.0602 89.4417 11.5736C89.905 11.5736 90.3677 11.5736 90.831 11.5736C90.831 10.7163 90.831 9.85898 90.831 9.00171C91.5028 9.00171 92.1739 9.00171 92.8456 9.00171C92.8456 9.85898 92.8456 10.7163 92.8456 11.5736C93.4014 11.5736 93.9572 11.5736 94.5129 11.5736Z" fill="white"/>
<path fill-rule="evenodd" clip-rule="evenodd" d="M37.9649 11.2955C38.3386 11.2833 38.7091 11.3065 39.0764 11.365C39.0764 11.9906 39.0764 12.6162 39.0764 13.2418C37.2688 12.9531 36.2384 13.7177 35.985 15.5356C35.9503 17.0879 35.9387 18.6403 35.9503 20.1928C35.3019 20.1928 34.6535 20.1928 34.0051 20.1928C34.0051 17.3198 34.0051 14.4466 34.0051 11.5736C34.6072 11.5736 35.2092 11.5736 35.8113 11.5736C35.7998 12.0607 35.8113 12.5473 35.8461 13.0333C36.2762 12.1038 36.9824 11.5245 37.9649 11.2955Z" fill="white"/>
<path fill-rule="evenodd" clip-rule="evenodd" d="M52.2061 11.2956C53.4335 11.1739 54.545 11.4635 55.5406 12.1644C56.0352 12.6792 56.313 13.2932 56.3742 14.0065C55.7023 14.018 55.0308 14.0065 54.3596 13.9717C54.0824 13.1596 53.5036 12.8005 52.6229 12.8943C52.0704 12.843 51.5957 13.0052 51.1988 13.3809C51.0491 13.8571 51.1997 14.2162 51.6503 14.4583C52.8283 14.7914 54.0093 15.1158 55.1933 15.4314C56.4883 16.0495 56.9399 17.0574 56.5479 18.4551C56.0099 19.5248 55.1416 20.1389 53.9428 20.2971C52.8291 20.4934 51.7407 20.4007 50.6778 20.0191C49.5387 19.4929 48.983 18.6009 49.0105 17.343C49.6589 17.343 50.3073 17.343 50.9556 17.343C51.0123 18.1297 51.4291 18.6047 52.2061 18.7679C52.9509 18.9039 53.6687 18.8112 54.3596 18.4899C54.8681 17.9038 54.7987 17.3941 54.1512 16.9606C52.9212 16.624 51.6939 16.2765 50.4693 15.918C49.3379 15.3041 48.9327 14.3657 49.2536 13.1028C49.5687 12.3938 50.0898 11.8956 50.8167 11.6084C51.2822 11.4714 51.7454 11.3672 52.2061 11.2956Z" fill="white"/>
<path fill-rule="evenodd" clip-rule="evenodd" d="M67.42 11.2956C69.975 11.1889 71.4686 12.3937 71.9007 14.9101C72.1439 16.44 71.8431 17.8533 70.9976 19.1502C69.8972 20.3327 68.5655 20.6919 67.0031 20.2276C66.3729 20.0603 65.8519 19.7244 65.4401 19.2197C65.4053 20.5866 65.3937 21.9537 65.4053 23.3209C64.757 23.3209 64.1086 23.3209 63.4602 23.3209C63.4602 19.4051 63.4602 15.4893 63.4602 11.5736C64.0623 11.5736 64.6643 11.5736 65.2664 11.5736C65.2549 11.9219 65.2665 12.2695 65.3011 12.6163C65.4946 12.2604 65.7609 11.9708 66.1 11.7474C66.5313 11.5457 66.9712 11.3951 67.42 11.2956ZM67.1421 12.8943C68.7686 12.7944 69.7062 13.559 69.9556 15.1882C70.1279 16.2501 69.9195 17.2232 69.3304 18.1076C68.5176 18.8791 67.603 19.0297 66.5863 18.5594C65.8704 18.0657 65.4652 17.3822 65.3706 16.5088C65.2092 15.4862 65.3944 14.5362 65.9264 13.6589C66.256 13.2688 66.6612 13.0139 67.1421 12.8943Z" fill="white"/>
<path fill-rule="evenodd" clip-rule="evenodd" d="M84.0232 11.2955C85.7064 11.1265 87.0847 11.6826 88.1566 12.9638C89.0555 14.5638 89.1945 16.232 88.5734 17.9685C87.9246 19.3813 86.8249 20.1806 85.2736 20.3666C82.5317 20.61 80.8755 19.3936 80.3066 16.7173C80.0947 15.2735 80.3962 13.9528 81.2097 12.7553C81.9662 11.9078 82.904 11.4212 84.0232 11.2955ZM84.0926 12.8943C85.8092 12.8386 86.77 13.6727 86.9756 15.3967C87.1257 16.6386 86.7436 17.6697 85.8294 18.4899C84.3101 19.1879 83.1868 18.7825 82.4601 17.2734C82.0676 16.0967 82.16 14.9613 82.738 13.8674C83.086 13.3905 83.5376 13.0661 84.0926 12.8943Z" fill="white"/>
<path fill-rule="evenodd" clip-rule="evenodd" d="M40.1186 11.5736C40.7902 11.5736 41.4617 11.5736 42.1332 11.5736C42.1216 13.5664 42.1332 15.559 42.168 17.5515C42.3483 18.3616 42.8578 18.8018 43.6963 18.8722C44.6452 18.8618 45.2935 18.4215 45.6414 17.5515C45.7433 15.5624 45.7781 13.5697 45.7456 11.5736C46.4172 11.5736 47.0887 11.5736 47.7602 11.5736C47.7602 14.4467 47.7602 17.3198 47.7602 20.1929C47.1119 20.1929 46.4635 20.1929 45.8151 20.1929C45.8266 19.8214 45.815 19.4507 45.7804 19.0807C45.1676 19.9493 44.3224 20.3895 43.2447 20.4014C41.1716 20.3543 40.141 19.2885 40.1533 17.2039C40.1186 15.3273 40.107 13.4505 40.1186 11.5736Z" fill="white"/>
<path fill-rule="evenodd" clip-rule="evenodd" d="M73.3247 11.5736C73.9729 11.5736 74.6217 11.5736 75.2698 11.5736C75.2698 14.4467 75.2698 17.3198 75.2698 20.1929C74.6217 20.1929 73.9729 20.1929 73.3247 20.1929C73.3247 17.3198 73.3247 14.4467 73.3247 11.5736Z" fill="white"/>
<path fill-rule="evenodd" clip-rule="evenodd" d="M15.8042 13.3113C15.9547 13.8904 16.1399 14.4581 16.3599 15.0143C16.3213 15.041 16.2982 15.0757 16.2905 15.1186C14.6645 15.5138 13.0435 15.9308 11.4276 16.3698C11.4045 16.3466 11.3813 16.3234 11.3582 16.3003C12.7146 15.279 14.0809 14.2711 15.4568 13.2766C15.5997 13.1319 15.7155 13.1435 15.8042 13.3113Z" fill="#0A532B"/>
<path fill-rule="evenodd" clip-rule="evenodd" d="M19.1387 43.9654C13.3264 43.9654 7.51419 43.9654 1.7019 43.9654C1.7019 38.1266 1.7019 32.2877 1.7019 26.4489C7.51419 26.4489 13.3264 26.4489 19.1387 26.4489C19.1387 32.2877 19.1387 38.1266 19.1387 43.9654Z" fill="#21A56D"/>
<path fill-rule="evenodd" clip-rule="evenodd" d="M37.9649 43.9654C32.1526 43.9654 26.3404 43.9654 20.5281 43.9654C20.5281 38.1266 20.5281 32.2877 20.5281 26.4489C26.3404 26.4489 32.1526 26.4489 37.9649 26.4489C37.9649 32.2877 37.9649 38.1266 37.9649 43.9654Z" fill="#21A56D"/>
<path fill-rule="evenodd" clip-rule="evenodd" d="M56.8608 43.9654C51.0253 43.9654 45.1899 43.9654 39.3545 43.9654C39.3545 38.1266 39.3545 32.2877 39.3545 26.4489C45.1899 26.4489 51.0253 26.4489 56.8608 26.4489C56.8608 32.2877 56.8608 38.1266 56.8608 43.9654Z" fill="#21A56D"/>
<path fill-rule="evenodd" clip-rule="evenodd" d="M75.6868 43.9654C69.8743 43.9654 64.0623 43.9654 58.25 43.9654C58.25 38.1266 58.25 32.2877 58.25 26.4489C64.0623 26.4489 69.8743 26.4489 75.6868 26.4489C75.6868 32.2877 75.6868 38.1266 75.6868 43.9654Z" fill="#21A56D"/>
<path fill-rule="evenodd" clip-rule="evenodd" d="M94.5127 26.4489C94.5127 32.2877 94.5127 38.1266 94.5127 43.9654C88.7002 43.9654 82.8884 43.9654 77.0759 43.9654C77.0759 38.1266 77.0759 32.2877 77.0759 26.4489C82.8884 26.4489 88.7002 26.4489 94.5127 26.4489Z" fill="#21A56D"/>
<path fill-rule="evenodd" clip-rule="evenodd" d="M10.3858 29.4376C10.4286 29.4453 10.4634 29.4685 10.49 29.5071C10.9596 30.9358 11.4343 32.3607 11.9141 33.782C13.4655 33.8052 15.0171 33.8284 16.5685 33.8515C14.6588 35.2588 12.7368 36.649 10.8026 38.0221C11.5664 37.9093 12.319 37.7355 13.0603 37.5008C13.4551 38.6163 13.8372 39.7401 14.2066 40.8721C14.1834 40.9068 14.1602 40.9416 14.1371 40.9763C12.8885 40.0861 11.6496 39.1825 10.4205 38.2654C9.19138 39.1825 7.95246 40.0861 6.70389 40.9763C6.68073 40.9416 6.65757 40.9068 6.63442 40.8721C7.14425 39.4347 7.5958 37.9866 7.98907 36.5277C6.74407 35.6441 5.5052 34.7521 4.27246 33.8515C5.84693 33.8168 7.42158 33.8052 8.99638 33.8168C9.43181 32.3475 9.89496 30.8877 10.3858 29.4376Z" fill="#FEFEFE"/>
<path fill-rule="evenodd" clip-rule="evenodd" d="M29.2118 29.4377C29.2811 29.4356 29.3274 29.4704 29.3507 29.542C29.793 30.9507 30.2561 32.3525 30.7401 33.7474C32.2911 33.8053 33.8425 33.84 35.3946 33.8516C33.4848 35.2589 31.5628 36.6491 29.6286 38.0222C30.401 37.9044 31.1651 37.7306 31.9211 37.5009C32.312 38.6164 32.6825 39.7401 33.0326 40.8722C33.0095 40.9069 32.9863 40.9417 32.9631 40.9764C31.7332 40.0814 30.4943 39.201 29.2465 38.335C27.9987 39.201 26.7599 40.0814 25.5299 40.9764C25.9119 39.5905 26.3404 38.2003 26.8151 36.8058C26.8614 36.7132 26.8614 36.6204 26.8151 36.5278C25.5994 35.6357 24.3837 34.7436 23.168 33.8516C24.7193 33.8169 26.2707 33.8053 27.8224 33.8169C28.2855 32.3572 28.7486 30.8975 29.2118 29.4377Z" fill="#FEFEFE"/>
<path fill-rule="evenodd" clip-rule="evenodd" d="M48.038 29.4377C48.1072 29.4356 48.1536 29.4704 48.1769 29.542C48.6471 30.942 49.1103 32.3438 49.5663 33.7474C51.1173 33.8053 52.6687 33.84 54.2207 33.8516C52.3182 35.2687 50.3962 36.6589 48.4548 38.0222C49.2271 37.9044 49.9913 37.7306 50.7473 37.5009C51.1619 38.6413 51.5555 39.7882 51.9282 40.9417C51.8588 40.988 51.7893 40.988 51.7198 40.9417C50.5252 40.0549 49.3211 39.186 48.1074 38.335C46.9185 39.1649 45.7376 40.0106 44.5645 40.8722C44.477 40.9404 44.3844 40.9636 44.2866 40.9417C44.7375 39.5881 45.1891 38.2327 45.6413 36.8753C45.6876 36.7594 45.6876 36.6436 45.6413 36.5278C44.4256 35.6357 43.2099 34.7436 41.9941 33.8516C43.5462 33.84 45.0976 33.8053 46.6486 33.7474C47.126 32.3142 47.5891 30.8776 48.038 29.4377Z" fill="#FEFEFE"/>
<path fill-rule="evenodd" clip-rule="evenodd" d="M66.8641 29.4376C66.951 29.443 67.0088 29.4893 67.0378 29.5766C67.4968 30.9892 67.9483 32.4025 68.3925 33.8168C69.9444 33.8052 71.4956 33.8168 73.0469 33.8515C71.1483 35.2417 69.2492 36.6319 67.3504 38.0221C68.0969 37.8934 68.838 37.7196 69.5734 37.5008C69.9798 38.6279 70.3737 39.7632 70.7544 40.9068C70.7315 40.93 70.7079 40.9532 70.6849 40.9763C69.4388 40.104 68.1999 39.2236 66.9683 38.3349C65.7069 39.1979 64.4565 40.0784 63.217 40.9763C63.6174 39.5076 64.0689 38.0479 64.5717 36.5972C63.3115 35.6954 62.061 34.7802 60.8203 33.8515C62.3723 33.8399 63.9238 33.8052 65.4748 33.7473C65.9802 32.3227 66.4434 30.8861 66.8641 29.4376Z" fill="#FEFEFE"/>
<path fill-rule="evenodd" clip-rule="evenodd" d="M85.7598 29.4376C86.3128 30.8651 86.799 32.3248 87.2186 33.8168C88.7935 33.8052 90.3684 33.8168 91.9426 33.8515C90.0085 35.2247 88.0863 36.6149 86.1766 38.0221C86.929 37.9152 87.6695 37.7414 88.3996 37.5008C88.8727 38.6416 89.243 39.8001 89.5111 40.9763C88.2628 40.0861 87.0234 39.1825 85.7945 38.2654C84.5656 39.1825 83.3263 40.0861 82.0779 40.9763C82.055 40.9416 82.0314 40.9068 82.0084 40.8721C82.4579 39.4543 82.9206 38.041 83.3978 36.6319C82.1745 35.6719 80.924 34.7451 79.6465 33.8515C81.1977 33.8284 82.7497 33.8052 84.3009 33.782C84.7817 32.3318 85.2679 30.8836 85.7598 29.4376Z" fill="#FEFEFE"/>
</g>
<defs>
<clipPath id="clip0_95_854">
<rect width="94.5477" height="44" fill="white"/>
</clipPath>
</defs>
</svg>
