<svg width="62" height="48" viewBox="0 0 62 48" fill="none" xmlns="http://www.w3.org/2000/svg">
<path d="M57.1531 31.154C56.9809 30.6734 56.7786 30.2041 56.5473 29.7489L45.8248 5.35469C45.7234 5.11974 45.5782 4.90625 45.3969 4.72563C44.6308 3.95935 43.7212 3.35149 42.7202 2.93677C41.7191 2.52205 40.6461 2.30859 39.5626 2.30859C38.479 2.30859 37.4061 2.52205 36.405 2.93677C35.4039 3.35149 34.4944 3.95935 33.7283 4.72563C33.3428 5.11149 33.1259 5.6343 33.125 6.17969V12.625H24.875V6.17969C24.8752 5.90876 24.822 5.64044 24.7185 5.39006C24.615 5.13969 24.4632 4.91216 24.2717 4.72047C23.5056 3.95419 22.5961 3.34633 21.595 2.93161C20.5939 2.51689 19.521 2.30344 18.4374 2.30344C17.3539 2.30344 16.2809 2.51689 15.2798 2.93161C14.2788 3.34633 13.3692 3.95419 12.6031 4.72047C12.4218 4.9011 12.2766 5.11459 12.1752 5.34953L1.45274 29.7438C1.22144 30.1989 1.01909 30.6682 0.846876 31.1488C0.239727 32.8477 0.0113545 34.6587 0.177755 36.455C0.344156 38.2514 0.901307 39.9897 1.81018 41.5481C2.71905 43.1064 3.95766 44.4473 5.43924 45.4766C6.92082 46.5059 8.60954 47.1989 10.3871 47.5069C12.1647 47.8149 13.9881 47.7306 15.7296 47.2598C17.4712 46.7889 19.0887 45.943 20.4689 44.7813C21.8491 43.6196 22.9587 42.1701 23.7198 40.5345C24.4809 38.8988 24.8752 37.1166 24.875 35.3125V16.75H33.125V35.3125C33.1241 37.1168 33.5177 38.8994 34.2783 40.5355C35.0389 42.1717 36.1481 43.6217 37.5281 44.784C38.9082 45.9463 40.5257 46.7927 42.2673 47.2641C44.0089 47.7354 45.8325 47.8202 47.6104 47.5125C49.3882 47.2048 51.0773 46.5121 52.5592 45.4829C54.0411 44.4536 55.28 43.1128 56.1892 41.5543C57.0983 39.9958 57.6557 38.2574 57.8222 36.4608C57.9887 34.6643 57.7603 32.853 57.1531 31.154ZM15.7768 7.4043C16.4644 6.82531 17.3224 6.4868 18.2201 6.44026C19.1178 6.39372 20.0062 6.64171 20.75 7.14649V26.0983C19.1397 24.6523 17.1777 23.655 15.0605 23.2061C12.9434 22.7573 10.7455 22.8727 8.68695 23.5408L15.7768 7.4043ZM12.5 43.5625C10.8683 43.5625 9.27325 43.0787 7.91655 42.1721C6.55984 41.2656 5.50242 39.9771 4.878 38.4697C4.25357 36.9622 4.0902 35.3034 4.40852 33.703C4.72685 32.1027 5.51259 30.6327 6.66637 29.4789C7.82015 28.3251 9.29016 27.5394 10.8905 27.221C12.4908 26.9027 14.1496 27.0661 15.6571 27.6905C17.1646 28.3149 18.4531 29.3724 19.3596 30.7291C20.2661 32.0858 20.75 33.6808 20.75 35.3125C20.75 37.5005 19.8808 39.599 18.3336 41.1461C16.7865 42.6933 14.688 43.5625 12.5 43.5625ZM37.25 7.14391C37.9938 6.63913 38.8822 6.39114 39.7799 6.43768C40.6776 6.48422 41.5356 6.82273 42.2232 7.40172L49.313 23.5356C47.2543 22.8679 45.0563 22.7529 42.9391 23.2022C40.8219 23.6515 38.86 24.6493 37.25 26.0957V7.14391ZM45.5 43.5625C43.8683 43.5625 42.2733 43.0787 40.9165 42.1721C39.5598 41.2656 38.5024 39.9771 37.878 38.4697C37.2536 36.9622 37.0902 35.3034 37.4085 33.703C37.7268 32.1027 38.5126 30.6327 39.6664 29.4789C40.8202 28.3251 42.2902 27.5394 43.8905 27.221C45.4908 26.9027 47.1496 27.0661 48.6571 27.6905C50.1646 28.3149 51.4531 29.3724 52.3596 30.7291C53.2661 32.0858 53.75 33.6808 53.75 35.3125C53.75 37.5005 52.8808 39.599 51.3336 41.1461C49.7865 42.6933 47.688 43.5625 45.5 43.5625Z" fill="#14C88C"/>
</svg>
