<svg width="60" height="56" viewBox="0 0 60 56" fill="none" xmlns="http://www.w3.org/2000/svg">
<path d="M51.2009 17.4397C54.063 23.4256 54.6063 30.2595 52.726 36.6224C50.8458 42.9853 46.6752 48.4262 41.0192 51.895C35.3633 55.3638 28.6229 56.6146 22.099 55.4059C15.5751 54.1973 9.7301 50.6149 5.69217 45.3501C1.65423 40.0854 -0.290427 33.5116 0.233514 26.8974C0.757456 20.2831 3.71285 14.0974 8.52932 9.53412C13.3458 4.97078 19.6819 2.35331 26.3147 2.18686C32.9475 2.02041 39.4069 4.31679 44.4462 8.6328L50.2908 2.78561C50.6778 2.3986 51.2027 2.18119 51.7501 2.18119C52.2974 2.18119 52.8223 2.3986 53.2093 2.78561C53.5963 3.17262 53.8137 3.69752 53.8137 4.24483C53.8137 4.79215 53.5963 5.31704 53.2093 5.70405L28.4593 30.4541C28.0723 30.8411 27.5474 31.0585 27.0001 31.0585C26.4527 31.0585 25.9278 30.8411 25.5408 30.4541C25.1538 30.067 24.9364 29.5421 24.9364 28.9948C24.9364 28.4475 25.1538 27.9226 25.5408 27.5356L32.6874 20.3891C30.7506 19.1081 28.4382 18.5183 26.1244 18.7152C23.8107 18.912 21.6312 19.884 19.9386 21.4737C18.246 23.0634 17.1395 25.1779 16.7982 27.4747C16.4569 29.7716 16.9007 32.1164 18.0579 34.1296C19.215 36.1428 21.0178 37.7066 23.1743 38.5677C25.3307 39.4288 27.7147 39.537 29.9403 38.8746C32.1659 38.2122 34.1028 36.8181 35.4375 34.9179C36.7722 33.0178 37.4265 30.7228 37.2945 28.4044C37.2793 28.1336 37.3175 27.8624 37.4071 27.6063C37.4967 27.3503 37.6358 27.1143 37.8166 26.9121C37.9973 26.7098 38.2161 26.545 38.4605 26.4273C38.7049 26.3096 38.9701 26.2412 39.241 26.2259C39.788 26.1952 40.3248 26.3829 40.7334 26.748C40.9357 26.9287 41.1004 27.1476 41.2181 27.392C41.3358 27.6364 41.4043 27.9016 41.4195 28.1724C41.6075 31.4538 40.6703 34.7011 38.7627 37.3777C36.8551 40.0542 34.0914 41.9998 30.9282 42.8928C27.7651 43.7858 24.392 43.5728 21.3663 42.2889C18.3407 41.0051 15.8436 38.7273 14.2879 35.8321C12.7322 32.9368 12.2109 29.5974 12.8102 26.3657C13.4095 23.1341 15.0936 20.2036 17.5841 18.0588C20.0745 15.9139 23.2223 14.683 26.5071 14.5695C29.7919 14.456 33.0171 15.4667 35.6497 17.4345L41.5149 11.5693C37.2167 8.00064 31.7515 6.14584 26.169 6.36115C20.5865 6.57646 15.2805 8.84669 11.2698 12.7358C7.25924 16.6249 4.82691 21.8587 4.44002 27.4319C4.05314 33.0051 5.73898 38.5247 9.17376 42.9307C12.6085 47.3366 17.5501 50.3182 23.0492 51.3028C28.5484 52.2874 34.2174 51.2055 38.9675 48.265C43.7176 45.3245 47.2139 40.7326 48.7847 35.3714C50.3555 30.0102 49.8902 24.2576 47.4781 19.2186C47.2422 18.7249 47.2121 18.1577 47.3944 17.6419C47.5766 17.126 47.9564 16.7036 48.4501 16.4677C48.9437 16.2318 49.5109 16.2017 50.0268 16.384C50.5427 16.5663 50.965 16.946 51.2009 17.4397Z" fill="#14C88C"/>
</svg>
