<svg width="278" height="278" viewBox="0 0 278 278" fill="none" xmlns="http://www.w3.org/2000/svg">
<path opacity="0.917" fill-rule="evenodd" clip-rule="evenodd" d="M160.447 39.9082C163.71 39.818 166.968 39.9085 170.221 40.1797C203.208 48.879 236.149 57.7474 269.041 66.7852C274.326 71.9787 273.965 76.684 267.955 80.9024C266.739 81.4328 265.472 81.7043 264.154 81.7168C264.154 90.5851 264.154 99.454 264.154 108.322C269.659 109.391 273.189 112.649 274.742 118.096C275.968 123.53 274.792 128.326 271.213 132.484C272.706 135.333 273.882 138.319 274.742 141.443C275.104 150.131 275.104 158.818 274.742 167.506C273.566 170.13 271.665 172.03 269.041 173.207C263.973 173.569 258.905 173.569 253.838 173.207C250.671 172.212 248.589 170.13 247.594 166.963C247.232 158.818 247.232 150.674 247.594 142.529C248.24 139.157 249.416 135.99 251.123 133.027C245.311 126.593 244.859 119.806 249.766 112.666C251.675 110.666 253.938 109.218 256.553 108.322C257.277 100.178 257.277 92.0332 256.553 83.8887C248.77 86.0606 240.987 88.2324 233.205 90.4043C232.753 105.423 232.481 120.445 232.391 135.471C223.807 141.354 214.486 145.788 204.428 148.773C193.927 151.76 183.248 153.751 172.393 154.746C184.582 159.845 196.708 165.094 208.771 170.492C212.025 173.107 214.107 176.456 215.016 180.537C216.581 202.268 208.708 219.733 191.396 232.934C188.338 234.799 185.081 236.247 181.623 237.277C178.139 237.75 174.7 237.568 171.307 236.734C154.036 224.261 136.842 211.682 119.725 198.998C118.688 199.459 117.602 199.64 116.467 199.541C115.923 208.052 115.29 216.558 114.566 225.061C113.506 228.336 111.424 229.15 108.322 227.504C105.698 224.518 103.073 221.531 100.449 218.545C97.0584 221.011 93.5291 223.273 89.8613 225.332C87.1356 225.784 85.5067 224.607 84.9746 221.803C86.5351 213.276 88.164 204.769 89.8613 196.283C87.5586 195.359 85.4774 194.092 83.6172 192.482C77.2134 197.618 70.9693 202.957 64.8848 208.5C62.0412 210.637 59.7792 210.184 58.0977 207.143C58.3572 202.996 58.3572 198.834 58.0977 194.654C54.2332 193.62 50.3419 192.625 46.4238 191.668C44.0441 190.084 43.6821 188.093 45.3379 185.695C52.3532 180.966 59.3215 176.17 66.2422 171.307C66.4187 170.192 66.2373 169.106 65.6992 168.049C46.723 159.428 27.6285 151.012 8.41602 142.801C5.36297 140.594 3.46258 137.608 2.71485 133.842C2.33275 110.988 11.2917 92.7983 29.5918 79.2734C35.0594 75.622 40.8511 74.8977 46.9668 77.1016C63.2108 89.339 79.5905 101.375 96.1055 113.209C96.8874 112.857 97.7018 112.676 98.5488 112.666C98.7296 105.237 98.5483 97.8158 98.0059 90.4043C85.592 87.2106 73.2845 83.6813 61.084 79.8164C58.0412 76.4516 57.5889 72.741 59.7266 68.6856C60.6664 67.5361 61.8431 66.7216 63.2559 66.2422C95.7878 57.7035 128.185 48.9253 160.447 39.9082ZM162.076 46.9668C166.729 46.6774 171.254 47.3109 175.65 48.8672C205.805 56.8396 235.849 65.0743 265.783 73.5723C264.044 74.6658 262.143 75.3896 260.082 75.7442C229.574 72.8968 199.078 70.0006 168.592 67.0567C164.643 68.3397 163.919 70.6017 166.42 73.8438C191.189 76.3914 215.984 78.7446 240.807 80.9024C215.792 87.7215 190.724 94.3278 165.605 100.721C132.344 92.1679 99.132 83.3897 65.9707 74.3867C65.7226 74.1619 65.5412 73.8905 65.4277 73.5723C97.6258 64.528 129.842 55.6597 162.076 46.9668ZM39.9082 83.3457C41.6215 82.5503 43.1599 82.9119 44.5234 84.4317C46.0491 86.8375 46.6825 89.4617 46.4238 92.3047C44.6277 108.024 37.9311 121.236 26.334 131.941C23.0841 134.914 19.2833 136.815 14.9316 137.643C12.6196 137.412 10.9907 136.236 10.0449 134.113C15.4234 134.552 20.1291 132.923 24.1621 129.227C33.3803 120.477 39.4435 109.889 42.3516 97.4629C42.7136 94.2051 42.7136 90.9473 42.3516 87.6895C41.9421 85.9607 41.1276 84.5126 39.9082 83.3457ZM32.8496 87.6895C34.159 87.4924 34.9734 88.0353 35.293 89.3184C34.8412 103.345 29.321 115.019 18.7324 124.34C16.7649 125.87 14.593 126.776 12.2168 127.055C11.877 126.647 11.6055 126.195 11.4023 125.697C11.8509 111.676 17.3712 100.002 27.9629 90.6758C29.6264 89.6664 31.2554 88.6712 32.8496 87.6895ZM53.4824 90.9473C65.5847 99.7922 77.53 108.841 89.3184 118.096C88.2123 120.763 86.7642 123.207 84.9746 125.426C69.9957 127.649 65.109 135.884 70.3145 150.131C68.9304 153.443 67.3917 156.701 65.6992 159.904C51.98 153.945 38.3152 147.881 24.7051 141.715C38.5677 132.203 47.7077 119.263 52.125 102.893C53.1751 98.9794 53.6276 94.9978 53.4824 90.9473ZM105.607 92.5762C123.019 97.0198 140.394 101.635 157.732 106.422C163.566 108.167 169.357 107.986 175.107 105.879C191.907 101.274 208.739 96.8396 225.604 92.5762C225.694 105.609 225.604 118.64 225.332 131.67C202.594 144.688 178.251 149.484 152.303 146.059C151.613 142.326 149.802 139.249 146.873 136.828C144.298 135.677 141.855 134.32 139.543 132.756C138.365 128.68 136.917 124.698 135.199 120.811C129.829 115.194 123.585 114.017 116.467 117.281C115.2 117.643 113.933 117.643 112.666 117.281C110.494 116.015 108.322 114.747 106.15 113.48C105.613 106.555 105.433 99.5875 105.607 92.5762ZM258.725 114.838C266.928 115.135 269.552 119.118 266.598 126.783C263.599 129.741 260.25 130.194 256.553 128.141C252.115 122.907 252.838 118.473 258.725 114.838ZM98.5488 119.725C100.188 119.635 101.816 119.726 103.436 119.996C109.643 125.195 116.43 126.009 123.797 122.439C126.797 122.671 128.969 124.119 130.313 126.783C130.746 134.627 134.637 139.786 141.986 142.258C144.367 144.153 145.363 146.597 144.973 149.588C142.768 152.549 141.139 155.807 140.086 159.361C139.724 160.99 139.724 162.619 140.086 164.248C140.78 166.6 141.413 168.952 141.986 171.307C141.7 174.214 140.252 176.295 137.643 177.551C132.03 177.957 127.596 180.4 124.34 184.881C123.446 188.417 121.365 190.86 118.096 192.211C117.01 192.573 115.924 192.573 114.838 192.211C112.304 190.763 109.77 189.315 107.236 187.867C105.71 187.526 104.172 187.254 102.621 187.053C99.4366 187.722 96.2694 188.447 93.1191 189.225C90.2251 188.957 88.1439 187.509 86.875 184.881C86.2549 176.658 82.0019 171.319 74.1152 168.863C73.0977 167.371 72.3739 165.742 71.9434 163.977C73.8736 160.401 75.5932 156.69 77.1016 152.846C77.4637 151.036 77.4637 149.226 77.1016 147.416C73.1118 138.655 75.9168 133.859 85.5176 133.027C90.3647 131.039 93.5318 127.51 95.0195 122.439C95.9996 121.177 97.1762 120.272 98.5488 119.725ZM257.639 136.014C259.877 136.724 262.14 136.724 264.426 136.014C265.918 137.94 267.004 140.112 267.684 142.529C268.483 149.752 268.664 156.992 268.227 164.248C267.974 165.025 267.521 165.658 266.869 166.148C263.068 166.511 259.268 166.511 255.467 166.148C255.195 165.877 254.924 165.605 254.652 165.334C254.29 158.095 254.29 150.855 254.652 143.615C255.202 140.891 256.197 138.357 257.639 136.014ZM105.607 139.814C115.119 139.18 121.363 143.342 124.34 152.303C125.462 163.996 120.213 170.693 108.594 172.393C100.322 171.616 95.0733 167.272 92.8477 159.361C91.7943 149.333 96.0479 142.818 105.607 139.814ZM151.217 153.389C168.96 161.024 186.697 168.716 204.428 176.465C207.684 179.533 209.133 183.334 208.771 187.867C207.386 202.583 201.232 214.891 190.311 224.789C186.615 227.95 182.361 229.85 177.551 230.49C175.673 230.617 173.953 230.164 172.393 229.133C157.189 217.73 141.986 206.328 126.783 194.926C128.64 191.936 130.631 189.039 132.756 186.238C147.279 183.8 151.985 175.656 146.873 161.805C147.034 160.78 147.305 159.784 147.688 158.818C149.199 157.218 150.375 155.409 151.217 153.389ZM71.4004 176.193C77.2313 177.224 79.8555 180.663 79.2734 186.51C74.7885 190.246 70.3546 194.047 65.9707 197.912C65.5206 195.215 65.2491 192.5 65.1563 189.768C64.666 189.115 64.0329 188.663 63.2559 188.41C61.084 187.867 58.9121 187.324 56.7402 186.781C61.7252 183.326 66.612 179.797 71.4004 176.193ZM101.807 194.111C104.637 194.314 107.08 195.4 109.137 197.369C109.226 203.721 108.864 210.055 108.051 216.373C106.311 214.815 104.773 213.096 103.436 211.215C102.621 210.943 101.807 210.672 100.992 210.4C98.519 211.32 96.2564 212.586 94.2051 214.201C94.0243 213.93 93.8429 213.658 93.6621 213.387C94.9234 207.533 96.0094 201.651 96.9199 195.74C98.6411 195.325 100.27 194.782 101.807 194.111Z" fill="#7659FF" fill-opacity="0.07"/>
<path opacity="0.909" fill-rule="evenodd" clip-rule="evenodd" d="M104.521 132.756C118.459 131.774 127.418 137.928 131.398 151.217C132.999 164.985 127.298 174.125 114.295 178.637C99.5565 180.724 90.0546 174.661 85.789 160.447C84.4419 145.976 90.6861 136.745 104.521 132.756ZM105.607 139.814C96.0479 142.818 91.7943 149.333 92.8476 159.361C95.0733 167.272 100.322 171.616 108.594 172.393C120.213 170.693 125.462 163.996 124.34 152.303C121.363 143.342 115.119 139.18 105.607 139.814Z" fill="#7659FF" fill-opacity="0.07"/>
</svg>
