<svg width="1530" height="150" viewBox="0 0 1530 150" fill="none" xmlns="http://www.w3.org/2000/svg">
<rect width="1530" height="149" fill="#FCFEFE"/>
<g opacity="0.5" clip-path="url(#clip0_300_658)">
<mask id="mask0_300_658" style="mask-type:luminance" maskUnits="userSpaceOnUse" x="1" y="-306" width="1527" height="1018">
<path d="M1527 -306H1V712H1527V-306Z" fill="white"/>
</mask>
<g mask="url(#mask0_300_658)">
<path d="M1527 -306H1V712H1527V-306Z" fill="white" fill-opacity="0.08"/>
</g>
<mask id="mask1_300_658" style="mask-type:luminance" maskUnits="userSpaceOnUse" x="1" y="-306" width="1527" height="1018">
<path d="M1527 -306H1V712H1527V-306Z" fill="white"/>
</mask>
<g mask="url(#mask1_300_658)">
<path d="M83.9391 478.228C151.763 335.955 178.563 144.485 351.152 127.985C379.536 125.271 409.754 132.619 430.547 152.142C483.149 201.532 432.254 274.459 410.452 325.174C402.963 342.594 395.418 362.421 402.745 379.91C410.161 397.609 430.005 406.117 448.248 412.042C492.643 426.463 538.687 435.786 585.19 439.77C623.291 443.036 661.892 442.759 699.257 450.903C736.622 459.047 773.722 476.992 795.149 508.689C832.259 563.588 809.448 633.457 825.868 694.081C840.711 748.884 883.154 793.723 892.725 850.022C903.025 910.608 866.34 966.594 813.485 993.915C788.679 1006.74 760.6 1013.85 732.744 1011.93C676.737 1008.08 632.734 969.405 582.53 948.717C525.865 925.366 465.215 909.885 403.602 910.891C301.374 912.56 198.224 944.731 96.7596 918.192C-50.8758 879.575 -135.945 699.328 1.10583 591.568C36.8102 563.496 62.4348 523.334 83.9391 478.228Z" fill="#FFF5F2" fill-opacity="0.08"/>
<path d="M346.531 -216.469C362.497 -196.999 386.529 -183.472 420.088 -180.08C451.762 -176.879 483.165 -186.782 514.894 -189.405C617.612 -197.897 639.267 -74.1099 663.455 1.84308C706.179 136.005 789.513 219.626 937.691 197.773C985.724 190.69 1024.86 167.309 1016.69 112.097C1012.24 82.0615 996.145 55.17 986.645 26.3321C977.907 -0.192932 973.825 -46.0701 1002.21 -62.7409C1019.75 -73.039 1041.76 -65.9415 1061.55 -61.2404C1093.55 -53.6359 1137 -45.9642 1165.41 -67.6965C1186.09 -83.5101 1192.3 -111.363 1198.84 -136.57C1217.63 -209.044 1278.88 -217.408 1342.42 -231.721C1388.8 -242.176 1424.26 -272.889 1419.59 -324.163C1415.54 -368.575 1386.18 -423.827 1355.66 -456.202C1334.93 -478.199 1305.25 -493.913 1275.23 -490.451C1251.73 -487.744 1231.23 -474.017 1210.17 -463.23C1104.8 -409.258 976.804 -427.069 864.61 -464.83C813.475 -482.041 763.107 -503.219 709.67 -510.643C620.534 -523.023 531.122 -496.254 445.103 -469.792C423.82 -463.244 401.919 -456.369 384.826 -442.078C324.418 -391.575 297.61 -276.128 346.531 -216.469Z" fill="#FFF5F2" fill-opacity="0.08"/>
<path d="M989.708 583.054C983.821 571.679 978.493 560.391 973.752 549.37C967.357 534.505 962.264 518.358 964.543 502.335C970.671 459.243 1012.65 456.539 1046.87 454.468C1062.61 453.515 1079.2 450.433 1090.91 439.85C1114.9 418.158 1105.26 383.135 1098.54 356.117C1090.47 323.647 1085.75 289.791 1090.69 256.695C1098.73 202.902 1133.3 157.326 1178.12 128.02C1213.8 104.686 1290.26 70.8615 1330.34 99.6546C1378.39 134.181 1349.4 227.705 1345.18 275.913C1343.68 293.052 1342.49 311.592 1351.66 326.145C1361.16 341.224 1379.56 348.171 1397.17 350.866C1477.37 363.146 1554.99 316.326 1635.3 314.699C1756.84 312.24 1887.48 432.245 1800.65 551.294C1786.2 571.115 1766.31 587.814 1758.38 611.037C1754.51 622.392 1753.81 634.547 1751.52 646.325C1723.8 788.552 1546.62 795.59 1431.73 791.553C1279.2 786.194 1126.36 781.943 1028.61 646.927C1013.99 626.722 1001.17 605.202 989.708 583.054Z" fill="#FFF5F2" fill-opacity="0.08"/>
<path d="M29.6949 303.127C43.9437 263.864 46.2795 220.451 65.2609 183.247C86.1427 142.319 125.715 113.027 168.913 97.4355C214.913 80.834 265.037 78.3948 311.159 62.1414C357.28 45.8881 402.147 9.09961 404.483 -39.7766C406.576 -83.5648 373.45 -122.092 335.365 -143.755C297.28 -165.42 253.643 -174.979 213.322 -192.122C197.404 -198.89 181.674 -207.081 169.741 -219.604C110.813 -281.44 176.533 -400.316 118.596 -463.081C98.4829 -484.869 66.7991 -493.695 37.3514 -490.317C7.90364 -486.941 -19.4097 -472.569 -42.5988 -454.094C-109.596 -400.711 -144.503 -309.771 -130.441 -225.234C-121.475 -171.325 -94.2977 -120.353 -95.1075 -65.7091C-96.0434 -2.47913 -133.88 53.2767 -167.08 107.084C-200.279 160.889 -231.174 223.425 -216.585 284.953C-188.352 404.039 -12.6506 419.812 29.6949 303.127Z" fill="#FFF5F2" fill-opacity="0.08"/>
<path d="M1453.22 -145.427C1426.02 -124.945 1392.6 -114.449 1363.98 -95.9968C1335.37 -77.5446 1310.34 -45.9886 1315.99 -12.3946C1323.09 29.8422 1372.44 49.8052 1415.05 53.8691C1457.66 57.9329 1504.53 55.168 1538.51 81.2125C1562.48 99.5874 1574.98 128.867 1593.48 152.749C1611.98 176.634 1643.78 196.381 1671.34 184.024C1696.59 172.704 1704.46 141.319 1709.27 114.057C1717.19 69.1778 1724.9 21.7247 1708.88 -20.9356C1694.37 -59.583 1661.17 -91.7232 1658.29 -132.907C1656.24 -162.289 1670.27 -190.135 1676.1 -219.002C1687.5 -275.352 1616.33 -454.738 1538.63 -386.294C1512.05 -362.878 1513.27 -307.144 1510.54 -275.34C1506.23 -225.136 1495.95 -177.596 1453.22 -145.427Z" fill="#FFF5F2" fill-opacity="0.08"/>
</g>
<mask id="mask2_300_658" style="mask-type:luminance" maskUnits="userSpaceOnUse" x="1" y="-306" width="1527" height="1018">
<path d="M1527 -306H1V712H1527V-306Z" fill="white"/>
</mask>
<g mask="url(#mask2_300_658)">
<path d="M850.803 -318.159C825.724 -287.303 797.678 -252.388 808.256 -211.031C811.99 -196.431 824.875 -172.752 806.586 -162.822C790.556 -154.118 753.53 -168.619 736.827 -169.918C696.948 -173.021 642.128 -165.223 604.094 -152.422C582.746 -145.237 573.421 -129.827 555.909 -117.758C537.576 -105.122 513.718 -103.373 492.415 -99.8916C447.225 -92.5071 415.877 -125.044 370.709 -125.028C356.332 -125.024 279.259 -105.983 286.783 -82.6141C291.921 -66.658 314.033 -76.7281 318.616 -59.8496C325.405 -34.8353 296.739 -37.7875 283.312 -38.8381C268.785 -39.9742 245.577 -39.1618 235.935 -25.0523C220.716 -2.7785 245.591 6.46493 262.957 13.7742C299.243 29.0462 318.443 63.0637 345.907 90.6047C373.983 118.758 418.135 129.857 457.087 119.695C476.227 114.701 493.292 103.682 511.551 96.4419C529.895 89.1672 547.461 87.7197 566.682 84.1444C586.209 80.5122 604.34 72.4843 623.875 68.5792C641.155 65.1241 680.746 51.9878 695.784 60.2499C722.139 74.732 682.63 127.672 673.378 143.864C657.064 172.415 632.774 216.238 653.888 250.262C674.91 284.141 725.168 260.427 743.702 239.449C769.626 210.106 811.654 198.327 835.964 166.562C851.251 146.587 849.448 126.52 849.489 102.527C849.531 77.7208 854.166 52.9346 853.595 28.2318C852.703 -10.3219 824.037 -67.4134 845.726 -101.374C857.908 -120.447 876.855 -135.994 889.331 -155.629C899.977 -172.383 922.173 -190.978 929.797 -207.901C938.458 -227.131 923.599 -239.657 914.624 -255.391C901.666 -278.107 909.762 -295.445 916.688 -319.208" stroke="#826A62" stroke-opacity="0.08" stroke-width="1.5" stroke-miterlimit="10" stroke-linecap="round" stroke-linejoin="round"/>
<path d="M-19.3202 324.394C3.17712 330.983 31.8354 344.84 55.0815 342.106C81.5362 338.992 101.108 323.338 129.16 324.58C153.48 325.657 184.295 326.579 204.876 340.682C225.861 355.061 226.535 375.154 237.282 396.013C248.027 416.869 270.408 426.341 284.492 444.907C297.565 462.14 305.274 483.791 318.896 500.413C334.822 519.844 355.952 519.356 378.919 522.401C408.033 526.262 435.727 536.305 465.535 534.133C494.144 532.048 522.587 527.43 551.353 525.236C572.786 523.601 594.158 515.852 586.144 489.952C572.656 446.357 485.554 439.801 451.129 430.651C425.454 423.826 418.68 399.061 407.648 377.683C393.858 350.958 379.873 324.706 367.529 297.238C356.635 272.998 343.025 249.938 332.331 225.785C323.704 206.296 323.397 177.9 308.025 162.241C271.051 124.577 193.304 147.922 152.615 162.284C124.952 172.049 104.27 177.931 75.9409 169.19C43.1176 159.065 14.9253 148.907 -19.3202 144.398" stroke="#826A62" stroke-opacity="0.08" stroke-width="1.5" stroke-miterlimit="10" stroke-linecap="round" stroke-linejoin="round"/>
<path d="M1546.27 434.277C1504.3 391.177 1436.87 398.549 1406.35 345.923C1390.8 319.095 1386.98 293.516 1389.53 262.932C1392.06 232.626 1400.83 208.513 1385.56 180.239C1372.72 156.451 1355.47 127.397 1337.22 107.373C1308.51 75.8862 1290.33 85.6855 1254.92 95.7861C1233.3 101.953 1202.02 95.1448 1185.22 113.375C1168.08 131.982 1176.69 164.183 1194.79 179.032C1215.34 195.89 1246.35 185.301 1253.02 216.906C1257.98 240.43 1244.31 271.456 1233.47 291.442C1218.94 318.221 1197.73 338.113 1210.61 370.086C1219.35 391.802 1236.83 409.135 1246.57 430.73C1260.13 460.768 1261.83 469.512 1293.28 480.908C1320.5 490.77 1336.28 508.245 1358.46 525.773C1411.7 567.853 1481.71 579.238 1547.32 588.111" stroke="#826A62" stroke-opacity="0.08" stroke-width="1.5" stroke-miterlimit="10" stroke-linecap="round" stroke-linejoin="round"/>
<path d="M-19.3202 50.2106C13.5112 53.5781 31.9147 37.3146 55.9747 18.4897C71.4931 6.34702 93.1541 -3.3871 96.5927 -25.044C99.5654 -43.7671 81.231 -78.7212 68.7381 -92.4071C44.784 -118.653 11.68 -108.864 -19.3202 -104.672" stroke="#826A62" stroke-opacity="0.08" stroke-width="1.5" stroke-miterlimit="10" stroke-linecap="round" stroke-linejoin="round"/>
<path d="M1547.32 113C1528.42 119.469 1500.39 123.083 1490.92 143.209C1482.19 161.757 1489.99 191.083 1489.66 210.566C1489.33 230.107 1480.72 255.52 1489.31 274.168C1498.83 294.821 1528.4 307.383 1546.27 319.162" stroke="#826A62" stroke-opacity="0.08" stroke-width="1.5" stroke-miterlimit="10" stroke-linecap="round" stroke-linejoin="round"/>
<path d="M1459.96 -111.244C1449.01 -108.903 1439.43 -101.455 1430.25 -95.4957C1417.59 -87.2805 1407.42 -77.1249 1404.14 -61.9526C1400.83 -46.6338 1403.31 -30.7143 1404.89 -15.3425C1408.05 15.505 1419.68 73.9239 1463.31 65.3544C1505.31 57.1065 1491.59 -8.08413 1492.96 -38.221C1493.87 -58.1718 1499.55 -84.7823 1486.42 -102.058C1481.24 -108.874 1472.6 -112.608 1464.07 -111.865C1462.68 -111.743 1461.31 -111.533 1459.96 -111.244Z" stroke="#826A62" stroke-opacity="0.08" stroke-width="1.5" stroke-miterlimit="10" stroke-linecap="round" stroke-linejoin="round"/>
<path d="M578.912 136.05C566.56 134.835 552.523 139.68 541.163 141.197C514.377 144.772 487.525 148.099 460.894 152.725C434.467 157.314 394.38 150.186 387.776 184.02C382.148 212.85 407.823 253.623 419.677 278.269C433.69 307.4 452.885 358.153 482.872 373.305C497.375 380.633 515.4 382.316 530.689 388.233C547.945 394.911 564.489 404.051 582.988 406.826C595.137 408.648 622.778 408.438 633.142 398.399C648.476 383.546 634.878 366.46 628.239 349.916C614.617 315.971 609.754 278.328 605.796 242.087C603.343 219.612 608.865 196.78 606.621 174.152C605.601 163.878 603.556 152.041 596.219 144.198C591.316 138.955 585.342 136.681 578.912 136.05Z" stroke="#826A62" stroke-opacity="0.08" stroke-width="1.5" stroke-miterlimit="10" stroke-linecap="round" stroke-linejoin="round"/>
<path d="M1008.72 -319.206C1000.65 -288.908 1022.77 -265.811 1027.37 -237.558C1031.53 -211.914 1032.15 -182.741 1020.26 -159.207C1008.84 -136.625 990.09 -118.69 978.486 -95.9826C962.765 -65.2105 951.535 -59.3305 925.166 -37.0893C905.346 -20.3717 895.649 -2.9333 903.57 22.8893C912.514 52.0529 929.86 54.1989 951.897 68.6891C1004.32 103.163 901.364 152.703 968.71 184.776C997.089 198.291 1000.5 166.651 1019.56 152.063C1035.87 139.591 1062.19 137.595 1081.92 140.106C1108.66 143.508 1110.48 157.56 1116.93 181.555C1123.62 206.463 1141.54 220.259 1149.86 243.553C1159.56 270.74 1148.56 276.669 1134.78 296.577C1115.75 324.081 1118.39 345.63 1138.52 369.889C1156.95 392.104 1178.07 410.65 1197.88 431.303C1219.08 453.403 1216.5 484.546 1234.63 507.767C1252.17 530.238 1287 521.892 1311.87 533.508C1339.96 546.632 1360.09 569.6 1385.98 585.676C1409.36 600.193 1436.15 597.86 1461.49 606.458C1492.95 617.132 1517.33 640.998 1547.32 653.001" stroke="#826A62" stroke-opacity="0.08" stroke-width="1.5" stroke-miterlimit="10" stroke-linecap="round" stroke-linejoin="round"/>
<path d="M952.247 -319.206C950.243 -304.669 945.328 -287.24 947.895 -273.054C950.748 -257.297 962.738 -244.399 967.754 -229.43C980.546 -191.251 953.405 -180.069 928.562 -158.793C907.619 -140.858 882.088 -111.387 873.355 -84.5932C860.801 -46.0741 867.563 1.5418 869.868 41.0606C871.831 74.7034 883.767 117.207 875.467 150.092C868.828 176.396 824.308 196.825 829.282 222.839C834.88 252.108 873.357 248.95 863.758 289.18C855.314 324.572 840.497 335.432 877.05 359.2C903.354 376.304 921.819 384.393 936.485 413.376C949.269 438.64 988.092 464.937 990.133 493.743C992.587 528.375 950.16 534.29 926.141 543.659C889.248 558.054 860.295 574.032 828.808 597.491C808.12 612.904 787.407 633.296 770.499 606.873C750.828 576.129 735.285 548.784 704.104 526.704C674.068 505.433 649.194 510.12 637.93 546.046C629.606 572.593 621.988 604.289 585.832 592.959C570.253 588.077 559.131 573.943 543.733 568.368C526.929 562.285 513.5 565.215 496.533 569.307C464.29 577.086 411.569 576.129 385.29 597.638C371.509 608.915 363.685 625.94 348.902 637.026C333.255 648.758 316.797 660.715 300.621 671.803C278.006 687.305 227.458 692.019 226.447 725.212" stroke="#E26B43" stroke-opacity="0.08" stroke-width="1.5" stroke-miterlimit="10" stroke-linecap="round" stroke-linejoin="round"/>
<path d="M1076.7 -318.159C1086.66 -296.561 1109.17 -278.744 1114.18 -255.361C1120.61 -225.33 1096.68 -212.251 1085.96 -188.784C1075.94 -166.838 1088.82 -143.134 1080.43 -120.944C1071.88 -98.3262 1050.17 -91.6318 1033.5 -76.8077C1009.13 -55.1507 1020.26 -39.5082 1045.37 -28.4262C1073.45 -16.029 1092.99 -1.81365 1116.7 17.284C1142.8 38.3078 1158.83 49.9578 1192.74 45.8572C1223.78 42.1029 1245.68 47.7446 1272.07 28.5818C1282.03 21.3499 1294.04 13.1835 1302.65 4.23938C1310.43 -3.84761 1316.61 -25.4048 1325.36 -30.4846C1353.79 -46.9782 1345.33 -1.82178 1346.07 9.22556C1347.68 33.1425 1363.3 62.5117 1371.82 84.6655C1381.47 109.753 1395.29 129.126 1413.34 148.724C1459.68 199.052 1415.02 237.449 1418.68 293.877C1422.87 358.371 1501.63 366.112 1547.32 387.189" stroke="#E26B43" stroke-opacity="0.08" stroke-width="1.5" stroke-miterlimit="10" stroke-linecap="round" stroke-linejoin="round"/>
<path d="M1546.8 486.603C1539.08 463.158 1528.33 440.483 1507.85 425.541C1487.2 410.479 1462.2 409.475 1439.05 400.997C1390.22 383.119 1374.92 340.245 1372.73 291.949C1370.08 233.55 1372.39 191.878 1336.65 142.865C1326.02 128.295 1312.13 112.081 1291.94 116.586C1270.84 121.298 1263.4 139.485 1269.68 157.3C1281.15 189.842 1288 199.401 1276.3 234.338C1267.12 261.727 1255.64 288.384 1247.56 316.137C1234.42 361.248 1254.81 422.685 1296.34 447.819C1317.66 460.721 1330.14 469.162 1346.45 489.512C1361.92 508.801 1379.96 524.495 1402.12 535.693C1439.35 554.516 1506.79 575.684 1547.32 560.9" stroke="#E26B43" stroke-opacity="0.08" stroke-width="1.5" stroke-miterlimit="10" stroke-linecap="round" stroke-linejoin="round"/>
<path d="M-19.3202 69.0476C12.6404 67.0889 40.6842 69.4059 66.2823 47.9465C88.0166 29.7263 118.616 4.77107 119.796 -25.7099C120.982 -56.3863 94.7371 -84.4159 96.8369 -114.034C99.3355 -149.26 121.54 -138.264 140.967 -128.241C163.216 -116.762 195.435 -134.589 173.371 -158.956C162.31 -171.17 147.008 -166.634 133.357 -166.463C116.669 -166.251 109.639 -169.677 94.5357 -176.655C67.2549 -189.26 52.4038 -190.964 37.6342 -164.223C23.302 -138.276 10.9597 -131.482 -19.3202 -127.695" stroke="#E26B43" stroke-opacity="0.08" stroke-width="1.5" stroke-miterlimit="10" stroke-linecap="round" stroke-linejoin="round"/>
<path d="M595.737 103.802C573.466 103.069 545.914 115.318 528.736 120.053C495.448 129.228 461.012 138.337 426.196 137.288C407.773 136.732 374.837 130.97 364.253 150.471C356.188 165.328 362.361 199.634 367.535 215.721C383.613 265.719 418.135 320.764 447.949 363.51C479.533 408.793 549.497 416.177 597.709 437.433C622.082 448.179 639.727 456.496 660.409 434.239C674.267 419.325 680.778 399.201 699.723 389.249C718.69 379.285 742.247 376.852 744.079 349.769C745.887 323.012 717.382 309.112 694.044 312.455C671.453 315.691 662.625 334.601 646.205 311.735C632.152 292.165 624.872 249.026 623.759 224.563C622.507 197.057 633.1 170.249 631.293 142.655C630.497 130.49 626.947 118.225 616.892 110.515C610.995 105.989 603.705 104.065 595.737 103.802Z" stroke="#E26B43" stroke-opacity="0.08" stroke-width="1.5" stroke-miterlimit="10" stroke-linecap="round" stroke-linejoin="round"/>
<path d="M683.511 -116.778C677.26 -116.198 671.174 -115.127 664.93 -114.036C653.583 -112.051 642.241 -109.919 631.104 -106.945C610.423 -101.421 590.864 -92.5684 574.318 -78.805C550.991 -59.3979 502.56 -47.9657 499.09 -12.637C497.44 4.18439 504.136 15.7509 520.904 16.9908C530.953 17.734 541.338 12.1859 551.786 12.3243C562.074 12.4607 571.008 15.9056 580.99 16.6834C604.844 18.5463 629.323 17.4673 653.255 17.8704C672.857 18.2002 699.035 13.6212 717.591 19.8779C747.159 29.8461 749.359 96.6249 780.031 96.3439C799.35 96.1668 820.682 27.3866 815.884 10.0562C811.367 -6.2603 794.207 -11.9855 784.153 -24.1201C772.281 -38.4515 770.985 -54.7741 766.749 -72.0719C763.182 -86.6354 757.385 -102.781 743.659 -110.675C734.064 -116.194 722.676 -117.137 711.835 -117.304C703.91 -117.426 695.979 -117.495 688.06 -117.102C686.532 -117.029 685.018 -116.917 683.511 -116.778Z" stroke="#E26B43" stroke-opacity="0.08" stroke-width="1.5" stroke-miterlimit="10" stroke-linecap="round" stroke-linejoin="round"/>
<path d="M816.291 -319.206C801.885 -290.374 786.198 -261.868 773.721 -232.13C762.398 -205.141 756.117 -203.203 727.103 -199.923C692.601 -196.022 660.732 -182.623 626.584 -178.812C596.691 -175.475 581.217 -170.662 558.104 -150.597C538.506 -133.586 515.933 -118.648 488.506 -121.111C456.783 -123.96 437.586 -156.75 411.589 -171.69C382.793 -188.24 355.001 -171.419 325.696 -161.475C299.363 -152.539 265.398 -146.592 247.314 -123.713C232.793 -105.341 232.406 -85.0274 209.28 -73.8273C186.388 -62.7434 162.312 -60.4305 176.205 -28.2535C188.171 -0.537458 216.013 19.1609 241.019 33.6043C260.074 44.6109 288.404 57.6535 292.639 82.2015C297.534 110.581 270.105 116.463 248.118 117.292C211.879 118.658 185.062 116.089 149.355 125.106C88.358 140.513 41.6197 101.684 -19.3226 102.535" stroke="#EAAFDE" stroke-opacity="0.08" stroke-width="1.5" stroke-miterlimit="10" stroke-linecap="round" stroke-linejoin="round"/>
<path d="M1547.32 94.1636C1522.4 101.288 1490.49 104.099 1477.13 129.433C1463.8 154.702 1476.56 186.46 1473.62 213.508C1470.73 240.143 1450.81 273.218 1466.21 298.659C1481.11 323.267 1522.64 332.4 1547.32 343.232" stroke="#EAAFDE" stroke-opacity="0.08" stroke-width="1.5" stroke-miterlimit="10" stroke-linecap="round" stroke-linejoin="round"/>
<path d="M1546.27 -137.114C1502.68 -129.809 1520.93 -58.003 1517.95 -28.1002C1515.35 -2.0496 1510.25 22.981 1512.52 49.4103C1514.74 75.2634 1521.14 77.4196 1547.32 77.4196" stroke="#EAAFDE" stroke-opacity="0.08" stroke-width="1.5" stroke-miterlimit="10" stroke-linecap="round" stroke-linejoin="round"/>
<path d="M1442.81 -30.2913C1431.94 -30.1935 1434.63 -3.20028 1435.42 2.78556C1436.67 12.2794 1440.87 26.5009 1452.95 25.3282C1453.05 25.32 1453.14 25.3098 1453.24 25.2996C1478.23 22.3882 1456.16 -13.6348 1449.23 -24.0774C1447.96 -25.9831 1446.54 -28.9801 1444.42 -29.9309C1443.86 -30.1834 1443.32 -30.2974 1442.81 -30.2913Z" stroke="#EAAFDE" stroke-opacity="0.08" stroke-width="1.5" stroke-miterlimit="10" stroke-linecap="round" stroke-linejoin="round"/>
<path d="M1047.52 31.6075C1047.31 31.693 1047.1 31.7846 1046.9 31.8864C1042.09 34.2543 1039.3 41.7875 1038.02 46.5741C1036.2 53.3886 1036.54 60.6755 1038.8 67.3434C1042.43 78.065 1051.42 85.9992 1063.12 85.5961C1088.44 84.7227 1081.68 55.6649 1070.27 42.5021C1065.59 37.1067 1055.45 28.3988 1047.52 31.6075Z" stroke="#EAAFDE" stroke-opacity="0.08" stroke-width="1.5" stroke-miterlimit="10" stroke-linecap="round" stroke-linejoin="round"/>
<path d="M437.11 43.186C434.185 44.1837 431.531 45.558 429.399 47.2682C410.481 62.4466 414.562 89.4114 441.861 85.6957C452.002 84.3153 468.617 71.4457 470.048 60.6427C472.455 42.4775 451.5 38.2773 437.11 43.186Z" stroke="#EAAFDE" stroke-opacity="0.08" stroke-width="1.5" stroke-miterlimit="10" stroke-linecap="round" stroke-linejoin="round"/>
<path d="M683.5 -99.2629C682.957 -99.2446 682.412 -99.2181 681.865 -99.1835C671.699 -98.5279 662.202 -95.2927 652.488 -92.5217C643.066 -89.8342 633.775 -86.5562 624.998 -82.1564C609.483 -74.3789 596.327 -62.8124 588.113 -47.3734C564.894 -3.72971 642.88 -2.54068 671.14 -0.700135C704.812 1.49264 747.509 0.171264 750.427 -42.3078C751.615 -59.5935 746.777 -76.2256 731.687 -86.0045C718.141 -94.7837 699.644 -99.7902 683.5 -99.2629Z" stroke="#EAAFDE" stroke-opacity="0.08" stroke-width="1.5" stroke-miterlimit="10" stroke-linecap="round" stroke-linejoin="round"/>
<path d="M977.347 -319.206C979.98 -281.303 998.622 -250.723 1002.5 -214.286C1006.72 -174.617 987.531 -157.492 956.893 -137.706C922.407 -115.433 914.419 -100.344 904.211 -62.0465C900.111 -46.6605 890.453 -34.3631 886.186 -19.1623C879.988 2.92015 885.093 27.1221 888.475 49.1598C891.673 70.0206 900.058 79.6102 907.385 98.2579C913.971 115.024 907.776 125.237 905.735 142.315C903.291 162.771 910.795 180.04 913.802 200.003C917.158 222.267 910.16 230.687 901.206 250.714C890.137 275.465 877.392 322.67 904.793 341.153C934.045 360.886 955.56 344.986 956.39 387.142C956.803 408.082 958.573 417.92 972.655 433.772C984.843 447.491 1000.08 458.793 1011.37 473.309C1028.38 495.168 1018 509.905 1003.99 530.653C983.486 561.037 961.031 565.683 926.647 573.259C882.631 582.956 859.198 599.466 828.597 632.238C816.897 644.765 809.182 655.499 804.083 672.043C799.749 686.106 800.742 697.581 786.015 704.988C754.59 720.795 724.725 690.488 722.348 660.957C719.693 627.972 740.644 606.108 714.716 576.612C709.042 570.156 688.939 551.144 678.102 555.377C664.281 560.778 666.444 583.681 664.704 595.447C661.896 614.449 660.985 621.217 641.637 623.711C627.079 625.588 601.969 622.884 587.474 620.962C550.309 616.033 537.814 584.265 496.313 590.445C448.916 597.501 419.588 622.225 380.152 647.115C343.017 670.553 311.893 693.977 279.786 724.159" stroke="#514E95" stroke-opacity="0.08" stroke-width="1.5" stroke-miterlimit="10" stroke-linecap="round" stroke-linejoin="round"/>
<path d="M1547.32 408.115C1532.6 404.431 1518.7 392.083 1504.57 385.973C1487.82 378.727 1468.61 376.483 1452.33 368.761C1421.98 354.368 1400.31 314.571 1402.29 281.522C1404.13 250.787 1426.77 219.764 1415.3 188.501C1409.33 172.246 1393.45 160.989 1383.43 147.219C1371.54 130.887 1363.08 112.546 1352.03 95.6965C1338.19 74.6055 1321.31 43.8905 1292.12 49.2553C1278.5 51.7596 1267.65 62.6094 1254.15 66.1439C1237.11 70.6089 1219.53 66.7344 1202.27 70.2872C1176.74 75.5401 1144.67 101.314 1125.13 76.2527C1105.72 51.3687 1099.26 20.6862 1068.08 4.80944C1052.24 -3.25312 1037.57 -1.57138 1020.56 -2.18829C1001.69 -2.87442 988.322 -9.16975 971.086 -14.6873C941.559 -24.1384 902.272 2.80194 937.779 27.8285C963.599 46.0262 988.755 28.3415 1003.45 63.831C1009.26 77.8835 1007.6 90.9221 1019.98 101.809C1033.35 113.571 1054.99 117.231 1072.25 116.57C1106.64 115.25 1121.75 92.7402 1134.69 132.176C1145.9 166.338 1162.99 192.303 1193.7 211.799C1217.26 226.756 1224.98 240.161 1217.94 269.247C1210.64 299.413 1171.49 319.498 1174.01 351.135C1176.91 387.529 1219.89 419.359 1233.63 453.102C1252.52 499.502 1279.45 490.573 1317.68 513.809C1353.81 535.766 1382.77 569.339 1424.18 580.592C1465.3 591.768 1505.65 603.182 1546.28 616.369" stroke="#514E95" stroke-opacity="0.08" stroke-width="1.5" stroke-miterlimit="10" stroke-linecap="round" stroke-linejoin="round"/>
<path d="M-19.3202 121.373C9.19159 126.127 33.6218 130.085 60.0623 141.437C87.4998 153.218 110.388 154.376 139.243 146.326C194.977 130.779 249.866 128.991 307.05 126.847C335.558 125.778 333.812 150.968 338.897 175.935C345.392 207.821 355.217 231.799 369.946 260.712C382.4 285.159 395.811 308.978 409.437 332.785C422.357 355.358 431.59 386.051 453.736 401.487C499.463 433.361 564.839 429.073 606.315 469.539C626.251 488.989 624.786 508.888 612.409 533.591C601.859 554.648 591.354 556.203 569.282 552.439C536.65 546.872 517.885 544.233 485.015 553.253C450.657 562.682 419.224 555.452 384.724 550.331C360.017 546.664 335.031 545.805 314.68 529.729C292.731 512.386 282.386 483.546 262.267 463.885C240.741 442.849 219.853 432.677 208.387 404.004C198.658 379.674 192.9 357.563 163.444 354.321C128.869 350.516 94.4238 369.952 60.3696 372.627C25.416 375.368 12.4776 345.449 -19.3202 339.045" stroke="#514E95" stroke-opacity="0.08" stroke-width="1.5" stroke-miterlimit="10" stroke-linecap="round" stroke-linejoin="round"/>
<path d="M1103.89 -318.159C1120.62 -290.429 1138.15 -262.511 1135.02 -228.52C1133.42 -211.137 1124.95 -197.156 1119.5 -180.919C1114.1 -164.824 1113.42 -148.393 1109.24 -132.144C1102.29 -105.145 1072.9 -78.6421 1082.67 -49.9549C1092.03 -22.4526 1125.4 -1.98262 1150.33 8.87537C1174.12 19.2366 1207.48 23.5305 1233.15 16.6427C1262.95 8.64731 1279.56 -25.8608 1298.17 -48.3505C1317.01 -71.1272 1344.49 -88.5371 1349.93 -118.273C1354.27 -141.962 1350.47 -164.26 1376.62 -173.308C1399.01 -181.057 1422.96 -174.898 1417.62 -147.583C1412.06 -119.197 1373.66 -115.881 1370.09 -88.7061C1368.38 -75.6329 1378.49 -56.0303 1380.83 -42.8675C1383.77 -26.3495 1384.78 -9.64612 1386.76 6.98393C1390.14 35.3759 1393.27 67.3941 1417.52 85.7771C1446.17 107.497 1457.41 99.6158 1453.05 140.075C1449.35 174.457 1460.86 203.429 1451.02 237.512C1441.48 270.534 1427.92 299.085 1457.08 326.573C1480.33 348.486 1517.86 354.505 1547.32 364.164" stroke="#514E95" stroke-opacity="0.08" stroke-width="1.5" stroke-miterlimit="10" stroke-linecap="round" stroke-linejoin="round"/>
<path d="M789.1 -319.206C779.268 -289.69 769.5 -263.485 748.345 -239.649C728.369 -217.143 697.277 -213.894 668.804 -208.417C641.767 -203.217 609.434 -207.698 583.928 -197.74C557.614 -187.467 541.745 -153.132 513.931 -147.178C487.67 -141.559 464.031 -173.61 446.244 -188.354C416.579 -212.945 389.316 -200.788 352.989 -203.223C327.584 -204.925 322.66 -214.539 305.136 -197.626C284.136 -177.36 257.915 -169.882 236.854 -150.776C214.744 -130.717 205.74 -104.331 178.329 -89.0688C162.359 -80.1756 148.214 -78.0622 142.916 -58.7874C138.425 -42.4505 148.157 2.8179 159.146 15.5246C173.68 32.3318 204.402 33.8465 223.297 44.564C240.018 54.0477 285.239 87.9919 245.274 98.288C222.551 104.143 192.428 92.5403 167.808 96.0219C136.004 100.519 108.184 90.2091 75.9775 90.0055C44.5602 89.806 11.977 86.6808 -19.3243 83.698" stroke="#514E95" stroke-opacity="0.08" stroke-width="1.5" stroke-miterlimit="10" stroke-linecap="round" stroke-linejoin="round"/>
<path d="M737.844 -141.565C732.465 -141.661 727.175 -140.907 721.805 -140.411C716.055 -139.877 710.271 -139.525 704.506 -139.097C691.493 -138.132 678.465 -137.365 665.475 -136.102C643.161 -133.936 620.55 -130.373 599.868 -121.337C591.367 -117.624 583.269 -112.977 575.907 -107.321C551.265 -88.3867 537.299 -86.0351 507.825 -79.3468C478.365 -72.6626 467.624 -58.5287 437.617 -72.9558C415.602 -83.539 393.072 -96.4716 371.93 -75.8001C356.121 -60.3408 347.923 -26.8771 337.294 -7.35588C321.533 21.5879 336.669 26.9303 356.607 47.6303C373.356 65.0219 381.259 89.9303 404.232 100.695C455.18 124.571 491.336 69.8757 538.067 62.373C587.812 54.3858 649.867 23.5832 701.129 36.0272C752.113 48.404 725.266 118.968 720.999 153.285C716.716 187.744 726.072 181.797 754.486 172.282C776.029 165.069 804.345 170.149 818.324 148.813C834.717 123.789 825.799 81.9329 831.071 53.0013C836.998 20.4762 838.717 -0.288939 816.757 -27.2171C794.933 -53.9783 790.931 -67.0799 784.552 -101.248C783.006 -109.539 780.607 -118.122 775.347 -124.886C770.956 -130.532 764.8 -134.142 758.211 -136.681C752.425 -138.91 746.632 -141.005 740.39 -141.453C739.539 -141.516 738.691 -141.551 737.844 -141.565Z" stroke="#514E95" stroke-opacity="0.08" stroke-width="1.5" stroke-miterlimit="10" stroke-linecap="round" stroke-linejoin="round"/>
<path d="M1547.32 136.023C1503.46 144.904 1504.28 166.741 1506.45 207.186C1508.64 248.097 1511.2 269.614 1547.32 292.999" stroke="#514E95" stroke-opacity="0.08" stroke-width="1.5" stroke-miterlimit="10" stroke-linecap="round" stroke-linejoin="round"/>
<path d="M10.2456 -83.7341C-2.76614 -82.6977 -13.9995 -75.9647 -16.5408 -59.7887C-18.3212 -48.4563 -15.4706 -36.1975 -14.5876 -24.8916C-12.8215 -2.30424 -10.8316 11.3003 15.1715 6.2042C37.1561 1.89602 68.9437 -11.8205 67.499 -37.2155C66.6506 -52.1394 59.8263 -65.3388 47.3457 -73.7291C37.6891 -80.2199 23.1006 -84.7582 10.2456 -83.7341Z" stroke="#514E95" stroke-opacity="0.08" stroke-width="1.5" stroke-miterlimit="10" stroke-linecap="round" stroke-linejoin="round"/>
</g>
</g>
<defs>
<clipPath id="clip0_300_658">
<rect width="1526" height="150" fill="white" transform="translate(1)"/>
</clipPath>
</defs>
</svg>
