<svg width="1920" height="445" viewBox="0 0 1920 445" fill="none" xmlns="http://www.w3.org/2000/svg">
<rect y="-2" width="1923" height="447" fill="#F4F6F9"/>
<path d="M0.406006 -2C412.683 20.9165 984.394 281.384 931.634 371.956C897.037 431.331 491.708 429.997 380.97 440.706C229.955 455.289 515.897 400.696 574.135 337.581C643.328 262.582 538.298 65.4163 871.493 100.083C1162.28 130.353 1225.24 228.394 1433.69 226.124C1622.21 224.04 1769.08 141.749 1863.27 72.9996" stroke="#222222" stroke-opacity="0.02" stroke-width="2" stroke-miterlimit="10"/>
<path d="M0.377197 4.01056C395.356 29.5625 945.357 281.811 901.391 368.592C872.56 425.446 488.681 423.55 386.217 433.175C244.169 446.498 517.915 394.029 575.663 333.477C644.856 260.874 549.369 72.1872 871.032 105.614C1157.98 135.354 1215.9 235.676 1426.22 235.822C1615.09 235.697 1767.75 155.187 1866.09 87.9059" stroke="#222222" stroke-opacity="0.02" stroke-width="2" stroke-miterlimit="10"/>
<path d="M0.342773 9.9895C378.023 38.1768 906.315 282.186 871.171 365.196C848.106 419.529 485.648 417.07 391.458 425.612C258.348 437.633 519.928 387.331 577.185 329.331C646.378 259.123 560.463 78.937 870.565 111.114C1153.68 140.332 1206.56 243.196 1418.78 245.488C1607.96 247.571 1766.42 168.603 1868.94 102.781" stroke="#222222" stroke-opacity="0.02" stroke-width="2" stroke-miterlimit="10"/>
<path d="M0.342773 16.0103C360.725 46.8435 867.307 282.571 840.956 361.842C823.658 413.623 482.621 410.633 396.706 418.091C272.475 428.737 521.975 380.633 578.713 325.196C648.108 257.373 571.563 85.687 870.133 116.603C1149.39 145.312 1197.16 250.613 1411.28 255.144C1600.79 259.196 1765.06 182.03 1871.76 117.645" stroke="#222222" stroke-opacity="0.02" stroke-width="2" stroke-miterlimit="10"/>
<path d="M0.316162 22.0101C343.573 55.4787 828.273 282.904 810.744 358.466C799.212 407.685 479.625 404.164 401.984 410.487C286.662 419.862 524.053 373.945 580.243 321.06C649.754 255.634 582.665 92.4472 869.674 122.103C1145.09 150.291 1187.79 257.915 1403.88 264.811C1593.64 270.863 1763.8 195.447 1874.62 132.52" stroke="#222222" stroke-opacity="0.02" stroke-width="2" stroke-miterlimit="10"/>
<path d="M0.287354 28.0104C326.304 64.1248 789.236 283.217 780.501 355.092C774.734 401.717 476.626 397.696 407.231 402.935C300.904 410.956 526.186 367.248 581.771 316.925C651.426 253.884 593.765 99.2183 869.241 127.614C1140.77 155.291 1178.39 265.269 1396.41 274.488C1586.49 282.53 1762.56 208.864 1877.48 147.406" stroke="#222222" stroke-opacity="0.02" stroke-width="2" stroke-miterlimit="10"/>
<path d="M0.287354 34.021C309.034 72.7708 750.171 283.374 750.286 351.727C750.286 395.717 473.513 391.206 412.478 395.373C315.089 402.008 528.32 360.561 583.299 312.801C653.127 252.134 604.836 105.958 868.722 133.125C1136.41 160.27 1168.91 272.603 1388.91 284.165C1579.19 294.165 1761.09 222.322 1880.27 162.291" stroke="#222222" stroke-opacity="0.02" stroke-width="2" stroke-miterlimit="10"/>
<path d="M0.258789 40.0209C291.736 81.406 711.048 283.53 720.072 348.352C725.838 389.685 470.687 384.706 417.754 387.821C329.273 393.029 530.54 353.873 584.972 308.655C655.03 250.322 615.936 112.906 868.463 138.614C1132.15 165.458 1159.65 279.905 1381.65 293.821C1572.3 305.78 1759.96 235.738 1883.3 177.155" stroke="#222222" stroke-opacity="0.02" stroke-width="2" stroke-miterlimit="10"/>
<path d="M0.231689 46.0212C274.468 90.0522 671.811 283.624 689.83 344.978C701.19 383.613 467.835 378.196 423.003 380.259C343.517 383.925 532.761 347.186 586.386 304.54C656.646 248.624 626.749 119.698 867.888 144.125C1127.71 170.468 1150.17 287.197 1374.07 303.499C1564.98 317.395 1758.52 249.176 1886.01 192.041" stroke="#222222" stroke-opacity="0.02" stroke-width="2" stroke-miterlimit="10"/>
<path d="M0.231689 52.0206C257.199 98.687 632.458 283.634 659.616 341.602C676.453 377.508 465.01 371.654 428.251 372.706C357.789 374.717 534.924 340.498 587.914 300.405C658.492 246.874 637.964 126.447 867.571 149.645C1123.53 175.489 1140.91 294.488 1366.74 313.186C1557.95 329.009 1757.34 262.613 1889.01 206.936" stroke="#222222" stroke-opacity="0.02" stroke-width="2" stroke-miterlimit="10"/>
<path d="M0.202881 58.0205C239.929 107.333 592.873 283.582 629.402 338.227C651.543 371.373 462.415 365.092 433.354 365.154C372.117 365.279 537.144 333.821 589.298 296.269C660.221 245.113 648.891 133.228 866.85 155.145C1118.92 180.499 1131.23 301.748 1359.02 322.852C1550.51 340.56 1755.73 276.04 1891.55 221.811" stroke="#222222" stroke-opacity="0.02" stroke-width="2" stroke-miterlimit="10"/>
<path d="M0.174072 64.031C222.66 115.968 553.029 283.467 599.187 334.863C626.432 365.206 459.186 360.206 438.774 357.592C387.225 359.675 539.681 327.144 590.97 292.144C662.297 243.363 660.164 139.989 866.533 160.655C1114.76 185.499 1122 308.998 1351.69 332.529C1543.5 352.165 1754.54 289.478 1894.55 236.697" stroke="#222222" stroke-opacity="0.02" stroke-width="2" stroke-miterlimit="10"/>
<path d="M0.174072 70.0305C205.361 124.614 512.782 283.311 568.944 331.487C601.061 359.029 456.245 353.862 444.021 350.039C401.525 350.998 542.247 320.477 592.498 288.008C664.315 241.613 671.235 146.749 866.072 166.134C1110.44 190.478 1112.63 316.217 1344.26 342.175C1536.38 363.706 1753.22 302.883 1897.4 251.55" stroke="#222222" stroke-opacity="0.02" stroke-width="2" stroke-miterlimit="10"/>
<path d="M0.146973 76.0308C188.094 133.249 472.104 283.165 538.731 328.113C575.404 352.862 453.277 347.519 449.356 342.477C415.884 342.3 544.872 313.811 594.115 283.884C666.508 239.863 682.423 153.499 865.728 171.666C1106.23 195.499 1103.38 323.467 1336.91 351.873C1529.35 375.279 1752.07 316.342 1900.31 266.457" stroke="#222222" stroke-opacity="0.02" stroke-width="2" stroke-miterlimit="10"/>
<path d="M0.113281 82.0306C170.819 141.895 430.929 283.071 508.512 324.738C549.451 346.727 450.332 341.175 454.512 334.925C430.093 333.602 547.404 307.165 595.551 279.717C668.637 238.051 693.431 160.218 865.175 177.134C1101.85 200.457 1093.95 330.644 1329.35 361.508C1522.14 386.8 1750.59 329.737 1903.08 281.3" stroke="#222222" stroke-opacity="0.02" stroke-width="2" stroke-miterlimit="10"/>
<path d="M0.113281 88.0309C153.55 150.531 389.326 283.124 478.269 321.363C523.215 340.665 447.362 334.832 459.788 327.373C444.393 324.915 550.114 300.53 597.079 275.624C670.972 236.436 704.531 166.989 864.714 182.676C1097.55 205.468 1084.63 337.884 1321.91 371.217C1515.07 398.362 1749.26 343.196 1905.93 296.217" stroke="#222222" stroke-opacity="0.02" stroke-width="2" stroke-miterlimit="10"/>
<path d="M0.0842285 94.0308C136.28 159.176 347.089 283.384 448.054 317.988C496.806 334.706 444.421 328.488 465.035 319.811C458.692 316.217 552.911 293.925 598.607 271.488C673.423 234.759 715.631 173.728 864.281 188.155C1093.25 210.416 1075.35 345.029 1314.44 380.862C1507.98 409.862 1747.94 356.602 1908.76 311.071" stroke="#222222" stroke-opacity="0.02" stroke-width="2" stroke-miterlimit="10"/>
<path d="M0.0559082 100.041C118.982 167.811 304.709 283.925 417.84 314.623C470.34 328.863 441.452 322.144 470.283 312.258C472.993 307.529 555.823 287.342 600.02 267.352C675.96 233.134 726.644 180.468 863.705 193.686C1088.84 215.405 1065.98 352.248 1306.89 390.56C1500.8 421.404 1746.53 370.06 1911.5 325.977" stroke="#222222" stroke-opacity="0.02" stroke-width="2" stroke-miterlimit="10"/>
<path d="M0.0559082 106.041C101.713 176.457 262.27 284.748 387.625 311.248C443.903 323.144 442.663 317.394 475.53 304.707C489.224 299.415 558.822 280.748 601.693 263.228C678.901 231.582 737.888 187.187 863.388 199.197C1084.69 220.363 1056.84 359.415 1299.54 400.237C1493.88 432.925 1745.32 383.487 1914.46 340.863" stroke="#222222" stroke-opacity="0.02" stroke-width="2" stroke-miterlimit="10"/>
<path d="M0.0288086 112.072C84.4448 185.123 220.064 285.883 357.528 307.904C417.813 317.571 437.562 310.331 480.952 297.175C502.719 290.571 562.052 274.331 603.366 259.123C682.103 230.154 749.134 193.946 863.072 204.728C1080.57 225.321 1047.76 366.612 1292.24 409.935C1487.02 444.455 1744.14 396.956 1917.44 355.768" stroke="#222222" stroke-opacity="0.02" stroke-width="2" stroke-miterlimit="10"/>
<path d="M0 118.041C67.1753 193.739 178.26 287.165 327.169 304.498C391.663 312.009 433.295 303.457 486.055 289.592C516.269 281.644 565.051 267.863 604.75 254.967C685.245 228.811 760.176 200.572 862.467 210.176C1076.27 230.072 1038.59 373.592 1284.63 419.55C1479.99 455.81 1742.66 410.321 1920.15 370.592" stroke="#222222" stroke-opacity="0.02" stroke-width="2" stroke-miterlimit="10"/>
<path d="M0 124.041C49.9057 202.374 136.974 288.623 296.955 301.123C503.584 317.321 662.902 197.332 862.035 215.707C1071.98 235.092 1029.25 380.883 1277.19 429.247C1472.87 467.434 1741.37 423.789 1923 385.497" stroke="#222222" stroke-opacity="0.02" stroke-width="2" stroke-miterlimit="10"/>
</svg>
