<svg width="1920" height="509" viewBox="0 0 1920 509" fill="none" xmlns="http://www.w3.org/2000/svg">
<rect y="1.00098" width="1920" height="512" fill="#1E2744"/>
<path d="M0.405212 1C412.039 27.205 982.858 325.049 930.18 428.618C895.637 496.513 490.941 494.988 380.375 507.233C229.596 523.909 515.092 461.481 573.239 389.31C642.324 303.549 537.458 78.0904 870.133 117.731C1160.46 152.346 1223.33 264.456 1431.45 261.859C1619.68 259.477 1766.32 165.377 1860.36 86.7618" stroke="white" stroke-opacity="0.23" stroke-width="2" stroke-miterlimit="10"/>
<path d="M0.376587 7.87305C394.739 37.0916 943.883 325.537 899.985 424.771C871.199 489.783 487.918 487.615 385.614 498.621C243.788 513.856 517.107 453.858 574.765 384.618C643.85 301.595 548.512 85.8329 869.673 124.057C1156.18 158.063 1214.01 272.782 1424 272.949C1612.57 272.806 1764.99 180.743 1863.18 103.807" stroke="white" stroke-opacity="0.23" stroke-width="2" stroke-miterlimit="10"/>
<path d="M0.342407 14.71C377.434 46.9421 904.901 325.966 869.812 420.888C846.783 483.017 484.891 480.206 390.848 489.973C257.945 503.719 519.117 446.199 576.285 379.877C645.37 299.594 559.589 93.5513 869.207 130.345C1151.88 163.757 1204.67 281.382 1416.57 284.002C1605.46 286.384 1763.66 196.084 1866.02 120.816" stroke="white" stroke-opacity="0.23" stroke-width="2" stroke-miterlimit="10"/>
<path d="M0.342407 21.5947C360.162 56.8524 865.954 326.407 839.644 417.052C822.373 476.263 481.868 472.845 396.087 481.373C272.05 493.547 521.16 438.54 577.81 375.148C647.097 297.593 570.672 101.27 868.775 136.623C1147.59 169.45 1195.29 289.862 1409.08 295.044C1598.29 299.677 1762.31 211.438 1868.84 137.814" stroke="white" stroke-opacity="0.23" stroke-width="2" stroke-miterlimit="10"/>
<path d="M0.315552 28.4556C343.037 66.7268 826.981 326.788 809.479 413.193C797.965 469.474 478.876 465.448 401.357 472.678C286.214 483.398 523.235 430.893 579.338 370.419C648.74 295.604 581.756 109 868.317 142.912C1143.31 175.144 1185.94 298.212 1401.69 306.098C1591.15 313.018 1761.04 226.78 1871.7 154.823" stroke="white" stroke-opacity="0.23" stroke-width="2" stroke-miterlimit="10"/>
<path d="M0.286926 35.3169C325.795 76.6136 788.005 327.145 779.283 409.334C773.526 462.649 475.883 458.051 406.596 464.043C300.434 473.214 525.365 423.234 580.864 365.691C650.41 293.603 592.839 116.743 867.885 149.213C1138.99 180.862 1176.55 306.622 1394.23 317.164C1584.01 326.359 1759.81 242.122 1874.55 171.845" stroke="white" stroke-opacity="0.23" stroke-width="2" stroke-miterlimit="10"/>
<path d="M0.286926 42.1899C308.552 86.5002 749.001 327.324 749.116 405.487C749.116 455.788 472.774 450.631 411.835 455.395C314.597 462.983 527.495 415.587 582.389 360.974C652.108 291.602 603.892 124.45 867.367 155.515C1134.64 186.556 1167.08 315.008 1386.75 328.229C1576.73 339.664 1758.34 257.512 1877.34 188.866" stroke="white" stroke-opacity="0.23" stroke-width="2" stroke-miterlimit="10"/>
<path d="M0.25824 49.0508C291.281 96.3746 709.939 327.503 718.948 401.627C724.706 448.891 469.953 443.198 417.103 446.759C328.76 452.715 529.712 407.94 584.059 356.233C654.008 289.529 614.975 132.395 867.108 161.792C1130.38 192.487 1157.84 323.358 1379.49 339.271C1569.85 352.945 1757.22 272.853 1880.36 205.864" stroke="white" stroke-opacity="0.23" stroke-width="2" stroke-miterlimit="10"/>
<path d="M0.231384 55.9121C274.04 106.261 670.763 327.61 688.754 397.768C700.096 441.948 467.105 435.754 422.344 438.112C342.982 442.305 531.93 400.293 585.472 351.528C655.622 287.588 625.771 140.161 866.534 168.093C1125.95 198.217 1148.37 331.696 1371.92 350.337C1562.54 366.227 1755.78 288.219 1883.07 222.886" stroke="white" stroke-opacity="0.23" stroke-width="2" stroke-miterlimit="10"/>
<path d="M0.231384 62.7725C256.798 116.135 631.471 327.622 658.587 393.908C675.398 434.967 464.284 428.273 427.583 429.476C357.23 431.775 534.089 392.646 586.997 346.799C657.464 285.586 636.969 147.879 866.218 174.406C1121.78 203.958 1139.13 340.033 1364.61 361.414C1555.52 379.508 1754.6 303.585 1886.06 239.918" stroke="white" stroke-opacity="0.23" stroke-width="2" stroke-miterlimit="10"/>
<path d="M0.202637 69.6333C239.555 126.022 591.948 327.562 628.42 390.049C650.527 427.951 461.694 420.768 432.678 420.84C371.537 420.983 536.306 385.01 588.379 342.07C659.192 283.573 647.879 155.633 865.498 180.695C1117.17 209.687 1129.46 348.335 1356.9 372.468C1548.09 392.717 1752.99 318.938 1888.6 256.928" stroke="white" stroke-opacity="0.23" stroke-width="2" stroke-miterlimit="10"/>
<path d="M0.17395 76.5063C222.312 135.896 552.167 327.431 598.253 386.202C625.455 420.9 458.47 415.182 438.089 412.192C386.621 414.575 538.839 377.375 590.049 337.353C661.264 281.572 659.134 163.364 865.181 186.996C1113.03 215.405 1120.25 356.626 1349.59 383.534C1541.1 405.987 1751.81 334.304 1891.59 273.949" stroke="white" stroke-opacity="0.23" stroke-width="2" stroke-miterlimit="10"/>
<path d="M0.17395 83.3667C205.041 145.782 511.982 327.252 568.056 382.342C600.124 413.836 455.533 407.928 443.328 403.556C400.898 404.652 541.401 369.752 591.574 332.624C663.279 279.571 670.188 171.094 864.721 193.261C1108.71 221.098 1110.9 364.88 1342.16 394.563C1533.99 419.184 1750.48 349.633 1894.44 290.934" stroke="white" stroke-opacity="0.23" stroke-width="2" stroke-miterlimit="10"/>
<path d="M0.147095 90.228C187.8 155.657 471.368 327.085 537.891 378.483C574.506 406.784 452.571 400.674 448.656 394.909C415.236 394.706 544.022 362.129 593.188 327.907C665.469 277.57 681.358 178.813 864.377 199.586C1104.51 226.839 1101.66 373.171 1334.82 405.653C1526.96 432.418 1749.33 365.023 1897.35 307.98" stroke="white" stroke-opacity="0.23" stroke-width="2" stroke-miterlimit="10"/>
<path d="M0.112976 97.0889C170.553 165.543 430.256 326.978 507.718 374.624C548.594 399.769 449.629 393.42 453.803 386.273C429.422 384.76 546.55 354.529 594.622 323.143C667.594 275.497 692.349 186.496 863.825 205.84C1100.13 232.509 1092.24 381.377 1327.27 416.671C1519.76 445.592 1747.86 380.341 1900.11 324.953" stroke="white" stroke-opacity="0.23" stroke-width="2" stroke-miterlimit="10"/>
<path d="M0.112976 103.95C153.31 175.418 388.719 327.038 477.522 370.765C522.399 392.837 446.664 386.166 459.071 377.638C443.699 374.827 549.256 346.942 596.148 318.462C669.925 273.651 703.432 194.238 863.365 212.177C1095.84 238.239 1082.94 389.656 1319.85 427.773C1512.71 458.814 1746.54 395.731 1902.96 342.011" stroke="white" stroke-opacity="0.23" stroke-width="2" stroke-miterlimit="10"/>
<path d="M0.0842285 110.811C136.067 185.305 346.548 327.336 447.355 366.905C496.031 386.023 443.728 378.912 464.31 368.99C457.977 364.88 552.048 339.39 597.673 313.733C672.372 271.734 714.514 201.945 862.933 218.442C1091.55 243.897 1073.67 397.827 1312.39 438.802C1505.63 471.964 1745.21 411.061 1905.78 358.996" stroke="white" stroke-opacity="0.23" stroke-width="2" stroke-miterlimit="10"/>
<path d="M0.055603 117.684C118.796 195.179 304.233 327.955 417.188 363.058C469.606 379.341 440.763 371.658 469.549 360.354C472.255 354.946 554.956 331.862 599.084 309.004C674.905 269.875 725.511 209.651 862.357 224.767C1087.14 249.602 1064.32 406.082 1304.85 449.892C1498.46 485.161 1743.8 426.45 1908.51 376.041" stroke="white" stroke-opacity="0.23" stroke-width="2" stroke-miterlimit="10"/>
<path d="M0.055603 124.545C101.554 205.066 261.861 328.896 387.021 359.199C443.21 372.802 441.972 366.227 474.788 351.718C488.461 345.667 557.949 324.322 600.754 304.287C677.842 268.101 736.737 217.334 862.041 231.068C1083 255.272 1055.19 414.277 1297.51 460.958C1491.55 498.335 1742.59 441.804 1911.48 393.063" stroke="white" stroke-opacity="0.23" stroke-width="2" stroke-miterlimit="10"/>
<path d="M0.0286865 131.441C84.3129 214.975 219.72 330.194 356.97 355.375C417.161 366.428 436.879 358.15 480.201 343.106C501.934 335.554 561.175 316.984 602.425 299.594C681.039 266.468 747.965 225.064 861.726 237.393C1078.88 260.941 1046.13 422.507 1290.23 472.046C1484.7 511.521 1741.41 457.205 1914.44 410.107" stroke="white" stroke-opacity="0.23" stroke-width="2" stroke-miterlimit="10"/>
<path d="M0 138.267C67.0705 224.827 177.981 331.66 326.659 351.481C391.052 360.069 432.619 350.289 485.297 334.435C515.464 325.347 564.169 309.588 603.807 294.842C684.176 264.933 758.99 232.641 861.121 243.623C1074.6 266.374 1036.97 430.489 1282.63 483.042C1477.68 524.505 1739.95 472.488 1917.15 427.058" stroke="white" stroke-opacity="0.23" stroke-width="2" stroke-miterlimit="10"/>
<path d="M0 145.127C49.8279 234.701 136.76 333.327 296.492 347.621C502.798 366.143 661.867 228.936 860.69 249.947C1070.31 272.115 1027.65 438.826 1275.2 494.13C1470.57 537.798 1738.65 487.889 1920 444.103" stroke="white" stroke-opacity="0.23" stroke-width="2" stroke-miterlimit="10"/>
<rect y="1.00098" width="1920" height="512" fill="black" fill-opacity="0.95"/>
</svg>
