<svg width="1920" height="817" viewBox="0 0 1920 817" fill="none" xmlns="http://www.w3.org/2000/svg">
<rect x="-2" width="1924" height="817" fill="#F4F6F9"/>
<g clip-path="url(#clip0_512_2)">
<path d="M777.366 2782.17C937.115 2615.1 1029.96 2709.68 1189.71 2542.61C1349.46 2375.53 1256.61 2280.95 1416.32 2113.93C1576.02 1946.91 1668.91 2041.44 1828.66 1874.37C1988.41 1707.3 1895.56 1612.71 2055.31 1445.64C2215.06 1278.57 2307.9 1373.15 2467.7 1206.03C2627.49 1038.91 2534.6 944.379 2694.35 777.308" stroke="#4A3AFF" stroke-opacity="0.03" stroke-width="2" stroke-miterlimit="10"/>
<path d="M-1038.67 901.313C-878.92 734.242 -786.076 828.823 -626.327 661.751C-466.579 494.68 -559.423 400.099 -399.72 233.075C-240.017 66.0514 -147.127 160.584 12.6217 -6.48727C172.37 -173.559 79.5262 -268.14 239.275 -435.211C399.024 -602.283 491.868 -507.702 651.663 -674.822C811.457 -841.942 718.567 -936.475 878.316 -1103.55" stroke="#4A3AFF" stroke-opacity="0.03" stroke-width="2" stroke-miterlimit="10"/>
<path d="M121.708 2079.66C281.457 1912.59 374.301 2007.17 534.05 1840.1C693.799 1673.03 600.955 1578.44 760.658 1411.42C920.36 1244.4 1013.25 1338.93 1173 1171.86C1332.75 1004.79 1239.9 910.206 1399.65 743.134C1559.4 576.063 1652.25 670.644 1812.04 503.524C1971.83 336.404 1878.94 241.871 2038.69 74.7995" stroke="#4A3AFF" stroke-opacity="0.03" stroke-width="2" stroke-miterlimit="10"/>
<path d="M-467.213 1480.51C-307.464 1313.44 -214.62 1408.02 -54.871 1240.95C104.878 1073.88 12.0337 979.3 171.736 812.276C331.439 645.253 424.329 739.786 584.078 572.714C743.827 405.642 650.983 311.061 810.731 143.99C970.48 -23.082 1063.32 71.499 1223.12 -95.6207C1382.91 -262.74 1290.02 -357.273 1449.77 -524.345" stroke="#4A3AFF" stroke-opacity="0.03" stroke-width="2" stroke-miterlimit="10"/>
<path d="M690.856 2676.54C850.605 2509.46 943.449 2604.04 1103.2 2436.97C1262.95 2269.9 1170.1 2175.32 1329.81 2008.3C1489.51 1841.27 1582.4 1935.81 1742.15 1768.73C1901.9 1601.66 1809.05 1507.08 1968.8 1340.01C2128.55 1172.94 2221.39 1267.52 2381.19 1100.4C2540.98 933.28 2448.09 838.747 2607.84 671.676" stroke="#4A3AFF" stroke-opacity="0.03" stroke-width="2" stroke-miterlimit="10"/>
<path d="M-757.852 1209.76C-598.104 1042.69 -505.259 1137.27 -345.511 970.196C-185.762 803.124 -278.606 708.543 -118.903 541.52C40.7995 374.496 133.69 469.029 293.438 301.958C453.187 134.886 360.343 40.305 520.092 -126.767C679.84 -293.838 772.685 -199.257 932.479 -366.377C1092.27 -533.497 999.384 -628.03 1159.13 -795.101" stroke="#4A3AFF" stroke-opacity="0.03" stroke-width="2" stroke-miterlimit="10"/>
<path d="M400.216 2386.12C559.965 2219.05 652.809 2313.63 812.558 2146.56C972.307 1979.49 879.463 1884.9 1039.17 1717.88C1198.87 1550.86 1291.76 1645.39 1451.51 1478.32C1611.26 1311.25 1518.41 1216.67 1678.16 1049.59C1837.91 882.523 1930.75 977.104 2090.55 809.984C2250.34 642.864 2157.45 548.331 2317.2 381.26" stroke="#4A3AFF" stroke-opacity="0.03" stroke-width="2" stroke-miterlimit="10"/>
<path d="M-186.397 1788.96C-26.6478 1621.89 66.1963 1716.47 225.945 1549.4C385.694 1382.33 292.85 1287.75 452.552 1120.72C612.255 953.698 705.145 1048.23 864.894 881.159C1024.64 714.088 931.799 619.507 1091.55 452.435C1251.3 285.363 1344.14 379.944 1503.94 212.825C1663.73 45.7049 1570.84 -48.828 1730.59 -215.9" stroke="#4A3AFF" stroke-opacity="0.03" stroke-width="2" stroke-miterlimit="10"/>
<path d="M-1077.49 846.695C-917.737 679.624 -824.893 774.205 -665.144 607.133C-505.395 440.061 -598.24 345.48 -438.537 178.457C-278.834 11.4333 -185.944 105.966 -26.1951 -61.1054C133.554 -228.177 40.7094 -322.758 200.458 -489.83C360.207 -656.901 453.051 -562.32 612.846 -729.44C772.641 -896.56 679.75 -991.093 839.499 -1158.16" stroke="#4A3AFF" stroke-opacity="0.03" stroke-width="2" stroke-miterlimit="10"/>
<path d="M82.8934 2025.04C242.642 1857.97 335.486 1952.55 495.235 1785.48C654.984 1618.41 562.14 1523.83 721.843 1356.8C881.545 1189.78 974.435 1284.31 1134.18 1117.24C1293.93 950.169 1201.09 855.588 1360.84 688.516C1520.59 521.444 1613.43 616.025 1773.23 448.906C1933.02 281.786 1840.13 187.253 1999.88 20.1814" stroke="#4A3AFF" stroke-opacity="0.03" stroke-width="2" stroke-miterlimit="10"/>
<path d="M-506.03 1425.9C-346.281 1258.82 -253.437 1353.41 -93.6879 1186.33C66.0609 1019.26 -26.7832 924.682 132.92 757.658C292.622 590.634 385.512 685.167 545.261 518.096C705.01 351.024 612.166 256.443 771.915 89.3715C931.663 -77.7001 1024.51 16.8808 1184.3 -150.239C1344.1 -317.359 1251.21 -411.892 1410.96 -578.963" stroke="#4A3AFF" stroke-opacity="0.03" stroke-width="2" stroke-miterlimit="10"/>
<path d="M652.041 2621.92C811.79 2454.85 904.634 2549.43 1064.38 2382.35C1224.13 2215.28 1131.29 2120.7 1290.99 1953.68C1450.69 1786.65 1543.58 1881.19 1703.33 1714.12C1863.08 1547.04 1770.24 1452.46 1929.99 1285.39C2089.73 1118.32 2182.58 1212.9 2342.37 1045.78C2502.17 878.662 2409.28 784.129 2569.03 617.057" stroke="#4A3AFF" stroke-opacity="0.03" stroke-width="2" stroke-miterlimit="10"/>
<path d="M-796.669 1155.14C-636.921 988.068 -544.076 1082.65 -384.328 915.577C-224.579 748.506 -317.423 653.925 -157.72 486.901C1.98259 319.878 94.8727 414.411 254.621 247.339C414.37 80.2673 321.526 -14.3137 481.275 -181.385C641.024 -348.457 733.868 -253.876 893.662 -420.996C1053.46 -588.115 960.567 -682.648 1120.32 -849.72" stroke="#4A3AFF" stroke-opacity="0.03" stroke-width="2" stroke-miterlimit="10"/>
<path d="M361.401 2331.5C521.15 2164.43 613.994 2259.01 773.742 2091.94C933.491 1924.87 840.647 1830.29 1000.35 1663.26C1160.05 1496.24 1252.94 1590.77 1412.69 1423.7C1572.44 1256.63 1479.6 1162.05 1639.34 994.976C1799.09 827.904 1891.94 922.485 2051.73 755.365C2211.53 588.245 2118.64 493.712 2278.39 326.641" stroke="#4A3AFF" stroke-opacity="0.03" stroke-width="2" stroke-miterlimit="10"/>
<path d="M-225.212 1734.34C-65.4636 1567.27 27.3805 1661.85 187.129 1494.78C346.878 1327.71 254.034 1233.13 413.737 1066.1C573.439 899.08 666.33 993.613 826.078 826.541C985.827 659.469 892.983 564.888 1052.73 397.817C1212.48 230.745 1305.32 325.326 1465.12 158.206C1624.91 -8.91325 1532.02 -103.446 1691.77 -270.518" stroke="#4A3AFF" stroke-opacity="0.03" stroke-width="2" stroke-miterlimit="10"/>
<path d="M-1186.55 745.791C-1026.8 578.719 -933.961 673.3 -774.212 506.229C-614.463 339.157 -707.307 244.576 -547.605 77.5525C-387.902 -89.471 -295.012 5.0619 -135.263 -162.01C24.4859 -329.081 -68.3583 -423.662 91.3905 -590.734C251.139 -757.806 343.983 -663.225 503.778 -830.344C663.573 -997.464 570.683 -1092 730.432 -1259.07" stroke="#4A3AFF" stroke-opacity="0.03" stroke-width="2" stroke-miterlimit="10"/>
<path d="M-26.1749 1924.14C133.574 1757.07 226.418 1851.65 386.167 1684.57C545.916 1517.5 453.071 1422.92 612.774 1255.9C772.477 1088.87 865.367 1183.41 1025.12 1016.34C1184.86 849.264 1092.02 754.683 1251.77 587.612C1411.52 420.54 1504.36 515.121 1664.16 348.001C1823.95 180.882 1731.06 86.3487 1890.81 -80.7229" stroke="#4A3AFF" stroke-opacity="0.03" stroke-width="2" stroke-miterlimit="10"/>
<path d="M-615.097 1344.65C-455.348 1177.58 -362.504 1272.16 -202.755 1105.09C-43.0062 938.019 -135.85 843.438 23.8524 676.415C183.555 509.391 276.445 603.924 436.194 436.853C595.943 269.781 503.099 175.2 662.847 8.12836C822.596 -158.943 915.44 -64.3623 1075.24 -231.482C1235.03 -398.602 1142.14 -493.135 1301.89 -660.206" stroke="#4A3AFF" stroke-opacity="0.03" stroke-width="2" stroke-miterlimit="10"/>
<path d="M542.973 2521.01C702.721 2353.94 795.566 2448.52 955.314 2281.45C1115.06 2114.38 1022.22 2019.8 1181.92 1852.78C1341.62 1685.75 1434.51 1780.28 1594.26 1613.21C1754.01 1446.14 1661.17 1351.56 1820.92 1184.49C1980.67 1017.42 2073.51 1112 2233.3 944.878C2393.1 777.759 2300.21 683.226 2459.96 516.154" stroke="#4A3AFF" stroke-opacity="0.03" stroke-width="2" stroke-miterlimit="10"/>
<path d="M-905.738 1054.24C-745.989 887.164 -653.145 981.745 -493.396 814.674C-333.647 647.602 -426.491 553.021 -266.788 385.997C-107.086 218.974 -14.1955 313.507 145.553 146.435C305.302 -20.6365 212.458 -115.217 372.207 -282.289C531.955 -449.361 624.8 -354.78 784.594 -521.9C944.389 -689.019 851.499 -783.552 1011.25 -950.624" stroke="#4A3AFF" stroke-opacity="0.03" stroke-width="2" stroke-miterlimit="10"/>
<path d="M254.642 2232.58C414.391 2065.51 507.235 2160.09 666.984 1993.02C826.733 1825.95 733.889 1731.37 893.591 1564.34C1053.29 1397.32 1146.18 1491.85 1305.93 1324.78C1465.68 1157.71 1372.84 1063.13 1532.59 896.057C1692.34 728.985 1785.18 823.566 1944.97 656.447C2104.77 489.327 2011.88 394.794 2171.63 227.722" stroke="#4A3AFF" stroke-opacity="0.03" stroke-width="2" stroke-miterlimit="10"/>
<path d="M-334.281 1633.44C-174.532 1466.37 -81.6877 1560.95 78.061 1393.88C237.81 1226.8 144.966 1132.22 304.668 965.199C464.371 798.175 557.261 892.708 717.01 725.637C876.759 558.565 783.915 463.984 943.663 296.913C1103.41 129.841 1196.26 224.422 1356.05 57.3022C1515.85 -109.818 1422.96 -204.35 1582.7 -371.422" stroke="#4A3AFF" stroke-opacity="0.03" stroke-width="2" stroke-miterlimit="10"/>
<path d="M-992.247 948.604C-832.498 781.533 -739.654 876.114 -579.905 709.042C-420.156 541.971 -513 447.39 -353.297 280.366C-193.595 113.342 -100.705 207.875 59.0442 40.8037C218.793 -126.268 125.949 -220.849 285.697 -387.92C445.446 -554.992 538.29 -460.411 698.085 -627.531C857.88 -794.651 764.99 -889.184 924.739 -1056.26" stroke="#4A3AFF" stroke-opacity="0.03" stroke-width="2" stroke-miterlimit="10"/>
<path d="M168.132 2126.95C327.881 1959.88 420.725 2054.46 580.474 1887.39C740.223 1720.32 647.378 1625.74 807.081 1458.71C966.784 1291.69 1059.67 1386.22 1219.42 1219.15C1379.17 1052.08 1286.33 957.497 1446.08 790.425C1605.82 623.354 1698.67 717.935 1858.46 550.815C2018.26 383.695 1925.37 289.162 2085.12 122.091" stroke="#4A3AFF" stroke-opacity="0.03" stroke-width="2" stroke-miterlimit="10"/>
<path d="M-420.791 1527.81C-261.042 1360.73 -168.198 1455.32 -8.44909 1288.24C151.3 1121.17 58.4555 1026.59 218.158 859.567C377.861 692.544 470.751 787.077 630.5 620.005C790.249 452.933 697.405 358.352 857.153 191.281C1016.9 24.2091 1109.75 118.79 1269.54 -48.3297C1429.34 -215.449 1336.45 -309.982 1496.19 -477.054" stroke="#4A3AFF" stroke-opacity="0.03" stroke-width="2" stroke-miterlimit="10"/>
<path d="M737.28 2723.83C897.029 2556.75 989.873 2651.34 1149.62 2484.26C1309.37 2317.19 1216.53 2222.61 1376.23 2055.59C1535.93 1888.56 1628.82 1983.1 1788.57 1816.03C1948.32 1648.95 1855.48 1554.37 2015.22 1387.3C2174.97 1220.23 2267.82 1314.81 2427.61 1147.69C2587.41 980.571 2494.52 886.038 2654.26 718.967" stroke="#4A3AFF" stroke-opacity="0.03" stroke-width="2" stroke-miterlimit="10"/>
<path d="M-711.431 1257.05C-551.682 1089.98 -458.838 1184.56 -299.089 1017.49C-139.34 850.415 -232.184 755.834 -72.4814 588.811C87.2214 421.787 180.111 516.32 339.86 349.249C499.609 182.177 406.765 87.596 566.514 -79.4756C726.262 -246.547 819.107 -151.966 978.901 -319.086C1138.7 -486.206 1045.81 -580.739 1205.55 -747.81" stroke="#4A3AFF" stroke-opacity="0.03" stroke-width="2" stroke-miterlimit="10"/>
<path d="M446.638 2433.41C606.387 2266.34 699.231 2360.92 858.98 2193.85C1018.73 2026.78 925.885 1932.19 1085.59 1765.17C1245.29 1598.15 1338.18 1692.68 1497.93 1525.61C1657.68 1358.54 1564.83 1263.96 1724.58 1096.88C1884.33 929.813 1977.18 1024.39 2136.97 857.274C2296.76 690.154 2203.87 595.621 2363.62 428.55" stroke="#4A3AFF" stroke-opacity="0.03" stroke-width="2" stroke-miterlimit="10"/>
<path d="M-139.974 1836.25C19.7746 1669.18 112.619 1763.76 272.368 1596.69C432.116 1429.62 339.272 1335.04 498.975 1168.01C658.678 1000.99 751.568 1095.52 911.317 928.45C1071.07 761.379 978.221 666.798 1137.97 499.726C1297.72 332.654 1390.56 427.235 1550.36 260.116C1710.15 92.9959 1617.26 -1.53702 1777.01 -168.609" stroke="#4A3AFF" stroke-opacity="0.03" stroke-width="2" stroke-miterlimit="10"/>
<path d="M-380.703 1586.15C-220.954 1419.08 -128.11 1513.66 31.639 1346.58C191.388 1179.51 98.5437 1084.93 258.246 917.908C417.949 750.885 510.839 845.418 670.588 678.346C830.337 511.275 737.493 416.694 897.241 249.622C1056.99 82.5504 1149.83 177.131 1309.63 10.0116C1469.42 -157.108 1376.53 -251.641 1536.28 -418.713" stroke="#4A3AFF" stroke-opacity="0.03" stroke-width="2" stroke-miterlimit="10"/>
<path d="M-1232.97 698.5C-1073.23 531.428 -980.382 626.009 -820.633 458.938C-660.885 291.866 -753.729 197.285 -594.026 30.2615C-434.323 -136.762 -341.433 -42.2291 -181.684 -209.301C-21.9354 -376.372 -114.78 -470.953 44.9691 -638.025C204.718 -805.097 297.562 -710.516 457.357 -877.635C617.152 -1044.76 524.261 -1139.29 684.01 -1306.36" stroke="#4A3AFF" stroke-opacity="0.03" stroke-width="2" stroke-miterlimit="10"/>
<path d="M-72.5962 1876.85C87.1526 1709.77 179.997 1804.36 339.745 1637.28C499.494 1470.21 406.65 1375.63 566.353 1208.61C726.056 1041.58 818.946 1136.12 978.695 969.045C1138.44 801.973 1045.6 707.392 1205.35 540.321C1365.1 373.249 1457.94 467.83 1617.74 300.71C1777.53 133.591 1684.64 39.0577 1844.39 -128.014" stroke="#4A3AFF" stroke-opacity="0.03" stroke-width="2" stroke-miterlimit="10"/>
<path d="M-661.519 1297.36C-501.77 1130.29 -408.926 1224.87 -249.177 1057.8C-89.4281 890.728 -182.272 796.147 -22.5695 629.124C137.133 462.1 230.023 556.633 389.772 389.562C549.521 222.49 456.677 127.909 616.426 -39.1627C776.174 -206.234 869.018 -111.653 1028.81 -278.773C1188.61 -445.893 1095.72 -540.426 1255.47 -707.497" stroke="#4A3AFF" stroke-opacity="0.03" stroke-width="2" stroke-miterlimit="10"/>
<path d="M496.552 2473.72C656.3 2306.65 749.144 2401.23 908.893 2234.16C1068.64 2067.09 975.798 1972.51 1135.5 1805.48C1295.2 1638.46 1388.09 1732.99 1547.84 1565.92C1707.59 1398.85 1614.75 1304.27 1774.5 1137.2C1934.24 970.126 2027.09 1064.71 2186.88 897.587C2346.68 730.468 2253.79 635.935 2413.54 468.863" stroke="#4A3AFF" stroke-opacity="0.03" stroke-width="2" stroke-miterlimit="10"/>
<path d="M-952.159 1006.94C-792.41 839.873 -699.566 934.454 -539.817 767.383C-380.068 600.311 -472.913 505.73 -313.21 338.706C-153.507 171.683 -60.6169 266.216 99.1318 99.1441C258.881 -67.9276 166.036 -162.509 325.785 -329.58C485.534 -496.652 578.378 -402.071 738.173 -569.191C897.968 -736.31 805.077 -830.843 964.826 -997.915" stroke="#4A3AFF" stroke-opacity="0.03" stroke-width="2" stroke-miterlimit="10"/>
<path d="M208.219 2185.29C367.967 2018.22 460.812 2112.8 620.56 1945.73C780.309 1778.66 687.465 1684.08 847.168 1517.05C1006.87 1350.03 1099.76 1444.56 1259.51 1277.49C1419.26 1110.42 1326.41 1015.84 1486.16 848.766C1645.91 681.694 1738.76 776.275 1898.55 609.156C2058.35 442.036 1965.46 347.503 2125.2 180.431" stroke="#4A3AFF" stroke-opacity="0.03" stroke-width="2" stroke-miterlimit="10"/>
<path d="M-1123.91 799.404C-964.159 632.333 -871.315 726.914 -711.566 559.842C-551.817 392.77 -644.662 298.189 -484.959 131.166C-325.256 -35.8578 -232.366 58.6752 -72.6171 -108.396C87.1317 -275.468 -5.71252 -370.049 154.036 -537.121C313.785 -704.192 406.629 -609.611 566.424 -776.731C726.219 -943.851 633.329 -1038.38 793.077 -1205.46" stroke="#4A3AFF" stroke-opacity="0.03" stroke-width="2" stroke-miterlimit="10"/>
<path d="M36.472 1977.75C196.221 1810.68 289.065 1905.26 448.814 1738.19C608.562 1571.12 515.718 1476.53 675.421 1309.51C835.124 1142.49 928.014 1237.02 1087.76 1069.95C1247.51 902.877 1154.67 808.296 1314.42 641.225C1474.16 474.153 1567.01 568.734 1726.8 401.614C1886.6 234.494 1793.71 139.962 1953.46 -27.1101" stroke="#4A3AFF" stroke-opacity="0.03" stroke-width="2" stroke-miterlimit="10"/>
<path d="M-552.451 1378.61C-392.702 1211.53 -299.858 1306.11 -140.109 1139.04C19.6395 971.972 -73.2046 877.391 86.4982 710.367C246.201 543.343 339.091 637.876 498.84 470.805C658.589 303.733 565.744 209.152 725.493 42.0805C885.242 -124.991 978.086 -30.4102 1137.88 -197.53C1297.68 -364.65 1204.79 -459.183 1364.53 -626.254" stroke="#4A3AFF" stroke-opacity="0.03" stroke-width="2" stroke-miterlimit="10"/>
<path d="M605.619 2574.63C765.367 2407.55 858.212 2502.14 1017.96 2335.06C1177.71 2167.99 1084.86 2073.41 1244.57 1906.39C1404.27 1739.36 1497.16 1833.9 1656.91 1666.83C1816.66 1499.75 1723.81 1405.17 1883.56 1238.1C2043.31 1071.03 2136.16 1165.61 2295.95 998.491C2455.75 831.371 2362.86 736.838 2522.6 569.767" stroke="#4A3AFF" stroke-opacity="0.03" stroke-width="2" stroke-miterlimit="10"/>
<path d="M-843.092 1107.85C-683.343 940.777 -590.499 1035.36 -430.75 868.287C-271.001 701.215 -363.845 606.634 -204.143 439.611C-44.4399 272.587 48.4502 367.12 208.199 200.048C367.948 32.9767 275.104 -61.6042 434.852 -228.676C594.601 -395.747 687.445 -301.167 847.24 -468.286C1007.03 -635.406 914.145 -729.939 1073.89 -897.011" stroke="#4A3AFF" stroke-opacity="0.03" stroke-width="2" stroke-miterlimit="10"/>
<path d="M314.979 2284.21C474.728 2117.14 567.572 2211.72 727.32 2044.65C887.069 1877.57 794.225 1782.99 953.928 1615.97C1113.63 1448.95 1206.52 1543.48 1366.27 1376.41C1526.02 1209.34 1433.17 1114.76 1592.92 947.684C1752.67 780.612 1845.52 875.193 2005.31 708.073C2165.11 540.953 2072.22 446.42 2231.96 279.349" stroke="#4A3AFF" stroke-opacity="0.03" stroke-width="2" stroke-miterlimit="10"/>
<path d="M-271.635 1687.05C-111.886 1519.98 -19.0418 1614.56 140.707 1447.49C300.456 1280.42 207.612 1185.84 367.314 1018.81C527.017 851.789 619.907 946.322 779.656 779.25C939.405 612.178 846.561 517.597 1006.31 350.526C1166.06 183.454 1258.9 278.035 1418.7 110.915C1578.49 -56.2043 1485.6 -150.737 1645.35 -317.809" stroke="#4A3AFF" stroke-opacity="0.03" stroke-width="2" stroke-miterlimit="10"/>
</g>
<defs>
<clipPath id="clip0_512_2">
<rect width="1924" height="808" fill="white" transform="translate(-2 4)"/>
</clipPath>
</defs>
</svg>
