<svg width="196" height="148" viewBox="0 0 196 148" fill="none" xmlns="http://www.w3.org/2000/svg">
<path d="M7.42173 5.59111L5.70902 0L3.99632 5.59111L0 9.86667L5.70902 8.55111L11.418 9.86667L7.42173 5.59111Z" fill="#7659FF" fill-opacity="0.26"/>
<path d="M33.7906 5.59111L32.0779 0L30.3652 5.59111L26.3689 9.86667L32.0779 8.55111L37.7869 9.86667L33.7906 5.59111Z" fill="#7659FF" fill-opacity="0.26"/>
<path d="M58.4467 0L60.1594 5.59111L64.1558 9.86667L58.4467 8.55111L52.7377 9.86667L56.734 5.59111L58.4467 0Z" fill="#7659FF" fill-opacity="0.26"/>
<path d="M86.5283 5.59111L84.8156 0L83.1029 5.59111L79.1066 9.86667L84.8156 8.55111L90.5246 9.86667L86.5283 5.59111Z" fill="#7659FF" fill-opacity="0.26"/>
<path d="M111.184 0L112.897 5.59111L116.893 9.86667L111.184 8.55111L105.475 9.86667L109.472 5.59111L111.184 0Z" fill="#7659FF" fill-opacity="0.26"/>
<path d="M139.266 5.59111L137.553 0L135.841 5.59111L131.844 9.86667L137.553 8.55111L143.262 9.86667L139.266 5.59111Z" fill="#7659FF" fill-opacity="0.26"/>
<path d="M163.922 0L165.635 5.59111L169.631 9.86667L163.922 8.55111L158.213 9.86667L162.209 5.59111L163.922 0Z" fill="#7659FF" fill-opacity="0.26"/>
<path d="M192.004 5.59111L190.291 0L188.578 5.59111L184.582 9.86667L190.291 8.55111L196 9.86667L192.004 5.59111Z" fill="#7659FF" fill-opacity="0.26"/>
<path d="M5.70902 19.7333L7.42173 25.3244L11.418 29.6L5.70902 28.2844L0 29.6L3.99632 25.3244L5.70902 19.7333Z" fill="#7659FF" fill-opacity="0.26"/>
<path d="M33.7906 25.3244L32.0779 19.7333L30.3652 25.3244L26.3689 29.6L32.0779 28.2844L37.7869 29.6L33.7906 25.3244Z" fill="#7659FF" fill-opacity="0.26"/>
<path d="M58.4467 19.7333L60.1594 25.3244L64.1558 29.6L58.4467 28.2844L52.7377 29.6L56.734 25.3244L58.4467 19.7333Z" fill="#7659FF" fill-opacity="0.26"/>
<path d="M86.5283 25.3244L84.8156 19.7333L83.1029 25.3244L79.1066 29.6L84.8156 28.2844L90.5246 29.6L86.5283 25.3244Z" fill="#7659FF" fill-opacity="0.26"/>
<path d="M111.184 19.7333L112.897 25.3244L116.893 29.6L111.184 28.2844L105.475 29.6L109.472 25.3244L111.184 19.7333Z" fill="#7659FF" fill-opacity="0.26"/>
<path d="M139.266 25.3244L137.553 19.7333L135.841 25.3244L131.844 29.6L137.553 28.2844L143.262 29.6L139.266 25.3244Z" fill="#7659FF" fill-opacity="0.26"/>
<path d="M163.922 19.7333L165.635 25.3244L169.631 29.6L163.922 28.2844L158.213 29.6L162.209 25.3244L163.922 19.7333Z" fill="#7659FF" fill-opacity="0.26"/>
<path d="M192.004 25.3244L190.291 19.7333L188.578 25.3244L184.582 29.6L190.291 28.2844L196 29.6L192.004 25.3244Z" fill="#7659FF" fill-opacity="0.26"/>
<path d="M5.70902 39.4667L7.42173 45.0578L11.418 49.3333L5.70902 48.0178L0 49.3333L3.99632 45.0578L5.70902 39.4667Z" fill="#7659FF" fill-opacity="0.26"/>
<path d="M33.7906 45.0578L32.0779 39.4667L30.3652 45.0578L26.3689 49.3333L32.0779 48.0178L37.7869 49.3333L33.7906 45.0578Z" fill="#7659FF" fill-opacity="0.26"/>
<path d="M58.4467 39.4667L60.1594 45.0578L64.1558 49.3333L58.4467 48.0178L52.7377 49.3333L56.734 45.0578L58.4467 39.4667Z" fill="#7659FF" fill-opacity="0.26"/>
<path d="M86.5283 45.0578L84.8156 39.4667L83.1029 45.0578L79.1066 49.3333L84.8156 48.0178L90.5246 49.3333L86.5283 45.0578Z" fill="#7659FF" fill-opacity="0.26"/>
<path d="M111.184 39.4667L112.897 45.0578L116.893 49.3333L111.184 48.0178L105.475 49.3333L109.472 45.0578L111.184 39.4667Z" fill="#7659FF" fill-opacity="0.26"/>
<path d="M139.266 45.0578L137.553 39.4667L135.841 45.0578L131.844 49.3333L137.553 48.0178L143.262 49.3333L139.266 45.0578Z" fill="#7659FF" fill-opacity="0.26"/>
<path d="M163.922 39.4667L165.635 45.0578L169.631 49.3333L163.922 48.0178L158.213 49.3333L162.209 45.0578L163.922 39.4667Z" fill="#7659FF" fill-opacity="0.26"/>
<path d="M192.004 45.0578L190.291 39.4667L188.578 45.0578L184.582 49.3333L190.291 48.0178L196 49.3333L192.004 45.0578Z" fill="#7659FF" fill-opacity="0.26"/>
<path d="M5.70902 59.2L7.42173 64.7911L11.418 69.0667L5.70902 67.7511L0 69.0667L3.99632 64.7911L5.70902 59.2Z" fill="#7659FF" fill-opacity="0.26"/>
<path d="M33.7906 64.7911L32.0779 59.2L30.3652 64.7911L26.3689 69.0667L32.0779 67.7511L37.7869 69.0667L33.7906 64.7911Z" fill="#7659FF" fill-opacity="0.26"/>
<path d="M58.4467 59.2L60.1594 64.7911L64.1558 69.0667L58.4467 67.7511L52.7377 69.0667L56.734 64.7911L58.4467 59.2Z" fill="#7659FF" fill-opacity="0.26"/>
<path d="M86.5283 64.7911L84.8156 59.2L83.1029 64.7911L79.1066 69.0667L84.8156 67.7511L90.5246 69.0667L86.5283 64.7911Z" fill="#7659FF" fill-opacity="0.26"/>
<path d="M111.184 59.2L112.897 64.7911L116.893 69.0667L111.184 67.7511L105.475 69.0667L109.472 64.7911L111.184 59.2Z" fill="#7659FF" fill-opacity="0.26"/>
<path d="M139.266 64.7911L137.553 59.2L135.841 64.7911L131.844 69.0667L137.553 67.7511L143.262 69.0667L139.266 64.7911Z" fill="#7659FF" fill-opacity="0.26"/>
<path d="M163.922 59.2L165.635 64.7911L169.631 69.0667L163.922 67.7511L158.213 69.0667L162.209 64.7911L163.922 59.2Z" fill="#7659FF" fill-opacity="0.26"/>
<path d="M192.004 64.7911L190.291 59.2L188.578 64.7911L184.582 69.0667L190.291 67.7511L196 69.0667L192.004 64.7911Z" fill="#7659FF" fill-opacity="0.26"/>
<path d="M5.70902 78.9333L7.42173 84.5244L11.418 88.8L5.70902 87.4844L0 88.8L3.99632 84.5244L5.70902 78.9333Z" fill="#7659FF" fill-opacity="0.26"/>
<path d="M33.7906 84.5244L32.0779 78.9333L30.3652 84.5244L26.3689 88.8L32.0779 87.4844L37.7869 88.8L33.7906 84.5244Z" fill="#7659FF" fill-opacity="0.26"/>
<path d="M58.4467 78.9333L60.1594 84.5244L64.1558 88.8L58.4467 87.4844L52.7377 88.8L56.734 84.5244L58.4467 78.9333Z" fill="#7659FF" fill-opacity="0.26"/>
<path d="M86.5283 84.5244L84.8156 78.9333L83.1029 84.5244L79.1066 88.8L84.8156 87.4844L90.5246 88.8L86.5283 84.5244Z" fill="#7659FF" fill-opacity="0.26"/>
<path d="M111.184 78.9333L112.897 84.5244L116.893 88.8L111.184 87.4844L105.475 88.8L109.472 84.5244L111.184 78.9333Z" fill="#7659FF" fill-opacity="0.26"/>
<path d="M139.266 84.5244L137.553 78.9333L135.841 84.5244L131.844 88.8L137.553 87.4844L143.262 88.8L139.266 84.5244Z" fill="#7659FF" fill-opacity="0.26"/>
<path d="M163.922 78.9333L165.635 84.5244L169.631 88.8L163.922 87.4844L158.213 88.8L162.209 84.5244L163.922 78.9333Z" fill="#7659FF" fill-opacity="0.26"/>
<path d="M192.004 84.5244L190.291 78.9333L188.578 84.5244L184.582 88.8L190.291 87.4844L196 88.8L192.004 84.5244Z" fill="#7659FF" fill-opacity="0.26"/>
<path d="M5.70902 98.6667L7.42173 104.258L11.418 108.533L5.70902 107.218L0 108.533L3.99632 104.258L5.70902 98.6667Z" fill="#7659FF" fill-opacity="0.26"/>
<path d="M33.7906 104.258L32.0779 98.6667L30.3652 104.258L26.3689 108.533L32.0779 107.218L37.7869 108.533L33.7906 104.258Z" fill="#7659FF" fill-opacity="0.26"/>
<path d="M58.4467 98.6667L60.1594 104.258L64.1558 108.533L58.4467 107.218L52.7377 108.533L56.734 104.258L58.4467 98.6667Z" fill="#7659FF" fill-opacity="0.26"/>
<path d="M86.5283 104.258L84.8156 98.6667L83.1029 104.258L79.1066 108.533L84.8156 107.218L90.5246 108.533L86.5283 104.258Z" fill="#7659FF" fill-opacity="0.26"/>
<path d="M111.184 98.6667L112.897 104.258L116.893 108.533L111.184 107.218L105.475 108.533L109.472 104.258L111.184 98.6667Z" fill="#7659FF" fill-opacity="0.26"/>
<path d="M139.266 104.258L137.553 98.6667L135.841 104.258L131.844 108.533L137.553 107.218L143.262 108.533L139.266 104.258Z" fill="#7659FF" fill-opacity="0.26"/>
<path d="M163.922 98.6667L165.635 104.258L169.631 108.533L163.922 107.218L158.213 108.533L162.209 104.258L163.922 98.6667Z" fill="#7659FF" fill-opacity="0.26"/>
<path d="M192.004 104.258L190.291 98.6667L188.578 104.258L184.582 108.533L190.291 107.218L196 108.533L192.004 104.258Z" fill="#7659FF" fill-opacity="0.26"/>
<path d="M5.70902 118.4L7.42173 123.991L11.418 128.267L5.70902 126.951L0 128.267L3.99632 123.991L5.70902 118.4Z" fill="#7659FF" fill-opacity="0.26"/>
<path d="M33.7906 123.991L32.0779 118.4L30.3652 123.991L26.3689 128.267L32.0779 126.951L37.7869 128.267L33.7906 123.991Z" fill="#7659FF" fill-opacity="0.26"/>
<path d="M58.4467 118.4L60.1594 123.991L64.1558 128.267L58.4467 126.951L52.7377 128.267L56.734 123.991L58.4467 118.4Z" fill="#7659FF" fill-opacity="0.26"/>
<path d="M86.5283 123.991L84.8156 118.4L83.1029 123.991L79.1066 128.267L84.8156 126.951L90.5246 128.267L86.5283 123.991Z" fill="#7659FF" fill-opacity="0.26"/>
<path d="M111.184 118.4L112.897 123.991L116.893 128.267L111.184 126.951L105.475 128.267L109.472 123.991L111.184 118.4Z" fill="#7659FF" fill-opacity="0.26"/>
<path d="M139.266 123.991L137.553 118.4L135.841 123.991L131.844 128.267L137.553 126.951L143.262 128.267L139.266 123.991Z" fill="#7659FF" fill-opacity="0.26"/>
<path d="M163.922 118.4L165.635 123.991L169.631 128.267L163.922 126.951L158.213 128.267L162.209 123.991L163.922 118.4Z" fill="#7659FF" fill-opacity="0.26"/>
<path d="M192.004 123.991L190.291 118.4L188.578 123.991L184.582 128.267L190.291 126.951L196 128.267L192.004 123.991Z" fill="#7659FF" fill-opacity="0.26"/>
<path d="M5.70902 138.133L7.42173 143.724L11.418 148L5.70902 146.684L0 148L3.99632 143.724L5.70902 138.133Z" fill="#7659FF" fill-opacity="0.26"/>
<path d="M33.7906 143.724L32.0779 138.133L30.3652 143.724L26.3689 148L32.0779 146.684L37.7869 148L33.7906 143.724Z" fill="#7659FF" fill-opacity="0.26"/>
<path d="M58.4467 138.133L60.1594 143.724L64.1558 148L58.4467 146.684L52.7377 148L56.734 143.724L58.4467 138.133Z" fill="#7659FF" fill-opacity="0.26"/>
<path d="M86.5283 143.724L84.8156 138.133L83.1029 143.724L79.1066 148L84.8156 146.684L90.5246 148L86.5283 143.724Z" fill="#7659FF" fill-opacity="0.26"/>
<path d="M111.184 138.133L112.897 143.724L116.893 148L111.184 146.684L105.475 148L109.472 143.724L111.184 138.133Z" fill="#7659FF" fill-opacity="0.26"/>
<path d="M139.266 143.724L137.553 138.133L135.841 143.724L131.844 148L137.553 146.684L143.262 148L139.266 143.724Z" fill="#7659FF" fill-opacity="0.26"/>
<path d="M163.922 138.133L165.635 143.724L169.631 148L163.922 146.684L158.213 148L162.209 143.724L163.922 138.133Z" fill="#7659FF" fill-opacity="0.26"/>
<path d="M192.004 143.724L190.291 138.133L188.578 143.724L184.582 148L190.291 146.684L196 148L192.004 143.724Z" fill="#7659FF" fill-opacity="0.26"/>
</svg>
