<svg width="12" height="217" viewBox="0 0 12 217" fill="none" xmlns="http://www.w3.org/2000/svg">
<path d="M5.77344 216.773L11.5469 211L5.77344 205.227L-6.53267e-05 211L5.77344 216.773ZM4.77344 0V2.02885H6.77344V0L4.77344 0ZM4.77344 6.08654L4.77344 10.1442H6.77344L6.77344 6.08654H4.77344ZM4.77344 14.2019V18.2596H6.77344V14.2019H4.77344ZM4.77344 22.3173V26.375H6.77344V22.3173H4.77344ZM4.77344 30.4327V34.4904H6.77344V30.4327H4.77344ZM4.77344 38.5481V42.6058H6.77344V38.5481H4.77344ZM4.77344 46.6635L4.77344 50.7212H6.77344L6.77344 46.6635H4.77344ZM4.77344 54.7789V58.8365H6.77344V54.7789H4.77344ZM4.77344 62.8942L4.77344 66.9519H6.77344V62.8942H4.77344ZM4.77344 71.0096V75.0673H6.77344V71.0096H4.77344ZM4.77344 79.125V83.1827H6.77344V79.125H4.77344ZM4.77344 87.2404V91.2981H6.77344V87.2404H4.77344ZM4.77344 95.3558V99.4135H6.77344L6.77344 95.3558H4.77344ZM4.77344 103.471V107.529H6.77344L6.77344 103.471H4.77344ZM4.77344 111.587V115.644H6.77344V111.587H4.77344ZM4.77344 119.702V123.76H6.77344V119.702H4.77344ZM4.77344 127.817V131.875H6.77344V127.817H4.77344ZM4.77344 135.933L4.77344 139.99H6.77344L6.77344 135.933H4.77344ZM4.77344 144.048V148.106H6.77344V144.048H4.77344ZM4.77344 152.163L4.77344 156.221H6.77344L6.77344 152.163H4.77344ZM4.77344 160.279V164.337H6.77344V160.279H4.77344ZM4.77344 168.394V172.452H6.77344V168.394H4.77344ZM4.77344 176.51V180.567H6.77344V176.51H4.77344ZM4.77344 184.625V188.683H6.77344V184.625H4.77344ZM4.77344 192.74L4.77344 196.798H6.77344L6.77344 192.74H4.77344ZM4.77344 200.856V204.914H6.77344V200.856H4.77344ZM4.77344 208.971V211H6.77344V208.971H4.77344ZM5.77344 216.773L11.5469 211L5.77344 205.227L-6.53267e-05 211L5.77344 216.773ZM4.77344 0V2.02885H6.77344V0L4.77344 0ZM4.77344 6.08654L4.77344 10.1442H6.77344L6.77344 6.08654H4.77344ZM4.77344 14.2019V18.2596H6.77344V14.2019H4.77344ZM4.77344 22.3173V26.375H6.77344V22.3173H4.77344ZM4.77344 30.4327V34.4904H6.77344V30.4327H4.77344ZM4.77344 38.5481V42.6058H6.77344V38.5481H4.77344ZM4.77344 46.6635L4.77344 50.7212H6.77344L6.77344 46.6635H4.77344ZM4.77344 54.7789V58.8365H6.77344V54.7789H4.77344ZM4.77344 62.8942L4.77344 66.9519H6.77344V62.8942H4.77344ZM4.77344 71.0096V75.0673H6.77344V71.0096H4.77344ZM4.77344 79.125V83.1827H6.77344V79.125H4.77344ZM4.77344 87.2404V91.2981H6.77344V87.2404H4.77344ZM4.77344 95.3558V99.4135H6.77344L6.77344 95.3558H4.77344ZM4.77344 103.471V107.529H6.77344L6.77344 103.471H4.77344ZM4.77344 111.587V115.644H6.77344V111.587H4.77344ZM4.77344 119.702V123.76H6.77344V119.702H4.77344ZM4.77344 127.817V131.875H6.77344V127.817H4.77344ZM4.77344 135.933L4.77344 139.99H6.77344L6.77344 135.933H4.77344ZM4.77344 144.048V148.106H6.77344V144.048H4.77344ZM4.77344 152.163L4.77344 156.221H6.77344L6.77344 152.163H4.77344ZM4.77344 160.279V164.337H6.77344V160.279H4.77344ZM4.77344 168.394V172.452H6.77344V168.394H4.77344ZM4.77344 176.51V180.567H6.77344V176.51H4.77344ZM4.77344 184.625V188.683H6.77344V184.625H4.77344ZM4.77344 192.74L4.77344 196.798H6.77344L6.77344 192.74H4.77344ZM4.77344 200.856V204.914H6.77344V200.856H4.77344ZM4.77344 208.971V211H6.77344V208.971H4.77344Z" fill="#4A3AFF"/>
</svg>