<svg width="176" height="102" viewBox="0 0 176 102" fill="none" xmlns="http://www.w3.org/2000/svg">
<path d="M20.6357 22.397L28.5003 22.8817" stroke="#11D748" stroke-width="2" stroke-linecap="round"/>
<path d="M20.6357 8.33447L31.0598 17.055" stroke="#007AFF" stroke-width="2" stroke-linecap="round"/>
<path d="M32.2314 1L35.6965 14.1416" stroke="#FF3F56" stroke-width="2" stroke-linecap="round"/>
<path d="M1 59.7211C10.9514 51.7132 30.5776 46.4837 37.6571 41.0655C42.3516 37.4727 47.1591 32.0056 47.1591 25.7695C47.1591 23.541 46.2979 19.19 43.0533 20.9638C41.4331 21.8496 40.0972 24.2722 39.2408 25.8281C37.2743 29.4005 35.8965 33.4163 35.0324 37.388C32.5319 48.8807 31.2195 60.9278 30.472 72.6539C30.2698 75.8269 28.5198 91.9969 35.6482 86.6899C42.0043 81.9579 60.7086 56.1175 60.7086 65.7271" stroke="#FF3F56" stroke-width="2" stroke-linecap="round"/>
<path d="M60.6793 65.9155C60.6793 69.6396 59.6372 73.5242 60.2104 77.2131C60.7508 80.6912 65.9101 77.9443 67.5376 76.8472C71.7048 74.0382 75.2612 71.4681 78.0888 67.2326C79.6637 64.8734 79.9086 61.5123 77.1362 59.8716C72.4376 57.0911 64.3949 57.2661 65.2222 64.5984C65.8105 69.8124 70.7824 69.7441 74.7036 68.3887C83.3101 65.4136 84.3341 63.4775 92.8109 60.9447" stroke="#FF3F56" stroke-width="2" stroke-linecap="round"/>
<path d="M92.8108 60.9496C94.0786 60.5495 95.7469 60.237 96.6469 60.5445C97.3151 60.7728 97.978 61.1892 98.4929 62.1761C99.0329 63.2111 99.197 65.2932 99.5564 66.6046C100.71 70.8148 101.077 75.9052 102.6 79.7479C103.74 82.6216 104.922 86.6996 106.757 87.7504C108.006 88.4655 108.362 84.1474 108.523 82.3247C108.738 79.8999 109.045 77.4641 109.355 75.0862C109.655 72.7784 110.011 70.1837 110.62 68.1456C111.008 66.8469 111.583 65.8337 112.246 65.245C113.099 64.4873 114.039 65.2236 114.887 65.6594C120.145 68.3626 125.175 72.622 130.513 71.6882" stroke="#FF3F56" stroke-width="2" stroke-linecap="round"/>
<path d="M130.513 71.6906C133.249 71.0408 134.532 69.6491 135.707 68.6573C138.06 66.6709 139.87 64.4304 141.555 61.4571C141.934 60.7885 142.924 59.2453 142.101 58.5274C141.255 57.7883 139.596 59.3224 138.895 59.9053C135.772 62.5034 133.49 70.4117 134.597 75.2865C135.556 79.5145 139.796 77.69 141.931 76.8507C143.98 76.0452 145.996 75.071 148.021 74.194C151.468 72.7017 156.073 70.2878 161.945 69.6198" stroke="#FF3F56" stroke-width="2" stroke-linecap="round"/>
<path d="M175 86.5042L162.961 80.1982" stroke="#11D748" stroke-width="2" stroke-linecap="round"/>
<path d="M162.964 91.3523L158.821 85.0316" stroke="#FF3F56" stroke-width="2" stroke-linecap="round"/>
<path d="M153.042 100.056L153.538 86.4743" stroke="#FFBC39" stroke-width="2" stroke-linecap="round"/>
</svg>
