<svg width="85" height="103" viewBox="0 0 85 103" fill="none" xmlns="http://www.w3.org/2000/svg">
<g opacity="0.8">
<path d="M1.33534 86.3015L1.57961 86.1831L1.57991 86.1815L1.58094 86.1756L1.5852 86.1517C1.58902 86.1305 1.59478 86.0986 1.6025 86.0567C1.61792 85.9728 1.64115 85.8486 1.67217 85.6883C1.73422 85.3676 1.82743 84.9026 1.95181 84.3266C2.20065 83.1743 2.57381 81.5802 3.0711 79.8115C3.5687 78.0418 4.18873 76.1041 4.93002 74.2633C5.67331 72.4175 6.5279 70.696 7.48652 69.3436C9.39575 66.6502 11.814 65.2822 14.3651 63.8519L14.4153 63.8238C16.9014 62.4299 19.5142 60.965 21.5965 58.0274C23.6789 55.0898 24.1959 52.1394 24.6879 49.332L24.6978 49.2753C25.2027 46.3945 25.6928 43.6597 27.602 40.9663C29.5112 38.2729 31.9295 36.9049 34.4806 35.4746L34.5308 35.4464C37.0169 34.0526 39.6297 32.5877 41.712 29.6501C43.7943 26.7126 44.3114 23.7621 44.8034 20.9547L44.8133 20.898C45.3182 18.0172 45.8083 15.2824 47.7175 12.589C48.6761 11.2367 50.0175 9.86022 51.5131 8.54767C53.0046 7.23865 54.6276 6.01196 56.1328 4.95641C57.637 3.90152 59.0176 3.02153 60.0225 2.40517C60.5248 2.0971 60.9327 1.85514 61.2148 1.69042C61.3558 1.60805 61.4653 1.54502 61.5393 1.50268C61.5763 1.48151 61.6045 1.46553 61.6233 1.45489L61.6444 1.44297L61.6508 1.43937L61.6818 1.16955L61.7096 0.925069C61.7124 0.89995 61.7123 0.900009 61.7123 0.900009L61.7104 0.901112L61.7045 0.904385L61.6821 0.917066C61.6624 0.928211 61.6333 0.94472 61.5954 0.966428C61.5194 1.00984 61.4079 1.07404 61.2648 1.15763C60.9786 1.3248 60.5659 1.56961 60.0583 1.88096C59.0434 2.50345 57.6476 3.393 56.125 4.46079C54.6033 5.52796 52.9493 6.77714 51.4196 8.11964C49.894 9.45865 48.4702 10.9094 47.4261 12.3824C45.3437 15.32 44.8267 18.2705 44.3347 21.0779L44.3248 21.1346C43.8199 24.0154 43.3298 26.7502 41.4206 29.4436C39.5114 32.137 37.0931 33.5049 34.542 34.9353L34.4918 34.9634C32.0057 36.3573 29.3929 37.8222 27.3106 40.7597C25.2283 43.6973 24.7112 46.6478 24.2192 49.4552L24.2093 49.5119C23.7044 52.3927 23.2143 55.1275 21.3051 57.8209C19.3959 60.5143 16.9776 61.8822 14.4265 63.3126L14.3764 63.3407C11.8902 64.7346 9.27745 66.1995 7.19512 69.137C6.15096 70.6101 5.25347 72.4339 4.4952 74.3168C3.73495 76.2047 3.10395 78.1791 2.60088 79.9683C2.0975 81.7586 1.72033 83.3702 1.46902 84.5339C1.34331 85.116 1.24899 85.5865 1.18602 85.912C1.15454 86.0747 1.13088 86.2012 1.11506 86.2872C1.10715 86.3302 1.1012 86.3631 1.0972 86.3854L1.09267 86.4107L1.0912 86.419C1.0912 86.419 1.09108 86.4197 1.33534 86.3015Z" fill="white"/>
<path d="M8.62954 91.472L8.87381 91.3537L8.87411 91.352L8.87514 91.3462L8.8794 91.3223C8.88322 91.301 8.88899 91.2692 8.8967 91.2272C8.91213 91.1434 8.93535 91.0192 8.96638 90.8588C9.02842 90.5382 9.12164 90.0731 9.24601 89.4972C9.49486 88.3449 9.86801 86.7507 10.3653 84.9821C10.8629 83.2123 11.4829 81.2746 12.2242 79.4338C12.9675 77.588 13.8221 75.8665 14.7807 74.5142C16.69 71.8208 19.1082 70.4528 21.6593 69.0224L21.7095 68.9943C24.1956 67.6004 26.8084 66.1356 28.8907 63.198C30.9731 60.2604 31.4901 57.31 31.9821 54.5025L31.992 54.4459C32.4969 51.5651 32.987 48.8302 34.8962 46.1369C36.8054 43.4435 39.2237 42.0755 41.7748 40.6451L41.825 40.617C44.3111 39.2231 46.9239 37.7583 49.0062 34.8207C51.0885 31.8831 51.6056 28.9327 52.0976 26.1253L52.1075 26.0686C52.6124 23.1878 53.1025 20.4529 55.0117 17.7596C55.9703 16.4072 57.3118 15.0308 58.8073 13.7182C60.2988 12.4092 61.9218 11.1825 63.427 10.127C64.9312 9.07208 66.3118 8.19209 67.3167 7.57573C67.819 7.26765 68.2269 7.0257 68.509 6.86098C68.65 6.77861 68.7595 6.71557 68.8335 6.67324C68.8705 6.65207 68.8987 6.63609 68.9175 6.62545L68.9386 6.61352L68.945 6.60993L68.976 6.34011C69.0067 6.07046 69.0065 6.07056 69.0065 6.07056L69.0046 6.07167L68.9987 6.07494L68.9763 6.08762C68.9566 6.09877 68.9275 6.11528 68.8896 6.13698C68.8136 6.18039 68.7021 6.24459 68.559 6.32818C68.2728 6.49535 67.8601 6.74017 67.3525 7.05152C66.3376 7.67401 64.9418 8.56355 63.4192 9.63135C61.8975 10.6985 60.2435 11.9477 58.7138 13.2902C57.1882 14.6292 55.7644 16.08 54.7203 17.553C52.638 20.4906 52.1209 23.441 51.6289 26.2485L51.619 26.3051C51.1141 29.1859 50.624 31.9207 48.7148 34.6141C46.8056 37.3075 44.3873 38.6755 41.8362 40.1058L41.786 40.134C39.2999 41.5279 36.6871 42.9927 34.6048 45.9303C32.5225 48.8679 32.0054 51.8183 31.5134 54.6258L31.5035 54.6824C30.9986 57.5632 30.5086 60.298 28.5993 62.9914C26.6901 65.6848 24.2718 67.0528 21.7208 68.4831L21.6706 68.5113C19.1844 69.9052 16.5717 71.37 14.4893 74.3076C13.4452 75.7806 12.5477 77.6044 11.7894 79.4874C11.0291 81.3753 10.3982 83.3497 9.89508 85.1389C9.3917 86.9292 9.01453 88.5408 8.76322 89.7045C8.63752 90.2866 8.54319 90.7571 8.48023 91.0825C8.44874 91.2452 8.42509 91.3717 8.40926 91.4577C8.40135 91.5007 8.3954 91.5336 8.3914 91.5559L8.38687 91.5813L8.38571 91.5878L8.3854 91.5896C8.3854 91.5896 8.38528 91.5903 8.62954 91.472Z" fill="white"/>
<path d="M16.168 96.5242L15.9237 96.6425C15.6794 96.7608 15.6795 96.7606 15.6795 96.7606L15.6799 96.7584L15.681 96.7518L15.6856 96.7264C15.6895 96.7042 15.6955 96.6713 15.7034 96.6282C15.7192 96.5422 15.7429 96.4158 15.7744 96.253C15.8373 95.9276 15.9317 95.4571 16.0574 94.875C16.3087 93.7113 16.6859 92.0997 17.1892 90.3094C17.6923 88.5202 18.3233 86.5458 19.0836 84.6579C19.8418 82.7749 20.7393 80.9511 21.7835 79.4781C23.8658 76.5405 26.4786 75.0757 28.9647 73.6818L29.0149 73.6537C31.566 72.2233 33.9842 70.8553 35.8935 68.1619C37.8027 65.4686 38.2927 62.7337 38.7977 59.8529L38.8076 59.7963C39.2996 56.9888 39.8166 54.0384 41.899 51.1008C43.9813 48.1632 46.594 46.6984 49.0802 45.3045L49.1304 45.2764C51.6815 43.846 54.0997 42.478 56.009 39.7846C57.9182 37.0913 58.4082 34.3564 58.9131 31.4756L58.9231 31.419C59.4151 28.6115 59.9321 25.6611 62.0144 22.7235C63.0586 21.2505 64.4823 19.7997 66.008 18.4607C67.5376 17.1182 69.1917 15.869 70.7134 14.8019C72.236 13.7341 73.6317 12.8445 74.6466 12.222C75.1542 11.9107 75.567 11.6659 75.8532 11.4987C75.9963 11.4151 76.1078 11.3509 76.1837 11.3075C76.2217 11.2858 76.2508 11.2693 76.2704 11.2581L76.2929 11.2455L76.3002 11.2413C76.3002 11.2413 76.3009 11.241 76.2701 11.5106L76.2394 11.7803L76.2379 11.7811L76.2327 11.784L76.2116 11.796L76.1979 11.8038L76.1706 11.8192C76.158 11.8264 76.1436 11.8346 76.1276 11.8438C76.0536 11.8861 75.9441 11.9491 75.8031 12.0315C75.5211 12.1962 75.1131 12.4382 74.6109 12.7462C73.606 13.3626 72.2253 14.2426 70.7211 15.2975C69.216 16.353 67.5929 17.5797 66.1014 18.8887C64.6059 20.2013 63.2645 21.5777 62.3058 22.9301C60.3966 25.6235 59.9066 28.3583 59.4017 31.2391L59.3917 31.2958C58.8997 34.1032 58.3827 37.0536 56.3004 39.9912C54.218 42.9288 51.6053 44.3936 49.1191 45.7875L49.0689 45.8157C46.5179 47.246 44.0996 48.614 42.1904 51.3074C40.2811 54.0008 39.7911 56.7356 39.2862 59.6164L39.2762 59.6731C38.7843 62.4805 38.2672 65.4309 36.1849 68.3685C34.1025 71.3061 31.4898 72.771 29.0036 74.1648L28.9534 74.193C26.4024 75.6233 23.9841 76.9913 22.0749 79.6847C21.1162 81.037 20.2617 82.7586 19.5184 84.6043C18.7771 86.4452 18.1571 88.3829 17.6595 90.1526C17.1622 91.9212 16.789 93.5154 16.5402 94.6677C16.4158 95.2437 16.3226 95.7087 16.2605 96.0294C16.2295 96.1897 16.2063 96.3139 16.1908 96.3978C16.1831 96.4397 16.1774 96.4716 16.1736 96.4928L16.1693 96.5167L16.168 96.5242Z" fill="white"/>
<path d="M23.2177 101.813L23.4619 101.695L23.4633 101.687L23.4675 101.663C23.4713 101.642 23.4771 101.61 23.4848 101.568C23.5002 101.484 23.5235 101.36 23.5545 101.2C23.6165 100.879 23.7098 100.414 23.8341 99.8381C24.083 98.6858 24.4561 97.0916 24.9534 95.323C25.451 93.5533 26.0711 91.6155 26.8123 89.7747C27.5556 87.929 28.4102 86.2074 29.3688 84.8551C31.2781 82.1617 33.6964 80.7937 36.2474 79.3634L36.2976 79.3352C38.7838 77.9413 41.3965 76.4765 43.4788 73.5389C45.5612 70.6013 46.0782 67.6509 46.5702 64.8434L46.5802 64.7868C47.0851 61.906 47.5751 59.1712 49.4843 56.4778C51.3936 53.7844 53.8118 52.4164 56.3629 50.9861L56.4131 50.9579C58.8992 49.564 61.512 48.0992 63.5943 45.1616C65.6767 42.224 66.1937 39.2736 66.6857 36.4662L66.6956 36.4095C67.2005 33.5287 67.6906 30.7939 69.5998 28.1005C70.5584 26.7481 71.8999 25.3717 73.3954 24.0591C74.8869 22.7501 76.51 21.5234 78.0151 20.4679C79.5193 19.413 80.9 18.533 81.9048 17.9166C82.4071 17.6086 82.8151 17.3666 83.0971 17.2019C83.2381 17.1195 83.3476 17.0565 83.4216 17.0141C83.4586 16.993 83.4868 16.977 83.5056 16.9664L83.5267 16.9544L83.5319 16.9515L83.5331 16.9508L83.5641 16.681C83.5948 16.4114 83.5946 16.4115 83.5946 16.4115L83.5927 16.4126L83.5869 16.4158L83.5644 16.4285C83.5447 16.4397 83.5157 16.4562 83.4777 16.4779C83.4018 16.5213 83.2903 16.5855 83.1472 16.6691C82.8609 16.8363 82.4482 17.0811 81.9406 17.3924C80.9257 18.0149 79.5299 18.9045 78.0073 19.9723C76.4856 21.0394 74.8316 22.2886 73.3019 23.6311C71.7763 24.9701 70.3526 26.4209 69.3084 27.8939C67.2261 30.8315 66.709 33.7819 66.217 36.5894L66.2071 36.646C65.7022 39.5268 65.2122 42.2617 63.3029 44.955C61.3937 47.6484 58.9754 49.0164 56.4243 50.4468L56.3742 50.4749C53.888 51.8688 51.2753 53.3336 49.1929 56.2712C47.1106 59.2088 46.5935 62.1592 46.1016 64.9667L46.0916 65.0233C45.5867 67.9041 45.0967 70.639 43.1874 73.3323C41.2782 76.0257 38.8599 77.3937 36.3089 78.8241L36.2587 78.8522C33.7725 80.2461 31.1598 81.7109 29.0774 84.6485C28.0333 86.1215 27.1358 87.9453 26.3775 89.8283C25.6173 91.7162 24.9863 93.6906 24.4832 95.4798C23.9798 97.2701 23.6027 98.8817 23.3513 100.045C23.2256 100.627 23.1313 101.098 23.0683 101.423C23.0369 101.586 23.0132 101.713 22.9974 101.799C22.9895 101.842 22.9835 101.875 22.9795 101.897L22.975 101.922L22.9738 101.929L22.9735 101.93C22.9735 101.93 22.9734 101.931 23.2177 101.813Z" fill="white"/>
<path d="M1.33534 86.3015L1.57961 86.1831L1.57991 86.1815L1.58094 86.1756L1.5852 86.1517C1.58902 86.1305 1.59478 86.0986 1.6025 86.0567C1.61792 85.9728 1.64115 85.8486 1.67217 85.6883C1.73422 85.3676 1.82743 84.9026 1.95181 84.3266C2.20065 83.1743 2.57381 81.5802 3.0711 79.8115C3.5687 78.0418 4.18873 76.1041 4.93002 74.2633C5.67331 72.4175 6.5279 70.696 7.48652 69.3436C9.39575 66.6502 11.814 65.2822 14.3651 63.8519L14.4153 63.8238C16.9014 62.4299 19.5142 60.965 21.5965 58.0274C23.6789 55.0898 24.1959 52.1394 24.6879 49.332L24.6978 49.2753C25.2027 46.3945 25.6928 43.6597 27.602 40.9663C29.5112 38.2729 31.9295 36.9049 34.4806 35.4746L34.5308 35.4464C37.0169 34.0526 39.6297 32.5877 41.712 29.6501C43.7943 26.7126 44.3114 23.7621 44.8034 20.9547L44.8133 20.898C45.3182 18.0172 45.8083 15.2824 47.7175 12.589C48.6761 11.2367 50.0175 9.86022 51.5131 8.54767C53.0046 7.23865 54.6276 6.01196 56.1328 4.95641C57.637 3.90152 59.0176 3.02153 60.0225 2.40517C60.5248 2.0971 60.9327 1.85514 61.2148 1.69042C61.3558 1.60805 61.4653 1.54502 61.5393 1.50268C61.5763 1.48151 61.6045 1.46553 61.6233 1.45489L61.6444 1.44297L61.6508 1.43937L61.6818 1.16955L61.7096 0.925069C61.7124 0.89995 61.7123 0.900009 61.7123 0.900009L61.7104 0.901112L61.7045 0.904385L61.6821 0.917066C61.6624 0.928211 61.6333 0.94472 61.5954 0.966428C61.5194 1.00984 61.4079 1.07404 61.2648 1.15763C60.9786 1.3248 60.5659 1.56961 60.0583 1.88096C59.0434 2.50345 57.6476 3.393 56.125 4.46079C54.6033 5.52796 52.9493 6.77714 51.4196 8.11964C49.894 9.45865 48.4702 10.9094 47.4261 12.3824C45.3437 15.32 44.8267 18.2705 44.3347 21.0779L44.3248 21.1346C43.8199 24.0154 43.3298 26.7502 41.4206 29.4436C39.5114 32.137 37.0931 33.5049 34.542 34.9353L34.4918 34.9634C32.0057 36.3573 29.3929 37.8222 27.3106 40.7597C25.2283 43.6973 24.7112 46.6478 24.2192 49.4552L24.2093 49.5119C23.7044 52.3927 23.2143 55.1275 21.3051 57.8209C19.3959 60.5143 16.9776 61.8822 14.4265 63.3126L14.3764 63.3407C11.8902 64.7346 9.27745 66.1995 7.19512 69.137C6.15096 70.6101 5.25347 72.4339 4.4952 74.3168C3.73495 76.2047 3.10395 78.1791 2.60088 79.9683C2.0975 81.7586 1.72033 83.3702 1.46902 84.5339C1.34331 85.116 1.24899 85.5865 1.18602 85.912C1.15454 86.0747 1.13088 86.2012 1.11506 86.2872C1.10715 86.3302 1.1012 86.3631 1.0972 86.3854L1.09267 86.4107L1.0912 86.419C1.0912 86.419 1.09108 86.4197 1.33534 86.3015Z" stroke="#7659FF" stroke-opacity="0.46"/>
<path d="M8.62954 91.472L8.87381 91.3537L8.87411 91.352L8.87514 91.3462L8.8794 91.3223C8.88322 91.301 8.88899 91.2692 8.8967 91.2272C8.91213 91.1434 8.93535 91.0192 8.96638 90.8588C9.02842 90.5382 9.12164 90.0731 9.24601 89.4972C9.49486 88.3449 9.86801 86.7507 10.3653 84.9821C10.8629 83.2123 11.4829 81.2746 12.2242 79.4338C12.9675 77.588 13.8221 75.8665 14.7807 74.5142C16.69 71.8208 19.1082 70.4528 21.6593 69.0224L21.7095 68.9943C24.1956 67.6004 26.8084 66.1356 28.8907 63.198C30.9731 60.2604 31.4901 57.31 31.9821 54.5025L31.992 54.4459C32.4969 51.5651 32.987 48.8302 34.8962 46.1369C36.8054 43.4435 39.2237 42.0755 41.7748 40.6451L41.825 40.617C44.3111 39.2231 46.9239 37.7583 49.0062 34.8207C51.0885 31.8831 51.6056 28.9327 52.0976 26.1253L52.1075 26.0686C52.6124 23.1878 53.1025 20.4529 55.0117 17.7596C55.9703 16.4072 57.3118 15.0308 58.8073 13.7182C60.2988 12.4092 61.9218 11.1825 63.427 10.127C64.9312 9.07208 66.3118 8.19209 67.3167 7.57573C67.819 7.26765 68.2269 7.0257 68.509 6.86098C68.65 6.77861 68.7595 6.71557 68.8335 6.67324C68.8705 6.65207 68.8987 6.63609 68.9175 6.62545L68.9386 6.61352L68.945 6.60993L68.976 6.34011C69.0067 6.07046 69.0065 6.07056 69.0065 6.07056L69.0046 6.07167L68.9987 6.07494L68.9763 6.08762C68.9566 6.09877 68.9275 6.11528 68.8896 6.13698C68.8136 6.18039 68.7021 6.24459 68.559 6.32818C68.2728 6.49535 67.8601 6.74017 67.3525 7.05152C66.3376 7.67401 64.9418 8.56355 63.4192 9.63135C61.8975 10.6985 60.2435 11.9477 58.7138 13.2902C57.1882 14.6292 55.7644 16.08 54.7203 17.553C52.638 20.4906 52.1209 23.441 51.6289 26.2485L51.619 26.3051C51.1141 29.1859 50.624 31.9207 48.7148 34.6141C46.8056 37.3075 44.3873 38.6755 41.8362 40.1058L41.786 40.134C39.2999 41.5279 36.6871 42.9927 34.6048 45.9303C32.5225 48.8679 32.0054 51.8183 31.5134 54.6258L31.5035 54.6824C30.9986 57.5632 30.5086 60.298 28.5993 62.9914C26.6901 65.6848 24.2718 67.0528 21.7208 68.4831L21.6706 68.5113C19.1844 69.9052 16.5717 71.37 14.4893 74.3076C13.4452 75.7806 12.5477 77.6044 11.7894 79.4874C11.0291 81.3753 10.3982 83.3497 9.89508 85.1389C9.3917 86.9292 9.01453 88.5408 8.76322 89.7045C8.63752 90.2866 8.54319 90.7571 8.48023 91.0825C8.44874 91.2452 8.42509 91.3717 8.40926 91.4577C8.40135 91.5007 8.3954 91.5336 8.3914 91.5559L8.38687 91.5813L8.38571 91.5878L8.3854 91.5896C8.3854 91.5896 8.38528 91.5903 8.62954 91.472Z" stroke="#7659FF" stroke-opacity="0.46"/>
<path d="M16.168 96.5242L15.9237 96.6425C15.6794 96.7608 15.6795 96.7606 15.6795 96.7606L15.6799 96.7584L15.681 96.7518L15.6856 96.7264C15.6895 96.7042 15.6955 96.6713 15.7034 96.6282C15.7192 96.5422 15.7429 96.4158 15.7744 96.253C15.8373 95.9276 15.9317 95.4571 16.0574 94.875C16.3087 93.7113 16.6859 92.0997 17.1892 90.3094C17.6923 88.5202 18.3233 86.5458 19.0836 84.6579C19.8418 82.7749 20.7393 80.9511 21.7835 79.4781C23.8658 76.5405 26.4786 75.0757 28.9647 73.6818L29.0149 73.6537C31.566 72.2233 33.9842 70.8553 35.8935 68.1619C37.8027 65.4686 38.2927 62.7337 38.7977 59.8529L38.8076 59.7963C39.2996 56.9888 39.8166 54.0384 41.899 51.1008C43.9813 48.1632 46.594 46.6984 49.0802 45.3045L49.1304 45.2764C51.6815 43.846 54.0997 42.478 56.009 39.7846C57.9182 37.0913 58.4082 34.3564 58.9131 31.4756L58.9231 31.419C59.4151 28.6115 59.9321 25.6611 62.0144 22.7235C63.0586 21.2505 64.4823 19.7997 66.008 18.4607C67.5376 17.1182 69.1917 15.869 70.7134 14.8019C72.236 13.7341 73.6317 12.8445 74.6466 12.222C75.1542 11.9107 75.567 11.6659 75.8532 11.4987C75.9963 11.4151 76.1078 11.3509 76.1837 11.3075C76.2217 11.2858 76.2508 11.2693 76.2704 11.2581L76.2929 11.2455L76.3002 11.2413C76.3002 11.2413 76.3009 11.241 76.2701 11.5106L76.2394 11.7803L76.2379 11.7811L76.2327 11.784L76.2116 11.796L76.1979 11.8038L76.1706 11.8192C76.158 11.8264 76.1436 11.8346 76.1276 11.8438C76.0536 11.8861 75.9441 11.9491 75.8031 12.0315C75.5211 12.1962 75.1131 12.4382 74.6109 12.7462C73.606 13.3626 72.2253 14.2426 70.7211 15.2975C69.216 16.353 67.5929 17.5797 66.1014 18.8887C64.6059 20.2013 63.2645 21.5777 62.3058 22.9301C60.3966 25.6235 59.9066 28.3583 59.4017 31.2391L59.3917 31.2958C58.8997 34.1032 58.3827 37.0536 56.3004 39.9912C54.218 42.9288 51.6053 44.3936 49.1191 45.7875L49.0689 45.8157C46.5179 47.246 44.0996 48.614 42.1904 51.3074C40.2811 54.0008 39.7911 56.7356 39.2862 59.6164L39.2762 59.6731C38.7843 62.4805 38.2672 65.4309 36.1849 68.3685C34.1025 71.3061 31.4898 72.771 29.0036 74.1648L28.9534 74.193C26.4024 75.6233 23.9841 76.9913 22.0749 79.6847C21.1162 81.037 20.2617 82.7586 19.5184 84.6043C18.7771 86.4452 18.1571 88.3829 17.6595 90.1526C17.1622 91.9212 16.789 93.5154 16.5402 94.6677C16.4158 95.2437 16.3226 95.7087 16.2605 96.0294C16.2295 96.1897 16.2063 96.3139 16.1908 96.3978C16.1831 96.4397 16.1774 96.4716 16.1736 96.4928L16.1693 96.5167L16.168 96.5242Z" stroke="#7659FF" stroke-opacity="0.46"/>
<path d="M23.2177 101.813L23.4619 101.695L23.4633 101.687L23.4675 101.663C23.4713 101.642 23.4771 101.61 23.4848 101.568C23.5002 101.484 23.5235 101.36 23.5545 101.2C23.6165 100.879 23.7098 100.414 23.8341 99.8381C24.083 98.6858 24.4561 97.0916 24.9534 95.323C25.451 93.5533 26.0711 91.6155 26.8123 89.7747C27.5556 87.929 28.4102 86.2074 29.3688 84.8551C31.2781 82.1617 33.6964 80.7937 36.2474 79.3634L36.2976 79.3352C38.7838 77.9413 41.3965 76.4765 43.4788 73.5389C45.5612 70.6013 46.0782 67.6509 46.5702 64.8434L46.5802 64.7868C47.0851 61.906 47.5751 59.1712 49.4843 56.4778C51.3936 53.7844 53.8118 52.4164 56.3629 50.9861L56.4131 50.9579C58.8992 49.564 61.512 48.0992 63.5943 45.1616C65.6767 42.224 66.1937 39.2736 66.6857 36.4662L66.6956 36.4095C67.2005 33.5287 67.6906 30.7939 69.5998 28.1005C70.5584 26.7481 71.8999 25.3717 73.3954 24.0591C74.8869 22.7501 76.51 21.5234 78.0151 20.4679C79.5193 19.413 80.9 18.533 81.9048 17.9166C82.4071 17.6086 82.8151 17.3666 83.0971 17.2019C83.2381 17.1195 83.3476 17.0565 83.4216 17.0141C83.4586 16.993 83.4868 16.977 83.5056 16.9664L83.5267 16.9544L83.5319 16.9515L83.5331 16.9508L83.5641 16.681C83.5948 16.4114 83.5946 16.4115 83.5946 16.4115L83.5927 16.4126L83.5869 16.4158L83.5644 16.4285C83.5447 16.4397 83.5157 16.4562 83.4777 16.4779C83.4018 16.5213 83.2903 16.5855 83.1472 16.6691C82.8609 16.8363 82.4482 17.0811 81.9406 17.3924C80.9257 18.0149 79.5299 18.9045 78.0073 19.9723C76.4856 21.0394 74.8316 22.2886 73.3019 23.6311C71.7763 24.9701 70.3526 26.4209 69.3084 27.8939C67.2261 30.8315 66.709 33.7819 66.217 36.5894L66.2071 36.646C65.7022 39.5268 65.2122 42.2617 63.3029 44.955C61.3937 47.6484 58.9754 49.0164 56.4243 50.4468L56.3742 50.4749C53.888 51.8688 51.2753 53.3336 49.1929 56.2712C47.1106 59.2088 46.5935 62.1592 46.1016 64.9667L46.0916 65.0233C45.5867 67.9041 45.0967 70.639 43.1874 73.3323C41.2782 76.0257 38.8599 77.3937 36.3089 78.8241L36.2587 78.8522C33.7725 80.2461 31.1598 81.7109 29.0774 84.6485C28.0333 86.1215 27.1358 87.9453 26.3775 89.8283C25.6173 91.7162 24.9863 93.6906 24.4832 95.4798C23.9798 97.2701 23.6027 98.8817 23.3513 100.045C23.2256 100.627 23.1313 101.098 23.0683 101.423C23.0369 101.586 23.0132 101.713 22.9974 101.799C22.9895 101.842 22.9835 101.875 22.9795 101.897L22.975 101.922L22.9738 101.929L22.9735 101.93C22.9735 101.93 22.9734 101.931 23.2177 101.813Z" stroke="#7659FF" stroke-opacity="0.46"/>
</g>
</svg>
