<svg width="35" height="107" viewBox="0 0 35 107" fill="none" xmlns="http://www.w3.org/2000/svg">
<g opacity="0.8">
<path d="M6.14796 105.638L6.28141 105.402L6.28069 105.401L6.27822 105.395L6.26813 105.373C6.25917 105.354 6.24576 105.324 6.22823 105.285C6.19315 105.207 6.14153 105.092 6.07575 104.943C5.94419 104.644 5.75604 104.208 5.53036 103.664C5.07886 102.575 4.47795 101.052 3.87976 99.3149C3.2812 97.5768 2.68765 95.6308 2.24895 93.6954C1.80908 91.7548 1.53144 89.853 1.54953 88.1954C1.58556 84.8942 2.7947 82.3927 4.0775 79.7644L4.10274 79.7127C5.35294 77.1512 6.6668 74.4594 6.70609 70.8588C6.74538 67.2583 5.49057 64.5384 4.29657 61.9503L4.27246 61.8981C3.04732 59.2424 1.89305 56.7151 1.92908 53.4138C1.9651 50.1126 3.17425 47.6111 4.45705 44.9828L4.48229 44.931C5.73249 42.3696 7.04635 39.6778 7.08564 36.0772C7.12493 32.4767 5.87012 29.7568 4.67612 27.1687L4.65201 27.1165C3.42687 24.4608 2.2726 21.9335 2.30862 18.6323C2.32671 16.9747 2.64579 15.0794 3.1279 13.1489C3.60872 11.2235 4.2446 9.29096 4.88094 7.56625C5.5169 5.8426 6.1509 4.33305 6.62606 3.25421C6.86356 2.71497 7.06117 2.2838 7.19923 1.98781C7.26825 1.83981 7.32237 1.72565 7.35914 1.64868C7.37752 1.61021 7.39156 1.58104 7.40095 1.56159L7.41152 1.53977L7.41472 1.53317L7.2866 1.2937L7.17025 1.07688C7.15828 1.05462 7.15824 1.05473 7.15824 1.05473L7.15725 1.05675L7.15433 1.06276L7.1431 1.08596C7.13326 1.10632 7.11876 1.13645 7.09991 1.17592C7.06221 1.25483 7.0071 1.3711 6.93704 1.5213C6.79693 1.82168 6.597 2.25795 6.35697 2.80292C5.87709 3.89249 5.23612 5.41848 4.59239 7.16322C3.94904 8.90691 3.3005 10.8756 2.80738 12.8502C2.31555 14.8196 1.97116 16.8229 1.95146 18.6284C1.91217 22.2289 3.16698 24.9488 4.36099 27.5369L4.38509 27.5891C5.61023 30.2448 6.7645 32.7721 6.72847 36.0733C6.69245 39.3746 5.4833 41.8761 4.20051 44.5044L4.17527 44.5561C2.92507 47.1175 1.6112 49.8094 1.57191 53.41C1.53262 57.0105 2.78743 59.7304 3.98144 62.3185L4.00554 62.3707C5.23068 65.0264 6.38495 67.5537 6.34893 70.8549C6.3129 74.1562 5.10376 76.6577 3.82096 79.286L3.79572 79.3377C2.54552 81.8992 1.23166 84.591 1.19237 88.1915C1.17266 89.997 1.47326 92.0073 1.92199 93.987C2.3719 95.9719 2.97733 97.9543 3.58247 99.7116C4.18798 101.47 4.7955 103.01 5.25149 104.109C5.47957 104.659 5.66993 105.1 5.80345 105.403C5.87021 105.555 5.92277 105.672 5.95874 105.752C5.97673 105.792 5.99057 105.822 5.99996 105.843L6.01068 105.866L6.01421 105.874C6.01421 105.874 6.01451 105.875 6.14796 105.638Z" fill="white"/>
<path d="M15.0884 105.736L15.2218 105.5L15.2211 105.498L15.2186 105.493L15.2085 105.471C15.1996 105.451 15.1862 105.422 15.1686 105.383C15.1335 105.305 15.0819 105.19 15.0161 105.04C14.8846 104.741 14.6964 104.306 14.4707 103.762C14.0192 102.673 13.4183 101.15 12.8201 99.4125C12.2216 97.6743 11.628 95.7283 11.1893 93.793C10.7495 91.8524 10.4718 89.9506 10.4899 88.293C10.5259 84.9918 11.7351 82.4903 13.0179 79.8619L13.0431 79.8102C14.2933 77.2488 15.6072 74.557 15.6465 70.9564C15.6858 67.3559 14.431 64.636 13.237 62.0479L13.2128 61.9956C11.9877 59.3399 10.8334 56.8126 10.8695 53.5114C10.9055 50.2102 12.1146 47.7087 13.3974 45.0803L13.4227 45.0286C14.6729 42.4672 15.9867 39.7754 16.026 36.1748C16.0653 32.5743 14.8105 29.8544 13.6165 27.2663L13.5924 27.214C12.3673 24.5583 11.213 22.031 11.249 18.7298C11.2671 17.0722 11.5862 15.1769 12.0683 13.2464C12.5491 11.3211 13.185 9.38852 13.8213 7.66381C14.4573 5.94016 15.0913 4.43061 15.5664 3.35177C15.8039 2.81253 16.0016 2.38136 16.1396 2.08537C16.2086 1.93737 16.2628 1.82321 16.2995 1.74624C16.3179 1.70777 16.3319 1.6786 16.3413 1.65915L16.3519 1.63733L16.3551 1.63073L16.227 1.39126C16.0987 1.15209 16.0986 1.15229 16.0986 1.15229L16.0976 1.15431L16.0947 1.16032L16.0835 1.18352C16.0736 1.20388 16.0591 1.23401 16.0403 1.27348C16.0026 1.35239 15.9475 1.46866 15.8774 1.61886C15.7373 1.91924 15.5374 2.35551 15.2974 2.90048C14.8175 3.99005 14.1765 5.51604 13.5328 7.26078C12.8894 9.00447 12.2409 10.9732 11.7478 12.9478C11.2559 14.9172 10.9115 16.9205 10.8918 18.7259C10.8526 22.3265 12.1074 25.0464 13.3014 27.6344L13.3255 27.6867C14.5506 30.3424 15.7049 32.8697 15.6689 36.1709C15.6328 39.4721 14.4237 41.9736 13.1409 44.602L13.1157 44.6537C11.8655 47.2151 10.5516 49.907 10.5123 53.5075C10.473 57.1081 11.7278 59.828 12.9218 62.416L12.9459 62.4683C14.1711 65.124 15.3253 67.6513 15.2893 70.9525C15.2533 74.2537 14.0441 76.7552 12.7613 79.3836L12.7361 79.4353C11.4859 81.9967 10.172 84.6886 10.1328 88.2891C10.1131 90.0946 10.4136 92.1049 10.8624 94.0846C11.3123 96.0694 11.9177 98.0518 12.5229 99.8091C13.1284 101.568 13.7359 103.107 14.1919 104.207C14.42 104.757 14.6103 105.198 14.7438 105.501C14.8106 105.653 14.8632 105.77 14.8991 105.85C14.9171 105.89 14.931 105.92 14.9403 105.941L14.9511 105.964L14.9539 105.97L14.9546 105.972C14.9546 105.972 14.9549 105.972 15.0884 105.736Z" fill="white"/>
<path d="M24.1621 105.597L24.0287 105.834C23.8952 106.07 23.8951 106.07 23.8951 106.07L23.8942 106.068L23.8914 106.062L23.8807 106.038C23.8713 106.018 23.8574 105.987 23.8395 105.947C23.8035 105.868 23.7509 105.75 23.6842 105.598C23.5506 105.295 23.3603 104.855 23.1322 104.304C22.6762 103.205 22.0687 101.665 21.4632 99.9067C20.858 98.1494 20.2526 96.167 19.8027 94.1821C19.354 92.2024 19.0534 90.1921 19.0731 88.3867C19.1124 84.7861 20.4262 82.0943 21.6764 79.5329L21.7017 79.4811C22.9845 76.8528 24.1936 74.3513 24.2296 71.0501C24.2657 67.7488 23.1114 65.2216 21.8863 62.5658L21.8622 62.5136C20.6681 59.9255 19.4133 57.2056 19.4526 53.6051C19.4919 50.0045 20.8058 47.3127 22.056 44.7513L22.0812 44.6995C23.364 42.0712 24.5732 39.5697 24.6092 36.2685C24.6452 32.9672 23.4909 30.44 22.2658 27.7842L22.2417 27.732C21.0477 25.1439 19.7929 22.424 19.8322 18.8235C19.8519 17.018 20.1963 15.0147 20.6881 13.0453C21.1812 11.0707 21.8297 9.10203 22.4731 7.35834C23.1168 5.6136 23.7578 4.08761 24.2377 2.99804C24.4777 2.45307 24.6776 2.0168 24.8177 1.71642C24.8878 1.56622 24.9429 1.44995 24.9806 1.37104C24.9995 1.33157 25.014 1.30144 25.0238 1.28108L25.035 1.25788L25.0387 1.25028C25.0387 1.25028 25.039 1.24965 25.1673 1.48882L25.2956 1.72802L25.2948 1.72956L25.2922 1.73489L25.2817 1.75671L25.2748 1.77096L25.2612 1.79919C25.2549 1.8123 25.2478 1.82719 25.2398 1.8438C25.2031 1.92077 25.149 2.03493 25.0799 2.18293C24.9419 2.47892 24.7443 2.91009 24.5068 3.44933C24.0316 4.52817 23.3976 6.03772 22.7616 7.76137C22.1253 9.48608 21.4894 11.4186 21.0086 13.344C20.5265 15.2745 20.2074 17.1698 20.1893 18.8274C20.1533 22.1286 21.3076 24.6559 22.5327 27.3116L22.5568 27.3639C23.7508 29.9519 25.0056 32.6718 24.9663 36.2724C24.9271 39.8729 23.6132 42.5648 22.363 45.1262L22.3378 45.1779C21.055 47.8062 19.8458 50.3077 19.8098 53.609C19.7738 56.9102 20.928 59.4375 22.1532 62.0932L22.1773 62.1455C23.3713 64.7335 24.6261 67.4534 24.5868 71.054C24.5475 74.6545 23.2336 77.3464 21.9834 79.9078L21.9582 79.9595C20.6754 82.5878 19.4663 85.0893 19.4302 88.3906C19.4122 90.0481 19.6898 91.9499 20.1297 93.8905C20.5684 95.8259 21.1619 97.7719 21.7605 99.5101C22.3587 101.247 22.9596 102.77 23.4111 103.859C23.6367 104.403 23.8249 104.839 23.9565 105.138C24.0222 105.287 24.0739 105.403 24.1089 105.48C24.1265 105.519 24.1399 105.549 24.1488 105.568L24.1589 105.59L24.1621 105.597Z" fill="white"/>
<path d="M32.9688 105.931L33.1022 105.695L33.099 105.688L33.0889 105.666C33.08 105.646 33.0666 105.617 33.049 105.578C33.014 105.5 32.9623 105.385 32.8966 105.235C32.765 104.936 32.5768 104.501 32.3512 103.957C31.8997 102.868 31.2988 101.345 30.7006 99.6076C30.102 97.8694 29.5085 95.9234 29.0698 93.9881C28.6299 92.0475 28.3523 90.1457 28.3703 88.4881C28.4064 85.1869 29.6155 82.6854 30.8983 80.057L30.9235 80.0053C32.1738 77.4439 33.4876 74.7521 33.5269 71.1515C33.5662 67.551 32.3114 64.8311 31.1174 62.243L31.0933 62.1908C29.8681 59.535 28.7139 57.0078 28.7499 53.7065C28.7859 50.4053 29.9951 47.9038 31.2779 45.2754L31.3031 45.2237C32.5533 42.6623 33.8672 39.9705 33.9064 36.3699C33.9457 32.7694 32.6909 30.0495 31.4969 27.4614L31.4728 27.4092C30.2477 24.7534 29.0934 22.2262 29.1294 18.9249C29.1475 17.2674 29.4666 15.3721 29.9487 13.4415C30.4295 11.5162 31.0654 9.58363 31.7018 7.85892C32.3377 6.13528 32.9717 4.62573 33.4469 3.54688C33.6844 3.00765 33.882 2.57647 34.02 2.28049C34.0891 2.13249 34.1432 2.01832 34.1799 1.94136C34.1983 1.90288 34.2124 1.87372 34.2218 1.85427L34.2323 1.83245L34.2349 1.82711L34.2355 1.82585L34.1074 1.58637C33.9791 1.34721 33.979 1.3474 33.979 1.3474L33.9781 1.34943L33.9751 1.35543L33.9639 1.37864C33.9541 1.399 33.9396 1.42913 33.9207 1.46859C33.883 1.54751 33.8279 1.66377 33.7579 1.81397C33.6177 2.11436 33.4178 2.55063 33.1778 3.0956C32.6979 4.18517 32.0569 5.71116 31.4132 7.45589C30.7698 9.19959 30.1213 11.1683 29.6282 13.1429C29.1364 15.1123 28.792 17.1156 28.7723 18.921C28.733 22.5216 29.9878 25.2415 31.1818 27.8296L31.2059 27.8818C32.431 30.5375 33.5853 33.0648 33.5493 36.366C33.5133 39.6673 32.3041 42.1687 31.0213 44.7971L30.9961 44.8488C29.7459 47.4102 28.432 50.1021 28.3927 53.7026C28.3534 57.3032 29.6082 60.0231 30.8023 62.6111L30.8264 62.6634C32.0515 65.3191 33.2058 67.8464 33.1697 71.1476C33.1337 74.4489 31.9246 76.9503 30.6418 79.5787L30.6165 79.6304C29.3663 82.1918 28.0525 84.8837 28.0132 88.4842C27.9935 90.2897 28.2941 92.3 28.7428 94.2797C29.1927 96.2645 29.7981 98.2469 30.4033 100.004C31.0088 101.763 31.6163 103.302 32.0723 104.402C32.3004 104.952 32.4907 105.393 32.6243 105.696C32.691 105.848 32.7436 105.965 32.7796 106.045C32.7975 106.085 32.8114 106.115 32.8208 106.136L32.8315 106.159L32.8343 106.165L32.835 106.167C32.835 106.167 32.8353 106.167 32.9688 105.931Z" fill="white"/>
<path d="M6.14796 105.638L6.28141 105.402L6.28069 105.401L6.27822 105.395L6.26813 105.373C6.25917 105.354 6.24576 105.324 6.22823 105.285C6.19315 105.207 6.14153 105.092 6.07575 104.943C5.94419 104.644 5.75604 104.208 5.53036 103.664C5.07886 102.575 4.47795 101.052 3.87976 99.3149C3.2812 97.5768 2.68765 95.6308 2.24895 93.6954C1.80908 91.7548 1.53144 89.853 1.54953 88.1954C1.58556 84.8942 2.7947 82.3927 4.0775 79.7644L4.10274 79.7127C5.35294 77.1512 6.6668 74.4594 6.70609 70.8588C6.74538 67.2583 5.49057 64.5384 4.29657 61.9503L4.27246 61.8981C3.04732 59.2424 1.89305 56.7151 1.92908 53.4138C1.9651 50.1126 3.17425 47.6111 4.45705 44.9828L4.48229 44.931C5.73249 42.3696 7.04635 39.6778 7.08564 36.0772C7.12493 32.4767 5.87012 29.7568 4.67612 27.1687L4.65201 27.1165C3.42687 24.4608 2.2726 21.9335 2.30862 18.6323C2.32671 16.9747 2.64579 15.0794 3.1279 13.1489C3.60872 11.2235 4.2446 9.29096 4.88094 7.56625C5.5169 5.8426 6.1509 4.33305 6.62606 3.25421C6.86356 2.71497 7.06117 2.2838 7.19923 1.98781C7.26825 1.83981 7.32237 1.72565 7.35914 1.64868C7.37752 1.61021 7.39156 1.58104 7.40095 1.56159L7.41152 1.53977L7.41472 1.53317L7.2866 1.2937L7.17025 1.07688C7.15828 1.05462 7.15824 1.05473 7.15824 1.05473L7.15725 1.05675L7.15433 1.06276L7.1431 1.08596C7.13326 1.10632 7.11876 1.13645 7.09991 1.17592C7.06221 1.25483 7.0071 1.3711 6.93704 1.5213C6.79693 1.82168 6.597 2.25795 6.35697 2.80292C5.87709 3.89249 5.23612 5.41848 4.59239 7.16322C3.94904 8.90691 3.3005 10.8756 2.80738 12.8502C2.31555 14.8196 1.97116 16.8229 1.95146 18.6284C1.91217 22.2289 3.16698 24.9488 4.36099 27.5369L4.38509 27.5891C5.61023 30.2448 6.7645 32.7721 6.72847 36.0733C6.69245 39.3746 5.4833 41.8761 4.20051 44.5044L4.17527 44.5561C2.92507 47.1175 1.6112 49.8094 1.57191 53.41C1.53262 57.0105 2.78743 59.7304 3.98144 62.3185L4.00554 62.3707C5.23068 65.0264 6.38495 67.5537 6.34893 70.8549C6.3129 74.1562 5.10376 76.6577 3.82096 79.286L3.79572 79.3377C2.54552 81.8992 1.23166 84.591 1.19237 88.1915C1.17266 89.997 1.47326 92.0073 1.92199 93.987C2.3719 95.9719 2.97733 97.9543 3.58247 99.7116C4.18798 101.47 4.7955 103.01 5.25149 104.109C5.47957 104.659 5.66993 105.1 5.80345 105.403C5.87021 105.555 5.92277 105.672 5.95874 105.752C5.97673 105.792 5.99057 105.822 5.99996 105.843L6.01068 105.866L6.01421 105.874C6.01421 105.874 6.01451 105.875 6.14796 105.638Z" stroke="#7659FF" stroke-opacity="0.46"/>
<path d="M15.0884 105.736L15.2218 105.5L15.2211 105.498L15.2186 105.493L15.2085 105.471C15.1996 105.451 15.1862 105.422 15.1686 105.383C15.1335 105.305 15.0819 105.19 15.0161 105.04C14.8846 104.741 14.6964 104.306 14.4707 103.762C14.0192 102.673 13.4183 101.15 12.8201 99.4125C12.2216 97.6743 11.628 95.7283 11.1893 93.793C10.7495 91.8524 10.4718 89.9506 10.4899 88.293C10.5259 84.9918 11.7351 82.4903 13.0179 79.8619L13.0431 79.8102C14.2933 77.2488 15.6072 74.557 15.6465 70.9564C15.6858 67.3559 14.431 64.636 13.237 62.0479L13.2128 61.9956C11.9877 59.3399 10.8334 56.8126 10.8695 53.5114C10.9055 50.2102 12.1146 47.7087 13.3974 45.0803L13.4227 45.0286C14.6729 42.4672 15.9867 39.7754 16.026 36.1748C16.0653 32.5743 14.8105 29.8544 13.6165 27.2663L13.5924 27.214C12.3673 24.5583 11.213 22.031 11.249 18.7298C11.2671 17.0722 11.5862 15.1769 12.0683 13.2464C12.5491 11.3211 13.185 9.38852 13.8213 7.66381C14.4573 5.94016 15.0913 4.43061 15.5664 3.35177C15.8039 2.81253 16.0016 2.38136 16.1396 2.08537C16.2086 1.93737 16.2628 1.82321 16.2995 1.74624C16.3179 1.70777 16.3319 1.6786 16.3413 1.65915L16.3519 1.63733L16.3551 1.63073L16.227 1.39126C16.0987 1.15209 16.0986 1.15229 16.0986 1.15229L16.0976 1.15431L16.0947 1.16032L16.0835 1.18352C16.0736 1.20388 16.0591 1.23401 16.0403 1.27348C16.0026 1.35239 15.9475 1.46866 15.8774 1.61886C15.7373 1.91924 15.5374 2.35551 15.2974 2.90048C14.8175 3.99005 14.1765 5.51604 13.5328 7.26078C12.8894 9.00447 12.2409 10.9732 11.7478 12.9478C11.2559 14.9172 10.9115 16.9205 10.8918 18.7259C10.8526 22.3265 12.1074 25.0464 13.3014 27.6344L13.3255 27.6867C14.5506 30.3424 15.7049 32.8697 15.6689 36.1709C15.6328 39.4721 14.4237 41.9736 13.1409 44.602L13.1157 44.6537C11.8655 47.2151 10.5516 49.907 10.5123 53.5075C10.473 57.1081 11.7278 59.828 12.9218 62.416L12.9459 62.4683C14.1711 65.124 15.3253 67.6513 15.2893 70.9525C15.2533 74.2537 14.0441 76.7552 12.7613 79.3836L12.7361 79.4353C11.4859 81.9967 10.172 84.6886 10.1328 88.2891C10.1131 90.0946 10.4136 92.1049 10.8624 94.0846C11.3123 96.0694 11.9177 98.0518 12.5229 99.8091C13.1284 101.568 13.7359 103.107 14.1919 104.207C14.42 104.757 14.6103 105.198 14.7438 105.501C14.8106 105.653 14.8632 105.77 14.8991 105.85C14.9171 105.89 14.931 105.92 14.9403 105.941L14.9511 105.964L14.9539 105.97L14.9546 105.972C14.9546 105.972 14.9549 105.972 15.0884 105.736Z" stroke="#7659FF" stroke-opacity="0.46"/>
<path d="M24.1621 105.597L24.0287 105.834C23.8952 106.07 23.8951 106.07 23.8951 106.07L23.8942 106.068L23.8914 106.062L23.8807 106.038C23.8713 106.018 23.8574 105.987 23.8395 105.947C23.8035 105.868 23.7509 105.75 23.6842 105.598C23.5506 105.295 23.3603 104.855 23.1322 104.304C22.6762 103.205 22.0687 101.665 21.4632 99.9067C20.858 98.1494 20.2526 96.167 19.8027 94.1821C19.354 92.2024 19.0534 90.1921 19.0731 88.3867C19.1124 84.7861 20.4262 82.0943 21.6764 79.5329L21.7017 79.4811C22.9845 76.8528 24.1936 74.3513 24.2296 71.0501C24.2657 67.7488 23.1114 65.2216 21.8863 62.5658L21.8622 62.5136C20.6681 59.9255 19.4133 57.2056 19.4526 53.6051C19.4919 50.0045 20.8058 47.3127 22.056 44.7513L22.0812 44.6995C23.364 42.0712 24.5732 39.5697 24.6092 36.2685C24.6452 32.9672 23.4909 30.44 22.2658 27.7842L22.2417 27.732C21.0477 25.1439 19.7929 22.424 19.8322 18.8235C19.8519 17.018 20.1963 15.0147 20.6881 13.0453C21.1812 11.0707 21.8297 9.10203 22.4731 7.35834C23.1168 5.6136 23.7578 4.08761 24.2377 2.99804C24.4777 2.45307 24.6776 2.0168 24.8177 1.71642C24.8878 1.56622 24.9429 1.44995 24.9806 1.37104C24.9995 1.33157 25.014 1.30144 25.0238 1.28108L25.035 1.25788L25.0387 1.25028C25.0387 1.25028 25.039 1.24965 25.1673 1.48882L25.2956 1.72802L25.2948 1.72956L25.2922 1.73489L25.2817 1.75671L25.2748 1.77096L25.2612 1.79919C25.2549 1.8123 25.2478 1.82719 25.2398 1.8438C25.2031 1.92077 25.149 2.03493 25.0799 2.18293C24.9419 2.47892 24.7443 2.91009 24.5068 3.44933C24.0316 4.52817 23.3976 6.03772 22.7616 7.76137C22.1253 9.48608 21.4894 11.4186 21.0086 13.344C20.5265 15.2745 20.2074 17.1698 20.1893 18.8274C20.1533 22.1286 21.3076 24.6559 22.5327 27.3116L22.5568 27.3639C23.7508 29.9519 25.0056 32.6718 24.9663 36.2724C24.9271 39.8729 23.6132 42.5648 22.363 45.1262L22.3378 45.1779C21.055 47.8062 19.8458 50.3077 19.8098 53.609C19.7738 56.9102 20.928 59.4375 22.1532 62.0932L22.1773 62.1455C23.3713 64.7335 24.6261 67.4534 24.5868 71.054C24.5475 74.6545 23.2336 77.3464 21.9834 79.9078L21.9582 79.9595C20.6754 82.5878 19.4663 85.0893 19.4302 88.3906C19.4122 90.0481 19.6898 91.9499 20.1297 93.8905C20.5684 95.8259 21.1619 97.7719 21.7605 99.5101C22.3587 101.247 22.9596 102.77 23.4111 103.859C23.6367 104.403 23.8249 104.839 23.9565 105.138C24.0222 105.287 24.0739 105.403 24.1089 105.48C24.1265 105.519 24.1399 105.549 24.1488 105.568L24.1589 105.59L24.1621 105.597Z" stroke="#7659FF" stroke-opacity="0.46"/>
<path d="M32.9688 105.931L33.1022 105.695L33.099 105.688L33.0889 105.666C33.08 105.646 33.0666 105.617 33.049 105.578C33.014 105.5 32.9623 105.385 32.8966 105.235C32.765 104.936 32.5768 104.501 32.3512 103.957C31.8997 102.868 31.2988 101.345 30.7006 99.6076C30.102 97.8694 29.5085 95.9234 29.0698 93.9881C28.6299 92.0475 28.3523 90.1457 28.3703 88.4881C28.4064 85.1869 29.6155 82.6854 30.8983 80.057L30.9235 80.0053C32.1738 77.4439 33.4876 74.7521 33.5269 71.1515C33.5662 67.551 32.3114 64.8311 31.1174 62.243L31.0933 62.1908C29.8681 59.535 28.7139 57.0078 28.7499 53.7065C28.7859 50.4053 29.9951 47.9038 31.2779 45.2754L31.3031 45.2237C32.5533 42.6623 33.8672 39.9705 33.9064 36.3699C33.9457 32.7694 32.6909 30.0495 31.4969 27.4614L31.4728 27.4092C30.2477 24.7534 29.0934 22.2262 29.1294 18.9249C29.1475 17.2674 29.4666 15.3721 29.9487 13.4415C30.4295 11.5162 31.0654 9.58363 31.7018 7.85892C32.3377 6.13528 32.9717 4.62573 33.4469 3.54688C33.6844 3.00765 33.882 2.57647 34.02 2.28049C34.0891 2.13249 34.1432 2.01832 34.1799 1.94136C34.1983 1.90288 34.2124 1.87372 34.2218 1.85427L34.2323 1.83245L34.2349 1.82711L34.2355 1.82585L34.1074 1.58637C33.9791 1.34721 33.979 1.3474 33.979 1.3474L33.9781 1.34943L33.9751 1.35543L33.9639 1.37864C33.9541 1.399 33.9396 1.42913 33.9207 1.46859C33.883 1.54751 33.8279 1.66377 33.7579 1.81397C33.6177 2.11436 33.4178 2.55063 33.1778 3.0956C32.6979 4.18517 32.0569 5.71116 31.4132 7.45589C30.7698 9.19959 30.1213 11.1683 29.6282 13.1429C29.1364 15.1123 28.792 17.1156 28.7723 18.921C28.733 22.5216 29.9878 25.2415 31.1818 27.8296L31.2059 27.8818C32.431 30.5375 33.5853 33.0648 33.5493 36.366C33.5133 39.6673 32.3041 42.1687 31.0213 44.7971L30.9961 44.8488C29.7459 47.4102 28.432 50.1021 28.3927 53.7026C28.3534 57.3032 29.6082 60.0231 30.8023 62.6111L30.8264 62.6634C32.0515 65.3191 33.2058 67.8464 33.1697 71.1476C33.1337 74.4489 31.9246 76.9503 30.6418 79.5787L30.6165 79.6304C29.3663 82.1918 28.0525 84.8837 28.0132 88.4842C27.9935 90.2897 28.2941 92.3 28.7428 94.2797C29.1927 96.2645 29.7981 98.2469 30.4033 100.004C31.0088 101.763 31.6163 103.302 32.0723 104.402C32.3004 104.952 32.4907 105.393 32.6243 105.696C32.691 105.848 32.7436 105.965 32.7796 106.045C32.7975 106.085 32.8114 106.115 32.8208 106.136L32.8315 106.159L32.8343 106.165L32.835 106.167C32.835 106.167 32.8353 106.167 32.9688 105.931Z" stroke="#7659FF" stroke-opacity="0.46"/>
</g>
</svg>
