<svg width="71" height="72" viewBox="0 0 71 72" fill="none" xmlns="http://www.w3.org/2000/svg">
<path d="M30.1784 47.5885C30.2589 47.6689 30.339 47.7501 30.4185 47.8321C32.294 49.9667 35.1994 58.3086 38.1318 62.3091C41.8258 67.3486 46.0562 73.542 53.4169 70.928C57.8883 69.3401 62.1172 65.6673 65.5018 59.7326C70.787 50.4653 71.0575 38.4427 70.2092 30.6673C69.4592 23.7927 66.269 18.9173 63.1167 14.6373C59.9207 10.298 55.4557 7.38661 51.0723 5.04825C42.8934 0.685184 33.82 -0.361586 23.658 0.613113C19.6867 0.994026 15.8419 2.75145 11.5937 5.9486C9.15241 7.78585 5.8731 11.3563 4.02396 14.5555C0.475962 20.6939 -1.09929 28.1024 1.32927 32.199C2.74189 34.5819 5.31911 35.5033 7.56935 36.4257C10.4401 37.6025 13.6235 37.9791 16.6975 38.6598C21.0754 39.6293 24.81 42.76 28.1536 45.7217L28.1919 45.7557C28.8557 46.3436 29.5318 46.9424 30.1784 47.5885Z" fill="#11D748"/>
</svg>
