<svg width="125" height="129" viewBox="0 0 125 129" fill="none" xmlns="http://www.w3.org/2000/svg">
<path d="M8.1639 39.5893L13.8066 44.9684L21.2916 42.7894L15.9125 48.432L18.0915 55.9171L12.4489 50.538L4.96381 52.717L10.3429 47.0744L8.1639 39.5893Z" fill="#14C88C"/>
<path fill-rule="evenodd" clip-rule="evenodd" d="M74.5824 41.2161L60.9912 28.1969L66.2954 46.2548L53.45 59.7954L71.383 54.6223L84.9743 67.6415L84.0607 64.5312L84.7289 65.1713L85.2536 64.6181L83.6291 63.0619L79.67 49.5836L89.2577 39.4769L91.4013 38.8586L91.1846 38.1209L90.3029 38.3752L92.5154 36.043L74.5824 41.2161ZM90.3029 38.3752L88.1957 38.9831L88.4124 39.7208L89.2577 39.4769L90.3029 38.3752ZM83.6291 63.0619L82.9884 62.4483L82.4637 63.0014L84.0607 64.5312L83.6291 63.0619ZM65.2762 30.0664L65.2615 30.0819L65.3182 30.275L64.988 30.3702L64.7514 30.6196L64.6061 30.4804L64.5856 30.4863L64.1436 28.9815L65.2762 30.0664ZM67.5414 32.2363L69.8066 34.4062L69.2818 34.9594L67.0166 32.7895L67.5414 32.2363ZM72.0718 36.5761L74.337 38.7459L73.8123 39.2991L71.5471 37.1292L72.0718 36.5761ZM76.6023 40.9158L77.7349 42.0007L79.2293 41.5696L79.446 42.3074L77.5298 42.8601L76.0775 41.469L76.6023 40.9158ZM82.2181 40.7075L85.2069 39.8453L85.4236 40.583L82.4348 41.4452L82.2181 40.7075ZM94.1795 37.2793L94.1734 37.2587L95.6678 36.8276L94.5974 37.956L94.5818 37.9411L94.3901 37.9964L94.2924 37.6638L94.0421 37.4241L94.1795 37.2793ZM92.4565 40.2127L90.3156 42.4695L89.7603 41.9376L91.9012 39.6809L92.4565 40.2127ZM88.1747 44.7263L86.0338 46.9831L85.4785 46.4512L87.6194 44.1944L88.1747 44.7263ZM83.8929 49.2398L82.8224 50.3682L83.2645 51.873L82.5318 52.0844L81.9651 50.1548L83.3376 48.7079L83.8929 49.2398ZM84.1485 54.8827L85.0325 57.8923L84.2999 58.1037L83.4159 55.094L84.1485 54.8827ZM85.9166 60.902L86.8006 63.9116L86.068 64.123L85.184 61.1133L85.9166 60.902ZM87.6642 66.9272L87.6847 66.9213L88.1267 68.4261L86.9941 67.3412L87.0087 67.3257L86.952 67.1326L87.2823 67.0374L87.5188 66.788L87.6642 66.9272ZM80.1984 60.8316L77.9332 58.6617L78.458 58.1085L80.7232 60.2784L80.1984 60.8316ZM75.668 56.4918L74.5354 55.4069L73.041 55.838L72.8243 55.1002L74.7405 54.5475L76.1928 55.9386L75.668 56.4918ZM70.0522 56.7002L67.0634 57.5624L66.8467 56.8246L69.8355 55.9624L70.0522 56.7002ZM64.0745 58.4246L61.0857 59.2868L60.869 58.549L63.8578 57.6868L64.0745 58.4246ZM58.0908 60.1283L58.0969 60.1489L56.6025 60.58L57.6729 59.4517L57.6884 59.4665L57.8802 59.4112L57.9779 59.7438L58.2282 59.9835L58.0908 60.1283ZM59.8138 57.1949L61.9547 54.9381L62.5099 55.47L60.369 57.7268L59.8138 57.1949ZM64.0956 52.6813L66.2365 50.4246L66.7917 50.9564L64.6508 53.2132L64.0956 52.6813ZM68.3774 48.1678L69.4478 47.0394L69.0058 45.5346L69.7384 45.3232L70.3052 47.2528L68.9326 48.6997L68.3774 48.1678ZM68.1218 42.5249L67.2377 39.5153L67.9704 39.3039L68.8544 42.3136L68.1218 42.5249ZM66.3537 36.5056L65.4697 33.496L66.2023 33.2846L67.0863 36.2943L66.3537 36.5056Z" fill="white"/>
<path d="M63.1576 102.763L63.3642 102.964L63.6412 102.886L66.2099 102.163C66.4758 102.088 66.6306 101.812 66.5558 101.546L70.7306 100.371C70.8054 100.637 71.0816 100.792 71.3474 100.717L72.1902 100.48L71.5917 101.119C71.403 101.32 71.4134 101.637 71.615 101.825L68.6506 104.991C68.449 104.803 68.1326 104.813 67.9439 105.014L66.12 106.962L65.9233 107.172L66.0061 107.448L66.7978 110.082C66.8773 110.347 67.1561 110.497 67.4206 110.417L68.7162 114.728C68.4518 114.808 68.3018 115.086 68.3813 115.351L68.6195 116.143L68.0256 115.567C67.8274 115.375 67.5108 115.38 67.3186 115.578L64.0875 112.444C64.2797 112.246 64.2749 111.929 64.0767 111.737L62.1022 109.822L61.8957 109.621L61.6186 109.699L59.0499 110.422C58.7841 110.497 58.6293 110.773 58.7041 111.039L54.5293 112.214C54.4544 111.948 54.1783 111.793 53.9125 111.868L53.0697 112.105L53.6681 111.466C53.8569 111.265 53.8465 110.948 53.6449 110.759L56.6093 107.594C56.8108 107.782 57.1272 107.772 57.316 107.57L59.1399 105.622L59.3366 105.412L59.2538 105.137L58.462 102.503C58.3826 102.238 58.1037 102.088 57.8393 102.168L56.5436 97.8566C56.8081 97.7772 56.958 97.4983 56.8786 97.2339L56.6404 96.4415L57.2343 97.0176C57.4325 97.2099 57.7491 97.205 57.9413 97.0068L61.1724 100.141C60.9802 100.339 60.985 100.656 61.1832 100.848L63.1576 102.763Z" fill="#14C88C" stroke="#14C88C" stroke-linecap="round" stroke-dasharray="4 4"/>
</svg>
