<svg width="27" height="18" viewBox="0 0 27 18" fill="none" xmlns="http://www.w3.org/2000/svg">
<path d="M5.61084 1.76621C8.1876 0.837758 10.9434 0.831027 13.6145 1.24875C14.526 1.17386 15.4433 1.11059 16.3465 1.20305C18.1385 1.38647 19.9383 2.14393 21.3401 3.28055C22.645 4.33865 23.7353 5.6265 24.7935 6.92225C25.682 8.01019 26.5701 9.27218 26.4738 10.738C26.3761 12.2259 25.3708 13.6734 24.2974 14.65C23.1496 15.6942 21.9013 16.5125 20.481 17.1396C18.9686 17.8074 17.1627 17.9382 15.529 17.8454C13.3053 17.7192 11.0417 17.3957 8.90163 16.7667C6.87097 16.1699 5.06968 15.4552 3.64744 13.823C2.52331 12.533 1.59186 10.9745 1.1283 9.32089C0.698742 7.78852 0.976157 6.03055 1.76745 4.65495C2.57805 3.24577 4.11589 2.30487 5.61084 1.76621Z" fill="#FFBC39"/>
</svg>
