<svg width="105" height="100" viewBox="0 0 105 100" fill="none" xmlns="http://www.w3.org/2000/svg">
<path d="M28.7209 8.24571L41.7861 15.7889C43.6447 16.862 44.7896 18.845 44.7896 20.9911V36.0775C44.7896 38.2236 43.6447 40.2067 41.7861 41.2797L28.7209 48.8229C26.8624 49.896 24.5725 49.896 22.7139 48.8229L9.64873 41.2797C7.79016 40.2067 6.64523 38.2236 6.64523 36.0775V20.9911C6.64523 18.845 7.79016 16.862 9.64873 15.7889L22.7139 8.24571C24.5725 7.17267 26.8624 7.17267 28.7209 8.24571Z" fill="#11D748"/>
<path fill-rule="evenodd" clip-rule="evenodd" d="M29.4718 1.00598C27.1486 -0.335327 24.2863 -0.335326 21.9631 1.00598L3.75437 11.5188C1.43116 12.8601 0 15.3389 0 18.0215V39.0471C0 41.7297 1.43116 44.2085 3.75437 45.5498L21.9631 56.0626C24.2863 57.4039 27.1486 57.4039 29.4718 56.0626L47.6805 45.5498C50.0037 44.2085 51.4348 41.7297 51.4348 39.0471V18.0215C51.4348 15.3389 50.0037 12.8601 47.6805 11.5188L29.4718 1.00598ZM21.9631 6.94516C24.2863 5.60386 27.1486 5.60386 29.4718 6.94516L42.537 14.4884C44.8602 15.8297 46.2914 18.3085 46.2914 20.9911V36.0775C46.2914 38.7601 44.8602 41.2389 42.537 42.5803L29.4718 50.1235C27.1486 51.4648 24.2863 51.4648 21.9631 50.1235L8.89785 42.5803C6.57464 41.239 5.14349 38.7601 5.14349 36.0775V20.9911C5.14349 18.3085 6.57464 15.8297 8.89785 14.4884L21.9631 6.94516Z" fill="white"/>
<path d="M28.4709 8.67872L41.5361 16.2219C43.24 17.2056 44.2896 19.0237 44.2896 20.9911V36.0775C44.2896 38.045 43.24 39.863 41.5361 40.8467L28.4709 48.3899C26.7671 49.3736 24.6678 49.3736 22.9639 48.3899L9.89873 40.8467C8.19486 39.863 7.14523 38.045 7.14523 36.0775V20.9911C7.14523 19.0237 8.19486 17.2056 9.89873 16.2219L22.9639 8.67873C24.6678 7.695 26.7671 7.695 28.4709 8.67872ZM22.2131 1.43899C24.3816 0.187003 27.0533 0.187002 29.2218 1.43899L47.4305 11.9518C49.599 13.2038 50.9348 15.5175 50.9348 18.0215V39.0471C50.9348 41.5511 49.599 43.8648 47.4305 45.1168L29.2218 55.6296C27.0533 56.8816 24.3816 56.8816 22.2131 55.6296L4.00437 45.1168C1.83586 43.8648 0.5 41.5511 0.5 39.0471V18.0215C0.5 15.5175 1.83586 13.2038 4.00437 11.9518L22.2131 1.43899ZM29.7218 6.51215C27.2439 5.08153 24.191 5.08153 21.7131 6.51215L8.64785 14.0553C6.16994 15.486 4.64349 18.1299 4.64349 20.9911V36.0775C4.64349 38.9387 6.16994 41.5826 8.64785 43.0133L21.7131 50.5565C24.191 51.9871 27.2439 51.9871 29.7218 50.5565L42.787 43.0133C45.2649 41.5826 46.7914 38.9387 46.7914 36.0775V20.9911C46.7914 18.1299 45.2649 15.486 42.787 14.0553L29.7218 6.51215Z" stroke="#11D748"/>
<path d="M47.5688 61.9517L52.323 59.2069L53.073 60.5059L55.45 59.1335C56.1024 58.7569 56.7918 58.4739 57.4999 58.2842L57.1118 56.8353C58.8066 56.3813 60.5934 56.3813 62.2883 56.8353L61.9001 58.2842C62.6083 58.4739 63.2977 58.7569 63.95 59.1335L66.3271 60.5059L67.0771 59.2069L71.8312 61.9517L71.0812 63.2507L73.4583 64.6231C74.1106 64.9998 74.7005 65.4553 75.2188 65.9737L76.2795 64.9131C77.5202 66.1539 78.4136 67.7013 78.8678 69.3961L77.4189 69.7844C77.6087 70.4925 77.7083 71.2311 77.7083 71.9844V74.7292H79.2083V80.2188H77.7083V82.9636C77.7083 83.7168 77.6087 84.4554 77.4189 85.1635L78.8678 85.5518C78.4136 87.2466 77.5202 88.794 76.2795 90.0348L75.2188 88.9742C74.7005 89.4926 74.1106 89.9482 73.4583 90.3248L71.0812 91.6972L71.8312 92.9962L67.0771 95.741L66.3271 94.442L63.95 95.8144C63.2977 96.191 62.6083 96.474 61.9001 96.6637L62.2883 98.1127C60.5935 98.5667 58.8066 98.5667 57.1118 98.1127L57.5 96.6637C56.7918 96.474 56.1024 96.191 55.45 95.8144L53.073 94.442L52.323 95.741L47.5688 92.9962L48.3188 91.6972L45.9418 90.3248C45.2894 89.9482 44.6996 89.4926 44.1813 88.9742L43.1205 90.0348C41.8799 88.794 40.9865 87.2466 40.5323 85.5518L41.9812 85.1635C41.7914 84.4554 41.6918 83.7168 41.6918 82.9636V80.2188H40.1918V74.7292H41.6918V71.9844C41.6918 71.2311 41.7914 70.4925 41.9812 69.7844L40.5323 69.3961C40.9865 67.7013 41.8799 66.1539 43.1205 64.9131L44.1812 65.9737C44.6996 65.4553 45.2894 64.9998 45.9418 64.6231L48.3188 63.2507L47.5688 61.9517Z" stroke="white" stroke-width="3" stroke-dasharray="4 4"/>
<path d="M87.6663 38.032L89.5433 36.9482L90.2933 38.2473L91.2319 37.7054C91.5774 37.5059 91.9423 37.3561 92.3171 37.2557L91.9289 35.8068C92.9458 35.5344 94.0179 35.5344 95.0348 35.8068L94.6466 37.2557C95.0214 37.3561 95.3863 37.5059 95.7319 37.7054L96.6704 38.2473L97.4204 36.9482L99.2975 38.032L98.5475 39.331L99.486 39.8729C99.8315 40.0723 100.144 40.3135 100.418 40.5878L101.479 39.5272C102.223 40.2717 102.759 41.2001 103.032 42.217L101.583 42.6053C101.683 42.9801 101.736 43.371 101.736 43.77V44.8537H103.236V47.0211H101.736V48.1049C101.736 48.5038 101.683 48.8948 101.583 49.2695L103.032 49.6578C102.759 50.6747 102.223 51.6032 101.479 52.3476L100.418 51.287C100.144 51.5614 99.8315 51.8025 99.486 52.002L98.5475 52.5438L99.2975 53.8429L97.4204 54.9266L96.6704 53.6276L95.7319 54.1694C95.3864 54.3689 95.0214 54.5187 94.6467 54.6191L95.0348 56.068C94.0179 56.3404 92.9458 56.3404 91.9289 56.068L92.3171 54.6191C91.9423 54.5187 91.5774 54.3689 91.2319 54.1694L90.2933 53.6276L89.5433 54.9266L87.6663 53.8429L88.4163 52.5439L87.4777 52.002C87.1322 51.8025 86.82 51.5614 86.5457 51.287L85.485 52.3476C84.7406 51.6032 84.2046 50.6747 83.932 49.6578L85.3809 49.2695C85.2805 48.8948 85.2277 48.5038 85.2277 48.1049V47.0211H83.7277V44.8537H85.2277V43.77C85.2277 43.371 85.2805 42.9801 85.3809 42.6053L83.932 42.217C84.2046 41.2002 84.7406 40.2717 85.485 39.5272L86.5457 40.5878C86.82 40.3135 87.1322 40.0723 87.4777 39.8729L88.4163 39.331L87.6663 38.032Z" fill="#4A3AFF" stroke="#4A3AFF" stroke-width="3" stroke-dasharray="4 4"/>
</svg>