<svg width="75" height="101" viewBox="0 0 75 101" fill="none" xmlns="http://www.w3.org/2000/svg">
<path d="M6.11178 0H24.9173L18.8055 21.9397L24.9173 43.8794H6.11178L0 21.9397L6.11178 0Z" fill="white" fill-opacity="0.18"/>
<path fill-rule="evenodd" clip-rule="evenodd" d="M43.7227 21.9397L49.8345 0H31.029L24.9173 21.9397L31.029 43.8794H49.8345L43.7227 21.9397ZM49.0092 43.2526L43.072 21.9397L49.0092 0.626849H31.5051L25.568 21.9397L31.5051 43.2526H49.0092Z" fill="white" fill-opacity="0.18"/>
<path d="M55.4918 2.19397L54.968 4.07452H73.7734L74.2973 2.19397H55.4918Z" fill="white" fill-opacity="0.18"/>
<path d="M54.6187 5.32821L54.0949 7.20876H72.9003L73.4242 5.32821H54.6187Z" fill="white" fill-opacity="0.18"/>
<path d="M53.7456 8.46246L53.2217 10.343H72.0272L72.5511 8.46246H53.7456Z" fill="white" fill-opacity="0.18"/>
<path d="M52.8725 11.5967L52.3486 13.4772H71.1541L71.678 11.5967H52.8725Z" fill="white" fill-opacity="0.18"/>
<path d="M51.9994 14.7309L51.4755 16.6115H70.281L70.8049 14.7309H51.9994Z" fill="white" fill-opacity="0.18"/>
<path d="M51.1263 17.8652L50.6024 19.7457H69.4079L69.9318 17.8652H51.1263Z" fill="white" fill-opacity="0.18"/>
<path d="M49.9912 21.9397L50.2532 22.88H69.0586L68.7967 21.9397L69.0586 20.9994H50.2532L49.9912 21.9397Z" fill="white" fill-opacity="0.18"/>
<path d="M50.6024 24.1337L51.1263 26.0142H69.9318L69.4079 24.1337H50.6024Z" fill="white" fill-opacity="0.18"/>
<path d="M51.4755 27.2679L51.9994 29.1485H70.8049L70.281 27.2679H51.4755Z" fill="white" fill-opacity="0.18"/>
<path d="M52.3486 30.4022L52.8725 32.2827H71.678L71.1541 30.4022H52.3486Z" fill="white" fill-opacity="0.18"/>
<path d="M53.2217 33.5364L53.7456 35.417H72.5511L72.0272 33.5364H53.2217Z" fill="white" fill-opacity="0.18"/>
<path d="M54.0949 36.6706L54.6187 38.5512H73.4242L72.9003 36.6706H54.0949Z" fill="white" fill-opacity="0.18"/>
<path d="M54.968 39.8049L55.4918 41.6854H74.2973L73.7734 39.8049H54.968Z" fill="white" fill-opacity="0.18"/>
<path d="M74.9085 43.8794L74.6466 42.9391H55.8411L56.103 43.8794H74.9085Z" fill="white" fill-opacity="0.18"/>
<path d="M55.8411 0.940273H74.6466L74.9085 0H56.103L55.8411 0.940273Z" fill="white" fill-opacity="0.18"/>
<path d="M30.8679 100.14V90.6782L18.3309 82.9017L5.79395 90.6782L5.79395 100.14L18.3309 92.3636L30.8679 100.14Z" fill="white" fill-opacity="0.18"/>
<path d="M30.8679 76.5741V86.036L18.3309 78.2595L5.79395 86.036L5.79395 76.5741L18.3309 68.7976L30.8679 76.5741Z" fill="white" fill-opacity="0.18"/>
<path d="M30.8679 62.47V71.9318L18.3309 64.1554L5.79395 71.9318L5.79395 62.47L18.3309 54.6935L30.8679 62.47Z" fill="white" fill-opacity="0.18"/>
<path d="M50.4351 92.7288C50.0665 92.5002 49.8423 92.0972 49.8423 91.6634L49.8423 85.1521C49.8423 84.1694 50.9217 83.5687 51.7568 84.0868L61.7184 90.2658C62.1232 90.5168 62.6353 90.5169 63.0401 90.2658L73.0017 84.0868C73.8369 83.5687 74.9163 84.1694 74.9163 85.1521V91.6634C74.9163 92.0972 74.692 92.5002 74.3234 92.7288L63.0401 99.7276C62.6353 99.9787 62.1232 99.9787 61.7184 99.7276L50.4351 92.7288Z" fill="white" fill-opacity="0.5"/>
<path d="M50.4351 78.6247C50.0665 78.3961 49.8423 77.9931 49.8423 77.5593L49.8423 71.048C49.8423 70.0652 50.9217 69.4646 51.7568 69.9826L61.7184 76.1617C62.1232 76.4127 62.6353 76.4127 63.0401 76.1617L73.0017 69.9826C73.8369 69.4646 74.9163 70.0652 74.9163 71.048V77.5593C74.9163 77.9931 74.692 78.3961 74.3234 78.6247L63.0401 85.6235C62.6353 85.8746 62.1232 85.8746 61.7184 85.6235L50.4351 78.6247Z" fill="white" fill-opacity="0.5"/>
<path d="M50.4351 64.5206C50.0665 64.2919 49.8423 63.889 49.8423 63.4552L49.8423 56.9439C49.8423 55.9611 50.9217 55.3605 51.7568 55.8785L61.7184 62.0576C62.1232 62.3086 62.6353 62.3086 63.0401 62.0576L73.0017 55.8785C73.8369 55.3605 74.9163 55.9611 74.9163 56.9439V63.4552C74.9163 63.889 74.692 64.2919 74.3234 64.5206L63.0401 71.5194C62.6353 71.7705 62.1232 71.7705 61.7184 71.5194L50.4351 64.5206Z" fill="white" fill-opacity="0.5"/>
</svg>