<svg width="190" height="190" viewBox="0 0 190 190" fill="none" xmlns="http://www.w3.org/2000/svg">
<path d="M183.215 44.1878C183.741 45.0992 184.254 46.0195 184.752 46.9484C183.847 46.3563 183.242 45.3435 183.215 44.1878Z" fill="#4A3AFF" fill-opacity="0.08"/>
<path d="M164.638 20.764C166.219 22.2477 167.752 23.7813 169.236 25.3623C168.662 26.4226 167.54 27.1429 166.25 27.1429C164.376 27.1429 162.857 25.6238 162.857 23.75C162.857 22.4597 163.577 21.3377 164.638 20.764Z" fill="#4A3AFF" fill-opacity="0.08"/>
<path d="M143.052 5.24796C143.981 5.74632 144.901 6.25869 145.812 6.78477C144.656 6.7578 143.644 6.15294 143.052 5.24796Z" fill="#4A3AFF" fill-opacity="0.08"/>
<path d="M44.1878 6.78477C45.0992 6.25869 46.0195 5.74632 46.9484 5.24796C46.3563 6.15294 45.3435 6.7578 44.1878 6.78477Z" fill="#4A3AFF" fill-opacity="0.08"/>
<path d="M20.764 25.3623C22.2477 23.7813 23.7813 22.2477 25.3623 20.764C26.4226 21.3377 27.1429 22.4597 27.1429 23.75C27.1429 25.6238 25.6238 27.1429 23.75 27.1429C22.4597 27.1429 21.3377 26.4226 20.764 25.3623Z" fill="#4A3AFF" fill-opacity="0.08"/>
<path d="M5.24796 46.9484C5.74632 46.0195 6.25869 45.0992 6.78477 44.1878C6.7578 45.3435 6.15294 46.3563 5.24796 46.9484Z" fill="#4A3AFF" fill-opacity="0.08"/>
<path d="M184.752 143.052C184.254 143.981 183.741 144.901 183.215 145.812C183.242 144.656 183.847 143.644 184.752 143.052Z" fill="#4A3AFF" fill-opacity="0.08"/>
<path d="M169.236 164.638C168.662 163.577 167.54 162.857 166.25 162.857C164.376 162.857 162.857 164.376 162.857 166.25C162.857 167.54 163.577 168.662 164.638 169.236C166.219 167.752 167.752 166.219 169.236 164.638Z" fill="#4A3AFF" fill-opacity="0.08"/>
<path d="M145.812 183.215C144.656 183.242 143.644 183.847 143.052 184.752C143.981 184.254 144.901 183.741 145.812 183.215Z" fill="#4A3AFF" fill-opacity="0.08"/>
<path d="M46.9484 184.752C46.3563 183.847 45.3435 183.242 44.1878 183.215C45.0992 183.741 46.0195 184.254 46.9484 184.752Z" fill="#4A3AFF" fill-opacity="0.08"/>
<path d="M25.3623 169.236C26.4226 168.662 27.1429 167.54 27.1429 166.25C27.1429 164.376 25.6238 162.857 23.75 162.857C22.4597 162.857 21.3377 163.577 20.764 164.638C22.2477 166.219 23.7813 167.752 25.3623 169.236Z" fill="#4A3AFF" fill-opacity="0.08"/>
<path d="M6.78477 145.812C6.7578 144.656 6.15294 143.644 5.24796 143.052C5.74632 143.981 6.25869 144.901 6.78477 145.812Z" fill="#4A3AFF" fill-opacity="0.08"/>
<path d="M67.8571 3.39286C67.8571 5.26668 66.3381 6.78571 64.4643 6.78571C62.5905 6.78571 61.0714 5.26668 61.0714 3.39286C61.0714 1.51903 62.5905 0 64.4643 0C66.3381 0 67.8571 1.51903 67.8571 3.39286Z" fill="#4A3AFF" fill-opacity="0.08"/>
<path d="M88.2143 3.39286C88.2143 5.26668 86.6952 6.78571 84.8214 6.78571C82.9476 6.78571 81.4286 5.26668 81.4286 3.39286C81.4286 1.51903 82.9476 0 84.8214 0C86.6952 0 88.2143 1.51903 88.2143 3.39286Z" fill="#4A3AFF" fill-opacity="0.08"/>
<path d="M108.571 3.39286C108.571 5.26668 107.052 6.78571 105.179 6.78571C103.305 6.78571 101.786 5.26668 101.786 3.39286C101.786 1.51903 103.305 0 105.179 0C107.052 0 108.571 1.51903 108.571 3.39286Z" fill="#4A3AFF" fill-opacity="0.08"/>
<path d="M128.929 3.39286C128.929 5.26668 127.41 6.78571 125.536 6.78571C123.662 6.78571 122.143 5.26668 122.143 3.39286C122.143 1.51903 123.662 0 125.536 0C127.41 0 128.929 1.51903 128.929 3.39286Z" fill="#4A3AFF" fill-opacity="0.08"/>
<path d="M47.5 23.75C47.5 25.6238 45.981 27.1429 44.1071 27.1429C42.2333 27.1429 40.7143 25.6238 40.7143 23.75C40.7143 21.8762 42.2333 20.3571 44.1071 20.3571C45.981 20.3571 47.5 21.8762 47.5 23.75Z" fill="#4A3AFF" fill-opacity="0.08"/>
<path d="M67.8571 23.75C67.8571 25.6238 66.3381 27.1429 64.4643 27.1429C62.5905 27.1429 61.0714 25.6238 61.0714 23.75C61.0714 21.8762 62.5905 20.3571 64.4643 20.3571C66.3381 20.3571 67.8571 21.8762 67.8571 23.75Z" fill="#4A3AFF" fill-opacity="0.08"/>
<path d="M88.2143 23.75C88.2143 25.6238 86.6952 27.1429 84.8214 27.1429C82.9476 27.1429 81.4286 25.6238 81.4286 23.75C81.4286 21.8762 82.9476 20.3571 84.8214 20.3571C86.6952 20.3571 88.2143 21.8762 88.2143 23.75Z" fill="#4A3AFF" fill-opacity="0.08"/>
<path d="M108.571 23.75C108.571 25.6238 107.052 27.1429 105.179 27.1429C103.305 27.1429 101.786 25.6238 101.786 23.75C101.786 21.8762 103.305 20.3571 105.179 20.3571C107.052 20.3571 108.571 21.8762 108.571 23.75Z" fill="#4A3AFF" fill-opacity="0.08"/>
<path d="M128.929 23.75C128.929 25.6238 127.41 27.1429 125.536 27.1429C123.662 27.1429 122.143 25.6238 122.143 23.75C122.143 21.8762 123.662 20.3571 125.536 20.3571C127.41 20.3571 128.929 21.8762 128.929 23.75Z" fill="#4A3AFF" fill-opacity="0.08"/>
<path d="M149.286 23.75C149.286 25.6238 147.767 27.1429 145.893 27.1429C144.019 27.1429 142.5 25.6238 142.5 23.75C142.5 21.8762 144.019 20.3571 145.893 20.3571C147.767 20.3571 149.286 21.8762 149.286 23.75Z" fill="#4A3AFF" fill-opacity="0.08"/>
<path d="M27.1429 44.1071C27.1429 45.981 25.6238 47.5 23.75 47.5C21.8762 47.5 20.3571 45.981 20.3571 44.1071C20.3571 42.2333 21.8762 40.7143 23.75 40.7143C25.6238 40.7143 27.1429 42.2333 27.1429 44.1071Z" fill="#4A3AFF" fill-opacity="0.08"/>
<path d="M47.5 44.1071C47.5 45.981 45.981 47.5 44.1071 47.5C42.2333 47.5 40.7143 45.981 40.7143 44.1071C40.7143 42.2333 42.2333 40.7143 44.1071 40.7143C45.981 40.7143 47.5 42.2333 47.5 44.1071Z" fill="#4A3AFF" fill-opacity="0.08"/>
<path d="M67.8571 44.1071C67.8571 45.981 66.3381 47.5 64.4643 47.5C62.5905 47.5 61.0714 45.981 61.0714 44.1071C61.0714 42.2333 62.5905 40.7143 64.4643 40.7143C66.3381 40.7143 67.8571 42.2333 67.8571 44.1071Z" fill="#4A3AFF" fill-opacity="0.08"/>
<path d="M88.2143 44.1071C88.2143 45.981 86.6952 47.5 84.8214 47.5C82.9476 47.5 81.4286 45.981 81.4286 44.1071C81.4286 42.2333 82.9476 40.7143 84.8214 40.7143C86.6952 40.7143 88.2143 42.2333 88.2143 44.1071Z" fill="#4A3AFF" fill-opacity="0.08"/>
<path d="M108.571 44.1071C108.571 45.981 107.052 47.5 105.179 47.5C103.305 47.5 101.786 45.981 101.786 44.1071C101.786 42.2333 103.305 40.7143 105.179 40.7143C107.052 40.7143 108.571 42.2333 108.571 44.1071Z" fill="#4A3AFF" fill-opacity="0.08"/>
<path d="M128.929 44.1071C128.929 45.981 127.41 47.5 125.536 47.5C123.662 47.5 122.143 45.981 122.143 44.1071C122.143 42.2333 123.662 40.7143 125.536 40.7143C127.41 40.7143 128.929 42.2333 128.929 44.1071Z" fill="#4A3AFF" fill-opacity="0.08"/>
<path d="M149.286 44.1071C149.286 45.981 147.767 47.5 145.893 47.5C144.019 47.5 142.5 45.981 142.5 44.1071C142.5 42.2333 144.019 40.7143 145.893 40.7143C147.767 40.7143 149.286 42.2333 149.286 44.1071Z" fill="#4A3AFF" fill-opacity="0.08"/>
<path d="M169.643 44.1071C169.643 45.981 168.124 47.5 166.25 47.5C164.376 47.5 162.857 45.981 162.857 44.1071C162.857 42.2333 164.376 40.7143 166.25 40.7143C168.124 40.7143 169.643 42.2333 169.643 44.1071Z" fill="#4A3AFF" fill-opacity="0.08"/>
<path d="M6.78571 64.4643C6.78571 66.3381 5.26668 67.8571 3.39286 67.8571C1.51903 67.8571 0 66.3381 0 64.4643C0 62.5905 1.51903 61.0714 3.39286 61.0714C5.26668 61.0714 6.78571 62.5905 6.78571 64.4643Z" fill="#4A3AFF" fill-opacity="0.08"/>
<path d="M27.1429 64.4643C27.1429 66.3381 25.6238 67.8571 23.75 67.8571C21.8762 67.8571 20.3571 66.3381 20.3571 64.4643C20.3571 62.5905 21.8762 61.0714 23.75 61.0714C25.6238 61.0714 27.1429 62.5905 27.1429 64.4643Z" fill="#4A3AFF" fill-opacity="0.08"/>
<path d="M47.5 64.4643C47.5 66.3381 45.981 67.8571 44.1071 67.8571C42.2333 67.8571 40.7143 66.3381 40.7143 64.4643C40.7143 62.5905 42.2333 61.0714 44.1071 61.0714C45.981 61.0714 47.5 62.5905 47.5 64.4643Z" fill="#4A3AFF" fill-opacity="0.08"/>
<path d="M67.8571 64.4643C67.8571 66.3381 66.3381 67.8571 64.4643 67.8571C62.5905 67.8571 61.0714 66.3381 61.0714 64.4643C61.0714 62.5905 62.5905 61.0714 64.4643 61.0714C66.3381 61.0714 67.8571 62.5905 67.8571 64.4643Z" fill="#4A3AFF" fill-opacity="0.08"/>
<path d="M88.2143 64.4643C88.2143 66.3381 86.6952 67.8571 84.8214 67.8571C82.9476 67.8571 81.4286 66.3381 81.4286 64.4643C81.4286 62.5905 82.9476 61.0714 84.8214 61.0714C86.6952 61.0714 88.2143 62.5905 88.2143 64.4643Z" fill="#4A3AFF" fill-opacity="0.08"/>
<path d="M108.571 64.4643C108.571 66.3381 107.052 67.8571 105.179 67.8571C103.305 67.8571 101.786 66.3381 101.786 64.4643C101.786 62.5905 103.305 61.0714 105.179 61.0714C107.052 61.0714 108.571 62.5905 108.571 64.4643Z" fill="#4A3AFF" fill-opacity="0.08"/>
<path d="M128.929 64.4643C128.929 66.3381 127.41 67.8571 125.536 67.8571C123.662 67.8571 122.143 66.3381 122.143 64.4643C122.143 62.5905 123.662 61.0714 125.536 61.0714C127.41 61.0714 128.929 62.5905 128.929 64.4643Z" fill="#4A3AFF" fill-opacity="0.08"/>
<path d="M149.286 64.4643C149.286 66.3381 147.767 67.8571 145.893 67.8571C144.019 67.8571 142.5 66.3381 142.5 64.4643C142.5 62.5905 144.019 61.0714 145.893 61.0714C147.767 61.0714 149.286 62.5905 149.286 64.4643Z" fill="#4A3AFF" fill-opacity="0.08"/>
<path d="M169.643 64.4643C169.643 66.3381 168.124 67.8571 166.25 67.8571C164.376 67.8571 162.857 66.3381 162.857 64.4643C162.857 62.5905 164.376 61.0714 166.25 61.0714C168.124 61.0714 169.643 62.5905 169.643 64.4643Z" fill="#4A3AFF" fill-opacity="0.08"/>
<path d="M190 64.4643C190 66.3381 188.481 67.8571 186.607 67.8571C184.733 67.8571 183.214 66.3381 183.214 64.4643C183.214 62.5905 184.733 61.0714 186.607 61.0714C188.481 61.0714 190 62.5905 190 64.4643Z" fill="#4A3AFF" fill-opacity="0.08"/>
<path d="M6.78571 84.8214C6.78571 86.6952 5.26668 88.2143 3.39286 88.2143C1.51903 88.2143 0 86.6952 0 84.8214C0 82.9476 1.51903 81.4286 3.39286 81.4286C5.26668 81.4286 6.78571 82.9476 6.78571 84.8214Z" fill="#4A3AFF" fill-opacity="0.08"/>
<path d="M27.1429 84.8214C27.1429 86.6952 25.6238 88.2143 23.75 88.2143C21.8762 88.2143 20.3571 86.6952 20.3571 84.8214C20.3571 82.9476 21.8762 81.4286 23.75 81.4286C25.6238 81.4286 27.1429 82.9476 27.1429 84.8214Z" fill="#4A3AFF" fill-opacity="0.08"/>
<path d="M47.5 84.8214C47.5 86.6952 45.981 88.2143 44.1071 88.2143C42.2333 88.2143 40.7143 86.6952 40.7143 84.8214C40.7143 82.9476 42.2333 81.4286 44.1071 81.4286C45.981 81.4286 47.5 82.9476 47.5 84.8214Z" fill="#4A3AFF" fill-opacity="0.08"/>
<path d="M67.8571 84.8214C67.8571 86.6952 66.3381 88.2143 64.4643 88.2143C62.5905 88.2143 61.0714 86.6952 61.0714 84.8214C61.0714 82.9476 62.5905 81.4286 64.4643 81.4286C66.3381 81.4286 67.8571 82.9476 67.8571 84.8214Z" fill="#4A3AFF" fill-opacity="0.08"/>
<path d="M88.2143 84.8214C88.2143 86.6952 86.6952 88.2143 84.8214 88.2143C82.9476 88.2143 81.4286 86.6952 81.4286 84.8214C81.4286 82.9476 82.9476 81.4286 84.8214 81.4286C86.6952 81.4286 88.2143 82.9476 88.2143 84.8214Z" fill="#4A3AFF" fill-opacity="0.08"/>
<path d="M108.571 84.8214C108.571 86.6952 107.052 88.2143 105.179 88.2143C103.305 88.2143 101.786 86.6952 101.786 84.8214C101.786 82.9476 103.305 81.4286 105.179 81.4286C107.052 81.4286 108.571 82.9476 108.571 84.8214Z" fill="#4A3AFF" fill-opacity="0.08"/>
<path d="M128.929 84.8214C128.929 86.6952 127.41 88.2143 125.536 88.2143C123.662 88.2143 122.143 86.6952 122.143 84.8214C122.143 82.9476 123.662 81.4286 125.536 81.4286C127.41 81.4286 128.929 82.9476 128.929 84.8214Z" fill="#4A3AFF" fill-opacity="0.08"/>
<path d="M149.286 84.8214C149.286 86.6952 147.767 88.2143 145.893 88.2143C144.019 88.2143 142.5 86.6952 142.5 84.8214C142.5 82.9476 144.019 81.4286 145.893 81.4286C147.767 81.4286 149.286 82.9476 149.286 84.8214Z" fill="#4A3AFF" fill-opacity="0.08"/>
<path d="M169.643 84.8214C169.643 86.6952 168.124 88.2143 166.25 88.2143C164.376 88.2143 162.857 86.6952 162.857 84.8214C162.857 82.9476 164.376 81.4286 166.25 81.4286C168.124 81.4286 169.643 82.9476 169.643 84.8214Z" fill="#4A3AFF" fill-opacity="0.08"/>
<path d="M190 84.8214C190 86.6952 188.481 88.2143 186.607 88.2143C184.733 88.2143 183.214 86.6952 183.214 84.8214C183.214 82.9476 184.733 81.4286 186.607 81.4286C188.481 81.4286 190 82.9476 190 84.8214Z" fill="#4A3AFF" fill-opacity="0.08"/>
<path d="M6.78571 105.179C6.78571 107.052 5.26668 108.571 3.39286 108.571C1.51903 108.571 0 107.052 0 105.179C0 103.305 1.51903 101.786 3.39286 101.786C5.26668 101.786 6.78571 103.305 6.78571 105.179Z" fill="#4A3AFF" fill-opacity="0.08"/>
<path d="M27.1429 105.179C27.1429 107.052 25.6238 108.571 23.75 108.571C21.8762 108.571 20.3571 107.052 20.3571 105.179C20.3571 103.305 21.8762 101.786 23.75 101.786C25.6238 101.786 27.1429 103.305 27.1429 105.179Z" fill="#4A3AFF" fill-opacity="0.08"/>
<path d="M47.5 105.179C47.5 107.052 45.981 108.571 44.1071 108.571C42.2333 108.571 40.7143 107.052 40.7143 105.179C40.7143 103.305 42.2333 101.786 44.1071 101.786C45.981 101.786 47.5 103.305 47.5 105.179Z" fill="#4A3AFF" fill-opacity="0.08"/>
<path d="M67.8571 105.179C67.8571 107.052 66.3381 108.571 64.4643 108.571C62.5905 108.571 61.0714 107.052 61.0714 105.179C61.0714 103.305 62.5905 101.786 64.4643 101.786C66.3381 101.786 67.8571 103.305 67.8571 105.179Z" fill="#4A3AFF" fill-opacity="0.08"/>
<path d="M88.2143 105.179C88.2143 107.052 86.6952 108.571 84.8214 108.571C82.9476 108.571 81.4286 107.052 81.4286 105.179C81.4286 103.305 82.9476 101.786 84.8214 101.786C86.6952 101.786 88.2143 103.305 88.2143 105.179Z" fill="#4A3AFF" fill-opacity="0.08"/>
<path d="M108.571 105.179C108.571 107.052 107.052 108.571 105.179 108.571C103.305 108.571 101.786 107.052 101.786 105.179C101.786 103.305 103.305 101.786 105.179 101.786C107.052 101.786 108.571 103.305 108.571 105.179Z" fill="#4A3AFF" fill-opacity="0.08"/>
<path d="M128.929 105.179C128.929 107.052 127.41 108.571 125.536 108.571C123.662 108.571 122.143 107.052 122.143 105.179C122.143 103.305 123.662 101.786 125.536 101.786C127.41 101.786 128.929 103.305 128.929 105.179Z" fill="#4A3AFF" fill-opacity="0.08"/>
<path d="M149.286 105.179C149.286 107.052 147.767 108.571 145.893 108.571C144.019 108.571 142.5 107.052 142.5 105.179C142.5 103.305 144.019 101.786 145.893 101.786C147.767 101.786 149.286 103.305 149.286 105.179Z" fill="#4A3AFF" fill-opacity="0.08"/>
<path d="M169.643 105.179C169.643 107.052 168.124 108.571 166.25 108.571C164.376 108.571 162.857 107.052 162.857 105.179C162.857 103.305 164.376 101.786 166.25 101.786C168.124 101.786 169.643 103.305 169.643 105.179Z" fill="#4A3AFF" fill-opacity="0.08"/>
<path d="M190 105.179C190 107.052 188.481 108.571 186.607 108.571C184.733 108.571 183.214 107.052 183.214 105.179C183.214 103.305 184.733 101.786 186.607 101.786C188.481 101.786 190 103.305 190 105.179Z" fill="#4A3AFF" fill-opacity="0.08"/>
<path d="M6.78571 125.536C6.78571 127.41 5.26668 128.929 3.39286 128.929C1.51903 128.929 0 127.41 0 125.536C0 123.662 1.51903 122.143 3.39286 122.143C5.26668 122.143 6.78571 123.662 6.78571 125.536Z" fill="#4A3AFF" fill-opacity="0.08"/>
<path d="M27.1429 125.536C27.1429 127.41 25.6238 128.929 23.75 128.929C21.8762 128.929 20.3571 127.41 20.3571 125.536C20.3571 123.662 21.8762 122.143 23.75 122.143C25.6238 122.143 27.1429 123.662 27.1429 125.536Z" fill="#4A3AFF" fill-opacity="0.08"/>
<path d="M47.5 125.536C47.5 127.41 45.981 128.929 44.1071 128.929C42.2333 128.929 40.7143 127.41 40.7143 125.536C40.7143 123.662 42.2333 122.143 44.1071 122.143C45.981 122.143 47.5 123.662 47.5 125.536Z" fill="#4A3AFF" fill-opacity="0.08"/>
<path d="M67.8571 125.536C67.8571 127.41 66.3381 128.929 64.4643 128.929C62.5905 128.929 61.0714 127.41 61.0714 125.536C61.0714 123.662 62.5905 122.143 64.4643 122.143C66.3381 122.143 67.8571 123.662 67.8571 125.536Z" fill="#4A3AFF" fill-opacity="0.08"/>
<path d="M88.2143 125.536C88.2143 127.41 86.6952 128.929 84.8214 128.929C82.9476 128.929 81.4286 127.41 81.4286 125.536C81.4286 123.662 82.9476 122.143 84.8214 122.143C86.6952 122.143 88.2143 123.662 88.2143 125.536Z" fill="#4A3AFF" fill-opacity="0.08"/>
<path d="M108.571 125.536C108.571 127.41 107.052 128.929 105.179 128.929C103.305 128.929 101.786 127.41 101.786 125.536C101.786 123.662 103.305 122.143 105.179 122.143C107.052 122.143 108.571 123.662 108.571 125.536Z" fill="#4A3AFF" fill-opacity="0.08"/>
<path d="M128.929 125.536C128.929 127.41 127.41 128.929 125.536 128.929C123.662 128.929 122.143 127.41 122.143 125.536C122.143 123.662 123.662 122.143 125.536 122.143C127.41 122.143 128.929 123.662 128.929 125.536Z" fill="#4A3AFF" fill-opacity="0.08"/>
<path d="M149.286 125.536C149.286 127.41 147.767 128.929 145.893 128.929C144.019 128.929 142.5 127.41 142.5 125.536C142.5 123.662 144.019 122.143 145.893 122.143C147.767 122.143 149.286 123.662 149.286 125.536Z" fill="#4A3AFF" fill-opacity="0.08"/>
<path d="M169.643 125.536C169.643 127.41 168.124 128.929 166.25 128.929C164.376 128.929 162.857 127.41 162.857 125.536C162.857 123.662 164.376 122.143 166.25 122.143C168.124 122.143 169.643 123.662 169.643 125.536Z" fill="#4A3AFF" fill-opacity="0.08"/>
<path d="M190 125.536C190 127.41 188.481 128.929 186.607 128.929C184.733 128.929 183.214 127.41 183.214 125.536C183.214 123.662 184.733 122.143 186.607 122.143C188.481 122.143 190 123.662 190 125.536Z" fill="#4A3AFF" fill-opacity="0.08"/>
<path d="M27.1429 145.893C27.1429 147.767 25.6238 149.286 23.75 149.286C21.8762 149.286 20.3571 147.767 20.3571 145.893C20.3571 144.019 21.8762 142.5 23.75 142.5C25.6238 142.5 27.1429 144.019 27.1429 145.893Z" fill="#4A3AFF" fill-opacity="0.08"/>
<path d="M47.5 145.893C47.5 147.767 45.981 149.286 44.1071 149.286C42.2333 149.286 40.7143 147.767 40.7143 145.893C40.7143 144.019 42.2333 142.5 44.1071 142.5C45.981 142.5 47.5 144.019 47.5 145.893Z" fill="#4A3AFF" fill-opacity="0.08"/>
<path d="M67.8571 145.893C67.8571 147.767 66.3381 149.286 64.4643 149.286C62.5905 149.286 61.0714 147.767 61.0714 145.893C61.0714 144.019 62.5905 142.5 64.4643 142.5C66.3381 142.5 67.8571 144.019 67.8571 145.893Z" fill="#4A3AFF" fill-opacity="0.08"/>
<path d="M88.2143 145.893C88.2143 147.767 86.6952 149.286 84.8214 149.286C82.9476 149.286 81.4286 147.767 81.4286 145.893C81.4286 144.019 82.9476 142.5 84.8214 142.5C86.6952 142.5 88.2143 144.019 88.2143 145.893Z" fill="#4A3AFF" fill-opacity="0.08"/>
<path d="M108.571 145.893C108.571 147.767 107.052 149.286 105.179 149.286C103.305 149.286 101.786 147.767 101.786 145.893C101.786 144.019 103.305 142.5 105.179 142.5C107.052 142.5 108.571 144.019 108.571 145.893Z" fill="#4A3AFF" fill-opacity="0.08"/>
<path d="M128.929 145.893C128.929 147.767 127.41 149.286 125.536 149.286C123.662 149.286 122.143 147.767 122.143 145.893C122.143 144.019 123.662 142.5 125.536 142.5C127.41 142.5 128.929 144.019 128.929 145.893Z" fill="#4A3AFF" fill-opacity="0.08"/>
<path d="M149.286 145.893C149.286 147.767 147.767 149.286 145.893 149.286C144.019 149.286 142.5 147.767 142.5 145.893C142.5 144.019 144.019 142.5 145.893 142.5C147.767 142.5 149.286 144.019 149.286 145.893Z" fill="#4A3AFF" fill-opacity="0.08"/>
<path d="M169.643 145.893C169.643 147.767 168.124 149.286 166.25 149.286C164.376 149.286 162.857 147.767 162.857 145.893C162.857 144.019 164.376 142.5 166.25 142.5C168.124 142.5 169.643 144.019 169.643 145.893Z" fill="#4A3AFF" fill-opacity="0.08"/>
<path d="M47.5 166.25C47.5 168.124 45.981 169.643 44.1071 169.643C42.2333 169.643 40.7143 168.124 40.7143 166.25C40.7143 164.376 42.2333 162.857 44.1071 162.857C45.981 162.857 47.5 164.376 47.5 166.25Z" fill="#4A3AFF" fill-opacity="0.08"/>
<path d="M67.8571 166.25C67.8571 168.124 66.3381 169.643 64.4643 169.643C62.5905 169.643 61.0714 168.124 61.0714 166.25C61.0714 164.376 62.5905 162.857 64.4643 162.857C66.3381 162.857 67.8571 164.376 67.8571 166.25Z" fill="#4A3AFF" fill-opacity="0.08"/>
<path d="M88.2143 166.25C88.2143 168.124 86.6952 169.643 84.8214 169.643C82.9476 169.643 81.4286 168.124 81.4286 166.25C81.4286 164.376 82.9476 162.857 84.8214 162.857C86.6952 162.857 88.2143 164.376 88.2143 166.25Z" fill="#4A3AFF" fill-opacity="0.08"/>
<path d="M108.571 166.25C108.571 168.124 107.052 169.643 105.179 169.643C103.305 169.643 101.786 168.124 101.786 166.25C101.786 164.376 103.305 162.857 105.179 162.857C107.052 162.857 108.571 164.376 108.571 166.25Z" fill="#4A3AFF" fill-opacity="0.08"/>
<path d="M128.929 166.25C128.929 168.124 127.41 169.643 125.536 169.643C123.662 169.643 122.143 168.124 122.143 166.25C122.143 164.376 123.662 162.857 125.536 162.857C127.41 162.857 128.929 164.376 128.929 166.25Z" fill="#4A3AFF" fill-opacity="0.08"/>
<path d="M149.286 166.25C149.286 168.124 147.767 169.643 145.893 169.643C144.019 169.643 142.5 168.124 142.5 166.25C142.5 164.376 144.019 162.857 145.893 162.857C147.767 162.857 149.286 164.376 149.286 166.25Z" fill="#4A3AFF" fill-opacity="0.08"/>
<path d="M67.8571 186.607C67.8571 188.481 66.3381 190 64.4643 190C62.5905 190 61.0714 188.481 61.0714 186.607C61.0714 184.733 62.5905 183.214 64.4643 183.214C66.3381 183.214 67.8571 184.733 67.8571 186.607Z" fill="#4A3AFF" fill-opacity="0.08"/>
<path d="M88.2143 186.607C88.2143 188.481 86.6952 190 84.8214 190C82.9476 190 81.4286 188.481 81.4286 186.607C81.4286 184.733 82.9476 183.214 84.8214 183.214C86.6952 183.214 88.2143 184.733 88.2143 186.607Z" fill="#4A3AFF" fill-opacity="0.08"/>
<path d="M108.571 186.607C108.571 188.481 107.052 190 105.179 190C103.305 190 101.786 188.481 101.786 186.607C101.786 184.733 103.305 183.214 105.179 183.214C107.052 183.214 108.571 184.733 108.571 186.607Z" fill="#4A3AFF" fill-opacity="0.08"/>
<path d="M128.929 186.607C128.929 188.481 127.41 190 125.536 190C123.662 190 122.143 188.481 122.143 186.607C122.143 184.733 123.662 183.214 125.536 183.214C127.41 183.214 128.929 184.733 128.929 186.607Z" fill="#4A3AFF" fill-opacity="0.08"/>
</svg>
