<svg width="159" height="174" viewBox="0 0 159 174" fill="none" xmlns="http://www.w3.org/2000/svg">
<path d="M5.10889 2.55882C5.10889 3.97202 3.96523 5.11765 2.55445 5.11765C1.14366 5.11765 0 3.97202 0 2.55882C0 1.14562 1.14366 0 2.55445 0C3.96523 0 5.10889 1.14562 5.10889 2.55882Z" fill="#4A3AFF" fill-opacity="0.14"/>
<path d="M20.4356 2.55882C20.4356 3.97202 19.2919 5.11765 17.8811 5.11765C16.4703 5.11765 15.3267 3.97202 15.3267 2.55882C15.3267 1.14562 16.4703 0 17.8811 0C19.2919 0 20.4356 1.14562 20.4356 2.55882Z" fill="#4A3AFF" fill-opacity="0.14"/>
<path d="M35.7622 2.55882C35.7622 3.97202 34.6186 5.11765 33.2078 5.11765C31.797 5.11765 30.6534 3.97202 30.6534 2.55882C30.6534 1.14562 31.797 0 33.2078 0C34.6186 0 35.7622 1.14562 35.7622 2.55882Z" fill="#4A3AFF" fill-opacity="0.14"/>
<path d="M51.0889 2.55882C51.0889 3.97202 49.9453 5.11765 48.5345 5.11765C47.1237 5.11765 45.98 3.97202 45.98 2.55882C45.98 1.14562 47.1237 0 48.5345 0C49.9453 0 51.0889 1.14562 51.0889 2.55882Z" fill="#4A3AFF" fill-opacity="0.14"/>
<path d="M66.4156 2.55882C66.4156 3.97202 65.2719 5.11765 63.8612 5.11765C62.4504 5.11765 61.3067 3.97202 61.3067 2.55882C61.3067 1.14562 62.4504 0 63.8612 0C65.2719 0 66.4156 1.14562 66.4156 2.55882Z" fill="#4A3AFF" fill-opacity="0.14"/>
<path d="M81.7423 2.55882C81.7423 3.97202 80.5986 5.11765 79.1878 5.11765C77.777 5.11765 76.6334 3.97202 76.6334 2.55882C76.6334 1.14562 77.777 0 79.1878 0C80.5986 0 81.7423 1.14562 81.7423 2.55882Z" fill="#4A3AFF" fill-opacity="0.14"/>
<path d="M97.069 2.55882C97.069 3.97202 95.9253 5.11765 94.5145 5.11765C93.1037 5.11765 91.9601 3.97202 91.9601 2.55882C91.9601 1.14562 93.1037 0 94.5145 0C95.9253 0 97.069 1.14562 97.069 2.55882Z" fill="#4A3AFF" fill-opacity="0.14"/>
<path d="M112.396 2.55882C112.396 3.97202 111.252 5.11765 109.841 5.11765C108.43 5.11765 107.287 3.97202 107.287 2.55882C107.287 1.14562 108.43 0 109.841 0C111.252 0 112.396 1.14562 112.396 2.55882Z" fill="#4A3AFF" fill-opacity="0.14"/>
<path d="M127.722 2.55882C127.722 3.97202 126.579 5.11765 125.168 5.11765C123.757 5.11765 122.613 3.97202 122.613 2.55882C122.613 1.14562 123.757 0 125.168 0C126.579 0 127.722 1.14562 127.722 2.55882Z" fill="#4A3AFF" fill-opacity="0.14"/>
<path d="M143.049 2.55882C143.049 3.97202 141.905 5.11765 140.495 5.11765C139.084 5.11765 137.94 3.97202 137.94 2.55882C137.94 1.14562 139.084 0 140.495 0C141.905 0 143.049 1.14562 143.049 2.55882Z" fill="#4A3AFF" fill-opacity="0.14"/>
<path d="M158.376 2.55882C158.376 3.97202 157.232 5.11765 155.821 5.11765C154.41 5.11765 153.267 3.97202 153.267 2.55882C153.267 1.14562 154.41 0 155.821 0C157.232 0 158.376 1.14562 158.376 2.55882Z" fill="#4A3AFF" fill-opacity="0.14"/>
<path d="M5.10889 17.9118C5.10889 19.325 3.96523 20.4706 2.55445 20.4706C1.14366 20.4706 0 19.325 0 17.9118C0 16.4986 1.14366 15.3529 2.55445 15.3529C3.96523 15.3529 5.10889 16.4986 5.10889 17.9118Z" fill="#4A3AFF" fill-opacity="0.14"/>
<path d="M20.4356 17.9118C20.4356 19.325 19.2919 20.4706 17.8811 20.4706C16.4703 20.4706 15.3267 19.325 15.3267 17.9118C15.3267 16.4986 16.4703 15.3529 17.8811 15.3529C19.2919 15.3529 20.4356 16.4986 20.4356 17.9118Z" fill="#4A3AFF" fill-opacity="0.14"/>
<path d="M35.7622 17.9118C35.7622 19.325 34.6186 20.4706 33.2078 20.4706C31.797 20.4706 30.6534 19.325 30.6534 17.9118C30.6534 16.4986 31.797 15.3529 33.2078 15.3529C34.6186 15.3529 35.7622 16.4986 35.7622 17.9118Z" fill="#4A3AFF" fill-opacity="0.14"/>
<path d="M51.0889 17.9118C51.0889 19.325 49.9453 20.4706 48.5345 20.4706C47.1237 20.4706 45.98 19.325 45.98 17.9118C45.98 16.4986 47.1237 15.3529 48.5345 15.3529C49.9453 15.3529 51.0889 16.4986 51.0889 17.9118Z" fill="#4A3AFF" fill-opacity="0.14"/>
<path d="M66.4156 17.9118C66.4156 19.325 65.2719 20.4706 63.8612 20.4706C62.4504 20.4706 61.3067 19.325 61.3067 17.9118C61.3067 16.4986 62.4504 15.3529 63.8612 15.3529C65.2719 15.3529 66.4156 16.4986 66.4156 17.9118Z" fill="#4A3AFF" fill-opacity="0.14"/>
<path d="M81.7423 17.9118C81.7423 19.325 80.5986 20.4706 79.1878 20.4706C77.777 20.4706 76.6334 19.325 76.6334 17.9118C76.6334 16.4986 77.777 15.3529 79.1878 15.3529C80.5986 15.3529 81.7423 16.4986 81.7423 17.9118Z" fill="#4A3AFF" fill-opacity="0.14"/>
<path d="M97.069 17.9118C97.069 19.325 95.9253 20.4706 94.5145 20.4706C93.1037 20.4706 91.9601 19.325 91.9601 17.9118C91.9601 16.4986 93.1037 15.3529 94.5145 15.3529C95.9253 15.3529 97.069 16.4986 97.069 17.9118Z" fill="#4A3AFF" fill-opacity="0.14"/>
<path d="M112.396 17.9118C112.396 19.325 111.252 20.4706 109.841 20.4706C108.43 20.4706 107.287 19.325 107.287 17.9118C107.287 16.4986 108.43 15.3529 109.841 15.3529C111.252 15.3529 112.396 16.4986 112.396 17.9118Z" fill="#4A3AFF" fill-opacity="0.14"/>
<path d="M127.722 17.9118C127.722 19.325 126.579 20.4706 125.168 20.4706C123.757 20.4706 122.613 19.325 122.613 17.9118C122.613 16.4986 123.757 15.3529 125.168 15.3529C126.579 15.3529 127.722 16.4986 127.722 17.9118Z" fill="#4A3AFF" fill-opacity="0.14"/>
<path d="M143.049 17.9118C143.049 19.325 141.905 20.4706 140.495 20.4706C139.084 20.4706 137.94 19.325 137.94 17.9118C137.94 16.4986 139.084 15.3529 140.495 15.3529C141.905 15.3529 143.049 16.4986 143.049 17.9118Z" fill="#4A3AFF" fill-opacity="0.14"/>
<path d="M158.376 17.9118C158.376 19.325 157.232 20.4706 155.821 20.4706C154.41 20.4706 153.267 19.325 153.267 17.9118C153.267 16.4986 154.41 15.3529 155.821 15.3529C157.232 15.3529 158.376 16.4986 158.376 17.9118Z" fill="#4A3AFF" fill-opacity="0.14"/>
<path d="M5.10889 33.2647C5.10889 34.6779 3.96523 35.8235 2.55445 35.8235C1.14366 35.8235 0 34.6779 0 33.2647C0 31.8515 1.14366 30.7059 2.55445 30.7059C3.96523 30.7059 5.10889 31.8515 5.10889 33.2647Z" fill="#4A3AFF" fill-opacity="0.14"/>
<path d="M20.4356 33.2647C20.4356 34.6779 19.2919 35.8235 17.8811 35.8235C16.4703 35.8235 15.3267 34.6779 15.3267 33.2647C15.3267 31.8515 16.4703 30.7059 17.8811 30.7059C19.2919 30.7059 20.4356 31.8515 20.4356 33.2647Z" fill="#4A3AFF" fill-opacity="0.14"/>
<path d="M35.7622 33.2647C35.7622 34.6779 34.6186 35.8235 33.2078 35.8235C31.797 35.8235 30.6534 34.6779 30.6534 33.2647C30.6534 31.8515 31.797 30.7059 33.2078 30.7059C34.6186 30.7059 35.7622 31.8515 35.7622 33.2647Z" fill="#4A3AFF" fill-opacity="0.14"/>
<path d="M51.0889 33.2647C51.0889 34.6779 49.9453 35.8235 48.5345 35.8235C47.1237 35.8235 45.98 34.6779 45.98 33.2647C45.98 31.8515 47.1237 30.7059 48.5345 30.7059C49.9453 30.7059 51.0889 31.8515 51.0889 33.2647Z" fill="#4A3AFF" fill-opacity="0.14"/>
<path d="M66.4156 33.2647C66.4156 34.6779 65.2719 35.8235 63.8612 35.8235C62.4504 35.8235 61.3067 34.6779 61.3067 33.2647C61.3067 31.8515 62.4504 30.7059 63.8612 30.7059C65.2719 30.7059 66.4156 31.8515 66.4156 33.2647Z" fill="#4A3AFF" fill-opacity="0.14"/>
<path d="M81.7423 33.2647C81.7423 34.6779 80.5986 35.8235 79.1878 35.8235C77.777 35.8235 76.6334 34.6779 76.6334 33.2647C76.6334 31.8515 77.777 30.7059 79.1878 30.7059C80.5986 30.7059 81.7423 31.8515 81.7423 33.2647Z" fill="#4A3AFF" fill-opacity="0.14"/>
<path d="M97.069 33.2647C97.069 34.6779 95.9253 35.8235 94.5145 35.8235C93.1037 35.8235 91.9601 34.6779 91.9601 33.2647C91.9601 31.8515 93.1037 30.7059 94.5145 30.7059C95.9253 30.7059 97.069 31.8515 97.069 33.2647Z" fill="#4A3AFF" fill-opacity="0.14"/>
<path d="M112.396 33.2647C112.396 34.6779 111.252 35.8235 109.841 35.8235C108.43 35.8235 107.287 34.6779 107.287 33.2647C107.287 31.8515 108.43 30.7059 109.841 30.7059C111.252 30.7059 112.396 31.8515 112.396 33.2647Z" fill="#4A3AFF" fill-opacity="0.14"/>
<path d="M127.722 33.2647C127.722 34.6779 126.579 35.8235 125.168 35.8235C123.757 35.8235 122.613 34.6779 122.613 33.2647C122.613 31.8515 123.757 30.7059 125.168 30.7059C126.579 30.7059 127.722 31.8515 127.722 33.2647Z" fill="#4A3AFF" fill-opacity="0.14"/>
<path d="M143.049 33.2647C143.049 34.6779 141.905 35.8235 140.495 35.8235C139.084 35.8235 137.94 34.6779 137.94 33.2647C137.94 31.8515 139.084 30.7059 140.495 30.7059C141.905 30.7059 143.049 31.8515 143.049 33.2647Z" fill="#4A3AFF" fill-opacity="0.14"/>
<path d="M158.376 33.2647C158.376 34.6779 157.232 35.8235 155.821 35.8235C154.41 35.8235 153.267 34.6779 153.267 33.2647C153.267 31.8515 154.41 30.7059 155.821 30.7059C157.232 30.7059 158.376 31.8515 158.376 33.2647Z" fill="#4A3AFF" fill-opacity="0.14"/>
<path d="M5.10889 48.6176C5.10889 50.0308 3.96523 51.1765 2.55445 51.1765C1.14366 51.1765 0 50.0308 0 48.6176C0 47.2044 1.14366 46.0588 2.55445 46.0588C3.96523 46.0588 5.10889 47.2044 5.10889 48.6176Z" fill="#4A3AFF" fill-opacity="0.14"/>
<path d="M20.4356 48.6176C20.4356 50.0308 19.2919 51.1765 17.8811 51.1765C16.4703 51.1765 15.3267 50.0308 15.3267 48.6176C15.3267 47.2044 16.4703 46.0588 17.8811 46.0588C19.2919 46.0588 20.4356 47.2044 20.4356 48.6176Z" fill="#4A3AFF" fill-opacity="0.14"/>
<path d="M35.7622 48.6176C35.7622 50.0308 34.6186 51.1765 33.2078 51.1765C31.797 51.1765 30.6534 50.0308 30.6534 48.6176C30.6534 47.2044 31.797 46.0588 33.2078 46.0588C34.6186 46.0588 35.7622 47.2044 35.7622 48.6176Z" fill="#4A3AFF" fill-opacity="0.14"/>
<path d="M51.0889 48.6176C51.0889 50.0308 49.9453 51.1765 48.5345 51.1765C47.1237 51.1765 45.98 50.0308 45.98 48.6176C45.98 47.2044 47.1237 46.0588 48.5345 46.0588C49.9453 46.0588 51.0889 47.2044 51.0889 48.6176Z" fill="#4A3AFF" fill-opacity="0.14"/>
<path d="M66.4156 48.6176C66.4156 50.0308 65.2719 51.1765 63.8612 51.1765C62.4504 51.1765 61.3067 50.0308 61.3067 48.6176C61.3067 47.2044 62.4504 46.0588 63.8612 46.0588C65.2719 46.0588 66.4156 47.2044 66.4156 48.6176Z" fill="#4A3AFF" fill-opacity="0.14"/>
<path d="M81.7423 48.6176C81.7423 50.0308 80.5986 51.1765 79.1878 51.1765C77.777 51.1765 76.6334 50.0308 76.6334 48.6176C76.6334 47.2044 77.777 46.0588 79.1878 46.0588C80.5986 46.0588 81.7423 47.2044 81.7423 48.6176Z" fill="#4A3AFF" fill-opacity="0.14"/>
<path d="M97.069 48.6176C97.069 50.0308 95.9253 51.1765 94.5145 51.1765C93.1037 51.1765 91.9601 50.0308 91.9601 48.6176C91.9601 47.2044 93.1037 46.0588 94.5145 46.0588C95.9253 46.0588 97.069 47.2044 97.069 48.6176Z" fill="#4A3AFF" fill-opacity="0.14"/>
<path d="M112.396 48.6176C112.396 50.0308 111.252 51.1765 109.841 51.1765C108.43 51.1765 107.287 50.0308 107.287 48.6176C107.287 47.2044 108.43 46.0588 109.841 46.0588C111.252 46.0588 112.396 47.2044 112.396 48.6176Z" fill="#4A3AFF" fill-opacity="0.14"/>
<path d="M127.722 48.6176C127.722 50.0308 126.579 51.1765 125.168 51.1765C123.757 51.1765 122.613 50.0308 122.613 48.6176C122.613 47.2044 123.757 46.0588 125.168 46.0588C126.579 46.0588 127.722 47.2044 127.722 48.6176Z" fill="#4A3AFF" fill-opacity="0.14"/>
<path d="M143.049 48.6176C143.049 50.0308 141.905 51.1765 140.495 51.1765C139.084 51.1765 137.94 50.0308 137.94 48.6176C137.94 47.2044 139.084 46.0588 140.495 46.0588C141.905 46.0588 143.049 47.2044 143.049 48.6176Z" fill="#4A3AFF" fill-opacity="0.14"/>
<path d="M158.376 48.6176C158.376 50.0308 157.232 51.1765 155.821 51.1765C154.41 51.1765 153.267 50.0308 153.267 48.6176C153.267 47.2044 154.41 46.0588 155.821 46.0588C157.232 46.0588 158.376 47.2044 158.376 48.6176Z" fill="#4A3AFF" fill-opacity="0.14"/>
<path d="M5.10889 63.9706C5.10889 65.3838 3.96523 66.5294 2.55445 66.5294C1.14366 66.5294 0 65.3838 0 63.9706C0 62.5574 1.14366 61.4118 2.55445 61.4118C3.96523 61.4118 5.10889 62.5574 5.10889 63.9706Z" fill="#4A3AFF" fill-opacity="0.14"/>
<path d="M20.4356 63.9706C20.4356 65.3838 19.2919 66.5294 17.8811 66.5294C16.4703 66.5294 15.3267 65.3838 15.3267 63.9706C15.3267 62.5574 16.4703 61.4118 17.8811 61.4118C19.2919 61.4118 20.4356 62.5574 20.4356 63.9706Z" fill="#4A3AFF" fill-opacity="0.14"/>
<path d="M35.7622 63.9706C35.7622 65.3838 34.6186 66.5294 33.2078 66.5294C31.797 66.5294 30.6534 65.3838 30.6534 63.9706C30.6534 62.5574 31.797 61.4118 33.2078 61.4118C34.6186 61.4118 35.7622 62.5574 35.7622 63.9706Z" fill="#4A3AFF" fill-opacity="0.14"/>
<path d="M51.0889 63.9706C51.0889 65.3838 49.9453 66.5294 48.5345 66.5294C47.1237 66.5294 45.98 65.3838 45.98 63.9706C45.98 62.5574 47.1237 61.4118 48.5345 61.4118C49.9453 61.4118 51.0889 62.5574 51.0889 63.9706Z" fill="#4A3AFF" fill-opacity="0.14"/>
<path d="M66.4156 63.9706C66.4156 65.3838 65.2719 66.5294 63.8612 66.5294C62.4504 66.5294 61.3067 65.3838 61.3067 63.9706C61.3067 62.5574 62.4504 61.4118 63.8612 61.4118C65.2719 61.4118 66.4156 62.5574 66.4156 63.9706Z" fill="#4A3AFF" fill-opacity="0.14"/>
<path d="M81.7423 63.9706C81.7423 65.3838 80.5986 66.5294 79.1878 66.5294C77.777 66.5294 76.6334 65.3838 76.6334 63.9706C76.6334 62.5574 77.777 61.4118 79.1878 61.4118C80.5986 61.4118 81.7423 62.5574 81.7423 63.9706Z" fill="#4A3AFF" fill-opacity="0.14"/>
<path d="M97.069 63.9706C97.069 65.3838 95.9253 66.5294 94.5145 66.5294C93.1037 66.5294 91.9601 65.3838 91.9601 63.9706C91.9601 62.5574 93.1037 61.4118 94.5145 61.4118C95.9253 61.4118 97.069 62.5574 97.069 63.9706Z" fill="#4A3AFF" fill-opacity="0.14"/>
<path d="M112.396 63.9706C112.396 65.3838 111.252 66.5294 109.841 66.5294C108.43 66.5294 107.287 65.3838 107.287 63.9706C107.287 62.5574 108.43 61.4118 109.841 61.4118C111.252 61.4118 112.396 62.5574 112.396 63.9706Z" fill="#4A3AFF" fill-opacity="0.14"/>
<path d="M127.722 63.9706C127.722 65.3838 126.579 66.5294 125.168 66.5294C123.757 66.5294 122.613 65.3838 122.613 63.9706C122.613 62.5574 123.757 61.4118 125.168 61.4118C126.579 61.4118 127.722 62.5574 127.722 63.9706Z" fill="#4A3AFF" fill-opacity="0.14"/>
<path d="M143.049 63.9706C143.049 65.3838 141.905 66.5294 140.495 66.5294C139.084 66.5294 137.94 65.3838 137.94 63.9706C137.94 62.5574 139.084 61.4118 140.495 61.4118C141.905 61.4118 143.049 62.5574 143.049 63.9706Z" fill="#4A3AFF" fill-opacity="0.14"/>
<path d="M158.376 63.9706C158.376 65.3838 157.232 66.5294 155.821 66.5294C154.41 66.5294 153.267 65.3838 153.267 63.9706C153.267 62.5574 154.41 61.4118 155.821 61.4118C157.232 61.4118 158.376 62.5574 158.376 63.9706Z" fill="#4A3AFF" fill-opacity="0.14"/>
<path d="M5.10889 79.3235C5.10889 80.7367 3.96523 81.8824 2.55445 81.8824C1.14366 81.8824 0 80.7367 0 79.3235C0 77.9103 1.14366 76.7647 2.55445 76.7647C3.96523 76.7647 5.10889 77.9103 5.10889 79.3235Z" fill="#4A3AFF" fill-opacity="0.14"/>
<path d="M20.4356 79.3235C20.4356 80.7367 19.2919 81.8824 17.8811 81.8824C16.4703 81.8824 15.3267 80.7367 15.3267 79.3235C15.3267 77.9103 16.4703 76.7647 17.8811 76.7647C19.2919 76.7647 20.4356 77.9103 20.4356 79.3235Z" fill="#4A3AFF" fill-opacity="0.14"/>
<path d="M35.7622 79.3235C35.7622 80.7367 34.6186 81.8824 33.2078 81.8824C31.797 81.8824 30.6534 80.7367 30.6534 79.3235C30.6534 77.9103 31.797 76.7647 33.2078 76.7647C34.6186 76.7647 35.7622 77.9103 35.7622 79.3235Z" fill="#4A3AFF" fill-opacity="0.14"/>
<path d="M51.0889 79.3235C51.0889 80.7367 49.9453 81.8824 48.5345 81.8824C47.1237 81.8824 45.98 80.7367 45.98 79.3235C45.98 77.9103 47.1237 76.7647 48.5345 76.7647C49.9453 76.7647 51.0889 77.9103 51.0889 79.3235Z" fill="#4A3AFF" fill-opacity="0.14"/>
<path d="M66.4156 79.3235C66.4156 80.7367 65.2719 81.8824 63.8612 81.8824C62.4504 81.8824 61.3067 80.7367 61.3067 79.3235C61.3067 77.9103 62.4504 76.7647 63.8612 76.7647C65.2719 76.7647 66.4156 77.9103 66.4156 79.3235Z" fill="#4A3AFF" fill-opacity="0.14"/>
<path d="M81.7423 79.3235C81.7423 80.7367 80.5986 81.8824 79.1878 81.8824C77.777 81.8824 76.6334 80.7367 76.6334 79.3235C76.6334 77.9103 77.777 76.7647 79.1878 76.7647C80.5986 76.7647 81.7423 77.9103 81.7423 79.3235Z" fill="#4A3AFF" fill-opacity="0.14"/>
<path d="M97.069 79.3235C97.069 80.7367 95.9253 81.8824 94.5145 81.8824C93.1037 81.8824 91.9601 80.7367 91.9601 79.3235C91.9601 77.9103 93.1037 76.7647 94.5145 76.7647C95.9253 76.7647 97.069 77.9103 97.069 79.3235Z" fill="#4A3AFF" fill-opacity="0.14"/>
<path d="M112.396 79.3235C112.396 80.7367 111.252 81.8824 109.841 81.8824C108.43 81.8824 107.287 80.7367 107.287 79.3235C107.287 77.9103 108.43 76.7647 109.841 76.7647C111.252 76.7647 112.396 77.9103 112.396 79.3235Z" fill="#4A3AFF" fill-opacity="0.14"/>
<path d="M127.722 79.3235C127.722 80.7367 126.579 81.8824 125.168 81.8824C123.757 81.8824 122.613 80.7367 122.613 79.3235C122.613 77.9103 123.757 76.7647 125.168 76.7647C126.579 76.7647 127.722 77.9103 127.722 79.3235Z" fill="#4A3AFF" fill-opacity="0.14"/>
<path d="M143.049 79.3235C143.049 80.7367 141.905 81.8824 140.495 81.8824C139.084 81.8824 137.94 80.7367 137.94 79.3235C137.94 77.9103 139.084 76.7647 140.495 76.7647C141.905 76.7647 143.049 77.9103 143.049 79.3235Z" fill="#4A3AFF" fill-opacity="0.14"/>
<path d="M158.376 79.3235C158.376 80.7367 157.232 81.8824 155.821 81.8824C154.41 81.8824 153.267 80.7367 153.267 79.3235C153.267 77.9103 154.41 76.7647 155.821 76.7647C157.232 76.7647 158.376 77.9103 158.376 79.3235Z" fill="#4A3AFF" fill-opacity="0.14"/>
<path d="M5.10889 94.6765C5.10889 96.0897 3.96523 97.2353 2.55445 97.2353C1.14366 97.2353 0 96.0897 0 94.6765C0 93.2633 1.14366 92.1176 2.55445 92.1176C3.96523 92.1176 5.10889 93.2633 5.10889 94.6765Z" fill="#4A3AFF" fill-opacity="0.14"/>
<path d="M20.4356 94.6765C20.4356 96.0897 19.2919 97.2353 17.8811 97.2353C16.4703 97.2353 15.3267 96.0897 15.3267 94.6765C15.3267 93.2633 16.4703 92.1176 17.8811 92.1176C19.2919 92.1176 20.4356 93.2633 20.4356 94.6765Z" fill="#4A3AFF" fill-opacity="0.14"/>
<path d="M35.7622 94.6765C35.7622 96.0897 34.6186 97.2353 33.2078 97.2353C31.797 97.2353 30.6534 96.0897 30.6534 94.6765C30.6534 93.2633 31.797 92.1176 33.2078 92.1176C34.6186 92.1176 35.7622 93.2633 35.7622 94.6765Z" fill="#4A3AFF" fill-opacity="0.14"/>
<path d="M51.0889 94.6765C51.0889 96.0897 49.9453 97.2353 48.5345 97.2353C47.1237 97.2353 45.98 96.0897 45.98 94.6765C45.98 93.2633 47.1237 92.1176 48.5345 92.1176C49.9453 92.1176 51.0889 93.2633 51.0889 94.6765Z" fill="#4A3AFF" fill-opacity="0.14"/>
<path d="M66.4156 94.6765C66.4156 96.0897 65.2719 97.2353 63.8612 97.2353C62.4504 97.2353 61.3067 96.0897 61.3067 94.6765C61.3067 93.2633 62.4504 92.1176 63.8612 92.1176C65.2719 92.1176 66.4156 93.2633 66.4156 94.6765Z" fill="#4A3AFF" fill-opacity="0.14"/>
<path d="M81.7423 94.6765C81.7423 96.0897 80.5986 97.2353 79.1878 97.2353C77.777 97.2353 76.6334 96.0897 76.6334 94.6765C76.6334 93.2633 77.777 92.1176 79.1878 92.1176C80.5986 92.1176 81.7423 93.2633 81.7423 94.6765Z" fill="#4A3AFF" fill-opacity="0.14"/>
<path d="M97.069 94.6765C97.069 96.0897 95.9253 97.2353 94.5145 97.2353C93.1037 97.2353 91.9601 96.0897 91.9601 94.6765C91.9601 93.2633 93.1037 92.1176 94.5145 92.1176C95.9253 92.1176 97.069 93.2633 97.069 94.6765Z" fill="#4A3AFF" fill-opacity="0.14"/>
<path d="M112.396 94.6765C112.396 96.0897 111.252 97.2353 109.841 97.2353C108.43 97.2353 107.287 96.0897 107.287 94.6765C107.287 93.2633 108.43 92.1176 109.841 92.1176C111.252 92.1176 112.396 93.2633 112.396 94.6765Z" fill="#4A3AFF" fill-opacity="0.14"/>
<path d="M127.722 94.6765C127.722 96.0897 126.579 97.2353 125.168 97.2353C123.757 97.2353 122.613 96.0897 122.613 94.6765C122.613 93.2633 123.757 92.1176 125.168 92.1176C126.579 92.1176 127.722 93.2633 127.722 94.6765Z" fill="#4A3AFF" fill-opacity="0.14"/>
<path d="M143.049 94.6765C143.049 96.0897 141.905 97.2353 140.495 97.2353C139.084 97.2353 137.94 96.0897 137.94 94.6765C137.94 93.2633 139.084 92.1176 140.495 92.1176C141.905 92.1176 143.049 93.2633 143.049 94.6765Z" fill="#4A3AFF" fill-opacity="0.14"/>
<path d="M158.376 94.6765C158.376 96.0897 157.232 97.2353 155.821 97.2353C154.41 97.2353 153.267 96.0897 153.267 94.6765C153.267 93.2633 154.41 92.1176 155.821 92.1176C157.232 92.1176 158.376 93.2633 158.376 94.6765Z" fill="#4A3AFF" fill-opacity="0.14"/>
<path d="M5.10889 110.029C5.10889 111.443 3.96523 112.588 2.55445 112.588C1.14366 112.588 0 111.443 0 110.029C0 108.616 1.14366 107.471 2.55445 107.471C3.96523 107.471 5.10889 108.616 5.10889 110.029Z" fill="#4A3AFF" fill-opacity="0.14"/>
<path d="M20.4356 110.029C20.4356 111.443 19.2919 112.588 17.8811 112.588C16.4703 112.588 15.3267 111.443 15.3267 110.029C15.3267 108.616 16.4703 107.471 17.8811 107.471C19.2919 107.471 20.4356 108.616 20.4356 110.029Z" fill="#4A3AFF" fill-opacity="0.14"/>
<path d="M35.7622 110.029C35.7622 111.443 34.6186 112.588 33.2078 112.588C31.797 112.588 30.6534 111.443 30.6534 110.029C30.6534 108.616 31.797 107.471 33.2078 107.471C34.6186 107.471 35.7622 108.616 35.7622 110.029Z" fill="#4A3AFF" fill-opacity="0.14"/>
<path d="M51.0889 110.029C51.0889 111.443 49.9453 112.588 48.5345 112.588C47.1237 112.588 45.98 111.443 45.98 110.029C45.98 108.616 47.1237 107.471 48.5345 107.471C49.9453 107.471 51.0889 108.616 51.0889 110.029Z" fill="#4A3AFF" fill-opacity="0.14"/>
<path d="M66.4156 110.029C66.4156 111.443 65.2719 112.588 63.8612 112.588C62.4504 112.588 61.3067 111.443 61.3067 110.029C61.3067 108.616 62.4504 107.471 63.8612 107.471C65.2719 107.471 66.4156 108.616 66.4156 110.029Z" fill="#4A3AFF" fill-opacity="0.14"/>
<path d="M81.7423 110.029C81.7423 111.443 80.5986 112.588 79.1878 112.588C77.777 112.588 76.6334 111.443 76.6334 110.029C76.6334 108.616 77.777 107.471 79.1878 107.471C80.5986 107.471 81.7423 108.616 81.7423 110.029Z" fill="#4A3AFF" fill-opacity="0.14"/>
<path d="M97.069 110.029C97.069 111.443 95.9253 112.588 94.5145 112.588C93.1037 112.588 91.9601 111.443 91.9601 110.029C91.9601 108.616 93.1037 107.471 94.5145 107.471C95.9253 107.471 97.069 108.616 97.069 110.029Z" fill="#4A3AFF" fill-opacity="0.14"/>
<path d="M112.396 110.029C112.396 111.443 111.252 112.588 109.841 112.588C108.43 112.588 107.287 111.443 107.287 110.029C107.287 108.616 108.43 107.471 109.841 107.471C111.252 107.471 112.396 108.616 112.396 110.029Z" fill="#4A3AFF" fill-opacity="0.14"/>
<path d="M127.722 110.029C127.722 111.443 126.579 112.588 125.168 112.588C123.757 112.588 122.613 111.443 122.613 110.029C122.613 108.616 123.757 107.471 125.168 107.471C126.579 107.471 127.722 108.616 127.722 110.029Z" fill="#4A3AFF" fill-opacity="0.14"/>
<path d="M143.049 110.029C143.049 111.443 141.905 112.588 140.495 112.588C139.084 112.588 137.94 111.443 137.94 110.029C137.94 108.616 139.084 107.471 140.495 107.471C141.905 107.471 143.049 108.616 143.049 110.029Z" fill="#4A3AFF" fill-opacity="0.14"/>
<path d="M158.376 110.029C158.376 111.443 157.232 112.588 155.821 112.588C154.41 112.588 153.267 111.443 153.267 110.029C153.267 108.616 154.41 107.471 155.821 107.471C157.232 107.471 158.376 108.616 158.376 110.029Z" fill="#4A3AFF" fill-opacity="0.14"/>
<path d="M5.10889 125.382C5.10889 126.796 3.96523 127.941 2.55445 127.941C1.14366 127.941 0 126.796 0 125.382C0 123.969 1.14366 122.824 2.55445 122.824C3.96523 122.824 5.10889 123.969 5.10889 125.382Z" fill="#4A3AFF" fill-opacity="0.14"/>
<path d="M20.4356 125.382C20.4356 126.796 19.2919 127.941 17.8811 127.941C16.4703 127.941 15.3267 126.796 15.3267 125.382C15.3267 123.969 16.4703 122.824 17.8811 122.824C19.2919 122.824 20.4356 123.969 20.4356 125.382Z" fill="#4A3AFF" fill-opacity="0.14"/>
<path d="M35.7622 125.382C35.7622 126.796 34.6186 127.941 33.2078 127.941C31.797 127.941 30.6534 126.796 30.6534 125.382C30.6534 123.969 31.797 122.824 33.2078 122.824C34.6186 122.824 35.7622 123.969 35.7622 125.382Z" fill="#4A3AFF" fill-opacity="0.14"/>
<path d="M51.0889 125.382C51.0889 126.796 49.9453 127.941 48.5345 127.941C47.1237 127.941 45.98 126.796 45.98 125.382C45.98 123.969 47.1237 122.824 48.5345 122.824C49.9453 122.824 51.0889 123.969 51.0889 125.382Z" fill="#4A3AFF" fill-opacity="0.14"/>
<path d="M66.4156 125.382C66.4156 126.796 65.2719 127.941 63.8612 127.941C62.4504 127.941 61.3067 126.796 61.3067 125.382C61.3067 123.969 62.4504 122.824 63.8612 122.824C65.2719 122.824 66.4156 123.969 66.4156 125.382Z" fill="#4A3AFF" fill-opacity="0.14"/>
<path d="M81.7423 125.382C81.7423 126.796 80.5986 127.941 79.1878 127.941C77.777 127.941 76.6334 126.796 76.6334 125.382C76.6334 123.969 77.777 122.824 79.1878 122.824C80.5986 122.824 81.7423 123.969 81.7423 125.382Z" fill="#4A3AFF" fill-opacity="0.14"/>
<path d="M97.069 125.382C97.069 126.796 95.9253 127.941 94.5145 127.941C93.1037 127.941 91.9601 126.796 91.9601 125.382C91.9601 123.969 93.1037 122.824 94.5145 122.824C95.9253 122.824 97.069 123.969 97.069 125.382Z" fill="#4A3AFF" fill-opacity="0.14"/>
<path d="M112.396 125.382C112.396 126.796 111.252 127.941 109.841 127.941C108.43 127.941 107.287 126.796 107.287 125.382C107.287 123.969 108.43 122.824 109.841 122.824C111.252 122.824 112.396 123.969 112.396 125.382Z" fill="#4A3AFF" fill-opacity="0.14"/>
<path d="M127.722 125.382C127.722 126.796 126.579 127.941 125.168 127.941C123.757 127.941 122.613 126.796 122.613 125.382C122.613 123.969 123.757 122.824 125.168 122.824C126.579 122.824 127.722 123.969 127.722 125.382Z" fill="#4A3AFF" fill-opacity="0.14"/>
<path d="M143.049 125.382C143.049 126.796 141.905 127.941 140.495 127.941C139.084 127.941 137.94 126.796 137.94 125.382C137.94 123.969 139.084 122.824 140.495 122.824C141.905 122.824 143.049 123.969 143.049 125.382Z" fill="#4A3AFF" fill-opacity="0.14"/>
<path d="M158.376 125.382C158.376 126.796 157.232 127.941 155.821 127.941C154.41 127.941 153.267 126.796 153.267 125.382C153.267 123.969 154.41 122.824 155.821 122.824C157.232 122.824 158.376 123.969 158.376 125.382Z" fill="#4A3AFF" fill-opacity="0.14"/>
<path d="M5.10889 140.735C5.10889 142.148 3.96523 143.294 2.55445 143.294C1.14366 143.294 0 142.148 0 140.735C0 139.322 1.14366 138.176 2.55445 138.176C3.96523 138.176 5.10889 139.322 5.10889 140.735Z" fill="#4A3AFF" fill-opacity="0.14"/>
<path d="M20.4356 140.735C20.4356 142.148 19.2919 143.294 17.8811 143.294C16.4703 143.294 15.3267 142.148 15.3267 140.735C15.3267 139.322 16.4703 138.176 17.8811 138.176C19.2919 138.176 20.4356 139.322 20.4356 140.735Z" fill="#4A3AFF" fill-opacity="0.14"/>
<path d="M35.7622 140.735C35.7622 142.148 34.6186 143.294 33.2078 143.294C31.797 143.294 30.6534 142.148 30.6534 140.735C30.6534 139.322 31.797 138.176 33.2078 138.176C34.6186 138.176 35.7622 139.322 35.7622 140.735Z" fill="#4A3AFF" fill-opacity="0.14"/>
<path d="M51.0889 140.735C51.0889 142.148 49.9453 143.294 48.5345 143.294C47.1237 143.294 45.98 142.148 45.98 140.735C45.98 139.322 47.1237 138.176 48.5345 138.176C49.9453 138.176 51.0889 139.322 51.0889 140.735Z" fill="#4A3AFF" fill-opacity="0.14"/>
<path d="M66.4156 140.735C66.4156 142.148 65.2719 143.294 63.8612 143.294C62.4504 143.294 61.3067 142.148 61.3067 140.735C61.3067 139.322 62.4504 138.176 63.8612 138.176C65.2719 138.176 66.4156 139.322 66.4156 140.735Z" fill="#4A3AFF" fill-opacity="0.14"/>
<path d="M81.7423 140.735C81.7423 142.148 80.5986 143.294 79.1878 143.294C77.777 143.294 76.6334 142.148 76.6334 140.735C76.6334 139.322 77.777 138.176 79.1878 138.176C80.5986 138.176 81.7423 139.322 81.7423 140.735Z" fill="#4A3AFF" fill-opacity="0.14"/>
<path d="M97.069 140.735C97.069 142.148 95.9253 143.294 94.5145 143.294C93.1037 143.294 91.9601 142.148 91.9601 140.735C91.9601 139.322 93.1037 138.176 94.5145 138.176C95.9253 138.176 97.069 139.322 97.069 140.735Z" fill="#4A3AFF" fill-opacity="0.14"/>
<path d="M112.396 140.735C112.396 142.148 111.252 143.294 109.841 143.294C108.43 143.294 107.287 142.148 107.287 140.735C107.287 139.322 108.43 138.176 109.841 138.176C111.252 138.176 112.396 139.322 112.396 140.735Z" fill="#4A3AFF" fill-opacity="0.14"/>
<path d="M127.722 140.735C127.722 142.148 126.579 143.294 125.168 143.294C123.757 143.294 122.613 142.148 122.613 140.735C122.613 139.322 123.757 138.176 125.168 138.176C126.579 138.176 127.722 139.322 127.722 140.735Z" fill="#4A3AFF" fill-opacity="0.14"/>
<path d="M143.049 140.735C143.049 142.148 141.905 143.294 140.495 143.294C139.084 143.294 137.94 142.148 137.94 140.735C137.94 139.322 139.084 138.176 140.495 138.176C141.905 138.176 143.049 139.322 143.049 140.735Z" fill="#4A3AFF" fill-opacity="0.14"/>
<path d="M158.376 140.735C158.376 142.148 157.232 143.294 155.821 143.294C154.41 143.294 153.267 142.148 153.267 140.735C153.267 139.322 154.41 138.176 155.821 138.176C157.232 138.176 158.376 139.322 158.376 140.735Z" fill="#4A3AFF" fill-opacity="0.14"/>
<path d="M5.10889 156.088C5.10889 157.501 3.96523 158.647 2.55445 158.647C1.14366 158.647 0 157.501 0 156.088C0 154.675 1.14366 153.529 2.55445 153.529C3.96523 153.529 5.10889 154.675 5.10889 156.088Z" fill="#4A3AFF" fill-opacity="0.14"/>
<path d="M20.4356 156.088C20.4356 157.501 19.2919 158.647 17.8811 158.647C16.4703 158.647 15.3267 157.501 15.3267 156.088C15.3267 154.675 16.4703 153.529 17.8811 153.529C19.2919 153.529 20.4356 154.675 20.4356 156.088Z" fill="#4A3AFF" fill-opacity="0.14"/>
<path d="M35.7622 156.088C35.7622 157.501 34.6186 158.647 33.2078 158.647C31.797 158.647 30.6534 157.501 30.6534 156.088C30.6534 154.675 31.797 153.529 33.2078 153.529C34.6186 153.529 35.7622 154.675 35.7622 156.088Z" fill="#4A3AFF" fill-opacity="0.14"/>
<path d="M51.0889 156.088C51.0889 157.501 49.9453 158.647 48.5345 158.647C47.1237 158.647 45.98 157.501 45.98 156.088C45.98 154.675 47.1237 153.529 48.5345 153.529C49.9453 153.529 51.0889 154.675 51.0889 156.088Z" fill="#4A3AFF" fill-opacity="0.14"/>
<path d="M66.4156 156.088C66.4156 157.501 65.2719 158.647 63.8612 158.647C62.4504 158.647 61.3067 157.501 61.3067 156.088C61.3067 154.675 62.4504 153.529 63.8612 153.529C65.2719 153.529 66.4156 154.675 66.4156 156.088Z" fill="#4A3AFF" fill-opacity="0.14"/>
<path d="M81.7423 156.088C81.7423 157.501 80.5986 158.647 79.1878 158.647C77.777 158.647 76.6334 157.501 76.6334 156.088C76.6334 154.675 77.777 153.529 79.1878 153.529C80.5986 153.529 81.7423 154.675 81.7423 156.088Z" fill="#4A3AFF" fill-opacity="0.14"/>
<path d="M97.069 156.088C97.069 157.501 95.9253 158.647 94.5145 158.647C93.1037 158.647 91.9601 157.501 91.9601 156.088C91.9601 154.675 93.1037 153.529 94.5145 153.529C95.9253 153.529 97.069 154.675 97.069 156.088Z" fill="#4A3AFF" fill-opacity="0.14"/>
<path d="M112.396 156.088C112.396 157.501 111.252 158.647 109.841 158.647C108.43 158.647 107.287 157.501 107.287 156.088C107.287 154.675 108.43 153.529 109.841 153.529C111.252 153.529 112.396 154.675 112.396 156.088Z" fill="#4A3AFF" fill-opacity="0.14"/>
<path d="M127.722 156.088C127.722 157.501 126.579 158.647 125.168 158.647C123.757 158.647 122.613 157.501 122.613 156.088C122.613 154.675 123.757 153.529 125.168 153.529C126.579 153.529 127.722 154.675 127.722 156.088Z" fill="#4A3AFF" fill-opacity="0.14"/>
<path d="M143.049 156.088C143.049 157.501 141.905 158.647 140.495 158.647C139.084 158.647 137.94 157.501 137.94 156.088C137.94 154.675 139.084 153.529 140.495 153.529C141.905 153.529 143.049 154.675 143.049 156.088Z" fill="#4A3AFF" fill-opacity="0.14"/>
<path d="M158.376 156.088C158.376 157.501 157.232 158.647 155.821 158.647C154.41 158.647 153.267 157.501 153.267 156.088C153.267 154.675 154.41 153.529 155.821 153.529C157.232 153.529 158.376 154.675 158.376 156.088Z" fill="#4A3AFF" fill-opacity="0.14"/>
<path d="M5.10889 171.441C5.10889 172.854 3.96523 174 2.55445 174C1.14366 174 0 172.854 0 171.441C0 170.028 1.14366 168.882 2.55445 168.882C3.96523 168.882 5.10889 170.028 5.10889 171.441Z" fill="#4A3AFF" fill-opacity="0.14"/>
<path d="M20.4356 171.441C20.4356 172.854 19.2919 174 17.8811 174C16.4703 174 15.3267 172.854 15.3267 171.441C15.3267 170.028 16.4703 168.882 17.8811 168.882C19.2919 168.882 20.4356 170.028 20.4356 171.441Z" fill="#4A3AFF" fill-opacity="0.14"/>
<path d="M35.7622 171.441C35.7622 172.854 34.6186 174 33.2078 174C31.797 174 30.6534 172.854 30.6534 171.441C30.6534 170.028 31.797 168.882 33.2078 168.882C34.6186 168.882 35.7622 170.028 35.7622 171.441Z" fill="#4A3AFF" fill-opacity="0.14"/>
<path d="M51.0889 171.441C51.0889 172.854 49.9453 174 48.5345 174C47.1237 174 45.98 172.854 45.98 171.441C45.98 170.028 47.1237 168.882 48.5345 168.882C49.9453 168.882 51.0889 170.028 51.0889 171.441Z" fill="#4A3AFF" fill-opacity="0.14"/>
<path d="M66.4156 171.441C66.4156 172.854 65.2719 174 63.8612 174C62.4504 174 61.3067 172.854 61.3067 171.441C61.3067 170.028 62.4504 168.882 63.8612 168.882C65.2719 168.882 66.4156 170.028 66.4156 171.441Z" fill="#4A3AFF" fill-opacity="0.14"/>
<path d="M81.7423 171.441C81.7423 172.854 80.5986 174 79.1878 174C77.777 174 76.6334 172.854 76.6334 171.441C76.6334 170.028 77.777 168.882 79.1878 168.882C80.5986 168.882 81.7423 170.028 81.7423 171.441Z" fill="#4A3AFF" fill-opacity="0.14"/>
<path d="M97.069 171.441C97.069 172.854 95.9253 174 94.5145 174C93.1037 174 91.9601 172.854 91.9601 171.441C91.9601 170.028 93.1037 168.882 94.5145 168.882C95.9253 168.882 97.069 170.028 97.069 171.441Z" fill="#4A3AFF" fill-opacity="0.14"/>
<path d="M112.396 171.441C112.396 172.854 111.252 174 109.841 174C108.43 174 107.287 172.854 107.287 171.441C107.287 170.028 108.43 168.882 109.841 168.882C111.252 168.882 112.396 170.028 112.396 171.441Z" fill="#4A3AFF" fill-opacity="0.14"/>
<path d="M127.722 171.441C127.722 172.854 126.579 174 125.168 174C123.757 174 122.613 172.854 122.613 171.441C122.613 170.028 123.757 168.882 125.168 168.882C126.579 168.882 127.722 170.028 127.722 171.441Z" fill="#4A3AFF" fill-opacity="0.14"/>
<path d="M143.049 171.441C143.049 172.854 141.905 174 140.495 174C139.084 174 137.94 172.854 137.94 171.441C137.94 170.028 139.084 168.882 140.495 168.882C141.905 168.882 143.049 170.028 143.049 171.441Z" fill="#4A3AFF" fill-opacity="0.14"/>
<path d="M158.376 171.441C158.376 172.854 157.232 174 155.821 174C154.41 174 153.267 172.854 153.267 171.441C153.267 170.028 154.41 168.882 155.821 168.882C157.232 168.882 158.376 170.028 158.376 171.441Z" fill="#4A3AFF" fill-opacity="0.14"/>
</svg>
