<svg width="35" height="150" viewBox="0 0 35 150" fill="none" xmlns="http://www.w3.org/2000/svg">
<path fill-rule="evenodd" clip-rule="evenodd" d="M2.88462 5.76923C4.47774 5.76923 5.76923 4.47774 5.76923 2.88462C5.76923 1.29149 4.47774 0 2.88462 0C1.29149 0 0 1.29149 0 2.88462C0 4.47774 1.29149 5.76923 2.88462 5.76923ZM2.88462 34.6154C4.47774 34.6154 5.76923 33.3239 5.76923 31.7308C5.76923 30.1376 4.47774 28.8462 2.88462 28.8462C1.29149 28.8462 0 30.1376 0 31.7308C0 33.3239 1.29149 34.6154 2.88462 34.6154ZM5.76923 60.5769C5.76923 62.1701 4.47774 63.4615 2.88462 63.4615C1.29149 63.4615 0 62.1701 0 60.5769C0 58.9838 1.29149 57.6923 2.88462 57.6923C4.47774 57.6923 5.76923 58.9838 5.76923 60.5769ZM2.88462 92.3077C4.47774 92.3077 5.76923 91.0162 5.76923 89.4231C5.76923 87.8299 4.47774 86.5385 2.88462 86.5385C1.29149 86.5385 0 87.8299 0 89.4231C0 91.0162 1.29149 92.3077 2.88462 92.3077ZM5.76923 118.269C5.76923 119.862 4.47774 121.154 2.88462 121.154C1.29149 121.154 0 119.862 0 118.269C0 116.676 1.29149 115.385 2.88462 115.385C4.47774 115.385 5.76923 116.676 5.76923 118.269ZM2.88462 150C4.47774 150 5.76923 148.709 5.76923 147.115C5.76923 145.522 4.47774 144.231 2.88462 144.231C1.29149 144.231 0 145.522 0 147.115C0 148.709 1.29149 150 2.88462 150ZM34.6154 2.88462C34.6154 4.47774 33.3239 5.76923 31.7308 5.76923C30.1376 5.76923 28.8462 4.47774 28.8462 2.88462C28.8462 1.29149 30.1376 0 31.7308 0C33.3239 0 34.6154 1.29149 34.6154 2.88462ZM31.7308 34.6154C33.3239 34.6154 34.6154 33.3239 34.6154 31.7308C34.6154 30.1376 33.3239 28.8462 31.7308 28.8462C30.1376 28.8462 28.8462 30.1376 28.8462 31.7308C28.8462 33.3239 30.1376 34.6154 31.7308 34.6154ZM34.6154 60.5769C34.6154 62.1701 33.3239 63.4615 31.7308 63.4615C30.1376 63.4615 28.8462 62.1701 28.8462 60.5769C28.8462 58.9838 30.1376 57.6923 31.7308 57.6923C33.3239 57.6923 34.6154 58.9838 34.6154 60.5769ZM31.7308 92.3077C33.3239 92.3077 34.6154 91.0162 34.6154 89.4231C34.6154 87.8299 33.3239 86.5385 31.7308 86.5385C30.1376 86.5385 28.8462 87.8299 28.8462 89.4231C28.8462 91.0162 30.1376 92.3077 31.7308 92.3077ZM34.6154 118.269C34.6154 119.862 33.3239 121.154 31.7308 121.154C30.1376 121.154 28.8462 119.862 28.8462 118.269C28.8462 116.676 30.1376 115.385 31.7308 115.385C33.3239 115.385 34.6154 116.676 34.6154 118.269ZM31.7308 150C33.3239 150 34.6154 148.709 34.6154 147.115C34.6154 145.522 33.3239 144.231 31.7308 144.231C30.1376 144.231 28.8462 145.522 28.8462 147.115C28.8462 148.709 30.1376 150 31.7308 150Z" fill="#14C88C"/>
</svg>
