<svg width="61" height="54" viewBox="0 0 61 54" fill="none" xmlns="http://www.w3.org/2000/svg">
<path d="M15.4927 4.64902C15.4927 3.20932 17.0395 4.14421 18.2378 4.18181C23.9275 4.36037 29.6037 3.71845 35.2955 3.71845C37.7252 3.71845 44.9829 3.65401 42.5746 3.32458" stroke="#FF3F56" stroke-opacity="0.66" stroke-width="3" stroke-linecap="round" stroke-linejoin="round"/>
<path d="M14.7479 5.62377C15.5621 5.14846 15.814 10.6964 15.8895 11.6236C16.1896 15.3091 17.4782 17.851 19.1637 21.0729C21.1183 24.809 24.0121 29.3243 27.7484 31.5708C31.4312 33.7851 35.5535 31.7937 38.8835 29.8628C42.9517 27.5038 43.7469 23.503 43.8613 19.0614C43.9737 14.7005 43.6473 10.3252 43.8337 5.96682C43.8619 5.30602 43.9055 1.82467 43.8286 2.0069" stroke="#FF3F56" stroke-opacity="0.66" stroke-width="3" stroke-linecap="round" stroke-linejoin="round"/>
<path d="M42.8917 9.2032C43.5952 9.2032 44.3241 7.94777 45.0721 7.62802C48.8529 6.01175 52.9808 7.26976 56.3795 9.16263C59.6178 10.9662 60.1731 15.6422 57.0115 17.8343C54.6918 19.4428 51.6623 20.0385 49.0651 21.0413C48.5928 21.2236 43.9379 22.958 45.6426 21.9914" stroke="#FF3F56" stroke-opacity="0.66" stroke-width="3" stroke-linecap="round" stroke-linejoin="round"/>
<path d="M14.1663 12.0155C13.152 12.0155 12.7361 11.4341 11.9516 10.9143C8.56342 8.66943 4.8256 13.7917 3.4167 16.2057C2.31972 18.0852 1.42581 20.701 2.45183 22.8123C3.67677 25.333 6.30609 25.5658 8.82157 25.497C11.9752 25.4107 14.8421 23.8603 17.6953 22.6975C18.6671 22.3015 19.9574 21.6573 21.0388 21.6573" stroke="#FF3F56" stroke-opacity="0.66" stroke-width="3" stroke-linecap="round" stroke-linejoin="round"/>
<path d="M30.8242 33.9279C30.8586 34.2374 31.5517 33.03 31.5517 33.3413C31.5517 36.3195 27.8667 44.6683 28.6923 41.8067" stroke="#FF3F56" stroke-opacity="0.66" stroke-width="3" stroke-linecap="round" stroke-linejoin="round"/>
<path d="M31.8312 34.7311C31.8312 34.1813 31.139 32.6889 31.4807 33.1194C32.5044 34.4094 33.6092 35.6159 34.5684 36.9639C35.6584 38.4958 36.4188 40.1378 38.1736 40.9063" stroke="#FF3F56" stroke-opacity="0.66" stroke-width="3" stroke-linecap="round" stroke-linejoin="round"/>
<path d="M22.4339 42.6434C20.13 40.856 26.7411 42.353 27.5799 42.3552C29.1168 42.3593 44.6301 40.1326 44.6301 41.9501" stroke="#FF3F56" stroke-opacity="0.66" stroke-width="3" stroke-linecap="round" stroke-linejoin="round"/>
<path d="M22.1149 43.072C21.4044 43.072 21.4458 42.1104 21.572 41.5908C22.104 39.3991 21.3397 46.0944 21.2835 48.3482C21.2706 48.8663 21.2043 51.9208 21.2043 51.5242C21.2043 50.9925 31.5028 51.7332 32.3326 51.7901C35.505 52.0077 39.1389 52.3929 42.0676 50.8796C42.5782 50.6157 43.8013 50.6055 43.6186 50.2548C42.7083 48.5074 43.5168 45.8713 43.5168 43.9997C43.5168 43.6844 43.1491 41.7492 43.1491 42.2125" stroke="#FF3F56" stroke-opacity="0.66" stroke-width="3" stroke-linecap="round" stroke-linejoin="round"/>
</svg>
