<svg width="82" height="88" viewBox="0 0 82 88" fill="none" xmlns="http://www.w3.org/2000/svg">
<path fill-rule="evenodd" clip-rule="evenodd" d="M27.7189 3.98902C27.6639 5.2765 26.5755 6.27556 25.288 6.22047L6.50831 5.41692L4.96921 24.1507C4.86369 25.435 3.73699 26.3906 2.45265 26.2851C1.16832 26.1796 0.212693 25.0529 0.318211 23.7686L1.94917 3.91679C2.10307 2.04348 3.70914 0.626218 5.58703 0.706569L25.4875 1.55807C26.775 1.61316 27.774 2.70153 27.7189 3.98902ZM41.2279 19.2975C41.1728 20.585 40.0844 21.5841 38.7969 21.529L20.0172 20.7254L18.4781 39.4592C18.3726 40.7435 17.2459 41.6991 15.9616 41.5936C14.6772 41.4881 13.7216 40.3614 13.8271 39.0771L15.4581 19.2253C15.612 17.352 17.218 15.9347 19.0959 16.0151L38.9964 16.8666C40.2839 16.9217 41.2829 18.01 41.2279 19.2975ZM52.3058 36.8375C53.5933 36.8925 54.6817 35.8935 54.7368 34.606C54.7918 33.3185 53.7928 32.2301 52.5053 32.1751L32.6048 31.3236C30.7269 31.2432 29.1209 32.6605 28.967 34.5338L27.336 54.3856C27.2305 55.6699 28.1861 56.7966 29.4705 56.9021C30.7548 57.0076 31.8815 56.052 31.987 54.7677L33.5261 36.0339L52.3058 36.8375ZM68.2456 49.9145C68.1906 51.202 67.1022 52.201 65.8147 52.1459L47.035 51.3424L45.4959 70.0762C45.3904 71.3605 44.2637 72.3161 42.9794 72.2106C41.695 72.1051 40.7394 70.9784 40.8449 69.6941L42.4759 49.8423C42.6298 47.969 44.2358 46.5517 46.1137 46.632L66.0142 47.4836C67.3017 47.5386 68.3007 48.627 68.2456 49.9145ZM79.3236 67.4544C80.6111 67.5095 81.6995 66.5105 81.7546 65.223C81.8096 63.9355 80.8106 62.8471 79.5231 62.792L59.6226 61.9405C57.7447 61.8602 56.1387 63.2775 55.9848 65.1508L54.3538 85.0025C54.2483 86.2869 55.2039 87.4136 56.4883 87.5191C57.7726 87.6246 58.8993 86.669 59.0048 85.3847L60.5439 66.6509L79.3236 67.4544Z" fill="#14C88C"/>
</svg>
