<svg width="101" height="42" viewBox="0 0 101 42" fill="none" xmlns="http://www.w3.org/2000/svg">
<path d="M1.9833 39.2203C2.13917 37.5057 4.1527 35.8422 5.25868 34.6671C8.76373 30.943 12.4843 27.4216 15.9846 23.6712C20.2354 19.1169 24.8597 15.0482 29.2481 10.6597C32.0217 7.88613 35.1113 5.93135 38.1924 3.58709C39.6799 2.45524 41.47 -0.223998 43.4473 1.64347C47.284 5.26694 48.251 10.5032 51.8697 14.277C57.742 20.401 63.5266 26.8923 70.7301 31.5177C74.8702 34.1761 77.7998 37.2126 81.0241 40.8399C81.5512 41.4329 79.4875 40.1997 79.2425 40.0301C77.6625 38.9363 75.7388 38.3848 73.8975 37.9245C65.1583 35.7397 56.9889 33.0481 49.0263 28.7103C46.6218 27.4004 44.5585 25.5846 42.0796 24.3911C39.3217 23.0632 36.5089 21.7767 33.6932 20.5758C28.6822 18.4388 24.1727 15.285 19.224 12.9813C15.4513 11.225 11.5726 9.65952 7.85018 7.79829C7.38156 7.56398 3.81498 5.89088 3.74697 5.27877C3.65284 4.43166 16.4472 6.77904 16.9204 6.89846C23.4306 8.5412 30.3272 9.61459 37.0046 10.2278C45.7009 11.0265 54.4514 10.6106 63.1716 10.9657C74.9284 11.4445 86.6796 12.0095 98.4448 12.0095C100.969 12.0095 97.7027 12.6367 96.8431 12.8373C92.9678 13.7415 89.0221 14.2774 85.1633 15.2489C68.7805 19.3732 52.292 23.0279 36.1767 28.1344C27.3408 30.9343 18.4008 32.7508 9.72182 36.0889C7.65602 36.8834 5.59456 37.7442 3.47702 38.3924C3.04938 38.5233 0.821292 39.2203 1.01149 39.2203" stroke="#11D748" stroke-opacity="0.58" stroke-width="2" stroke-linecap="round"/>
</svg>
