<svg width="216" height="19" viewBox="0 0 216 19" fill="none" xmlns="http://www.w3.org/2000/svg">
<path fill-rule="evenodd" clip-rule="evenodd" d="M141.433 0.107522C141.373 0.158818 139.652 0.205031 137.608 0.210596C134.978 0.217613 133.891 0.303026 133.888 0.502644C133.885 0.710247 133.829 0.712183 133.676 0.510386C133.544 0.337142 132.738 0.262618 131.486 0.307865C129.17 0.391342 127.525 0.425701 127.027 0.400779C126.58 0.378518 117.046 0.646853 117.046 0.681695C117.046 0.695971 116.346 0.7388 115.489 0.77703C113.364 0.871879 113.425 0.853731 113.622 1.32894C113.756 1.65245 113.68 1.63115 113.299 1.23942C112.915 0.845746 112.569 0.750897 111.808 0.831712C111.263 0.889541 110.34 0.948096 109.756 0.961888C109.075 0.977858 108.694 1.10247 108.694 1.3091C108.694 1.69189 108.218 1.74246 108.075 1.37492C108.02 1.23361 107.595 1.12521 107.131 1.13392C104.297 1.18667 103.718 1.24305 103.531 1.48404C103.386 1.67132 103.322 1.66116 103.319 1.44992C103.316 1.23772 102.736 1.14747 101.38 1.14747C100.316 1.14747 99.3635 1.21716 99.2638 1.30233C99.1642 1.3875 97.9646 1.49445 96.5979 1.54018C91.1108 1.7231 90.0098 1.81238 89.593 2.10806C89.3538 2.27768 89.1581 2.3176 89.1581 2.19686C89.1581 2.07588 88.9177 1.97716 88.6241 1.97716C88.305 1.97716 88.1462 2.10249 88.2297 2.28808C88.4191 2.71054 88.1601 2.67957 87.6165 2.21501C87.2124 1.86973 87.0414 1.86707 85.9358 2.18912C85.2557 2.38704 84.5408 2.46084 84.3384 2.35389C84.1365 2.24719 83.8327 2.2046 83.6628 2.25929C83.493 2.31373 82.6532 2.40616 81.7967 2.46447C78.504 2.68901 76.8261 2.85451 76.4173 2.99558C76.1837 3.07591 75.3366 3.12115 74.5348 3.09599C73.7329 3.07083 73.0033 3.15212 72.9136 3.27625C72.8235 3.40062 72.4433 3.45216 72.0679 3.3907C71.6927 3.32948 70.6522 3.40957 69.7553 3.56854C68.8586 3.72775 67.5381 3.89906 66.8209 3.94939C66.1037 3.99972 65.1346 4.09674 64.6674 4.16498C64.2003 4.23321 63.0536 4.34887 62.1193 4.42218C59.1934 4.65108 54.6056 5.24001 54.2361 5.43407C54.1047 5.50278 53.3403 5.59352 52.5373 5.63538C50.721 5.73023 50.0005 5.86718 48.939 6.31965C48.4622 6.52289 48.1044 6.57056 48.1044 6.43071C48.1044 6.14084 45.7451 6.42151 45.6086 6.72759C45.5596 6.83744 45.3368 6.86745 45.1131 6.79413C44.8529 6.70872 44.7068 6.81736 44.7068 7.09586C44.7068 7.50913 44.6878 7.50865 44.3252 7.08473C44.076 6.79389 43.8099 6.7092 43.5593 6.84156C43.3481 6.9531 42.7872 7.08038 42.313 7.12465C41.8387 7.16869 41.4106 7.30637 41.3611 7.43049C41.3084 7.56333 41.01 7.57131 40.6366 7.44985C40.0587 7.26209 37.7342 7.61656 36.4961 8.08137C36.2625 8.16896 35.8992 8.21614 35.6892 8.18638C35.451 8.15251 35.3885 8.24494 35.5232 8.43125C35.6812 8.64998 35.5937 8.67853 35.1976 8.53698C34.412 8.25631 32.8666 8.37124 31.9442 8.77895C31.5045 8.97324 30.7423 9.13221 30.2505 9.13221C29.7584 9.13221 28.3187 9.34804 27.0512 9.61178C25.7833 9.87527 24.396 10.1497 23.9676 10.2213C23.5053 10.2985 23.189 10.5087 23.189 10.7391C23.189 11.0614 23.1148 11.0747 22.7524 10.8175C22.4214 10.5828 22.236 10.5758 21.988 10.7877C21.8076 10.9418 21.3597 11.0679 20.9928 11.0679C19.719 11.0679 17.8095 11.6017 17.8095 11.9578C17.8095 12.1592 17.6719 12.2334 17.4834 12.134C17.3042 12.0394 16.9856 12.1625 16.7756 12.4079C16.5658 12.6535 16.3939 12.7244 16.3939 12.5659C16.3939 12.4074 16.0754 12.2777 15.6861 12.2777C15.2968 12.2777 14.9783 12.3982 14.9783 12.5456C14.9783 12.6929 14.7769 12.7474 14.5312 12.6668C13.7288 12.4035 12.7141 12.7733 12.7042 13.3322C12.6954 13.8401 12.6869 13.841 12.2795 13.3808C11.8681 12.9158 11.8638 12.9158 11.8596 13.3808C11.8562 13.7278 11.793 13.7667 11.6175 13.5301C11.4233 13.2685 11.1775 13.2843 10.2769 13.6165C9.67043 13.8403 8.60077 14.1657 7.90002 14.34C4.98662 15.0637 3.93706 15.5464 4.14063 16.0685C4.20037 16.2214 4.09533 16.4278 3.90733 16.5273C3.69017 16.642 3.63921 16.6059 3.76775 16.4286C4.4096 15.5406 2.285 15.7448 1.34133 16.6616C1.06471 16.9304 0.82717 17.0098 0.766297 16.8537C0.709388 16.7075 0.481468 16.8774 0.259778 17.2312C-0.0850731 17.7816 -0.0859221 17.9045 0.253267 18.0836C0.826037 18.386 1.6675 17.9215 1.691 17.2899C1.70855 16.8205 1.7363 16.8087 1.91439 17.1953C2.1559 17.7187 2.50726 17.7656 2.83852 17.319C3.0016 17.099 3.07946 17.0879 3.08258 17.2841C3.08569 17.493 3.30115 17.4767 3.86543 17.2251C4.2938 17.0342 4.86714 16.8774 5.13951 16.8764C5.41188 16.8757 5.63499 16.715 5.63499 16.5195C5.63499 16.3032 5.8009 16.2188 6.05968 16.3035C6.29326 16.3802 6.7072 16.3623 6.97985 16.264C7.25222 16.1656 7.79186 16.0497 8.1789 16.0066C9.20808 15.8917 10.205 15.377 10.0529 15.0387C9.97649 14.8686 10.1212 14.7714 10.3969 14.8077C10.6588 14.842 10.9595 14.6952 11.0654 14.4813C11.2327 14.143 11.2605 14.1483 11.2778 14.5217C11.2936 14.8653 11.4808 14.9284 12.2177 14.8386C14.6688 14.5401 16.9262 13.7573 16.7356 13.2724C16.6433 13.0375 16.7212 12.999 16.9941 13.1447C17.5258 13.4282 18.1408 13.4912 18.5012 13.2985C18.6657 13.2107 19.0553 13.126 19.3668 13.1105C19.8467 13.0863 21.8988 12.7229 24.8878 12.1325C25.2771 12.0558 25.9141 11.9319 26.3034 11.8572C26.6927 11.7827 27.105 11.6019 27.2193 11.4553C27.3609 11.2741 27.4286 11.29 27.4317 11.5056C27.434 11.6798 27.5744 11.7493 27.7437 11.6597C27.913 11.5705 27.9897 11.2953 27.9144 11.0488C27.7627 10.5535 28.1967 10.5329 28.7944 11.0074C29.263 11.3796 29.6681 11.3849 31.2743 11.0391C31.9663 10.8903 32.5323 10.6278 32.5323 10.4557C32.5323 10.1378 33.205 10.1105 33.5597 10.4136C33.6668 10.5051 33.9253 10.4584 34.1342 10.3103C34.4148 10.1112 34.5142 10.1141 34.5142 10.321C34.5142 10.5126 34.6705 10.5295 35.0096 10.3744C35.5858 10.1112 36.9771 9.87285 38.7093 9.74147C39.3814 9.69017 40.0963 9.53169 40.2976 9.38869C40.4992 9.24593 41.2232 9.086 41.9067 9.03373C42.5904 8.98123 43.2453 8.92751 43.362 8.9142C43.4786 8.90114 43.5834 8.69982 43.5941 8.46681C43.6105 8.12033 43.649 8.1092 43.8065 8.40632C43.999 8.76903 45.2853 8.87113 46.1225 8.58997C46.719 8.38963 49.0514 8.12299 51.1956 8.00999C52.195 7.95724 53.1639 7.80699 53.3485 7.67608C53.5331 7.54518 53.9895 7.44767 54.3627 7.45953C55.4538 7.49389 60.4024 6.92987 60.5598 6.75324C60.6388 6.6642 61.0221 6.59306 61.4114 6.59476C61.8007 6.59669 62.3424 6.44377 62.6147 6.2548C62.9939 5.99227 63.1102 5.98405 63.1102 6.21947C63.1102 6.42732 63.3166 6.47208 63.7473 6.35788C64.0978 6.26472 64.7889 6.20036 65.2832 6.21488C65.7776 6.2294 66.2631 6.12922 66.362 5.99252C66.4806 5.82847 66.7167 5.82338 67.0539 5.97751C67.3356 6.10624 67.6542 6.13624 67.7617 6.04405C67.8696 5.95211 68.4917 5.84564 69.144 5.8079C71.0186 5.69902 73.1483 5.53859 73.3029 5.49431C73.3807 5.47205 73.8584 5.47302 74.3646 5.49673C74.8921 5.52141 75.2848 5.42269 75.2848 5.26518C75.2848 5.11395 75.4122 5.05757 75.5679 5.13984C75.7236 5.22211 75.851 5.17396 75.851 5.03314C75.851 4.89231 75.9861 4.7769 76.1509 4.7769C76.3156 4.7769 76.372 4.88578 76.2757 5.01886C76.1795 5.15194 76.3632 5.26082 76.6837 5.26082C77.0042 5.26082 77.2667 5.17856 77.2667 5.07814C77.2667 4.97749 78.1268 4.8853 79.1778 4.8732C80.2288 4.86086 81.5986 4.76964 82.2214 4.67044C82.8443 4.57147 83.6476 4.49961 84.0066 4.51098C84.4106 4.52381 84.5864 4.43089 84.4678 4.26733C84.3305 4.07714 84.4403 4.07763 84.8585 4.26878C85.5227 4.57268 88.0256 4.63245 88.0256 4.34451C88.0256 4.05005 89.2292 4.04206 89.6406 4.33387C89.8835 4.50614 90.0075 4.51002 90.0075 4.34524C90.0075 4.20829 90.2623 4.15336 90.5738 4.22281C90.8852 4.29249 91.14 4.25499 91.14 4.13981C91.14 4.0244 92.0302 3.94431 93.118 3.96197C94.5226 3.98472 95.0404 3.91455 94.9039 3.72001C94.7983 3.56927 94.9274 3.59564 95.191 3.77808C95.4546 3.96076 95.6704 4.0152 95.6704 3.89906C95.6706 3.78316 96.5214 3.68444 97.5611 3.67985C98.8207 3.67428 99.4912 3.56999 99.5702 3.36723C99.6614 3.13398 99.7817 3.1289 100.086 3.34473C100.305 3.49958 100.485 3.53128 100.488 3.41514C100.49 3.29924 100.608 3.36118 100.751 3.5533C100.958 3.83301 101.15 3.84752 101.718 3.62637C102.259 3.41586 102.461 3.41901 102.567 3.64016C102.657 3.82889 102.787 3.84559 102.939 3.68807C103.068 3.55499 103.746 3.43885 104.447 3.43014C105.148 3.42143 106.04 3.35344 106.429 3.27916C106.818 3.20487 107.293 3.2506 107.485 3.38102C107.712 3.53564 108.11 3.53515 108.633 3.37957C109.073 3.24867 109.984 3.18382 110.658 3.2356C111.333 3.28762 112.284 3.2356 112.773 3.12043C113.261 3.00501 113.931 2.99582 114.26 3.1001C114.772 3.26198 114.839 3.2131 114.725 2.76281C114.621 2.35559 114.656 2.31494 114.877 2.584C115.231 3.01348 116.903 3.15963 116.909 2.76184C116.912 2.59779 117.029 2.63118 117.188 2.8412C117.339 3.04082 117.464 3.10906 117.467 2.99316C117.469 2.87701 117.651 2.90944 117.871 3.06526C118.328 3.38973 118.764 3.01663 118.444 2.57408C118.338 2.42721 118.588 2.49593 119 2.72676C119.681 3.1076 120.304 3.1289 125.759 2.95686C129.065 2.85258 132.056 2.77249 132.406 2.77878C132.757 2.78483 133.043 2.69264 133.043 2.57359C133.043 2.45455 133.242 2.35728 133.485 2.35728C133.727 2.35728 133.854 2.45697 133.766 2.57868C133.536 2.89686 136.965 2.73184 137.346 2.4064C137.55 2.23195 137.832 2.21646 138.15 2.36236C138.42 2.48576 139.07 2.59029 139.593 2.59465C140.117 2.59924 141.088 2.62925 141.749 2.66143C142.659 2.70595 142.954 2.63167 142.957 2.35728C142.96 2.08895 143.019 2.07225 143.183 2.29316C143.42 2.6111 144.689 2.63772 152.579 2.49133C157.811 2.39406 157.37 2.39672 161.049 2.44197C163.188 2.46834 164.031 2.39527 164.117 2.17581C164.181 2.00958 164.351 1.87336 164.494 1.87336C164.637 1.87336 164.722 2.00958 164.683 2.17581C164.597 2.54383 166.491 2.59779 166.802 2.2363C166.932 2.08532 167.012 2.10516 167.014 2.28953C167.017 2.47076 167.401 2.57214 168.01 2.55279C168.555 2.53512 169.001 2.43592 169.001 2.33187C169.001 2.22807 169.287 2.20315 169.638 2.27622C170.587 2.47487 175.993 2.43132 176.389 2.22203C176.607 2.10709 176.659 2.14194 176.533 2.31687C176.247 2.71176 178.43 2.55642 179.017 2.14C179.405 1.8644 179.476 1.86924 179.476 2.17024C179.476 2.42213 179.763 2.51577 180.458 2.48988C180.998 2.47003 181.514 2.39019 181.605 2.31276C181.695 2.23509 182.24 2.26219 182.814 2.37301C183.388 2.48359 184.401 2.51068 185.065 2.43277C186.123 2.30889 186.276 2.2138 186.305 1.65898C186.337 1.04682 186.344 1.04972 186.518 1.74342C186.693 2.441 186.748 2.46205 188.537 2.51819C189.549 2.54988 190.632 2.62174 190.943 2.6774C191.254 2.73329 191.641 2.69022 191.802 2.58182C192.113 2.37228 192.741 2.3972 193.208 2.63747C193.364 2.71756 193.873 2.73474 194.341 2.6757C194.808 2.61691 195.317 2.58472 195.473 2.60408C195.629 2.62344 197.03 2.67837 198.588 2.72579C200.145 2.77346 201.846 2.88016 202.367 2.96315C203.054 3.07252 203.464 2.99945 203.854 2.6982C204.205 2.42648 204.392 2.38559 204.392 2.58037C204.392 2.77152 204.735 2.85306 205.351 2.80757C205.879 2.76886 206.525 2.8896 206.788 3.07591C207.199 3.36723 207.303 3.36602 207.523 3.06768C207.702 2.82644 207.782 2.81265 207.785 3.02268C207.787 3.18915 208.053 3.32513 208.374 3.32513C208.84 3.32513 208.927 3.21334 208.802 2.78071C208.715 2.48141 208.717 2.37252 208.807 2.53875C208.896 2.70522 209.093 2.8412 209.245 2.8412C209.397 2.8412 209.439 2.70522 209.339 2.53875C209.238 2.37252 209.402 2.49447 209.703 2.81023C210.171 3.30117 210.276 3.32731 210.427 2.99171C210.644 2.50778 211.355 2.47729 211.564 2.94307C211.722 3.29609 212.21 3.32464 212.789 3.01518C213.197 2.79717 214.083 3.05994 214.386 3.48845C214.688 3.91552 216 3.90511 216 3.47563C216 2.96751 215.365 2.62465 214.138 2.47028C213.527 2.39358 212.645 2.23751 212.178 2.12379C211.711 2.01007 211.137 1.91594 210.904 1.91449C210.67 1.91328 210.16 1.83852 209.771 1.74826C208.659 1.49082 206.084 1.14554 204.533 1.04585C203.755 0.995763 202.544 0.887605 201.844 0.805338C201.143 0.723071 198.467 0.600397 195.898 0.532406C193.328 0.464657 190.589 0.362791 189.811 0.306414C186.265 0.0489667 179.952 -0.0378973 179.509 0.164867C179.24 0.287541 178.867 0.306171 178.678 0.206725C178.489 0.107037 177.694 0.0956656 176.91 0.181562C176.127 0.267458 175.428 0.258747 175.358 0.162205C175.231 -0.0137016 141.638 -0.0679005 141.433 0.107522ZM179.335 0.905511C179.431 1.03859 179.375 1.14747 179.21 1.14747C179.045 1.14747 178.91 1.03859 178.91 0.905511C178.91 0.772432 178.966 0.663549 179.035 0.663549C179.104 0.663549 179.238 0.772432 179.335 0.905511ZM193.35 1.6314C193.183 1.89755 192.999 2.11532 192.941 2.11532C192.884 2.11532 192.903 1.89755 192.984 1.6314C193.066 1.36524 193.25 1.14747 193.393 1.14747C193.536 1.14747 193.517 1.36403 193.35 1.6314ZM169.85 1.6314C169.85 1.76448 169.794 1.87336 169.725 1.87336C169.656 1.87336 169.521 1.76448 169.425 1.6314C169.329 1.49832 169.385 1.38943 169.55 1.38943C169.715 1.38943 169.85 1.49832 169.85 1.6314ZM127.947 2.00861C127.947 2.21598 127.819 2.31857 127.664 2.2363C127.508 2.15403 127.381 1.98442 127.381 1.85908C127.381 1.73375 127.508 1.6314 127.664 1.6314C127.819 1.6314 127.947 1.80125 127.947 2.00861ZM212.741 3.329C212.643 3.46426 212.445 3.51241 212.3 3.4357C212.155 3.35925 212.036 3.41199 212.036 3.55281C212.036 3.92277 212.476 3.86761 212.886 3.44611C213.08 3.24649 213.166 3.08317 213.078 3.08317C212.991 3.08317 212.839 3.19374 212.741 3.329ZM78.9655 4.05101C78.9655 4.18409 78.9094 4.29298 78.8406 4.29298C78.7718 4.29298 78.637 4.18409 78.5408 4.05101C78.4445 3.91793 78.5008 3.80905 78.6656 3.80905C78.8304 3.80905 78.9655 3.91793 78.9655 4.05101ZM8.23496 15.2338C8.03196 15.4072 7.90002 15.4215 7.90002 15.2701C7.90002 14.947 8.23496 14.6608 8.42381 14.8224C8.50422 14.8911 8.41928 15.0762 8.23496 15.2338Z" fill="#4A3AFF"/>
</svg>
