<svg width="107" height="11" viewBox="0 0 107 11" fill="none" xmlns="http://www.w3.org/2000/svg">
<path fill-rule="evenodd" clip-rule="evenodd" d="M27.1787 0L28.0361 0.436204L40.3393 6.69568L52.6426 0.436204L53.5 0L54.3574 0.436204L66.6607 6.69568L78.9639 0.436204L79.8213 0L80.6787 0.436204L92.982 6.69568L105.285 0.436204L107 3.21812L93.8393 9.9138L92.982 10.35L92.1246 9.9138L79.8213 3.65432L67.518 9.9138L66.6607 10.35L65.8033 9.9138L53.5 3.65432L41.1967 9.9138L40.3393 10.35L39.482 9.9138L27.1787 3.65432L14.8754 9.9138L14.018 10.35L13.1607 9.9138L0 3.21812L1.71476 0.436204L14.018 6.69568L26.3213 0.436204L27.1787 0Z" fill="#4A3AFF"/>
</svg>
