<svg width="104" height="92" viewBox="0 0 104 92" fill="none" xmlns="http://www.w3.org/2000/svg">
<path d="M10.4498 63.2594C12.4917 67.5441 16.2799 71.5438 19.7803 74.7449C20.0939 75.0317 22.8335 76.966 23.1986 76.4163C23.7688 75.5577 22.058 72.7945 21.7258 72.1104C21.243 71.1161 20.7131 70.1139 20.3243 69.0782C20.1923 68.7266 19.8764 68.2985 20.3219 68.5194C23.3731 70.0323 31.618 75.5625 34.1035 70.8526C34.7288 69.6679 34.4082 67.9675 34.1985 66.7325C33.6171 63.3086 31.9277 60.0823 30.0393 57.2023C27.5266 53.3701 24.3699 49.7609 21.119 46.5332C20.4851 45.9039 19.3426 44.2603 18.6118 44.7027" stroke="#FFBC39" stroke-width="2" stroke-linecap="round"/>
<path d="M37.7682 60.3546C37.5472 59.8603 38.26 60.4082 38.3602 60.5014C38.8753 60.9805 39.5092 61.0397 40.1769 60.9169C43.374 60.3292 42.7113 56.606 41.6597 54.4078C39.471 49.8325 37.1148 56.5171 37.0113 58.5961C36.8925 60.9839 37.644 64.1864 39.6637 65.7028C41.8802 67.3671 43.9061 64.5722 45.2468 63.1513" stroke="#FFBC39" stroke-width="2" stroke-linecap="round"/>
<path d="M46.4344 60.9102C47.2289 60.4293 47.4361 58.691 47.7351 57.8824C48.7111 55.2431 48.7348 52.6145 48.3489 49.8372C47.2669 42.0508 45.0464 34.3141 42.124 27.0269C41.5348 25.5577 40.9508 23.7373 39.9691 22.4498C39.7873 22.2114 39.4664 22.1327 39.4089 22.4949C39.1167 24.3353 39.9891 26.709 40.3833 28.4726C41.5895 33.8693 43.3158 39.2384 45.328 44.384C47.0639 48.8233 49.3385 53.8121 52.6963 57.2742C54.5747 59.211 56.6617 60.027 59.1821 60.7563" stroke="#FFBC39" stroke-width="2" stroke-linecap="round"/>
<path d="M57.1858 44.545C55.0664 44.9326 54.2297 48.1244 54.8789 50.0612C56.1512 53.8574 59.3151 52.2759 61.5344 50.4891" stroke="#FFBC39" stroke-width="2" stroke-linecap="round"/>
<path d="M62.9533 42.8221C61.5053 43.6985 63.1919 47.3567 64.1328 48.305C65.7444 49.9293 68.3752 47.2391 68.5697 45.5913C68.841 43.293 67.2485 40.3156 65.1051 39.3557C62.1208 38.0193 61.7689 41.4346 62.0263 43.3832" stroke="#FFBC39" stroke-width="2" stroke-linecap="round"/>
<path d="M68.5282 38.7248C69.255 38.6972 69.9289 40.2088 70.2895 40.7085C70.9998 41.693 72.9455 44.7726 72.3169 43.734C71.2761 42.0144 70.3623 40.1383 69.9036 38.1722C69.6459 37.0677 69.2192 35.092 70.952 35.5512C72.8485 36.0538 74.0608 38.3227 75.3749 39.6169C75.8375 40.0726 77.5744 41.7433 77.6169 40.2184C77.7076 36.9675 76.317 33.6534 75.8238 30.4481C75.7751 30.1322 75.1489 26.4658 76.1905 26.7009C77.7406 27.0508 79.0142 29.8121 79.7796 30.9636C84.4211 37.946 86.4821 46.1478 89.9565 53.7053" stroke="#FFBC39" stroke-width="2" stroke-linecap="round"/>
<path d="M83.9373 30.8642C85.7058 29.3829 86.7553 26.7312 86.9737 24.5141C87.0948 23.2853 87.1729 20.8582 85.9876 20.0663C85.2269 19.5581 84.5097 20.7232 84.1188 21.1834C81.7623 23.9578 82.6279 28.7689 84.0729 31.735C86.7009 37.1296 91.7285 33.8725 95.2831 31.3118" stroke="#FFBC39" stroke-width="2" stroke-linecap="round"/>
</svg>
