<svg width="35" height="35" viewBox="0 0 35 35" fill="none" xmlns="http://www.w3.org/2000/svg">
<path d="M5.34482 0.0443192C4.90903 0.123035 4.42967 0.394951 4.17546 0.716957C3.81231 1.19639 3.76873 1.43253 3.76873 3.12128V4.68122L2.59211 4.70985C1.43728 4.73132 1.40096 4.73847 1.01602 4.94599C0.80539 5.06048 0.536656 5.26799 0.420446 5.40395C-0.0371282 5.95494 -0.00807582 5.12488 0.00645036 18.3987L0.0282396 30.4919L0.188028 30.7853C0.384131 31.1431 0.732759 31.4794 1.07412 31.6511C1.32107 31.7728 1.74959 31.7799 7.89416 31.8014L14.4455 31.8157V33.2397C14.4455 34.5349 14.46 34.678 14.5835 34.8283L14.7215 35H19.3844H24.0473L24.1853 34.8283C24.3087 34.678 24.3233 34.5349 24.3233 33.2397V31.8157H26.9961C29.9812 31.8157 30.1265 31.7942 30.5986 31.3434C30.7438 31.2075 30.9327 30.957 31.0271 30.7924C31.1796 30.5062 31.1869 30.3917 31.2087 28.796L31.2305 27.0929H32.3926C33.6345 27.0929 33.8306 27.05 34.31 26.6994C34.448 26.592 34.6586 26.313 34.7821 26.0697L35 25.6403L34.9927 13.5758C34.9927 4.53096 34.9709 1.454 34.9056 1.28226C34.7313 0.817139 34.3754 0.430729 33.9396 0.216057L33.5111 0.00854111L19.6023 0.00138474C11.9542 -0.00576782 5.54092 0.0156975 5.34482 0.0443192ZM33.6491 1.12484C34.0485 1.43253 34.0558 1.50409 34.0558 3.83685V5.98357H25.1004H16.145L15.0265 4.86727C14.4092 4.25188 13.8426 3.70805 13.7627 3.6508C13.6393 3.57209 13.1381 3.55062 11.0173 3.55062H8.4171L8.14111 3.79392L7.87237 4.03721L7.85058 5.01039L7.82153 5.98357H6.26723H4.71293V3.83685C4.71293 1.50409 4.72019 1.43253 5.11966 1.12484L5.31577 0.974564H19.3844H33.453L33.6491 1.12484ZM14.4164 5.59716C15.0265 6.22686 15.6003 6.76354 15.731 6.81363C15.9271 6.8995 17.5759 6.91381 25.0133 6.91381H34.0558V16.1805C34.0558 26.2986 34.0849 25.6761 33.6491 26.0124C33.4602 26.1627 33.4166 26.1627 28.6521 26.1555C25.2747 26.1555 23.902 26.1341 24.0327 26.0768C24.1344 26.041 24.3233 25.9623 24.454 25.9051C24.5775 25.8478 24.7518 25.7047 24.8389 25.5759C25.144 25.0893 25.144 25.075 22.4421 20.295C21.0767 17.8764 19.8928 15.837 19.8129 15.7654C19.5877 15.5865 19.1447 15.608 18.9268 15.8012C18.8251 15.8942 17.634 17.9479 16.2685 20.3737C13.5594 25.1895 13.6102 25.0893 13.9588 25.5974C14.0678 25.762 14.2566 25.8908 14.5181 25.9981L14.9176 26.1555L10.1167 26.1627C5.35208 26.1627 5.3085 26.1627 5.11966 26.0124C4.68388 25.6761 4.71293 26.2986 4.71293 16.1805V6.91381H6.34713C8.70763 6.91381 8.72942 6.8995 8.76573 5.43973L8.79478 4.48087H11.0681H13.3415L14.4164 5.59716ZM3.76873 15.6009C3.76873 26.5491 3.73968 25.8693 4.20451 26.4489C4.33525 26.6063 4.60398 26.8139 4.84367 26.9284L5.25766 27.1287L10.6106 27.1502L15.9635 27.1716L16.0797 27.5366C16.1378 27.7441 16.1886 27.9946 16.1886 28.109C16.1886 28.3094 16.1886 28.3094 15.7092 28.3094C14.6924 28.3094 14.4455 28.6457 14.4455 30.0125V30.8855H8.03942C3.05695 30.8855 1.58254 30.864 1.44454 30.7924C1.35012 30.7423 1.19033 30.5921 1.10318 30.4633L0.936125 30.22L0.950652 18.2127L0.972441 6.20539L1.19033 5.98357C1.48086 5.68303 1.69149 5.64009 2.81 5.63294L3.76873 5.62578V15.6009ZM18.8759 18.9211V20.0517L18.6217 20.1734C17.801 20.5598 17.6993 21.9694 18.4474 22.5347C19.4425 23.2718 20.837 22.6135 20.837 21.4041C20.837 20.9104 20.5973 20.4667 20.2124 20.2306L19.9 20.0446L19.8928 18.8996C19.8928 18.2699 19.9218 17.7905 19.9509 17.8263C20.0017 17.8835 23.6187 24.3094 23.9528 24.9319C24.0255 25.0679 24.0182 25.0965 23.9093 25.1323C22.631 25.5258 21.6432 26.7852 21.6359 28.0375V28.3094H19.3844H17.1328V28.0375C17.1328 27.6869 16.9585 27.0214 16.7624 26.6564C16.4501 26.0482 15.4914 25.2396 14.9466 25.1251C14.8231 25.0965 14.736 25.0536 14.7505 25.0249C14.8086 24.8747 18.8251 17.7905 18.8469 17.7905C18.8614 17.7905 18.8759 18.2986 18.8759 18.9211ZM19.7039 21.0177C19.9654 21.2181 19.9436 21.6117 19.6604 21.8192C19.1302 22.2056 18.5491 21.4184 19.0648 21.0177C19.3117 20.8245 19.457 20.8317 19.7039 21.0177ZM30.279 28.6314C30.279 30.3488 30.2499 30.4919 29.8214 30.7423C29.6035 30.8783 29.4365 30.8855 26.9598 30.8855H24.3233V30.0125C24.3233 28.6386 24.0836 28.3094 23.0885 28.3094H22.5583L22.6092 27.9087C22.631 27.6869 22.7036 27.4149 22.7617 27.3004L22.8779 27.0929H26.5748H30.279V28.6314ZM23.3791 31.6368V34.034H19.3844H15.3897V33.3685C15.3897 32.9964 15.4115 31.923 15.4405 30.9713L15.4841 29.2396H19.4352H23.3791V31.6368Z" fill="#4A3AFF"/>
<path d="M24.65 2.24828C24.1924 2.45579 23.8147 2.99963 23.8147 3.44328C23.8147 3.66511 23.9963 4.0873 24.1851 4.30197C24.8025 4.99607 25.9428 4.85296 26.3495 4.03721C26.7635 3.18568 26.2406 2.24828 25.2964 2.1481C25.0349 2.12663 24.8606 2.1481 24.65 2.24828ZM25.3981 3.16421C25.5869 3.29301 25.6014 3.522 25.4344 3.70804C25.1584 4.00858 24.6717 3.70804 24.8243 3.31448C24.9332 3.04256 25.1438 2.98532 25.3981 3.16421Z" fill="#4A3AFF"/>
<path d="M28.0128 2.19105C27.2574 2.41288 26.8652 3.34312 27.2211 4.03723C27.3881 4.36639 27.5552 4.51666 27.9038 4.65977C28.5357 4.91738 29.2765 4.63831 29.6034 4.01576C29.7486 3.74384 29.7486 3.14276 29.6034 2.85653C29.3129 2.30554 28.6156 2.01216 28.0128 2.19105ZM28.6374 3.16423C28.8989 3.41468 28.7318 3.83687 28.3832 3.83687C28.0418 3.83687 27.9111 3.35743 28.1871 3.16423C28.3904 3.02111 28.4994 3.02111 28.6374 3.16423Z" fill="#4A3AFF"/>
<path d="M31.114 2.25536C30.7653 2.41279 30.5402 2.64177 30.3877 2.9924C30.2424 3.33588 30.2497 3.59348 30.4167 3.94411C30.8162 4.81711 31.8984 5.03178 32.5666 4.37346C33.2348 3.71513 33.0169 2.64893 32.1308 2.25536C31.7604 2.09078 31.4771 2.09078 31.114 2.25536ZM31.8766 3.19276C31.9565 3.27148 32.0218 3.39312 32.0218 3.45752C32.0218 3.63642 31.804 3.83678 31.6151 3.83678C31.4481 3.83678 31.2229 3.60064 31.2229 3.4289C31.2229 3.3001 31.4916 3.04965 31.6224 3.04965C31.6805 3.04965 31.7967 3.11405 31.8766 3.19276Z" fill="#4A3AFF"/>
<path d="M18.0267 10.3556C17.9032 10.3914 17.7144 10.5202 17.6127 10.6418C17.4456 10.835 17.4238 10.9281 17.4238 11.3932V11.9227H14.0828C11.1195 11.9227 10.7418 11.9084 10.7418 11.8154C10.7418 11.6078 10.4658 11.1642 10.168 10.8994C9.23108 10.0694 7.7131 10.42 7.21921 11.5864C7.05942 11.9656 7.08121 12.6669 7.26279 13.039C7.42984 13.3896 7.88741 13.8261 8.24331 13.9692C8.54109 14.0909 9.2093 14.098 9.58698 13.9835C9.95013 13.8762 10.415 13.4898 10.6038 13.132L10.7418 12.8529H12.9934C14.2354 12.8529 15.2449 12.8673 15.2449 12.8816C15.2449 12.8959 15.027 13.0318 14.7583 13.1749C12.7973 14.2412 11.1921 16.1875 10.4585 18.4201L10.2479 19.0426L9.71771 19.0784C8.69362 19.15 8.63551 19.2573 8.63551 21.0534V22.3844L8.91877 22.6634L9.20203 22.9425H10.553C12.514 22.9425 12.5721 22.8996 12.6157 21.3038C12.6593 19.9514 12.6012 19.6079 12.3034 19.3146C12.0855 19.0999 12.0201 19.0784 11.657 19.0784H11.2502L11.2938 18.8781C11.3229 18.7707 11.4391 18.4416 11.5553 18.1482C12.4414 15.9084 14.3733 14.098 16.6903 13.3181C17.373 13.0891 17.4238 13.0962 17.4238 13.3324C17.4238 13.6186 17.5691 13.8619 17.8524 14.0479C18.0848 14.2054 18.1647 14.2125 19.3558 14.2125C20.0458 14.2125 20.6922 14.1839 20.7867 14.1481C21.0627 14.0408 21.2733 13.7832 21.3604 13.4397C21.4331 13.1463 21.4476 13.132 21.6655 13.1821C21.789 13.2107 22.1884 13.3467 22.5516 13.497C24.3819 14.2197 26.0233 15.7081 26.9094 17.4398C27.2 18.0122 27.5195 18.8351 27.5195 19.0069C27.5195 19.0426 27.3597 19.0784 27.1636 19.0784C26.7206 19.0784 26.401 19.3146 26.2848 19.7081C26.1831 20.0731 26.1977 22.0552 26.3066 22.37C26.3574 22.506 26.5027 22.6849 26.6407 22.7779C26.8731 22.9353 26.953 22.9425 28.2604 22.9425H29.6258L29.9018 22.6992L30.1706 22.4559L30.1923 21.125C30.2214 19.2859 30.1125 19.0784 29.052 19.0784H28.5436L28.4202 18.6634C28.3548 18.4416 28.1877 17.9836 28.0425 17.6473C27.2871 15.8727 26.0814 14.463 24.4545 13.4326C24.1131 13.2107 23.7645 12.9961 23.6919 12.946C23.5902 12.8816 24.0478 12.8601 25.8272 12.8601C28.0788 12.8529 28.0933 12.8529 28.1369 13.0032C28.2168 13.2537 28.7688 13.7975 29.0811 13.9335C29.2699 14.0193 29.5459 14.0694 29.8437 14.0694C30.708 14.0694 31.3908 13.59 31.6232 12.8243C31.7612 12.3735 31.7612 12.1803 31.6159 11.7152C31.2455 10.4772 29.5822 10.0264 28.6017 10.8994C28.3039 11.1642 28.0279 11.6078 28.0279 11.8154C28.0279 11.9084 27.6503 11.9227 24.6869 11.9227H21.3459V11.429C21.3459 10.8422 21.1571 10.5059 20.7649 10.3699C20.4598 10.2697 18.3753 10.2554 18.0267 10.3556ZM20.409 11.4719C20.409 11.6222 20.4308 12.0873 20.4453 12.5095L20.4816 13.2823H19.4357H18.3898L18.339 12.3091C18.3172 11.7796 18.3099 11.3145 18.3317 11.2715C18.3608 11.2358 18.8256 11.2071 19.3921 11.2071H20.4017L20.409 11.4719ZM9.44171 11.5148C9.96466 11.8583 9.99371 12.6955 9.48529 12.9961C9.05677 13.2537 8.43215 13.1392 8.17067 12.7528C8.10531 12.6526 8.05446 12.4379 8.05446 12.2733C8.05446 11.5291 8.82435 11.1069 9.44171 11.5148ZM30.2359 11.4576C30.5482 11.6007 30.7153 11.9084 30.7153 12.3163C30.7153 12.6025 30.679 12.6884 30.4683 12.8959C30.2505 13.1105 30.1778 13.1392 29.8437 13.1392C29.5096 13.1392 29.437 13.1105 29.2264 12.903C28.914 12.5953 28.8487 12.3377 28.9794 11.9656C29.161 11.4433 29.7202 11.2214 30.2359 11.4576ZM11.6497 20.9747C11.6787 21.5114 11.6933 21.955 11.6787 21.9693C11.6642 21.9836 11.1849 22.0123 10.6183 22.0337L9.57971 22.0767V21.8047C9.57971 21.6545 9.55792 21.1894 9.52887 20.7743L9.48529 20.0087H10.5384H11.5989L11.6497 20.9747ZM29.2627 21.0033V21.9908L28.2676 22.0337C27.7156 22.0552 27.2435 22.0552 27.2145 22.0409C27.1854 22.0194 27.1564 21.5543 27.1564 21.0033V20.0087H28.2095H29.2627V21.0033Z" fill="#4A3AFF"/>
</svg>
