<svg width="35" height="31" viewBox="0 0 35 31" fill="none" xmlns="http://www.w3.org/2000/svg">
<path d="M3.07657 0.205254C1.59982 0.519747 0.335004 1.81191 0.075205 3.26815C0.0205105 3.54846 0 7.42494 0 15.5744C0 25.522 0.0205105 27.5525 0.0957154 27.9286C0.341841 29.0635 1.15542 30.0958 2.20145 30.5812C2.51595 30.7317 2.9535 30.8821 3.17228 30.9231C3.74658 31.0256 31.2579 31.0256 31.8322 30.9231C33.309 30.6564 34.5943 29.4053 34.9088 27.9286C34.984 27.5525 35.0045 25.522 35.0045 15.5744C35.0045 7.42494 34.984 3.54846 34.9293 3.26815C34.731 2.17426 33.8833 1.03935 32.8783 0.547094C31.9006 0.0685177 32.9193 0.0958652 17.4681 0.102701C5.77711 0.102701 3.44576 0.123213 3.07657 0.205254ZM31.5861 1.32649C32.4749 1.49741 33.1996 2.05803 33.5893 2.88529L33.8081 3.34335L33.8286 5.7841L33.8491 8.23168H17.5023H1.15542L1.17593 5.7841L1.19644 3.34335L1.41522 2.88529C1.79125 2.08538 2.52962 1.49741 3.36371 1.33333C3.79443 1.24445 31.1417 1.24445 31.5861 1.32649ZM33.8422 18.4049C33.8422 28.3524 33.8628 27.8465 33.4115 28.5575C33.1107 29.0224 32.7552 29.3301 32.2014 29.5899L31.757 29.8018H17.5023H3.24749L2.80309 29.5899C2.24931 29.3301 1.8938 29.0224 1.59298 28.5575C1.14175 27.8465 1.16226 28.3524 1.16226 18.4049V9.39394H17.5023H33.8422V18.4049Z" fill="#4A3AFF"/>
<path d="M3.90364 2.97455C2.75506 3.19333 2.11923 4.46498 2.62516 5.53152C3.16526 6.67327 4.6762 6.9194 5.55815 6.0101C5.8453 5.71612 6.08459 5.13499 6.08459 4.74529C6.08459 4.30089 5.8453 3.76762 5.49662 3.44629C5.02488 3.00873 4.51212 2.85833 3.90364 2.97455ZM4.73773 4.34191C4.936 4.55386 4.97018 4.77263 4.84712 5.04611C4.74457 5.27172 4.36171 5.44948 4.10874 5.39478C3.52762 5.26489 3.42506 4.4513 3.95834 4.18467C4.25916 4.03426 4.49161 4.08212 4.73773 4.34191Z" fill="#4A3AFF"/>
<path d="M9.16152 3.11055C8.48467 3.41137 8.06763 4.05403 8.06763 4.77873C8.07446 6.39222 10.0093 7.18529 11.151 6.04354C12.2928 4.90179 11.4929 2.96697 9.87938 2.96697C9.61275 2.96697 9.35979 3.02167 9.16152 3.11055ZM10.3511 4.34118C10.5972 4.63516 10.5904 4.96333 10.3306 5.22996C10.1802 5.37353 10.064 5.42823 9.87938 5.42823C9.31193 5.42823 9.01111 4.71036 9.40764 4.30699C9.68112 4.04035 10.1118 4.05403 10.3511 4.34118Z" fill="#4A3AFF"/>
<path d="M14.8426 3.08298C14.6649 3.14451 14.3983 3.32911 14.2205 3.50687C13.0787 4.64861 13.8718 6.58343 15.4853 6.59027C16.4972 6.59027 17.2971 5.79036 17.2971 4.77851C17.2971 3.5137 16.0459 2.6591 14.8426 3.08298ZM15.9365 4.32728C16.2032 4.60076 16.2168 4.99046 15.957 5.25025C15.5537 5.64679 14.8358 5.34597 14.8358 4.77851C14.8358 4.42984 15.1366 4.12902 15.4853 4.12902C15.6699 4.12902 15.7861 4.18371 15.9365 4.32728Z" fill="#4A3AFF"/>
<path d="M18.1519 12.8946C17.9878 13.045 17.8989 13.4142 16.7777 18.74C15.6906 23.9018 15.5881 24.4488 15.6701 24.6197C15.8616 25.0162 16.3675 25.0641 16.6205 24.7017C16.7025 24.5992 17.1469 22.596 17.9058 18.993C18.5484 15.9438 19.0749 13.4005 19.0749 13.339C19.0749 13.1407 18.9245 12.8946 18.7535 12.8194C18.5074 12.71 18.3502 12.7305 18.1519 12.8946Z" fill="#4A3AFF"/>
<path d="M13.4685 15.1846C13.0925 15.4512 9.63308 18.4389 9.57154 18.5552C9.44164 18.7944 9.49634 19.0201 9.72879 19.2525C10.098 19.6217 13.4002 22.4111 13.5848 22.5068C13.7899 22.6162 14.1864 22.5068 14.2889 22.3154C14.412 22.083 14.3642 21.7821 14.1727 21.5702C14.0633 21.4608 13.3181 20.8113 12.5114 20.1276C11.7046 19.4371 11.0346 18.856 11.0209 18.8286C11.0141 18.8013 11.6978 18.186 12.5456 17.4681C13.3933 16.7434 14.1522 16.0871 14.2206 16.005C14.412 15.7999 14.3983 15.4444 14.1864 15.2393C13.9881 15.041 13.7078 15.0205 13.4685 15.1846Z" fill="#4A3AFF"/>
<path d="M20.8182 15.2393C20.6062 15.4444 20.5926 15.7999 20.784 16.005C20.8524 16.0871 21.6113 16.7434 22.459 17.4681C23.3068 18.186 23.9905 18.8013 23.9836 18.8286C23.97 18.856 23.3 19.4371 22.4932 20.1276C21.6865 20.8113 20.9413 21.4608 20.8387 21.5702C20.6404 21.7821 20.5926 22.083 20.7156 22.3154C20.8182 22.5068 21.2147 22.6162 21.4198 22.5068C21.6044 22.4111 24.9066 19.6217 25.2758 19.2525C25.5082 19.0201 25.5629 18.7944 25.433 18.5552C25.3715 18.4389 21.9121 15.4512 21.5361 15.1846C21.2968 15.0205 21.0165 15.041 20.8182 15.2393Z" fill="#4A3AFF"/>
</svg>
