<svg width="35" height="35" viewBox="0 0 35 35" fill="none" xmlns="http://www.w3.org/2000/svg">
<path d="M19.6577 0.0193138C19.6029 0.0329676 19.3221 0.0807562 19.0413 0.121718C17.2741 0.408451 15.5207 1.49394 14.3769 3.00953C13.8495 3.70588 13.3358 4.75723 13.1029 5.61743C12.9385 6.23186 12.918 6.41619 12.918 7.49485C12.918 8.57351 12.9385 8.75784 13.1029 9.37227C13.6645 11.4681 15.1234 13.2568 17.055 14.2331C17.6303 14.5266 18.5892 14.8338 19.2604 14.9362C20.0276 15.0591 21.5276 14.9909 22.2604 14.7997C23.5755 14.4515 24.6303 13.8644 25.6303 12.9018C26.6371 11.9392 27.3563 10.7172 27.7193 9.37227C27.8837 8.75784 27.9043 8.57351 27.9043 7.49485C27.9043 6.42301 27.8837 6.23186 27.7193 5.63791C26.9728 2.85251 24.7673 0.7498 21.9591 0.149026C21.5139 0.0534487 19.8974 -0.0421295 19.6577 0.0193138ZM21.9522 1.55538C24.5755 2.23125 26.4248 4.51146 26.555 7.22177C26.7673 11.673 22.3358 14.8338 18.1371 13.2227C16.2673 12.499 14.7878 10.7513 14.3769 8.75784C13.6782 5.39214 15.8974 2.09471 19.2947 1.45298C20.0139 1.31644 21.2262 1.36423 21.9522 1.55538Z" fill="#4A3AFF"/>
<path d="M19.9178 2.83204C19.6643 2.98906 19.589 3.19387 19.589 3.7332C19.589 4.19061 19.5822 4.20426 19.3767 4.28619C19.2602 4.33397 19.0205 4.5183 18.8424 4.6958C17.8356 5.66523 18.1027 7.33784 19.363 7.96592C19.5205 8.04102 19.863 8.1366 20.1164 8.17756C20.5068 8.22535 20.6164 8.27314 20.7739 8.45064C20.9794 8.68276 21.0068 8.90805 20.8561 9.20161C20.6096 9.67949 19.9794 9.65901 19.5205 9.16747C19.1301 8.75102 18.6712 8.69641 18.3493 9.03776C18.1164 9.28353 18.1301 9.64536 18.3835 9.97305C18.5822 10.2325 19.3287 10.7718 19.4863 10.7718C19.5479 10.7718 19.5822 10.9357 19.5959 11.3589C19.6232 11.8983 19.6369 11.9529 19.815 12.1099C19.9452 12.2191 20.089 12.2737 20.2739 12.2737C20.4589 12.2737 20.6027 12.2191 20.7328 12.1099C20.9109 11.9597 20.9246 11.8983 20.9452 11.3658C20.9726 10.8264 20.9863 10.7786 21.1232 10.7445C21.2123 10.724 21.4246 10.5807 21.6027 10.4236C22.9315 9.25622 22.315 7.13303 20.5685 6.86678C19.9863 6.77803 19.8082 6.69611 19.6849 6.45716C19.5274 6.15678 19.5685 5.93149 19.8219 5.67889C20.1575 5.34437 20.5137 5.38533 21.0479 5.82908C21.5342 6.23187 22.2945 5.78812 22.1575 5.17369C22.1027 4.93475 21.6849 4.53878 21.2671 4.3408L20.9589 4.19061V3.71955C20.9589 3.2007 20.8424 2.91396 20.5685 2.79108C20.3424 2.68867 20.1369 2.70233 19.9178 2.83204Z" fill="#4A3AFF"/>
<path d="M31.5 14.6496C30.9658 14.8271 30.6164 15.0866 29.8288 15.9058C29.4521 16.2881 28.4863 17.278 27.6849 18.0972L26.226 19.5924L25.9178 19.3056C25.5205 18.937 24.9726 18.6912 24.3973 18.6161C24.1438 18.5888 22.2466 18.5615 20.1781 18.5547H16.4178L15.7808 18.3498C14.8151 18.0426 14.0685 17.9334 12.9452 17.9334C11.0137 17.9334 9.4589 18.3772 7.9589 19.3466C7.19178 19.845 6.15753 20.8758 5.66438 21.6336L5.28082 22.2207L4.80137 22.2549C3.9863 22.3163 3.85616 22.4119 1.83562 24.4259L0 26.2487V26.5695V26.8972L3.94521 30.8705C6.11644 33.0483 7.9589 34.8711 8.0411 34.9189C8.23288 35.0281 8.4589 35.0281 8.68493 34.9121C8.78767 34.8575 9.69178 33.9904 10.6918 32.9801C12.774 30.891 12.774 30.8842 12.7329 29.9011L12.7055 29.3754L13.226 28.8975C14.0548 28.1261 13.6233 28.1807 19.2466 28.1807C22.2123 28.1807 24.3014 28.1534 24.6507 28.1124C25.8014 27.9622 26.9726 27.4639 27.8562 26.7334C28.363 26.3169 34.637 18.8141 34.8356 18.384C34.9795 18.0904 35 17.9334 35 17.2575C35 16.5339 34.9863 16.4383 34.8082 16.0628C34.5411 15.5098 34.0753 15.0456 33.5068 14.7793C32.9178 14.5063 32.1027 14.4516 31.5 14.6496ZM32.9726 16.0492C33.4178 16.3018 33.6507 16.6499 33.6849 17.1073C33.7055 17.3668 33.6781 17.5852 33.6096 17.7491C33.4795 18.0563 27.7055 24.972 27.089 25.5591C26.589 26.037 25.9521 26.392 25.2055 26.6173C24.6986 26.7743 24.6507 26.7743 19.3493 26.8153C15.6507 26.8426 13.9384 26.8767 13.7877 26.9314C13.3151 27.0952 12.7397 27.457 12.2808 27.8735L11.8014 28.3104L9.12329 25.6342L6.43836 22.9581L6.76712 22.446C8.08219 20.4116 10.2603 19.2988 12.9315 19.2988C13.9795 19.2988 14.637 19.4012 15.4521 19.6948L15.9932 19.8859L20.2055 19.92C24.4041 19.9542 24.4178 19.9542 24.7055 20.1044C25.6918 20.6301 25.6918 22.0091 24.7055 22.5348C24.4247 22.685 24.3699 22.685 21.2808 22.7191L18.137 22.7532L17.9726 22.9444C17.7397 23.2175 17.7534 23.5452 18.0068 23.8251L18.2055 24.0504L21.0616 24.0709C24.1164 24.0913 24.6507 24.0572 25.2329 23.7909C26.1849 23.354 26.9247 22.1593 26.8425 21.1899C26.8219 20.9646 26.9315 20.8349 29.1301 18.5751C30.4932 17.1824 31.5616 16.1379 31.726 16.0423C32.1027 15.8375 32.6096 15.8375 32.9726 16.0492ZM8.30137 26.7265L11.3699 29.785V30.0922V30.3995L9.90411 31.8468C9.09589 32.6455 8.41096 33.3009 8.37671 33.3009C8.34931 33.3009 6.80822 31.7922 4.96575 29.9557L1.60959 26.6105L3.13014 25.0949L4.65068 23.5861L4.93836 23.6271C5.21918 23.6612 5.37671 23.8114 8.30137 26.7265Z" fill="#4A3AFF"/>
<path d="M15.2673 22.6849C14.9043 22.8829 14.8495 23.4018 15.1509 23.7226C15.4454 24.0367 16.007 23.9752 16.1988 23.5998C16.5344 22.9512 15.9043 22.3368 15.2673 22.6849Z" fill="#4A3AFF"/>
</svg>
