<svg width="38" height="36" viewBox="0 0 38 36" fill="none" xmlns="http://www.w3.org/2000/svg">
<path d="M28.289 0.141514C28.0296 0.298701 27.9353 0.534482 27.4874 2.23996C27.1022 3.7018 27.0629 4.0319 27.2751 4.30697C27.5581 4.67636 28.3362 4.63707 28.5484 4.25196C28.7213 3.92187 29.4915 0.785982 29.4443 0.597357C29.3815 0.322279 28.9806 4.57764e-05 28.7213 4.57764e-05C28.6034 4.57764e-05 28.4148 0.0629206 28.289 0.141514Z" fill="#4A3AFF"/>
<path d="M21.6574 0.808647C21.2218 0.885067 20.7556 1.11433 20.4729 1.40472C20.3506 1.527 17.9739 4.5303 15.1846 8.07618L10.118 14.5337L7.0841 16.2837C5.41814 17.2389 3.76747 18.2095 3.42358 18.4387C2.30785 19.1647 1.57422 20.1429 1.17684 21.442C1.024 21.9158 0.993432 22.1756 1.00107 22.9704C1.00107 23.8034 1.03164 24.0021 1.21505 24.537C1.98689 26.8067 3.97381 28.2434 6.32754 28.2434C6.87776 28.2434 7.27515 28.1746 8.19983 27.9224C8.25332 27.9071 9.05573 29.2139 10.2402 31.262C12.3953 34.9913 12.6475 35.3428 13.4728 35.7478C13.9542 35.9847 14.0307 36 14.7872 36C15.4979 36 15.6431 35.9771 16.0252 35.7937C16.5449 35.5568 17.1486 35.0065 17.4237 34.548C17.8669 33.7838 17.951 32.7598 17.63 31.9421C17.546 31.7358 16.9728 30.6888 16.3538 29.6189C15.7348 28.5491 15.2152 27.6397 15.1922 27.5862C15.177 27.5403 15.6278 27.2346 16.201 26.906C16.7665 26.5851 17.2861 26.2412 17.3473 26.1571C17.5689 25.8362 17.4925 25.4923 16.9652 24.5752C16.4837 23.7346 16.415 23.5818 16.5143 23.5818C16.5372 23.5818 19.2654 23.0468 22.5744 22.4049C25.8757 21.7553 29.2917 21.0828 30.1705 20.9147C31.0417 20.739 31.8518 20.5555 31.9664 20.4944C32.3179 20.311 32.83 19.7684 32.9904 19.4016C33.1815 18.966 33.2503 18.2935 33.1356 17.8808C33.0898 17.7051 32.5472 16.6887 31.9358 15.6265C31.3245 14.5566 30.7208 13.5096 30.5985 13.288L30.3692 12.8983L31.2098 11.6373C31.6684 10.9419 32.0658 10.2694 32.0963 10.1472C32.1498 9.87205 32.1422 9.85676 31.164 8.16788C30.7666 7.4801 30.3463 6.85346 30.2393 6.76176C30.0483 6.60892 29.9718 6.60127 29.2688 6.64713C28.8485 6.67005 28.1301 6.70826 27.664 6.73883L26.8233 6.78468L25.4096 4.31632C24.6301 2.95605 23.8659 1.69512 23.6978 1.51935C23.1934 0.961487 22.3986 0.686375 21.6574 0.808647ZM22.4903 2.4746C22.6967 2.62744 31.5919 18.0108 31.6531 18.3241C31.7448 18.7979 31.378 19.18 30.7666 19.2411L30.5144 19.264L25.8222 11.1406C22.2076 4.88183 21.1454 2.98661 21.1988 2.88727C21.2906 2.71915 21.6726 2.36761 21.8178 2.31412C21.986 2.25298 22.284 2.32176 22.4903 2.4746ZM24.5537 12.0042C26.9533 16.1614 28.9096 19.5697 28.902 19.585C28.8638 19.6156 15.6049 22.2139 15.5896 22.1909C15.4444 21.9999 11.5776 15.2062 11.5929 15.1679C11.6616 14.9692 20.0908 4.32396 20.1366 4.37746C20.1672 4.40802 22.1541 7.83928 24.5537 12.0042ZM29.9336 9.09256L30.4609 10.002L30.0177 10.6745C29.7732 11.0489 29.5439 11.3469 29.5133 11.3317C29.4828 11.324 29.0625 10.6362 28.581 9.80327C27.5875 8.09146 27.5875 8.2443 28.6192 8.19845C28.9325 8.18317 29.2382 8.17552 29.2994 8.17552C29.3528 8.18317 29.6432 8.58819 29.9336 9.09256ZM12.2959 19.5315C13.3276 21.3121 14.1606 22.7794 14.1529 22.787C14.1071 22.8329 8.2686 26.1877 8.01642 26.3176C5.7926 27.4486 3.04913 26.0807 2.56004 23.5971C2.30021 22.2979 2.87336 20.7619 3.90503 19.9595C4.43997 19.5544 10.3014 16.169 10.3702 16.2302C10.3931 16.2607 11.2643 17.7433 12.2959 19.5315ZM15.3527 24.8274L15.6966 25.4158L15.5285 25.5228C14.558 26.1189 14.3898 26.1953 14.3211 26.096C14.13 25.8132 13.6256 24.8656 13.6486 24.8503C13.8396 24.6975 14.9171 24.1396 14.9477 24.1778C14.9783 24.2084 15.1617 24.4988 15.3527 24.8274ZM14.2523 29.0229C16.3156 32.607 16.4226 32.8515 16.2545 33.4323C15.9182 34.5251 14.4739 34.8919 13.6944 34.0666C13.5263 33.8832 9.81229 27.5327 9.71294 27.2499C9.68237 27.1659 10.0415 26.9213 10.9509 26.394C11.654 25.989 12.2424 25.6527 12.2654 25.6527C12.2883 25.6527 13.1824 27.1659 14.2523 29.0229Z" fill="#4A3AFF"/>
<path d="M6.91176 22.8786C6.68384 23.0122 6.52665 23.413 6.57381 23.7038C6.66812 24.1754 7.28115 24.4426 7.72914 24.2068C8.14568 23.9789 8.20856 23.2558 7.82345 22.9493C7.60339 22.7764 7.14754 22.745 6.91176 22.8786Z" fill="#4A3AFF"/>
<path d="M4.06658 24.5291C3.89368 24.6234 3.54 24.8199 3.28851 24.9692C3.03701 25.1186 2.72263 25.26 2.60474 25.2836C2.31394 25.3386 1.94456 25.1893 1.78737 24.9378C1.62232 24.6942 1.1822 24.5055 0.922838 24.5684C0.435558 24.6863 0.184059 25.3622 0.466996 25.7788C1.00929 26.5961 1.8974 26.9891 2.8641 26.8476C3.28851 26.7848 4.84466 25.9438 5.15117 25.6137C5.44983 25.2915 5.44197 24.9064 5.13546 24.592C4.85252 24.3091 4.51457 24.2933 4.06658 24.5291Z" fill="#4A3AFF"/>
<path d="M33.9717 4.58192C31.331 6.05162 31.4017 6.00446 31.3074 6.34241C31.1659 6.85327 31.4881 7.30911 31.9911 7.30911C32.4077 7.30911 36.8325 4.87271 37.0526 4.51904C37.3669 4.01604 37.0133 3.37943 36.4238 3.37943C36.1959 3.37943 35.6615 3.63879 33.9717 4.58192Z" fill="#4A3AFF"/>
<path d="M31.8103 10.9559C31.4487 11.3175 31.4723 11.8362 31.8574 12.1191C31.9674 12.1977 32.777 12.4649 33.6572 12.7007C34.9383 13.0465 35.3234 13.1173 35.5356 13.0701C36.0936 12.9365 36.3215 12.2134 35.9286 11.8205C35.7635 11.6633 35.3863 11.5297 34.1366 11.1917C32.329 10.7123 32.0853 10.6809 31.8103 10.9559Z" fill="#4A3AFF"/>
</svg>
