<svg width="28" height="35" viewBox="0 0 28 35" fill="none" xmlns="http://www.w3.org/2000/svg">
<path d="M1.47625 0.115547C0.945386 0.304621 0.487242 0.704588 0.23999 1.20636L0.0363701 1.62087L0.0145537 14.2089C9.43616e-06 26.4406 9.43802e-06 26.8042 0.13818 26.9715C0.327255 27.2042 0.763583 27.2042 0.952658 26.9715C1.08356 26.8115 1.09083 26.4479 1.09083 16.0124V5.22057H10.0719H19.053V6.63863C19.053 8.14396 19.0893 8.34758 19.3948 8.48575C19.642 8.6021 19.7366 8.58756 19.9547 8.41303L20.1438 8.26759V5.00968C20.1438 1.35181 20.1438 1.34453 19.6202 0.74822C19.4602 0.566418 19.1548 0.326437 18.9512 0.217356L18.5803 0.0210094L10.2173 0.006464C2.32709 -0.00807953 1.83259 -0.00807953 1.47625 0.115547ZM18.4785 1.22091C18.9948 1.48998 19.053 1.67178 19.053 2.98076V4.12975H10.0719H1.09083V3.03166C1.09083 1.7445 1.17809 1.4827 1.70169 1.22091C1.99257 1.07547 2.12347 1.07547 10.0937 1.07547C18.0931 1.07547 18.1876 1.07547 18.4785 1.22091Z" fill="#4A3AFF"/>
<path d="M9.80311 2.13008C9.53404 2.27552 9.46132 2.63185 9.65767 2.88638L9.79584 3.07545L11.4393 3.09727C13.0101 3.11181 13.0974 3.10454 13.2356 2.96637C13.4537 2.74821 13.4319 2.36278 13.1919 2.17371C13.0101 2.02827 12.9083 2.02099 11.4975 2.02099C10.334 2.02827 9.95583 2.05008 9.80311 2.13008Z" fill="#4A3AFF"/>
<path d="M11.1047 6.66073C10.9665 6.81345 7.70862 14.9728 7.70862 15.1691C7.70862 15.54 8.21767 15.8018 8.53764 15.5909C8.66854 15.5109 9.09032 14.5146 10.3557 11.344C11.2574 9.06781 11.9992 7.11888 11.9992 7.01707C11.9992 6.60256 11.381 6.3553 11.1047 6.66073Z" fill="#4A3AFF"/>
<path d="M6.14505 8.27482C6.06506 8.3039 5.43238 8.90022 4.7488 9.59834C3.69434 10.6601 3.49072 10.9001 3.49072 11.0819C3.49072 11.2564 3.70161 11.5109 4.78516 12.6235C6.17414 14.0562 6.25413 14.1071 6.64683 13.7944C6.785 13.6853 6.8359 13.5835 6.8359 13.3798C6.8359 13.1399 6.74864 13.0308 5.81781 12.1L4.80698 11.0746L5.81781 10.0492C6.74137 9.12565 6.8359 9.00203 6.8359 8.76932C6.8359 8.39117 6.47957 8.13665 6.14505 8.27482Z" fill="#4A3AFF"/>
<path d="M13.6208 8.2749C13.4245 8.35489 13.3081 8.56578 13.3081 8.82758C13.3081 8.98757 13.519 9.23482 14.3262 10.0566L15.3516 11.0819L14.3262 12.1437C13.2208 13.2999 13.1481 13.4308 13.4899 13.7654C13.8462 14.129 13.9481 14.0635 15.3588 12.6527C16.5151 11.4964 16.6533 11.3365 16.6533 11.1183C16.6533 10.9074 16.5151 10.7329 15.4752 9.64206C14.4207 8.5367 14.028 8.19491 13.839 8.20945C13.8099 8.20945 13.7081 8.23854 13.6208 8.2749Z" fill="#4A3AFF"/>
<path d="M18.0421 12.4855C17.9694 12.5582 17.8894 12.7691 17.8676 12.9728C17.8458 13.1691 17.8022 13.5109 17.7803 13.7363L17.7294 14.1363L17.2713 14.3399L16.8132 14.5363L16.1732 14.0999C15.7951 13.8309 15.4605 13.6563 15.3515 13.6563C15.206 13.6563 14.9515 13.8672 14.2461 14.5799C13.737 15.0962 13.308 15.5689 13.2862 15.6416C13.2207 15.8307 13.3225 16.0416 13.7734 16.6015C13.9988 16.8779 14.1806 17.1397 14.1806 17.1833C14.1806 17.2342 13.9261 17.9251 13.8461 18.0778C13.8461 18.0851 13.5116 18.1505 13.1044 18.2232C12.0281 18.4196 12.0717 18.3396 12.0717 19.9831C12.0717 21.6411 12.0208 21.5611 13.1044 21.6993C13.5189 21.7502 13.8534 21.7938 13.8607 21.7938C13.8679 21.8011 13.9552 22.012 14.0643 22.2665L14.2606 22.7319L13.8534 23.2992C13.4316 23.8955 13.3371 24.0991 13.4098 24.3245C13.4316 24.4045 13.8607 24.8627 14.3479 25.3499C15.4533 26.4407 15.4315 26.4334 16.3041 25.7644L16.9222 25.2917L17.3513 25.4808C17.584 25.5826 17.8022 25.699 17.824 25.7426C17.8531 25.779 17.9112 26.1135 17.9622 26.4771C18.0858 27.2988 18.2167 27.4734 18.7257 27.4734H19.053V28.0915V28.7096H9.68647H0.312701L0.159987 28.8769C0 29.0441 0 29.0878 0 31.1312C0 33.0365 0.0145443 33.2474 0.145443 33.6038C0.34179 34.1346 0.71994 34.5491 1.22172 34.7964L1.63623 35H10.0719H18.5076L18.893 34.8255C19.1184 34.7237 19.402 34.5128 19.5911 34.3019C20.1365 33.691 20.1438 33.6547 20.1438 30.3677V27.4734H20.5728C21.2273 27.4734 21.3001 27.3861 21.4237 26.4189C21.4819 25.9826 21.5328 25.6262 21.5473 25.619C21.9473 25.4372 22.4272 25.2845 22.5072 25.3135C22.5581 25.3354 22.8272 25.5172 23.1035 25.7135C23.3726 25.9099 23.6708 26.0989 23.758 26.1207C24.0198 26.2007 24.2962 25.9971 25.1543 25.1026C26.1506 24.0482 26.1433 24.0555 25.4961 23.2264L25.0234 22.6229L25.2125 22.1502L25.3943 21.6848L26.1215 21.5684C27.2196 21.3866 27.1978 21.4302 27.1978 19.8304C27.1978 18.1941 27.2341 18.2523 26.1433 18.0996L25.3652 17.9832L25.1834 17.5251L25.0016 17.067L25.4452 16.4052C25.8088 15.8743 25.8888 15.6998 25.8524 15.5544C25.7942 15.3144 24.1071 13.6054 23.8744 13.5473C23.6562 13.4963 23.4962 13.5836 22.8927 14.0636C22.6236 14.2817 22.3763 14.4563 22.34 14.4563C22.3036 14.4563 22.0854 14.3763 21.8455 14.2817L21.4164 14.1072L21.2928 13.3654C21.2201 12.9146 21.1183 12.5655 21.0455 12.4855C20.9292 12.3619 20.7983 12.3474 19.5475 12.3474C18.3112 12.3474 18.1658 12.3619 18.0421 12.4855ZM20.282 13.9981C20.4274 14.929 20.471 14.9871 21.1255 15.1908C21.2855 15.2344 21.6055 15.3726 21.8309 15.4816C22.0636 15.598 22.3327 15.6925 22.4272 15.6925C22.5363 15.6925 22.8199 15.518 23.169 15.2489L23.7289 14.8053L24.1653 15.2417L24.6089 15.6853L24.1944 16.2888C23.9689 16.6234 23.7799 16.9506 23.7799 17.0233C23.7799 17.096 23.8744 17.336 23.9907 17.5687C24.1071 17.7942 24.2598 18.1723 24.3325 18.4123C24.4053 18.645 24.5289 18.8777 24.6161 18.9359C24.6961 18.9868 25.067 19.0668 25.4379 19.1177L26.1069 19.205V19.8376V20.4703L25.4452 20.5648C25.0816 20.6158 24.7252 20.7103 24.6452 20.7757C24.5652 20.8412 24.4053 21.1612 24.2962 21.4957C24.1798 21.8229 24.0344 22.172 23.9689 22.2738C23.758 22.601 23.8162 22.8628 24.2525 23.4155C24.4707 23.6919 24.6525 23.9464 24.6525 23.9755C24.6525 24.0046 24.4562 24.2154 24.2235 24.4482L23.7944 24.8772L23.2272 24.4627C22.9145 24.2373 22.5872 24.0555 22.4927 24.0555C22.4054 24.0555 22.1073 24.1645 21.8382 24.3027C21.5691 24.4409 21.2055 24.5863 21.0383 24.63C20.5801 24.7536 20.4565 24.9572 20.3983 25.7281L20.3474 26.3825H19.7075H19.0675L19.0239 26.1789C19.0021 26.0698 18.9512 25.7717 18.9003 25.5099C18.8566 25.2554 18.7912 24.9863 18.7621 24.9208C18.7257 24.8554 18.4494 24.7172 18.1585 24.6154C17.8603 24.5063 17.4458 24.3391 17.2349 24.2445C16.7768 24.0336 16.675 24.0555 16.0859 24.5354C15.8605 24.7245 15.6278 24.8918 15.5769 24.9136C15.4751 24.9499 14.6897 24.2227 14.6897 24.0918C14.6897 24.0482 14.8351 23.8082 15.0169 23.561C15.5333 22.8483 15.5405 22.8265 15.206 22.0993C15.0533 21.7575 14.886 21.3502 14.8424 21.2048C14.7915 21.0594 14.7042 20.8994 14.6533 20.8557C14.5952 20.8048 14.2388 20.7321 13.8752 20.6812L13.1989 20.6012L13.1771 19.9685L13.1553 19.3431L13.3589 19.2995C13.468 19.2777 13.7734 19.2268 14.0352 19.1831C14.297 19.1322 14.5661 19.045 14.6315 18.9868C14.697 18.9286 14.8279 18.6596 14.9151 18.3905C15.0024 18.1287 15.1478 17.7724 15.2424 17.6051C15.5114 17.1397 15.4751 16.9651 14.9806 16.347L14.5443 15.8016L14.9879 15.358L15.4315 14.9071L15.9769 15.2998C16.275 15.5107 16.5877 15.7071 16.6604 15.7289C16.7477 15.758 16.9659 15.6925 17.2204 15.5616C17.4458 15.4453 17.8531 15.278 18.1294 15.1908C18.3985 15.0962 18.6457 14.9653 18.6894 14.8999C18.7403 14.7981 18.9075 13.7363 18.9075 13.4963C18.9075 13.46 19.1984 13.4382 19.5547 13.4382H20.1947L20.282 13.9981ZM19.053 31.5021C19.053 33.1383 19.0457 33.2038 18.893 33.4365C18.7984 33.5674 18.6094 33.7347 18.4712 33.8074C18.2312 33.9383 17.8603 33.9455 10.1155 33.9455C2.15982 33.9455 2.00711 33.9455 1.70895 33.8001C1.51987 33.7056 1.35262 33.5528 1.25081 33.371C1.09809 33.102 1.09082 33.0002 1.09082 31.4439V29.8004H10.0719H19.053V31.5021Z" fill="#4A3AFF"/>
<path d="M18.7839 17.1104C18.0057 17.3504 17.2276 18.063 16.9367 18.8048C16.8058 19.132 16.7695 19.3647 16.7622 19.9101C16.7622 20.5428 16.784 20.6446 16.9949 21.0882C17.8821 22.9644 20.2528 23.3644 21.7073 21.8882C23.2126 20.361 22.5145 17.7212 20.4419 17.1177C19.9692 16.9795 19.2056 16.9722 18.7839 17.1104ZM20.5655 18.3612C20.9728 18.6084 21.3437 19.1757 21.4164 19.6556C21.4818 20.121 21.2927 20.7173 20.9655 21.081C20.711 21.3646 20.3837 21.5827 20.2165 21.5827C20.1728 21.5827 20.1437 21.1828 20.1437 20.4265V19.2629L19.9547 19.1175C19.6929 18.9139 19.5183 18.9284 19.2638 19.1757L19.0529 19.3866V20.4846C19.0529 21.0882 19.0311 21.5827 19.002 21.5827C18.9802 21.5827 18.8202 21.5027 18.653 21.4082C17.693 20.841 17.5476 19.372 18.3766 18.5866C18.9511 18.0412 19.8892 17.9394 20.5655 18.3612Z" fill="#4A3AFF"/>
<path d="M7.21391 31.7132C6.92303 32.0259 7.07574 32.4914 7.5048 32.6004C7.59933 32.6223 8.82832 32.6368 10.2391 32.6223L12.8134 32.6004L12.9516 32.4259C13.1334 32.2077 13.1262 31.8732 12.9443 31.6914C12.8062 31.5533 12.7044 31.546 10.0864 31.546H7.36662L7.21391 31.7132Z" fill="#4A3AFF"/>
</svg>
