<svg width="35" height="35" viewBox="0 0 35 35" fill="none" xmlns="http://www.w3.org/2000/svg">
<path d="M1.16774 0.0947762C1.02922 0.138515 0.744898 0.342644 0.54806 0.546772C0.0304484 1.05709 -0.115358 1.61116 0.0887708 2.27457C0.190835 2.62451 0.642834 3.1567 0.949026 3.28064L1.16774 3.36812V4.72412V6.08011L2.50186 7.41424L3.83599 8.74837H7.16036H10.492L10.6816 9.35346C10.7836 9.68881 10.8638 9.98772 10.8638 10.0315C10.8638 10.0679 10.6816 10.2793 10.4629 10.498L10.0692 10.8844L9.27455 10.6511C8.29036 10.3668 8.23204 10.3887 7.75088 11.125L7.40094 11.6645H6.26366H5.11908L5.0316 11.4458C4.82747 10.95 4.09115 10.498 3.50063 10.498C2.59663 10.498 1.75096 11.3437 1.75096 12.2477C1.75096 13.1517 2.59663 13.9974 3.50063 13.9974C4.09115 13.9974 4.82747 13.5454 5.0316 13.0496L5.11908 12.8309H5.98663H6.85417V13.0205C6.85417 13.1663 6.99998 13.3558 7.47385 13.8078L8.08623 14.3984L7.94043 14.9451L7.78733 15.4919L7.01456 15.6742C6.16159 15.871 5.90643 16.0314 5.90643 16.3813C5.90643 16.4907 5.88456 16.6583 5.86269 16.7458C5.81895 16.9135 5.79708 16.9135 4.59418 16.9135H3.36941L3.28192 16.6948C3.07779 16.1991 2.34147 15.7471 1.75096 15.7471C0.846962 15.7471 0.0012872 16.5927 0.0012872 17.4967C0.0012872 18.4007 0.846962 19.2464 1.75096 19.2464C2.34147 19.2464 3.07779 18.7944 3.28192 18.2987L3.36941 18.08H4.59418C5.79708 18.08 5.81895 18.08 5.86269 18.2403C5.88456 18.3351 5.90643 18.5028 5.90643 18.6121C5.90643 18.9621 6.16159 19.1225 7.01456 19.3193L7.78733 19.5016L7.94043 20.0483L8.08623 20.5951L7.47385 21.1856C6.99998 21.6376 6.85417 21.8272 6.85417 21.973V22.1625H5.98663H5.11908L5.0316 21.9438C4.82747 21.4481 4.09115 20.9961 3.50063 20.9961C2.59663 20.9961 1.75096 21.8418 1.75096 22.7457C1.75096 23.6497 2.59663 24.4954 3.50063 24.4954C4.09115 24.4954 4.82747 24.0434 5.0316 23.5477L5.11908 23.329H6.26366H7.41552L7.75088 23.8612C8.22475 24.6048 8.29036 24.6266 9.27455 24.3423L10.0692 24.109L10.4629 24.4954C10.6816 24.7141 10.8638 24.9256 10.8638 24.962C10.8638 25.0057 10.7836 25.3046 10.6816 25.64L10.492 26.2451H7.16036H3.83599L2.50186 27.5792L1.16774 28.9133V30.2693V31.6253L0.949026 31.7128C0.453286 31.917 0.0012872 32.6533 0.0012872 33.2438C0.0012872 34.1478 0.846962 34.9935 1.75096 34.9935C2.65496 34.9935 3.50063 34.1478 3.50063 33.2438C3.50063 32.6533 3.04863 31.917 2.55289 31.7128L2.33418 31.6253V30.5172V29.4164L3.34025 28.4103L4.33902 27.4115H7.83836L11.3377 27.4043L12.0813 27.7906L12.8322 28.177V29.4164V30.6557L11.8262 31.6618L10.8274 32.6606H10.3098C9.79945 32.6606 9.78487 32.6533 9.69739 32.4419C9.49326 31.9461 8.75694 31.4941 8.16643 31.4941C7.26243 31.4941 6.41675 32.3398 6.41675 33.2438C6.41675 34.1478 7.26243 34.9935 8.16643 34.9935C8.75694 34.9935 9.49326 34.5415 9.69739 34.0457L9.78487 33.827H10.5576H11.3304L12.6645 32.4929L13.9987 31.1588V29.2268V27.2949L14.2028 27.1054L14.3996 26.9158L14.9464 27.0616L15.5005 27.2074L15.6609 27.951C15.7556 28.352 15.8796 28.7603 15.9379 28.8477C16.04 29.0081 16.1129 29.0373 16.645 29.1248L16.9148 29.1685V30.3933V31.6253L16.6961 31.7128C16.3899 31.8368 15.9379 32.369 15.8358 32.7189C15.6317 33.3823 15.7775 33.9364 16.2951 34.4467C17.0387 35.1976 18.0667 35.183 18.7592 34.4102C19.2185 33.8999 19.3497 33.3459 19.1602 32.7189C19.0581 32.369 18.6061 31.8368 18.2999 31.7128L18.0812 31.6253V30.4006C18.0812 29.1977 18.0812 29.1758 18.2489 29.1321C18.3364 29.1102 18.5041 29.0883 18.6134 29.0883C18.9634 29.0883 19.1238 28.8332 19.3206 27.9802L19.5028 27.2074L20.0496 27.0616L20.5964 26.9158L20.8005 27.1054L20.9974 27.2949V29.2268V31.1588L22.3315 32.4929L23.6656 33.827H24.4384H25.2112L25.2986 34.0457C25.5028 34.5415 26.2391 34.9935 26.8296 34.9935C27.7336 34.9935 28.5793 34.1478 28.5793 33.2438C28.5793 32.3325 27.7482 31.4941 26.8442 31.4941C26.2391 31.4941 25.5028 31.9461 25.2986 32.4419C25.2112 32.6533 25.1966 32.6606 24.6863 32.6606H24.1686L23.1626 31.6545L22.1638 30.6557V29.4018C22.1638 28.2135 22.1711 28.1479 22.3096 28.1041C22.3898 28.0823 22.7179 27.9146 23.0386 27.7323L23.6219 27.4115H27.1431H30.657L31.6631 28.4176L32.6618 29.4164V30.5172V31.6253L32.4431 31.7128C31.9474 31.917 31.4954 32.6533 31.4954 33.2438C31.4954 34.1478 32.3411 34.9935 33.2451 34.9935C34.1491 34.9935 34.9947 34.1478 34.9947 33.2438C34.9947 32.6533 34.5427 31.917 34.047 31.7128L33.8283 31.6253V30.2693V28.9133L32.4942 27.5792L31.16 26.2451H27.8357H24.504L24.3144 25.64C24.2124 25.3046 24.1322 25.0057 24.1322 24.962C24.1322 24.9256 24.3144 24.7141 24.5332 24.4954L24.9268 24.109L25.7215 24.3423C26.7057 24.6266 26.7713 24.6048 27.2451 23.8612L27.5805 23.329H28.7324H29.8769L29.9644 23.5477C30.1686 24.0434 30.9049 24.4954 31.4954 24.4954C32.3994 24.4954 33.2451 23.6497 33.2451 22.7457C33.2451 21.8345 32.414 20.9961 31.51 20.9961C30.9049 20.9961 30.1686 21.4481 29.9644 21.9438L29.8769 22.1625H29.0094H28.1419V21.973C28.1419 21.8272 27.996 21.6376 27.5222 21.1856L26.9098 20.5951L27.0556 20.0483L27.2087 19.5016L27.9815 19.3193C28.8344 19.1225 29.0896 18.9621 29.0896 18.6121C29.0896 18.5028 29.1115 18.3351 29.1333 18.2403C29.1771 18.08 29.1989 18.08 30.4018 18.08H31.6266L31.7141 18.2987C31.9182 18.7944 32.6546 19.2464 33.2451 19.2464C34.1491 19.2464 34.9947 18.4007 34.9947 17.4967C34.9947 16.5927 34.1491 15.7471 33.2451 15.7471C32.6546 15.7471 31.9182 16.1991 31.7141 16.6948L31.6266 16.9135H30.4018C29.1989 16.9135 29.1771 16.9135 29.1333 16.7458C29.1115 16.6583 29.0896 16.4907 29.0896 16.3813C29.0896 16.0314 28.8344 15.871 27.9815 15.6742L27.2087 15.4919L27.0556 14.9451L26.9098 14.3984L27.5222 13.8078C27.996 13.3558 28.1419 13.1663 28.1419 13.0205V12.8309H29.0094H29.8769L29.9644 13.0496C30.1686 13.5454 30.9049 13.9974 31.4954 13.9974C32.3994 13.9974 33.2451 13.1517 33.2451 12.2477C33.2451 11.3437 32.3994 10.498 31.4954 10.498C30.9049 10.498 30.1686 10.95 29.9644 11.4458L29.8769 11.6645H28.7324H27.5805L27.2451 11.1323C26.7713 10.3887 26.7057 10.3668 25.7215 10.6511L24.9268 10.8844L24.5332 10.498C24.3144 10.2793 24.1322 10.0679 24.1322 10.0315C24.1322 9.98772 24.2124 9.68881 24.3144 9.35346L24.504 8.74837H27.8357H31.16L32.4942 7.41424L33.8283 6.08011V4.72412V3.36812L34.047 3.28064C34.5427 3.07651 34.9947 2.34019 34.9947 1.74967C34.9947 0.838387 34.1636 0 33.2596 0C32.3411 0 31.4954 0.838387 31.4954 1.74967C31.4954 2.34019 31.9474 3.07651 32.4431 3.28064L32.6618 3.36812V4.47625V5.57708L31.6558 6.58315L30.657 7.58192H27.1431H23.6219L23.0386 7.26114C22.7179 7.07889 22.3898 6.91121 22.3096 6.88934C22.1711 6.8456 22.1638 6.77998 22.1638 5.59166V4.33773L23.1699 3.33167L24.1686 2.3329H24.6863C25.1966 2.3329 25.2112 2.34019 25.2986 2.55161C25.5028 3.04735 26.2391 3.49935 26.8296 3.49935C27.7336 3.49935 28.5793 2.65367 28.5793 1.74967C28.5793 0.838387 27.7482 0 26.8442 0C26.2391 0 25.5028 0.452 25.2986 0.947739L25.2112 1.16645H24.4384H23.6656L22.3315 2.50058L20.9974 3.8347V5.76663V7.69856L20.8005 7.88811L20.5964 8.07766L20.0496 7.93185L19.4956 7.78605L19.3352 7.04243C19.2404 6.64147 19.1165 6.23321 19.0581 6.14573C18.9561 5.98534 18.8832 5.95618 18.3583 5.8687L18.0812 5.82495V4.60018V3.36812L18.2999 3.28064C18.7957 3.07651 19.2477 2.34019 19.2477 1.74967C19.2477 0.838387 18.4166 0 17.5126 0C16.594 0 15.7483 0.838387 15.7483 1.74967C15.7483 2.34019 16.2003 3.07651 16.6961 3.28064L16.9148 3.36812V4.60018V5.82495L16.645 5.8687C16.1129 5.95618 16.04 5.98534 15.9379 6.14573C15.8796 6.23321 15.7556 6.64147 15.6609 7.04243L15.5005 7.78605L14.9464 7.93185L14.3996 8.07766L14.2028 7.88811L13.9987 7.69856V5.76663V3.8347L12.6645 2.50058L11.3304 1.16645H10.5576H9.78487L9.69739 0.947739C9.49326 0.452 8.75694 0 8.16643 0C7.26243 0 6.41675 0.845676 6.41675 1.74967C6.41675 2.65367 7.26243 3.49935 8.16643 3.49935C8.75694 3.49935 9.49326 3.04735 9.69739 2.55161C9.78487 2.34019 9.79945 2.3329 10.3098 2.3329H10.8274L11.8334 3.33896L12.8322 4.33773V5.57708V6.81643L12.0813 7.20282L11.3377 7.58921L7.83836 7.58192H4.33902L3.33296 6.57586L2.33418 5.57708V4.47625V3.36812L2.55289 3.28064C2.85909 3.1567 3.31108 2.62451 3.41315 2.27457C3.6027 1.64761 3.47147 1.09355 3.01218 0.583225C2.53831 0.0583229 1.86031 -0.123936 1.16774 0.0947762ZM2.15193 1.34871C2.51644 1.70593 2.26128 2.3329 1.75096 2.3329C1.45206 2.3329 1.16774 2.04858 1.16774 1.74967C1.16774 1.45077 1.45206 1.16645 1.75096 1.16645C1.88948 1.16645 2.04257 1.23206 2.15193 1.34871ZM8.56739 1.34871C8.93191 1.70593 8.67675 2.3329 8.16643 2.3329C7.86752 2.3329 7.5832 2.04858 7.5832 1.74967C7.5832 1.45077 7.86752 1.16645 8.16643 1.16645C8.30494 1.16645 8.45804 1.23206 8.56739 1.34871ZM17.899 1.34871C18.0156 1.45806 18.0812 1.61116 18.0812 1.74967C18.0812 1.88819 18.0156 2.04129 17.899 2.15064C17.5418 2.51516 16.9148 2.25999 16.9148 1.74967C16.9148 1.45077 17.1991 1.16645 17.498 1.16645C17.6365 1.16645 17.7896 1.23206 17.899 1.34871ZM27.2306 1.34871C27.3472 1.45806 27.4128 1.61116 27.4128 1.74967C27.4128 1.88819 27.3472 2.04129 27.2306 2.15064C27.1212 2.26728 26.9681 2.3329 26.8296 2.3329C26.6911 2.3329 26.538 2.26728 26.4286 2.15064C26.312 2.04129 26.2464 1.88819 26.2464 1.74967C26.2464 1.61116 26.312 1.45806 26.4286 1.34871C26.538 1.23206 26.6911 1.16645 26.8296 1.16645C26.9681 1.16645 27.1212 1.23206 27.2306 1.34871ZM33.646 1.34871C33.7627 1.45806 33.8283 1.61116 33.8283 1.74967C33.8283 1.88819 33.7627 2.04129 33.646 2.15064C33.5367 2.26728 33.3836 2.3329 33.2451 2.3329C33.1066 2.3329 32.9535 2.26728 32.8441 2.15064C32.7275 2.04129 32.6618 1.88819 32.6618 1.74967C32.6618 1.61116 32.7275 1.45806 32.8441 1.34871C32.9535 1.23206 33.1066 1.16645 33.2451 1.16645C33.3836 1.16645 33.5367 1.23206 33.646 1.34871ZM18.2562 7.56005C18.5551 8.85772 18.4239 8.7192 19.6268 9.04727C21.0411 9.43365 20.9245 9.44823 21.6097 8.7265L22.2003 8.10682L22.7106 8.39843C22.9949 8.56611 23.2355 8.71191 23.2501 8.7192C23.2646 8.73379 23.1699 9.10559 23.0386 9.53572C22.8637 10.1408 22.8199 10.3668 22.8783 10.4689C22.973 10.6511 24.3436 12.0217 24.5259 12.1165C24.6279 12.1748 24.8539 12.1311 25.459 11.9561C25.8892 11.8249 26.261 11.7301 26.2755 11.7447C26.2828 11.7593 26.4286 11.9998 26.5963 12.2842L26.8879 12.7945L26.2682 13.385C25.5465 14.0703 25.5611 13.9536 25.9475 15.368C26.2755 16.5709 26.137 16.4396 27.4347 16.7385L27.996 16.8698V17.4967V18.131L27.216 18.306C26.3922 18.4882 26.2099 18.5976 26.137 18.9329C26.1079 19.0496 26.0058 19.4287 25.9037 19.7932C25.5611 20.9815 25.5465 20.9305 26.2682 21.6085L26.8879 22.199L26.5963 22.7093C26.4286 22.9863 26.2828 23.2342 26.2755 23.2488C26.261 23.2634 25.8892 23.1686 25.459 23.0374C24.8539 22.8624 24.6279 22.8187 24.5259 22.877C24.3436 22.9717 22.973 24.3423 22.8783 24.5246C22.8199 24.6266 22.8637 24.8526 23.0386 25.4577C23.1699 25.8879 23.2646 26.2597 23.2501 26.2743C23.2355 26.2815 22.9949 26.4274 22.7106 26.595L22.2003 26.8866L21.6097 26.267C20.9317 25.5452 20.9828 25.5598 19.7945 25.9025C19.4372 26.0045 19.0508 26.1066 18.9342 26.1357C18.5988 26.2086 18.4895 26.3909 18.3072 27.2147L18.1323 27.9948H17.498H16.8638L16.6888 27.2147C16.5065 26.3909 16.3972 26.2086 16.0618 26.1357C15.9452 26.1066 15.5661 26.0045 15.2016 25.9025C14.0132 25.5598 14.0643 25.5452 13.3863 26.267L12.7958 26.8866L12.2854 26.595C12.0084 26.4274 11.7605 26.2815 11.746 26.2743C11.7314 26.2597 11.8262 25.8879 11.9574 25.4577C12.1323 24.8526 12.1761 24.6266 12.1178 24.5246C12.023 24.3423 10.6524 22.9717 10.4702 22.877C10.3681 22.8187 10.1421 22.8624 9.537 23.0374C9.10687 23.1686 8.73507 23.2634 8.72049 23.2488C8.7132 23.2342 8.56739 22.9936 8.40701 22.7093L8.1081 22.199L8.72778 21.6085C9.44952 20.9232 9.43494 21.0398 9.04855 19.6255C8.72049 18.4226 8.859 18.5538 7.56862 18.2549L6.99998 18.1237V17.4967V16.8698L7.56862 16.7385C8.859 16.4396 8.72049 16.5709 9.04855 15.368C9.43494 13.9536 9.44952 14.0703 8.72778 13.385L8.1081 12.7945L8.40701 12.2842C8.56739 11.9998 8.7132 11.7593 8.72049 11.7447C8.73507 11.7301 9.10687 11.8249 9.537 11.9561C10.1421 12.1311 10.3681 12.1748 10.4702 12.1165C10.6524 12.0217 12.023 10.6511 12.1178 10.4689C12.1761 10.3668 12.1323 10.1408 11.9574 9.53572C11.8262 9.10559 11.7314 8.73379 11.746 8.7192C11.7605 8.71191 12.0084 8.56611 12.2854 8.39843L12.7958 8.10682L13.3863 8.7265C14.0716 9.44823 13.9549 9.43365 15.3692 9.04727C16.5721 8.7192 16.4409 8.85772 16.7398 7.56005L16.871 6.99869H17.498H18.125L18.2562 7.56005ZM3.9016 11.8467C4.26611 12.204 4.01095 12.8309 3.50063 12.8309C3.20173 12.8309 2.91741 12.5466 2.91741 12.2477C2.91741 11.9488 3.20173 11.6645 3.50063 11.6645C3.63915 11.6645 3.79224 11.7301 3.9016 11.8467ZM31.8964 11.8467C32.013 11.9561 32.0786 12.1092 32.0786 12.2477C32.0786 12.3862 32.013 12.5393 31.8964 12.6487C31.787 12.7653 31.6339 12.8309 31.4954 12.8309C31.3569 12.8309 31.2038 12.7653 31.0944 12.6487C30.9778 12.5393 30.9122 12.3862 30.9122 12.2477C30.9122 12.1092 30.9778 11.9561 31.0944 11.8467C31.2038 11.7301 31.3569 11.6645 31.4954 11.6645C31.6339 11.6645 31.787 11.7301 31.8964 11.8467ZM2.15193 17.0958C2.51644 17.453 2.26128 18.08 1.75096 18.08C1.45206 18.08 1.16774 17.7956 1.16774 17.4967C1.16774 17.1978 1.45206 16.9135 1.75096 16.9135C1.88948 16.9135 2.04257 16.9791 2.15193 17.0958ZM33.646 17.0958C34.0105 17.453 33.7554 18.08 33.2451 18.08C32.9462 18.08 32.6618 17.7956 32.6618 17.4967C32.6618 17.3582 32.7275 17.2051 32.8441 17.0958C32.9535 16.9791 33.1066 16.9135 33.2451 16.9135C33.3836 16.9135 33.5367 16.9791 33.646 17.0958ZM3.9016 22.3448C4.01824 22.4541 4.08386 22.6072 4.08386 22.7457C4.08386 22.8843 4.01824 23.0374 3.9016 23.1467C3.54437 23.5112 2.91741 23.2561 2.91741 22.7457C2.91741 22.4468 3.20173 22.1625 3.50063 22.1625C3.63915 22.1625 3.79224 22.2281 3.9016 22.3448ZM31.8964 22.3448C32.2609 22.702 32.0057 23.329 31.4954 23.329C31.1965 23.329 30.9122 23.0447 30.9122 22.7457C30.9122 22.4468 31.1965 22.1625 31.4954 22.1625C31.6339 22.1625 31.787 22.2281 31.8964 22.3448ZM2.15193 32.8428C2.26857 32.9522 2.33418 33.1053 2.33418 33.2438C2.33418 33.3823 2.26857 33.5354 2.15193 33.6448C2.04257 33.7614 1.88948 33.827 1.75096 33.827C1.61244 33.827 1.45935 33.7614 1.34999 33.6448C1.23335 33.5354 1.16774 33.3823 1.16774 33.2438C1.16774 33.1053 1.23335 32.9522 1.34999 32.8428C1.45935 32.7262 1.61244 32.6606 1.75096 32.6606C1.88948 32.6606 2.04257 32.7262 2.15193 32.8428ZM8.56739 32.8428C8.93191 33.2 8.67675 33.827 8.16643 33.827C7.86752 33.827 7.5832 33.5427 7.5832 33.2438C7.5832 32.9449 7.86752 32.6606 8.16643 32.6606C8.30494 32.6606 8.45804 32.7262 8.56739 32.8428ZM17.899 32.8428C18.2635 33.2 18.0083 33.827 17.498 33.827C17.3595 33.827 17.2064 33.7614 17.097 33.6448C16.7325 33.2875 16.9877 32.6606 17.498 32.6606C17.6365 32.6606 17.7896 32.7262 17.899 32.8428ZM27.2306 32.8428C27.5951 33.2 27.3399 33.827 26.8296 33.827C26.5307 33.827 26.2464 33.5427 26.2464 33.2438C26.2464 32.9449 26.5307 32.6606 26.8296 32.6606C26.9681 32.6606 27.1212 32.7262 27.2306 32.8428ZM33.646 32.8428C34.0105 33.2 33.7554 33.827 33.2451 33.827C32.9462 33.827 32.6618 33.5427 32.6618 33.2438C32.6618 32.9449 32.9462 32.6606 33.2451 32.6606C33.3836 32.6606 33.5367 32.7262 33.646 32.8428Z" fill="#4A3AFF"/>
<path d="M15.8797 11.1906C14.0571 11.4384 12.7449 12.0654 12.3876 12.86C12.2637 13.1371 12.2491 13.4433 12.2491 17.7883C12.2491 23.0154 12.2273 22.753 12.8251 23.2706C14.7132 24.8817 20.2757 24.8963 22.1566 23.2852C22.7763 22.753 22.7472 23.03 22.7472 17.7883C22.7472 12.5465 22.7763 12.8236 22.1566 12.2914C21.0412 11.3364 18.3219 10.8625 15.8797 11.1906ZM18.8468 12.3278C20.0206 12.4736 21.3328 12.9402 21.5151 13.2829C21.6755 13.5891 21.1725 13.939 20.1227 14.2379C18.1689 14.8065 15.3111 14.6316 13.904 13.8661C13.2916 13.538 13.2916 13.2902 13.904 12.9548C14.3487 12.7215 15.3985 12.4153 16.0765 12.3278C16.8201 12.2404 18.0959 12.2331 18.8468 12.3278ZM14.8007 15.4189C16.7327 15.9292 19.4811 15.8053 21.136 15.1346L21.5807 14.9523V15.6814C21.5807 16.4906 21.5443 16.5635 21.0048 16.8332C19.3134 17.7008 15.6829 17.7008 13.9915 16.8332C13.452 16.5635 13.4156 16.4906 13.4156 15.6741V14.9451L13.802 15.1054C14.0061 15.1856 14.4581 15.3314 14.8007 15.4189ZM14.8007 18.335C16.7327 18.8454 19.4811 18.7214 21.136 18.0507L21.5807 17.8685V18.5975C21.5807 19.4067 21.5443 19.4796 21.0048 19.7494C19.3134 20.6169 15.6829 20.6169 13.9915 19.7494C13.452 19.4796 13.4156 19.4067 13.4156 18.5902V17.8612L13.802 18.0216C14.0061 18.1018 14.4581 18.2476 14.8007 18.335ZM14.8007 21.2512C16.7327 21.7615 19.4811 21.6376 21.136 20.9668L21.5807 20.7846V21.5136C21.5807 22.3228 21.5443 22.3957 21.0048 22.6655C19.3134 23.533 15.6829 23.533 13.9915 22.6655C13.452 22.3957 13.4156 22.3228 13.4156 21.5063V20.7773L13.802 20.9377C14.0061 21.0179 14.4581 21.1637 14.8007 21.2512Z" fill="#4A3AFF"/>
</svg>
