<svg width="36" height="35" viewBox="0 0 36 35" fill="none" xmlns="http://www.w3.org/2000/svg">
<path d="M7.08017 0.135509C6.82024 0.210753 6.58766 0.285997 6.57398 0.299678C6.54662 0.32704 7.66161 4.73226 7.73001 4.84171C7.76421 4.89643 7.90102 4.88275 8.24988 4.80067C8.50982 4.7391 8.74923 4.66386 8.77659 4.6365C8.82448 4.59545 7.94206 0.942676 7.68897 0.101306C7.64793 -0.035502 7.68213 -0.0423422 7.08017 0.135509Z" fill="#4A3AFF"/>
<path d="M24.2971 0.231087C24.0577 0.395256 24.0167 0.525223 23.8388 1.76334C23.7431 2.40633 23.6336 2.99461 23.5994 3.06985C23.4763 3.29559 23.2163 3.41871 22.9838 3.37083C22.8059 3.32979 22.6281 3.13142 21.9851 2.27637C21.1574 1.16822 20.9727 1.01773 20.6375 1.14086C20.5349 1.1819 20.0629 1.51024 19.5841 1.87278L18.7085 2.52946L18.086 2.48842C16.2802 2.37897 14.3101 2.80308 12.6069 3.66497C11.5192 4.2122 10.6847 4.821 9.81599 5.69657C8.00328 7.50928 6.94302 9.69137 6.62152 12.236C6.54627 12.879 6.53259 12.9132 6.37526 12.9132C6.28634 12.9132 6.12901 12.9953 6.0264 13.0979C5.86907 13.2621 5.80751 13.4399 5.64334 14.2608C5.53389 14.8012 5.4176 15.2389 5.3834 15.2389C5.35604 15.2389 4.97298 14.9858 4.52835 14.678C3.37916 13.8709 3.46809 13.8503 2.18893 15.1432C1.3202 16.0119 1.16287 16.2034 1.16287 16.3744C1.16287 16.5249 1.33388 16.8259 1.7443 17.4347C2.0658 17.8999 2.32574 18.2966 2.32574 18.3171C2.32574 18.3376 1.88795 18.4471 1.3544 18.5565C0.526712 18.7207 0.348861 18.7823 0.191531 18.9396L0 19.1243V20.4719V21.8194L0.191531 22.0041C0.348861 22.1614 0.526712 22.223 1.33388 22.3872C1.86059 22.4966 2.30522 22.5924 2.3189 22.6061C2.33942 22.6197 2.07948 23.0302 1.75114 23.5158C1.21075 24.3093 1.14919 24.4188 1.19023 24.624C1.22443 24.8018 1.45701 25.0754 2.20945 25.8279C3.47493 27.0934 3.37916 27.0728 4.50783 26.293C4.97982 25.9715 5.37656 25.7048 5.40392 25.7048C5.42444 25.7048 5.53389 26.1425 5.64334 26.6761C5.80751 27.5038 5.86907 27.6816 6.0264 27.839L6.21109 28.0305H7.55865H8.90621L9.0909 27.839C9.24823 27.6816 9.3098 27.5038 9.47397 26.6761C9.58341 26.1425 9.69286 25.7048 9.71338 25.7048C9.74074 25.7048 10.1375 25.9715 10.6095 26.293C11.6697 27.025 11.7039 27.025 12.4222 26.3136L12.9147 25.8279L12.9421 26.9087C12.9626 27.839 12.9899 28.0442 13.1131 28.3178C13.3046 28.7419 13.5645 29.0702 13.8518 29.2686L14.0844 29.4259L14.1049 31.3139L14.1254 33.195L14.317 33.6054C14.5632 34.139 14.9668 34.5426 15.4867 34.782C15.8971 34.9667 15.9313 34.9735 17.3404 34.994C18.9001 35.0214 19.4268 34.9598 19.8714 34.6999C20.2818 34.4605 20.658 34.0569 20.8564 33.6396C21.0343 33.2634 21.0343 33.2497 21.0548 31.3481L21.0821 29.4328L21.3489 29.2413C21.4994 29.1386 21.7115 28.9061 21.8277 28.7282C22.1834 28.1673 22.2313 27.88 22.2313 26.3204C22.2313 24.0562 22.4365 23.5842 23.832 22.5924C24.7486 21.9425 24.9265 21.7784 24.858 21.6552C24.8238 21.6005 24.6597 21.3953 24.4818 21.2106L24.174 20.8618L23.9346 21.0601C23.8115 21.1696 23.4147 21.4637 23.0659 21.7168C22.0672 22.4282 21.5746 23.0575 21.26 23.9947C21.13 24.3846 21.1095 24.6513 21.0753 26.1562L21.0343 27.8732L20.8427 28.1194C20.4802 28.5914 20.5554 28.5846 17.5251 28.5641L14.8095 28.5435L14.5838 28.3862C14.1528 28.0715 14.1323 27.9758 14.0844 26.0468C14.0434 24.0904 13.9886 23.8373 13.4824 23.0575C13.1473 22.5445 12.8326 22.2367 12.0391 21.6689C11.1909 21.0601 10.7531 20.6839 10.1785 20.0477C8.98146 18.7275 8.15377 17.0311 7.79123 15.1363C7.64758 14.4044 7.6681 12.3454 7.82543 11.6135C8.45475 8.67215 10.1854 6.28485 12.6958 4.89624C14.0092 4.17116 15.3567 3.76758 16.9163 3.64445C17.4225 3.60341 17.443 3.61025 17.443 3.74706C17.443 3.95227 17.5114 4.06855 18.3049 5.12882C19.0369 6.11384 19.1395 6.35325 18.9274 6.62687C18.7154 6.90048 18.5991 6.90732 17.272 6.71579C15.8766 6.51742 15.6851 6.5311 15.5346 6.87996C15.4114 7.14674 14.9463 10.5191 15.001 10.7379C15.0831 11.0458 15.3088 11.1347 16.5196 11.3125C17.1421 11.4015 17.7303 11.4972 17.8261 11.5178C18.175 11.6067 18.3118 12.1129 18.0724 12.407C18.0108 12.4891 17.5183 12.879 16.9916 13.2757C16.0202 14.0008 15.9382 14.0898 15.9382 14.3839C15.9382 14.5686 18.0997 17.51 18.3255 17.6262C18.6196 17.7836 18.7974 17.7083 19.8167 16.949C20.3707 16.5318 20.8974 16.1761 20.9795 16.1556C21.2053 16.094 21.4994 16.2171 21.6157 16.4155C21.7046 16.5797 21.6978 16.7233 21.5541 17.7494C21.472 18.3787 21.4105 19.0217 21.4242 19.1653C21.4584 19.6168 21.5883 19.6647 23.401 19.9246C25.3027 20.2051 25.5968 20.2188 25.7883 20.0272C25.9525 19.8631 25.9594 19.8425 26.1646 18.4197C26.3151 17.3526 26.3424 17.2432 26.5066 17.0995C26.6844 16.949 26.9033 16.908 27.1222 16.9901C27.1838 17.0174 27.56 17.4689 27.9568 18.0025C28.3535 18.5292 28.7366 19.0217 28.8118 19.0832C29.1333 19.3637 29.3112 19.2816 30.9186 18.0777C32.4372 16.9354 32.6151 16.7575 32.533 16.436C32.5125 16.3539 32.1636 15.8477 31.7532 15.3005C31.3428 14.7533 30.9871 14.2471 30.9597 14.165C30.8981 13.9666 31.0144 13.693 31.2265 13.5562C31.3975 13.4468 31.4727 13.4468 32.6972 13.6178C34.0242 13.8025 34.2089 13.8025 34.4004 13.5699C34.4825 13.4741 35.0161 10.1497 35.0229 9.71873C35.0229 9.63664 34.9545 9.48615 34.8724 9.39039C34.7288 9.22622 34.6125 9.19886 33.388 9.02101C32.574 8.89788 32.0336 8.78843 31.9721 8.72687C31.8147 8.56954 31.7463 8.22752 31.8353 8.04967C31.8763 7.96074 32.3278 7.57084 32.834 7.18778C33.86 6.40797 34.0652 6.2096 34.0652 5.97019C34.0652 5.86074 33.6959 5.30667 33.0323 4.41742C31.7258 2.66627 31.7121 2.65259 31.3906 2.65259C31.1717 2.65259 30.9871 2.76204 30.1183 3.40504C29.5642 3.8223 29.0375 4.178 28.9555 4.19852C28.7229 4.26009 28.4287 4.08224 28.3467 3.82914C28.2919 3.65129 28.3125 3.36399 28.4356 2.52946C28.6271 1.1819 28.6271 1.05877 28.4424 0.839882C28.2919 0.668873 28.1893 0.64835 26.4382 0.395256C25.4258 0.244766 24.5571 0.121639 24.5229 0.121639C24.4818 0.121639 24.3792 0.169521 24.2971 0.231087ZM27.3411 1.72229C27.3616 1.73597 27.3206 2.09852 27.259 2.52946C27.0949 3.63077 27.1085 3.99331 27.3206 4.41057C27.7379 5.2451 28.7776 5.60765 29.5848 5.20406C29.6942 5.1425 30.1252 4.8552 30.5287 4.54738C30.9323 4.2464 31.2744 4.01383 31.288 4.02751C31.5616 4.37637 32.574 5.7513 32.5946 5.8197C32.6151 5.86758 32.3415 6.11384 31.9721 6.38061C30.8913 7.16726 30.6314 7.54348 30.6314 8.29593C30.6245 8.99365 31.0349 9.60928 31.6574 9.87606C31.7942 9.93078 32.3209 10.0402 32.8271 10.1155C33.3333 10.1839 33.7574 10.2591 33.7711 10.266C33.7779 10.2796 33.7095 10.779 33.6206 11.3741C33.5248 11.9761 33.4496 12.4891 33.4496 12.5096C33.4496 12.5301 33.0597 12.4891 32.5809 12.4207C32.0952 12.3454 31.548 12.3044 31.3564 12.3181C30.3235 12.4207 29.619 13.3783 29.8242 14.3976C29.8857 14.6985 30.0226 14.9243 30.5151 15.5878C30.8502 16.0324 31.1239 16.4155 31.1239 16.4292C31.1239 16.4429 30.7134 16.7643 30.2072 17.1406L29.2906 17.8315L28.6818 17.0311C27.902 16.0051 27.6353 15.8204 26.8896 15.8204C26.2672 15.8272 25.932 15.9709 25.5558 16.4155C25.2616 16.7575 25.1453 17.1269 25.0291 18.0914C24.9812 18.4745 24.9265 18.8233 24.8991 18.8712C24.858 18.9259 24.5707 18.9122 23.7431 18.7959C22.4707 18.6113 22.587 18.7344 22.7444 17.7015C22.8948 16.7028 22.8812 16.3471 22.6554 15.9161C22.3134 15.2663 21.6704 14.9106 20.959 14.9858C20.5075 15.0337 20.3092 15.1363 19.4404 15.793L18.7222 16.3334L18.0518 15.4305C17.6756 14.938 17.3746 14.507 17.3746 14.4865C17.3746 14.4591 17.7098 14.1787 18.1271 13.8709C18.5375 13.5562 18.9548 13.1868 19.0505 13.05C19.6251 12.2155 19.3789 11.0595 18.5101 10.5533C18.2844 10.4233 17.9766 10.348 17.231 10.2318C16.6906 10.1565 16.2391 10.0813 16.2255 10.0744C16.1912 10.0471 16.4991 7.89234 16.5469 7.83762C16.5675 7.81026 17.0053 7.8513 17.5114 7.92654C18.7427 8.10439 19.1737 8.02231 19.6935 7.50244C20.0082 7.18778 20.1245 6.91416 20.1655 6.40797C20.2066 5.82654 20.0834 5.55292 19.3926 4.63631C19.1053 4.26009 18.8795 3.91807 18.8932 3.88386C18.9137 3.82914 20.6238 2.51578 20.6854 2.51578C20.6991 2.51578 20.9727 2.87148 21.301 3.30243C21.6225 3.73337 22.0056 4.16432 22.1492 4.25324C22.8743 4.72523 23.7294 4.62263 24.3655 3.98647C24.6734 3.67181 24.7896 3.34347 24.9333 2.31057C24.9949 1.87962 25.0564 1.48972 25.0701 1.44868C25.0838 1.39396 25.4326 1.42132 26.2056 1.5376C26.8144 1.62653 27.3274 1.70861 27.3411 1.72229ZM7.00458 16.6002C7.06614 16.8054 7.11403 16.9832 7.11403 16.9901C7.11403 16.9969 6.94986 17.0448 6.75832 17.0858C5.35604 17.4142 4.23421 18.6933 4.07004 20.1435C3.92639 21.3679 4.61728 22.7702 5.66386 23.4064C7.31924 24.4119 9.36452 23.981 10.4316 22.4008L10.6505 22.0725L10.8489 22.2367C10.9583 22.3188 11.2525 22.5377 11.4987 22.7155C12.0391 23.0917 12.4495 23.5432 12.6548 23.9741L12.8052 24.2888L12.1828 24.9113L11.5671 25.5269L10.8763 25.0618C10.4932 24.8018 10.0691 24.5624 9.92543 24.5282C9.4466 24.4051 8.90621 24.665 8.65996 25.1438C8.61207 25.2465 8.49579 25.6774 8.40686 26.0947L8.24953 26.8676H7.55181H6.86093L6.74464 26.2862C6.49839 25.0412 6.29318 24.7061 5.67754 24.5419C5.2808 24.4324 5.01402 24.5351 4.22737 25.0686L3.55017 25.5269L3.0303 25.0002L2.50359 24.4803L2.96874 23.7963C3.22183 23.4201 3.46125 22.996 3.48861 22.8523C3.62542 22.2777 3.25603 21.6758 2.66092 21.5048C2.47623 21.45 2.05896 21.3474 1.7443 21.2859L1.16287 21.1696V20.4719V19.7741L1.929 19.6168C2.3531 19.5347 2.78405 19.4253 2.87981 19.3705C3.32444 19.1448 3.59806 18.5634 3.49545 18.1051C3.46125 17.9683 3.23551 17.551 2.98242 17.1885C2.73616 16.8259 2.53095 16.5044 2.53095 16.4771C2.53095 16.4565 2.76353 16.2034 3.04398 15.923L3.55017 15.4168L4.26842 15.9093C5.04822 16.436 5.30132 16.5249 5.71858 16.4086C6.17689 16.2855 6.49155 15.9025 6.601 15.3415C6.65572 15.0679 6.65572 15.0748 6.77201 15.6494C6.84041 15.9709 6.94302 16.395 7.00458 16.6002ZM7.7707 18.536C8.16745 19.3227 8.61207 19.9657 9.36452 20.8412L9.74074 21.2722L9.57657 21.58C9.35768 21.9973 8.82413 22.4556 8.35898 22.6266C8.04432 22.7497 7.86647 22.7702 7.42184 22.7497C6.50523 22.7018 5.86223 22.2572 5.45865 21.409C5.26712 21.0054 5.25343 20.937 5.2808 20.3829C5.30132 19.9588 5.35604 19.6989 5.46549 19.4732C5.80751 18.7549 6.60784 18.2008 7.33292 18.1872C7.57917 18.1803 7.59969 18.2008 7.7707 18.536ZM19.9056 30.322V30.9035H17.5799H15.2541V30.3699C15.2541 30.0758 15.2746 29.809 15.302 29.7885C15.3225 29.7611 16.3691 29.7406 17.6277 29.7406H19.9056V30.322ZM19.9056 32.4904C19.9056 33.0172 19.7277 33.4071 19.3789 33.6396C19.1326 33.8106 19.0984 33.8106 17.6551 33.8312C15.9929 33.8517 15.8834 33.8243 15.5072 33.3592C15.3567 33.1676 15.302 33.0103 15.2746 32.6957C15.2131 32.0116 15.0079 32.0663 17.6141 32.0663H19.9056V32.4904Z" fill="#4A3AFF"/>
<path d="M24.0373 5.62809C22.6213 5.93591 21.4585 6.85252 20.836 8.13852C20.4735 8.8978 20.364 9.38347 20.364 10.2112C20.3709 11.4561 20.8223 12.5301 21.7184 13.433C22.1836 13.8981 22.3819 14.0418 22.9223 14.3017C23.7637 14.7053 24.1604 14.7942 25.0702 14.7874C25.679 14.7806 25.9253 14.7464 26.3699 14.6027C27.6422 14.1854 28.593 13.3509 29.1813 12.1333C30.05 10.3343 29.5917 8.07695 28.0937 6.72255C27.5806 6.25741 26.6298 5.7649 25.9595 5.62809C25.3712 5.50496 24.5982 5.50496 24.0373 5.62809ZM25.809 6.79096C27.0471 7.11246 28.0321 8.09063 28.3605 9.32191C28.6683 10.4506 28.2989 11.7503 27.4233 12.6258C26.0552 13.9939 23.9142 13.9802 22.5324 12.6053C21.1575 11.2304 21.1712 9.08249 22.5598 7.72125C23.4627 6.83884 24.6666 6.48998 25.809 6.79096Z" fill="#4A3AFF"/>
<path d="M1.87394 3.64432C1.70293 3.89057 1.56612 4.10262 1.5798 4.1163C1.82606 4.30784 5.51988 6.91403 5.5746 6.93455C5.643 6.96191 6.33389 6.08634 6.27916 6.03846C6.12183 5.90165 2.2912 3.19969 2.25016 3.19969C2.2228 3.19969 2.05179 3.39806 1.87394 3.64432Z" fill="#4A3AFF"/>
<path d="M12.8048 6.92795C11.1768 8.11818 10.0208 9.91037 9.61719 11.8872C8.98103 15.0202 10.267 18.2557 12.8937 20.1299C13.1947 20.3488 13.9061 20.7456 14.467 21.0192C15.411 21.4775 15.5341 21.5596 15.9514 21.9974C16.4713 22.5514 16.7996 23.1739 16.9091 23.8101C17.039 24.6241 16.9638 24.542 17.5999 24.542H18.1677L18.1198 24.0769C18.0514 23.4475 17.9967 23.215 17.7846 22.6951C17.5452 22.1 17.1827 21.5596 16.7039 21.0944C16.1771 20.5814 15.9309 20.4172 14.9869 19.9726C13.9608 19.4938 13.3999 19.1244 12.7706 18.5224C11.6146 17.428 10.8553 15.8957 10.6638 14.2814C10.3902 11.8736 11.4436 9.3905 13.3589 7.96769C13.612 7.783 13.8172 7.60515 13.8172 7.57095C13.8172 7.52307 13.27 6.62013 13.2426 6.62013C13.2358 6.62013 13.0374 6.75694 12.8048 6.92795Z" fill="#4A3AFF"/>
<path d="M2.89405 9.44504C1.68329 9.75286 0.677753 10.0265 0.650391 10.047C0.609349 10.0949 0.814561 10.9978 0.889806 11.0867C0.924008 11.1278 5.00773 10.1633 5.45236 10.006C5.55497 9.97175 5.28135 8.87729 5.1719 8.88413C5.13086 8.88413 4.1048 9.14406 2.89405 9.44504Z" fill="#4A3AFF"/>
<path d="M28.6616 22.2504V22.8318H30.6795H32.6975V22.2504V21.6689H30.6795H28.6616V22.2504Z" fill="#4A3AFF"/>
<path d="M28.046 25.1301C27.8476 25.3763 27.7108 25.6021 27.745 25.6294C27.7792 25.6568 28.559 26.3066 29.4756 27.0728L31.1515 28.4614L31.5141 28.0578C31.7124 27.8389 31.8766 27.6337 31.8766 27.6063C31.8766 27.5653 29.1336 25.2464 28.518 24.7675C28.429 24.6923 28.3538 24.747 28.046 25.1301Z" fill="#4A3AFF"/>
<path d="M17.033 26.5599V27.415H17.6144H18.1958V26.5599V25.7049H17.6144H17.033V26.5599Z" fill="#4A3AFF"/>
<path d="M25.1726 28.304V30.3561H25.754H26.3355L26.3218 28.3177L26.3013 26.2861L25.7404 26.2656L25.1726 26.2451V28.304Z" fill="#4A3AFF"/>
</svg>
