<svg width="45" height="35" viewBox="0 0 45 35" fill="none" xmlns="http://www.w3.org/2000/svg">
<path d="M15.5126 0.0747871C12.5624 0.494995 9.85736 2.13205 8.13276 4.56575C7.5112 5.43243 6.79335 6.95568 6.53072 7.94491C5.56774 11.5517 6.48695 15.6925 9.20954 20.0171C9.48968 20.4636 9.71729 20.8488 9.71729 20.875C9.71729 20.8925 9.24455 20.91 8.66677 20.91H7.61625V19.6144C7.6075 17.776 7.49369 17.3996 6.77584 16.9969C6.46944 16.8218 6.31186 16.7955 5.35764 16.7955C4.14954 16.7955 3.83439 16.8831 3.45795 17.3383C3.33539 17.4784 3.19532 17.776 3.1428 17.9861L3.0465 18.3713H2.08353C0.989237 18.3713 0.691591 18.4588 0.280138 18.9316L0 19.2555V23.6239V27.9923L0.271384 28.3074C0.717854 28.8152 0.919203 28.8765 2.03975 28.8765H3.0465L3.15155 29.2879C3.27411 29.7957 3.79062 30.3297 4.23709 30.4085C4.39467 30.4435 4.99871 30.4522 5.5765 30.4347C6.56573 30.4085 6.64452 30.391 6.94217 30.1634C7.5112 29.7256 7.56373 29.5418 7.59874 27.7997L7.63376 26.2502H10.9254H14.217L15.4426 27.4583C17.5962 29.5681 20.2575 31.7829 23.0063 33.7614C24.7572 35.0132 25.2562 35.1883 26.1491 34.8469C27.2522 34.4267 32.1458 30.5836 34.8947 27.9923C37.6085 25.4273 39.587 23.1424 41.2766 20.6036C44.8483 15.246 45.6712 10.1422 43.614 6.04523C43.22 5.26609 42.9574 5.06474 42.546 5.23983C42.4059 5.29236 42.2483 5.45869 42.187 5.59876C42.0907 5.83512 42.117 5.93142 42.4409 6.62301C43.3426 8.54021 43.6052 10.3524 43.2901 12.4621C42.9312 14.8871 41.9332 17.2507 40.1298 19.9733C37.6173 23.7552 33.4415 27.9398 28.364 31.7566C26.5606 33.1136 25.6852 33.6913 25.4225 33.6913C24.8272 33.6913 19.5571 29.5943 16.8958 27.0468L16.0642 26.2589L19.1282 26.2764L22.1922 26.294L22.236 27.9135C22.2797 29.4367 22.2885 29.5506 22.4811 29.8219C22.8488 30.3297 23.2252 30.4522 24.4245 30.4522C25.1161 30.4522 25.5801 30.4085 25.7639 30.3297C26.1491 30.1721 26.5081 29.7256 26.6306 29.2617L26.7357 28.8765H27.7424C28.6529 28.8765 28.7754 28.859 29.1168 28.6576C29.362 28.5175 29.5458 28.3162 29.6684 28.0623C29.8435 27.6946 29.8522 27.5633 29.8522 23.6239C29.8522 19.6844 29.8435 19.5531 29.6684 19.1854C29.5458 18.9316 29.362 18.7302 29.1168 18.5902C28.7754 18.3888 28.6529 18.3713 27.7424 18.3713H26.7357L26.6306 17.9861C26.5081 17.5221 26.1491 17.0757 25.7639 16.9181C25.5801 16.8393 25.1161 16.7955 24.4245 16.7955C23.2252 16.7955 22.8488 16.9181 22.4811 17.4258C22.2885 17.6972 22.2797 17.8023 22.2535 19.3168L22.2272 20.91H21.0979C20.4763 20.91 19.9073 20.9363 19.8285 20.9626C19.6009 21.0501 19.4346 21.5141 19.5309 21.7767C19.6884 22.1707 19.8373 22.2144 21.0804 22.2232H22.236V23.5801V24.937H14.9261H7.61625V23.5801V22.2232H12.5012C17.7275 22.2144 17.5874 22.2319 17.7625 21.7767C17.8588 21.5141 17.6925 21.0501 17.4649 20.9626C17.3861 20.9363 15.9854 20.91 14.3571 20.91H11.3894L11.0042 20.3585C9.41089 18.1262 8.18528 15.4386 7.69504 13.1187C7.40615 11.7443 7.4149 9.72204 7.73006 8.55772C8.03646 7.37588 8.4129 6.52672 9.04321 5.57249C11.9409 1.16908 17.815 -0.00400162 22.2622 2.93745C22.6124 3.16506 23.3127 3.77786 23.8205 4.29436C25.2649 5.74758 25.6064 5.75634 26.9633 4.37316C28.2939 3.01624 29.4758 2.27212 31.0778 1.75562C34.2556 0.748871 37.5035 1.43171 40.2086 3.68156C40.4887 3.90918 40.7951 4.10177 40.8914 4.10177C40.9877 4.10177 41.189 3.97921 41.3379 3.83914C41.688 3.48022 41.6268 3.21758 41.0315 2.67482C38.7904 0.635063 35.49 -0.345421 32.4085 0.109806C30.0185 0.459976 27.9875 1.49298 26.2629 3.22634L25.44 4.058L24.5996 3.21758C24.1444 2.76236 23.5053 2.20208 23.1902 1.97447C22.0171 1.15157 20.5464 0.512505 19.0844 0.19735C18.3053 0.039772 16.2918 -0.0390167 15.5126 0.0747871ZM6.25058 18.2487C6.32937 18.4588 6.31186 28.9027 6.23307 29.0341C6.18054 29.1128 5.92667 29.1391 5.28761 29.1216L4.42093 29.0953L4.39467 26.294C4.37716 23.5714 4.3684 23.4926 4.18456 23.3C3.95695 23.0549 3.59802 23.0373 3.31788 23.265C3.10778 23.4313 3.10778 23.4488 3.08152 25.4973L3.05526 27.5721L2.16232 27.5458L1.26938 27.5196V23.6239V19.7282H2.14481H3.02024L3.0465 20.1659C3.07276 20.7787 3.13404 20.9801 3.32664 21.1727C3.55425 21.4003 3.8519 21.3915 4.14954 21.1639L4.37716 20.9888V19.6057C4.37716 18.844 4.40342 18.1962 4.43844 18.1699C4.4647 18.1349 4.87615 18.1087 5.34889 18.1087C6.04048 18.1087 6.20681 18.1349 6.25058 18.2487ZM25.3437 23.6239V29.0953L24.4508 29.1216L23.5491 29.1479V23.6239V18.0999L24.4508 18.1262L25.3437 18.1524V23.6239ZM28.4953 23.6239V27.5196H27.6199H26.7444L26.7182 23.7114C26.7094 21.6191 26.7182 19.8508 26.7444 19.7895C26.7707 19.7107 27.0071 19.6844 27.6374 19.702L28.4953 19.7282V23.6239Z" fill="#4A3AFF"/>
</svg>
