<svg width="70" height="70" viewBox="0 0 70 70" fill="none" xmlns="http://www.w3.org/2000/svg">
<g clip-path="url(#clip0_248_75)">
<path opacity="0.957" fill-rule="evenodd" clip-rule="evenodd" d="M9.50195 -0.0683594C25.1791 -0.0683594 40.8561 -0.0683594 56.5332 -0.0683594C58.4801 0.533951 59.7789 1.80999 60.4297 3.75977C60.649 6.44263 60.6945 9.13142 60.5664 11.8262C60.219 12.4508 59.6948 12.6558 58.9941 12.4414C58.8346 12.2819 58.6752 12.1224 58.5156 11.9629C58.5086 9.35818 58.4176 6.76052 58.2422 4.16992C57.8424 3.17758 57.136 2.51677 56.123 2.1875C40.9969 1.96133 25.8666 1.91576 10.7324 2.05078C9.0725 2.20676 8.04711 3.09544 7.65625 4.7168C7.58789 22.8092 7.5651 40.9016 7.58789 58.9941C20.8953 58.9713 34.2025 58.9941 47.5098 59.0625C48.8027 59.2406 49.6459 59.9471 50.0391 61.1816C50.0747 62.326 50.1659 63.4653 50.3125 64.5996C51.1439 66.964 52.8073 67.9894 55.3027 67.6758C57.006 67.1208 58.0314 65.9587 58.3789 64.1895C58.4244 62.3209 58.4701 60.4525 58.5156 58.584C58.8714 58.0765 59.3499 57.9171 59.9512 58.1055C60.2474 58.2194 60.4525 58.4244 60.5664 58.7207C60.6576 60.6348 60.6576 62.5488 60.5664 64.4629C60.073 67.3023 58.4552 69.1253 55.7129 69.9316C38.942 69.9316 22.1713 69.9316 5.40039 69.9316C1.46696 68.4961 -0.196445 65.6705 0.410155 61.4551C0.780144 60.0826 1.66882 59.2851 3.07617 59.0625C3.84957 58.9943 4.62432 58.9714 5.40039 58.9941C5.3776 40.8105 5.40039 22.627 5.46875 4.44336C5.92912 2.13784 7.27352 0.633939 9.50195 -0.0683594ZM3.21289 61.1816C17.8875 61.1588 32.5619 61.1816 47.2363 61.25C47.5087 61.3285 47.7137 61.488 47.8516 61.7285C47.8449 63.2707 48.0728 64.7746 48.5351 66.2402C48.826 66.7993 49.1677 67.3235 49.5605 67.8125C34.9737 67.9472 20.3904 67.9016 5.81055 67.6758C3.16359 66.6452 2.09263 64.7083 2.59766 61.8652C2.73779 61.5662 2.94287 61.3383 3.21289 61.1816Z" fill="#444444"/>
<path opacity="0.929" fill-rule="evenodd" clip-rule="evenodd" d="M53.1152 14.4238C54.6814 14.4092 55.8662 15.07 56.6699 16.4062C56.9378 16.5335 57.2112 16.6474 57.4902 16.748C60.8728 15.4653 62.8552 16.6048 63.4375 20.166C63.6035 20.3778 63.8086 20.5372 64.0527 20.6445C66.2964 20.7919 67.5724 21.9769 67.8809 24.1992C67.7869 24.8311 67.6274 25.4464 67.4024 26.0449C67.3112 26.3639 67.3112 26.683 67.4024 27.0019C67.8963 27.4959 68.3975 27.9971 68.9063 28.5059C69.7486 29.9478 69.7031 31.3605 68.7695 32.7441C68.2756 33.1711 67.8199 33.6268 67.4024 34.1113C67.3112 34.4303 67.3112 34.7494 67.4024 35.0684C68.1953 36.9377 67.808 38.51 66.2402 39.7852C65.4389 40.1161 64.6186 40.3896 63.7793 40.6055C63.5675 40.7714 63.4081 40.9765 63.3008 41.2207C63.2257 42.97 62.3827 44.1548 60.7715 44.7754C60.6576 47.8733 60.5892 50.9723 60.5664 54.0723C60.1543 55.243 59.3569 55.6305 58.1738 55.2344C56.5902 54.3174 55.018 53.3831 53.457 52.4316C51.8848 53.3658 50.3125 54.3002 48.7402 55.2344C47.6286 55.6086 46.8311 55.2668 46.3477 54.209C46.2793 51.0647 46.2565 47.9202 46.2793 44.7754C44.5577 44.3051 43.6691 43.1657 43.6133 41.3574C43.505 41.0721 43.3455 40.8213 43.1348 40.6055C42.1846 40.4013 41.2731 40.0822 40.4004 39.6484C39.5246 38.9222 39.0689 37.9878 39.0332 36.8457C39.2003 35.971 39.3598 35.105 39.5117 34.248C39.4205 34.0658 39.3295 33.8834 39.2383 33.7012C37.3647 32.4086 36.909 30.7225 37.8711 28.6426C38.4449 28.0807 38.9918 27.4881 39.5117 26.8652C39.6029 26.5918 39.6029 26.3184 39.5117 26.0449C38.6537 24.2132 38.9955 22.6409 40.5371 21.3281C41.4501 20.9917 42.3616 20.6726 43.2715 20.3711C43.5725 19.5947 43.8232 18.7972 44.0234 17.9785C45.4386 16.0934 47.216 15.6833 49.3555 16.748C49.5467 16.6486 49.7518 16.5803 49.9707 16.543C50.7541 15.4137 51.8022 14.7072 53.1152 14.4238ZM53.252 16.6113C53.5341 16.6369 53.8076 16.7052 54.0723 16.8164C55.5293 18.8865 57.4207 19.4105 59.7461 18.3887C60.2018 18.3887 60.5664 18.5709 60.8399 18.9355C60.9719 21.3458 62.2252 22.6901 64.5996 22.9687C65.2341 23.1707 65.5988 23.6035 65.6934 24.2676C64.5728 26.5571 65.0513 28.4256 67.1289 29.873C67.4024 30.3287 67.4024 30.7845 67.1289 31.2402C65.0513 32.6877 64.5728 34.5562 65.6934 36.8457C65.6027 37.3708 65.3293 37.7583 64.8731 38.0078C63.5549 38.0403 62.4839 38.5644 61.6602 39.5801C61.2445 40.4947 60.9027 41.4289 60.6348 42.3828C60.3423 42.5748 60.0234 42.6886 59.6777 42.7246C57.4498 41.7092 55.6269 42.1877 54.209 44.1602C53.7712 44.3629 53.3154 44.4086 52.8418 44.2969C51.3655 42.1959 49.4515 41.6719 47.0996 42.7246C46.543 42.6923 46.1557 42.4189 45.9375 41.9043C45.7324 39.5117 44.4336 38.2129 42.041 38.0078C41.4966 37.7818 41.2232 37.3717 41.2207 36.7773C42.2769 34.5241 41.7983 32.6784 39.7852 31.2402C39.3891 30.242 39.6852 29.5129 40.6738 29.0527C41.5774 28.1418 41.9192 27.048 41.6992 25.7715C41.5204 25.254 41.3608 24.7298 41.2207 24.1992C41.278 23.731 41.5059 23.3665 41.9043 23.1055C44.3703 22.9637 45.7147 21.6649 45.9375 19.209C46.1654 18.6621 46.5756 18.3887 47.168 18.3887C47.8808 18.6261 48.6099 18.8084 49.3555 18.9355C50.7834 18.8485 51.8543 18.1877 52.5684 16.9531C52.8165 16.8496 53.0443 16.7357 53.252 16.6113ZM52.7051 22.7637C57.7723 22.8866 60.5979 25.4614 61.1816 30.4883C60.9749 34.2956 59.0609 36.8021 55.4395 38.0078C51.1537 38.8157 48.0776 37.2434 46.2109 33.291C44.9436 28.7958 46.3791 25.4919 50.5176 23.3789C51.2523 23.1273 51.9814 22.9223 52.7051 22.7637ZM49.0137 44.3652C49.464 44.3323 49.8742 44.4462 50.2441 44.707C51.4589 46.5548 53.0995 47.0561 55.166 46.2109C55.7584 45.8008 56.2598 45.2994 56.6699 44.707C57.1999 44.2783 57.7467 44.2556 58.3106 44.6387C58.47 47.372 58.4928 50.1063 58.3789 52.8418C57.0916 52.0271 55.7927 51.2296 54.4824 50.4492C53.6821 49.9763 52.9073 50.022 52.1582 50.5859C50.996 51.3267 49.811 52.0331 48.6035 52.7051C48.4213 50.0162 48.4213 47.3275 48.6035 44.6387C48.7729 44.5782 48.9096 44.487 49.0137 44.3652Z" fill="#14C88C"/>
<path opacity="0.931" fill-rule="evenodd" clip-rule="evenodd" d="M12.6465 16.6113C20.0294 16.5885 27.4122 16.6113 34.7949 16.6797C35.4878 17.0875 35.6474 17.6571 35.2734 18.3887C35.1133 18.5791 34.9083 18.6932 34.6582 18.7305C27.3666 18.8217 20.0748 18.8217 12.7832 18.7305C12.1374 18.3976 11.9323 17.8734 12.168 17.1582C12.356 16.9935 12.5155 16.8112 12.6465 16.6113Z" fill="#444444"/>
<path opacity="0.927" fill-rule="evenodd" clip-rule="evenodd" d="M52.7051 20.5762C57.6637 20.5582 61.0589 22.8368 62.8906 27.4121C64.1549 32.4637 62.6283 36.4057 58.3106 39.2383C53.5942 41.421 49.4242 40.669 45.8008 36.9824C43.5578 34.061 42.9654 30.8253 44.0234 27.2754C45.6359 23.3593 48.5298 21.1262 52.7051 20.5762ZM52.7051 22.7637C51.9814 22.9222 51.2523 23.1273 50.5176 23.3789C46.3791 25.4919 44.9436 28.7958 46.2109 33.291C48.0776 37.2434 51.1537 38.8157 55.4395 38.0078C59.0609 36.8021 60.9749 34.2956 61.1816 30.4883C60.5979 25.4614 57.7723 22.8866 52.7051 22.7637Z" fill="#14C88C"/>
<path opacity="0.931" fill-rule="evenodd" clip-rule="evenodd" d="M12.6465 24.8145C20.0294 24.7916 27.4122 24.8145 34.7949 24.8828C35.513 25.3047 35.6497 25.8745 35.2051 26.5918C35.0458 26.74 34.8636 26.8539 34.6582 26.9336C27.3666 27.0248 20.0748 27.0248 12.7832 26.9336C12.1374 26.6007 11.9323 26.0765 12.168 25.3613C12.356 25.1966 12.5155 25.0144 12.6465 24.8145Z" fill="#444444"/>
<path opacity="0.931" fill-rule="evenodd" clip-rule="evenodd" d="M12.6465 33.0176C20.0294 32.9948 27.4122 33.0176 34.7949 33.086C35.513 33.5079 35.6497 34.0776 35.2051 34.7949C35.0458 34.9431 34.8636 35.057 34.6582 35.1367C27.4121 35.2279 20.166 35.2279 12.9199 35.1367C12.3503 35.0021 12.0769 34.6374 12.0996 34.043C12.0901 33.5828 12.2724 33.241 12.6465 33.0176Z" fill="#444444"/>
<path opacity="0.932" fill-rule="evenodd" clip-rule="evenodd" d="M12.6465 41.2207C20.075 41.1979 27.5034 41.2207 34.9316 41.2891C35.7412 42.1634 35.6044 42.847 34.5215 43.3399C27.3209 43.4311 20.1205 43.4311 12.9199 43.3399C12.3503 43.2052 12.0769 42.8406 12.0996 42.2461C12.0901 41.7859 12.2724 41.4441 12.6465 41.2207Z" fill="#444444"/>
</g>
<defs>
<clipPath id="clip0_248_75">
<rect width="70" height="70" fill="white"/>
</clipPath>
</defs>
</svg>
