<svg width="76" height="76" viewBox="0 0 76 76" fill="none" xmlns="http://www.w3.org/2000/svg">
<g clip-path="url(#clip0_248_55)">
<path opacity="0.933" fill-rule="evenodd" clip-rule="evenodd" d="M51.7305 -0.0742188C53.4127 -0.0742188 55.0951 -0.0742188 56.7773 -0.0742188C67.5639 1.90494 73.9467 8.28776 75.9258 19.0742C75.9258 20.7565 75.9258 22.4389 75.9258 24.1211C74.6498 32.3983 70.1967 38.2615 62.5664 41.7109C54.5009 44.6515 47.079 43.5136 40.3008 38.2969C38.5265 36.7456 36.9927 34.9891 35.6992 33.0273C34.6266 34.3213 33.3153 35.3109 31.7656 35.9961C31.6475 36.6277 31.6723 37.2461 31.8398 37.8516C34.4991 38.171 37.1214 38.6657 39.707 39.3359C41.2331 40.1198 42.4206 41.2579 43.2695 42.75C45.2068 42.8848 47.1365 43.0826 49.0586 43.3438C50.2213 43.7148 50.9883 44.4818 51.3594 45.6445C51.3842 50.1974 51.4584 54.7495 51.582 59.3008C52.432 59.6311 53.0009 60.2248 53.2891 61.082C53.3881 63.1602 53.3881 65.2383 53.2891 67.3164C53.0563 68.2913 52.4626 68.9347 51.5078 69.2461C51.4584 70.0377 51.4088 70.8295 51.3594 71.6211C51.0873 72.2891 50.6172 72.7592 49.9492 73.0312C47.3603 72.8055 44.7627 72.6324 42.1562 72.5117C36.8161 72.5451 31.7445 73.6832 26.9414 75.9258C26.5455 75.9258 26.1498 75.9258 25.7539 75.9258C20.927 73.6735 15.8307 72.5355 10.4648 72.5117C7.88401 72.6367 5.31108 72.8098 2.74609 73.0312C2.24436 72.8277 1.82379 72.5061 1.48438 72.0664C1.30345 71.0391 1.20449 70 1.1875 68.9492C0.589586 68.5879 0.169012 68.0932 -0.0742188 67.4648C-0.0742188 65.2877 -0.0742188 63.1107 -0.0742188 60.9336C0.255017 60.3801 0.67559 59.8853 1.1875 59.4492C1.23698 54.7982 1.28646 50.1471 1.33594 45.4961C1.75651 44.4818 2.47396 43.7643 3.48828 43.3438C5.51485 43.0982 7.5435 42.8756 9.57422 42.6758C10.6184 40.7428 12.2018 39.4811 14.3242 38.8906C16.5095 38.5538 18.6866 38.1827 20.8555 37.7773C21.0277 37.1897 21.0524 36.5959 20.9297 35.9961C17.929 34.8264 16.1972 32.6493 15.7344 29.4648C15.6849 26.1992 15.6354 22.9336 15.5859 19.668C14.3168 15.6569 15.3805 12.3666 18.7773 9.79688C19.7015 9.23578 20.6911 8.83994 21.7461 8.60938C24.4635 8.4459 27.1848 8.37168 29.9102 8.38672C32.2218 8.38727 34.5226 8.43674 36.8125 8.53516C40.6403 3.68941 45.6129 0.81962 51.7305 -0.0742188ZM54.1055 2.15234C62.5305 2.58887 68.5422 6.59668 72.1406 14.1758C75.0335 22.2744 73.5245 29.424 67.6133 35.625C60.6302 41.5773 53.0104 42.5174 44.7539 38.4453C41.8168 36.6463 39.417 34.2959 37.5547 31.3945C37.2482 30.8809 37.0255 30.3368 36.8867 29.7617C37.0522 27.6864 37.0769 25.6083 36.9609 23.5273C36.5995 22.8261 36.0304 22.6035 35.2539 22.8594C35.0807 23.0326 34.9076 23.2057 34.7344 23.3789C34.6849 25.2592 34.6354 27.1393 34.5859 29.0195C34.3662 30.5229 33.6983 31.7846 32.582 32.8047C30.8998 33.6459 29.2174 34.4869 27.5352 35.3281C26.6252 35.6474 25.7346 35.598 24.8633 35.1797C23.2799 34.3881 21.6967 33.5963 20.1133 32.8047C18.9999 31.8393 18.3319 30.627 18.1094 29.168C18.0352 26.2987 18.0104 23.4288 18.0352 20.5586C19.4974 20.6569 20.7591 20.2115 21.8203 19.2227C26.4832 21.9245 31.258 22.1472 36.1445 19.8906C38.6754 18.1395 39.6402 15.7397 39.0391 12.6914C38.9078 11.968 38.6852 11.2753 38.3711 10.6133C42.2613 5.30315 47.5061 2.48284 54.1055 2.15234ZM22.9336 10.7617C27.2395 10.7123 31.5442 10.7617 35.8477 10.9102C37.8824 15.4908 36.3981 18.1875 31.3945 19C27.9564 19.3404 24.8392 18.4992 22.043 16.4766C21.6471 16.3776 21.2514 16.3776 20.8555 16.4766C20.4029 17.1766 19.8091 17.7208 19.0742 18.1094C18.5299 18.2084 17.9857 18.2084 17.4414 18.1094C17.1487 14.0727 18.9795 11.6235 22.9336 10.7617ZM23.3789 37.1836C25.3087 38.1649 27.2384 38.1649 29.168 37.1836C29.8279 40.3055 28.5908 41.8147 25.457 41.7109C24.4922 41.3398 23.8242 40.6719 23.4531 39.707C23.3791 38.8673 23.3543 38.0261 23.3789 37.1836ZM21.0039 40.1523C22.4841 43.8106 25.1064 44.9733 28.8711 43.6406C30.2643 42.8598 31.1797 41.6971 31.6172 40.1523C33.7128 40.5306 35.8157 40.9017 37.9258 41.2656C38.9237 41.5714 39.7649 42.1157 40.4492 42.8984C35.5876 43.1863 30.8872 44.2005 26.3477 45.9414C21.8074 44.2004 17.107 43.186 12.2461 42.8984C12.9305 42.1157 13.7716 41.5714 14.7695 41.2656C16.8702 40.9074 18.9483 40.5364 21.0039 40.1523ZM7.94141 45.1992C13.8701 44.9957 19.585 45.9852 25.0859 48.168C25.1354 49.3555 25.1849 50.543 25.2344 51.7305C25.673 52.2911 26.242 52.4642 26.9414 52.25C27.1713 52.0698 27.3444 51.8471 27.4609 51.582C27.5104 50.444 27.5599 49.306 27.6094 48.168C34.3848 45.4305 41.3862 44.6141 48.6133 45.7188C48.7369 45.8424 48.8607 45.9662 48.9844 46.0898C49.108 50.4943 49.0834 54.898 48.9102 59.3008C48.1727 59.5683 47.6532 60.063 47.3516 60.7852C47.1886 61.9391 47.1144 63.1018 47.1289 64.2734C47.1118 65.3977 47.1861 66.511 47.3516 67.6133C47.6752 68.4079 48.2441 68.9028 49.0586 69.0977C49.0586 69.642 49.0586 70.1861 49.0586 70.7305C41.7261 69.4946 34.6011 70.2368 27.6836 72.957C27.5599 67.2181 27.4857 61.4785 27.4609 55.7383C26.7811 54.6151 26.0389 54.5655 25.2344 55.5898C25.2096 61.3795 25.1354 67.1686 25.0117 72.957C18.0938 70.2369 10.9688 69.4947 3.63672 70.7305C3.63672 70.2357 3.63672 69.7408 3.63672 69.2461C5.19378 69.0493 6.01019 68.1586 6.08594 66.5742C6.21561 64.6877 6.16614 62.8075 5.9375 60.9336C5.50803 59.984 4.79058 59.3903 3.78516 59.1523C3.612 54.799 3.58726 50.4449 3.71094 46.0898C3.94216 45.7532 4.26378 45.5801 4.67578 45.5703C5.78743 45.4529 6.87598 45.3293 7.94141 45.1992ZM2.44922 61.5273C2.79906 61.5031 3.14542 61.5278 3.48828 61.6016C3.58117 61.7129 3.65539 61.8367 3.71094 61.9727C3.8099 63.5065 3.8099 65.0404 3.71094 66.5742C3.51013 66.7529 3.26275 66.8519 2.96875 66.8711C2.67475 66.8519 2.42737 66.7529 2.22656 66.5742C2.1276 65.0404 2.1276 63.5065 2.22656 61.9727C2.30276 61.8202 2.37697 61.6718 2.44922 61.5273ZM49.6523 61.5273C50.0899 61.4862 50.5105 61.5357 50.9141 61.6758C50.9883 63.4069 51.0131 65.1387 50.9883 66.8711C50.5019 66.9133 50.0319 66.8638 49.5781 66.7227C49.4577 64.9796 49.4825 63.2479 49.6523 61.5273Z" fill="#222222"/>
<path opacity="0.87" fill-rule="evenodd" clip-rule="evenodd" d="M53.8086 5.41797C55.5 5.50568 55.8959 6.2726 54.9961 7.71875C53.5003 8.11972 52.8819 7.55072 53.1406 6.01172C53.348 5.77863 53.5706 5.58072 53.8086 5.41797Z" fill="#14C88C"/>
<path opacity="0.862" fill-rule="evenodd" clip-rule="evenodd" d="M64.6445 9.72266C65.6787 9.79135 66.1488 10.3356 66.0547 11.3555C65.7553 12.1606 65.1863 12.4328 64.3477 12.1719C63.6003 11.7246 63.427 11.1061 63.8281 10.3164C64.0508 10.0242 64.3229 9.82627 64.6445 9.72266Z" fill="#14C88C"/>
<path opacity="0.919" fill-rule="evenodd" clip-rule="evenodd" d="M43.1211 9.87107C43.5885 9.82823 44.0338 9.90245 44.457 10.0937C47.7721 13.4088 51.0873 16.724 54.4023 20.039C54.7605 20.1109 55.1068 20.0613 55.4414 19.8906C58.2007 18.8223 60.9716 17.7832 63.7539 16.7734C65.1329 16.5326 65.6524 17.1016 65.3125 18.4804C65.1323 18.7104 64.9096 18.8835 64.6445 19C61.4779 20.1875 58.3111 21.375 55.1445 22.5625C54.7132 22.7581 54.2679 22.8077 53.8086 22.7109C50.077 19.1279 46.3909 15.4912 42.75 11.8008C42.3727 11.0494 42.4965 10.4061 43.1211 9.87107Z" fill="#14C88C"/>
<path opacity="0.874" fill-rule="evenodd" clip-rule="evenodd" d="M38.668 20.4102C39.7663 20.1661 40.4095 20.5868 40.5977 21.6719C40.3251 22.6744 39.682 23.0207 38.668 22.7109C37.8948 21.9554 37.8948 21.1884 38.668 20.4102Z" fill="#14C88C"/>
<path opacity="0.886" fill-rule="evenodd" clip-rule="evenodd" d="M68.6524 20.4102C70.0116 20.2601 70.5806 20.8538 70.3594 22.1914C69.7642 22.8598 69.0715 22.9588 68.2813 22.4883C67.898 21.6897 68.0216 20.9969 68.6524 20.4102Z" fill="#14C88C"/>
<path opacity="0.861" fill-rule="evenodd" clip-rule="evenodd" d="M43.5664 30.9492C44.9916 31.3485 45.239 32.1155 44.3086 33.25C42.7263 33.524 42.2067 32.9056 42.75 31.3945C43.0285 31.2299 43.3006 31.0815 43.5664 30.9492Z" fill="#14C88C"/>
<path opacity="0.847" fill-rule="evenodd" clip-rule="evenodd" d="M64.3477 30.9493C65.7905 30.881 66.31 31.5241 65.9063 32.8789C65.1117 33.6901 64.3695 33.6407 63.6797 32.7305C63.4532 31.9496 63.6758 31.3558 64.3477 30.9493Z" fill="#14C88C"/>
<path opacity="0.886" fill-rule="evenodd" clip-rule="evenodd" d="M53.6601 35.4023C55.1193 35.1543 55.6883 35.7481 55.3672 37.1836C54.6318 37.9739 53.8896 37.9739 53.1406 37.1836C52.9318 36.4626 53.105 35.8689 53.6601 35.4023Z" fill="#14C88C"/>
</g>
<defs>
<clipPath id="clip0_248_55">
<rect width="76" height="76" fill="white"/>
</clipPath>
</defs>
</svg>
