<svg width="100" height="60" viewBox="0 0 100 60" fill="none" xmlns="http://www.w3.org/2000/svg">
<path opacity="0.931" fill-rule="evenodd" clip-rule="evenodd" d="M99.1231 19.9408C99.1231 20.5861 99.1231 21.2315 99.1231 21.8768C98.7607 22.4632 98.2444 22.8826 97.5743 23.1352C95.1789 24.0519 92.7912 24.9878 90.4111 25.9424C90.153 28.1365 90.153 30.3307 90.4111 32.5248C91.6484 32.6756 92.5196 33.3209 93.0247 34.4608C93.3103 40.935 93.8587 47.3883 94.6703 53.8208C94.637 54.8242 94.1851 55.5663 93.3151 56.0472C91.7777 56.26 90.2289 56.3568 88.6687 56.3376C87.1085 56.3568 85.5597 56.26 84.0223 56.0472C83.154 55.5706 82.7022 54.8283 82.6671 53.8208C83.4973 47.4547 84.0459 41.0659 84.3127 34.6544C84.7022 33.3759 85.5734 32.6659 86.9263 32.5248C87.1844 30.7824 87.1844 29.04 86.9263 27.2976C74.4999 32.2786 62.0449 37.1832 49.5616 42.0112C33.5375 35.774 17.5333 29.482 1.5488 23.1352C0.87868 22.8826 0.362413 22.4632 0 21.8768C0 21.2315 0 20.5861 0 19.9408C0.286023 19.4942 0.673222 19.1393 1.1616 18.876C16.4714 12.8479 31.7657 6.78162 47.0448 0.6776C47.8577 0.334541 48.6965 0.10861 49.5616 0C50.7592 0.216251 51.9208 0.57112 53.0463 1.0648C68.018 7.00193 82.9898 12.9389 97.9615 18.876C98.45 19.1393 98.8372 19.4942 99.1231 19.9408ZM49.368 3.0976C64.3806 8.92593 79.3525 14.8631 94.2831 20.9088C92.3289 21.7727 90.3608 22.6117 88.3783 23.4256C75.1349 21.956 61.8733 20.6331 48.5936 19.4568C47.679 19.9282 47.3886 20.6705 47.7224 21.6832C47.9574 21.9831 48.2478 22.2088 48.5936 22.3608C59.753 23.5607 70.9174 24.7223 82.0863 25.8456C71.2513 30.1563 60.4097 34.4478 49.5616 38.72C34.6182 32.8572 19.711 26.9203 4.84 20.9088C19.6982 14.9624 34.5407 9.02525 49.368 3.0976ZM87.3135 35.6224C88.217 35.6224 89.1204 35.6224 90.0239 35.6224C90.0239 36.3968 90.0239 37.1712 90.0239 37.9456C89.1204 37.9456 88.217 37.9456 87.3135 37.9456C87.3135 37.1712 87.3135 36.3968 87.3135 35.6224ZM87.1199 41.0432C88.1524 41.0432 89.185 41.0432 90.2175 41.0432C90.6686 45.1026 91.0558 49.1682 91.3791 53.24C89.5722 53.24 87.7652 53.24 85.9583 53.24C86.3171 49.1717 86.7043 45.1061 87.1199 41.0432Z" fill="#444444"/>
<path opacity="0.926" fill-rule="evenodd" clip-rule="evenodd" d="M76.8592 35.0415C78.192 34.9865 78.8696 35.6318 78.892 36.9775C79.4842 40.466 80.0972 43.9508 80.7312 47.4319C80.6056 49.0758 79.7665 50.1406 78.2144 50.6263C68.5555 52.4477 59.3272 55.5453 50.5296 59.9191C49.6728 60.0723 48.8339 60.0076 48.0129 59.7255C39.2395 55.2892 30.0112 52.1916 20.3281 50.4327C19.32 49.9361 18.707 49.1294 18.4889 48.0127C18.986 44.0617 19.6313 40.1253 20.4249 36.2031C21.1784 35.0882 22.0819 34.959 23.1353 35.8159C23.314 36.1129 23.4108 36.4356 23.4257 36.7839C22.8426 40.3475 22.1973 43.8968 21.4897 47.4319C31.2793 49.3265 40.6365 52.4886 49.5617 56.9183C58.4868 52.4886 67.844 49.3265 77.6336 47.4319C76.9156 43.8662 76.2703 40.2846 75.6976 36.6871C75.6881 35.8298 76.0753 35.2812 76.8592 35.0415Z" fill="#14C88C"/>
</svg>
