<svg width="73" height="73" viewBox="0 0 73 73" fill="none" xmlns="http://www.w3.org/2000/svg">
<g clip-path="url(#clip0_248_94)">
<path opacity="0.956" fill-rule="evenodd" clip-rule="evenodd" d="M16.8955 -0.0712891C17.941 -0.0712891 18.9867 -0.0712891 20.0322 -0.0712891C25.2079 1.37683 27.6556 4.79871 27.375 10.1943C26.3428 15.0002 23.3725 17.5666 18.4638 17.8936C13.5914 17.6067 10.621 15.0879 9.55271 10.3369C9.19737 4.86373 11.645 1.39432 16.8955 -0.0712891ZM18.1787 3.63574C21.4598 3.85173 23.2659 5.58644 23.5967 8.83984C23.0842 12.7076 20.8981 14.371 17.0381 13.8301C13.9784 12.6301 12.8141 10.4202 13.5449 7.2002C14.4276 5.13311 15.9723 3.94497 18.1787 3.63574Z" fill="#444444"/>
<path opacity="0.971" fill-rule="evenodd" clip-rule="evenodd" d="M30.4405 -0.0712891C43.1299 -0.0712891 55.8194 -0.0712891 68.5088 -0.0712891C70.7276 0.579132 72.201 2.00492 72.9287 4.20606C72.9287 17.5133 72.9287 30.8207 72.9287 44.1279C72.2265 46.3269 70.7533 47.7289 68.5088 48.334C56.8649 48.4291 45.2211 48.4291 33.5772 48.334C32.508 47.8351 32.1039 47.0033 32.3653 45.8389C32.6317 45.1472 33.1308 44.7433 33.8623 44.627C45.2211 44.5795 56.5797 44.5319 67.9385 44.4844C68.6719 44.182 69.076 43.6355 69.1504 42.8447C69.2455 30.393 69.2455 17.941 69.1504 5.48926C69.0733 4.69078 68.6694 4.14423 67.9385 3.84961C55.5342 3.80209 43.1299 3.75455 30.7256 3.70703C29.2324 3.12027 28.8285 2.09845 29.5137 0.641602C29.7939 0.349267 30.1028 0.111637 30.4405 -0.0712891Z" fill="#14C88C"/>
<path opacity="0.955" fill-rule="evenodd" clip-rule="evenodd" d="M38.4248 8.19824C44.8886 8.17448 51.3521 8.19824 57.8154 8.26953C59.2396 8.57134 59.7861 9.45058 59.4551 10.9072C59.2412 11.4063 58.8848 11.7627 58.3857 11.9766C51.4945 12.0716 44.6031 12.0716 37.7119 11.9766C36.3122 10.9491 36.2173 9.80849 37.4267 8.55469C37.7728 8.42604 38.1054 8.30723 38.4248 8.19824Z" fill="#14C88C"/>
<path opacity="0.948" fill-rule="evenodd" clip-rule="evenodd" d="M37.9971 16.6104C41.5143 16.5866 45.0313 16.6104 48.5479 16.6817C50.0029 17.2992 50.3593 18.3209 49.6172 19.7471C49.3704 20.0489 49.0614 20.2628 48.6904 20.3887C45.126 20.4838 41.5615 20.4838 37.9971 20.3887C37.0435 20.147 36.5682 19.5292 36.5713 18.5352C36.5965 17.5384 37.0719 16.8968 37.9971 16.6104Z" fill="#14C88C"/>
<path opacity="0.967" fill-rule="evenodd" clip-rule="evenodd" d="M58.956 72.9287C39.6605 72.9287 20.3649 72.9287 1.06934 72.9287C0.546549 72.691 0.166342 72.3109 -0.0712891 71.7881C-0.0712891 71.3129 -0.0712891 70.8375 -0.0712891 70.3623C0.140183 69.8423 0.520392 69.4859 1.06934 69.2929C3.44516 69.2217 5.82146 69.1978 8.19824 69.2217C8.24576 63.185 8.19823 57.1493 8.05566 51.1142C4.04819 52.1287 1.33921 50.7029 -0.0712891 46.8369C-0.0712891 40.706 -0.0712891 34.5752 -0.0712891 28.4443C1.72735 22.0741 5.95717 19.2462 12.6182 19.9609C14.0743 20.9511 15.4525 22.0441 16.7529 23.2402C17.8936 23.9056 19.0342 23.9056 20.1748 23.2402C21.471 22.0386 22.8493 20.9454 24.3096 19.9609C27.9139 19.4009 31.1932 20.1612 34.1475 22.2422C35.7117 23.6637 37.2324 25.1369 38.71 26.6621C41.1338 26.7096 43.5576 26.7572 45.9814 26.8047C46.3754 26.8831 46.7556 27.0019 47.1221 27.1611C47.5844 26.9137 47.9885 26.5811 48.334 26.1631C51.0139 23.0551 53.7465 19.9897 56.5322 16.9668C57.5866 16.4046 58.5133 16.571 59.3125 17.4658C59.5976 18.1787 59.5976 18.8916 59.3125 19.6045C56.2709 23.0263 53.2291 26.4482 50.1875 29.8701C51.4325 32.9595 50.7909 35.5972 48.2627 37.7832C47.4672 38.2762 46.6118 38.6088 45.6963 38.7812C42.1793 38.8763 38.6625 38.8763 35.1455 38.7812C34.2105 38.6439 33.355 38.3113 32.5791 37.7832C31.2764 36.6232 30.017 35.4113 28.8008 34.1474C28.7295 45.8387 28.7057 57.5301 28.7295 69.2217C38.7576 69.1978 48.7855 69.2217 58.8135 69.2929C60.0647 69.9576 60.3736 70.932 59.7402 72.2158C59.4936 72.487 59.2322 72.7247 58.956 72.9287ZM9.05371 23.7392C9.8156 23.7156 10.576 23.7394 11.335 23.8105C12.4971 24.7953 13.6852 25.7459 14.8994 26.6621C17.1559 27.8422 19.4371 27.8897 21.7432 26.8047C23.0522 25.8411 24.3354 24.8431 25.5928 23.8105C27.9849 23.4698 30.1236 24.0401 32.0088 25.5215C33.6288 27.1891 35.2922 28.805 36.999 30.3691C39.797 30.5503 42.6009 30.6454 45.4111 30.6543C46.9751 31.449 47.3315 32.6134 46.4805 34.1474C46.2583 34.4125 45.997 34.6264 45.6963 34.789C43.9474 34.9512 42.1889 35.0224 40.4209 35.0029C38.6529 35.0224 36.8944 34.9512 35.1455 34.789C33.8666 33.6528 32.6309 32.4646 31.4385 31.2246C29.2405 29.8024 27.2682 30.0637 25.5215 32.0088C25.2516 32.4533 25.0615 32.9285 24.9512 33.4345C24.8799 45.3635 24.8561 57.2926 24.8799 69.2217C23.359 69.2217 21.8383 69.2217 20.3174 69.2217C20.3412 61.4272 20.3174 53.633 20.2461 45.8388C19.5741 44.6188 18.5997 44.3098 17.3232 44.9121C16.8175 45.2819 16.556 45.781 16.5391 46.4092C16.4678 54.0131 16.444 61.6174 16.4678 69.2217C14.9945 69.2217 13.5212 69.2217 12.0479 69.2217C12.118 56.5716 12.0468 43.9296 11.834 31.2959C10.9646 30.1872 9.9428 30.0209 8.76855 30.7969C8.54012 31.0727 8.37377 31.3816 8.26953 31.7236C8.22201 36.4762 8.17447 41.2289 8.12695 45.9814C7.25181 47.8106 5.99237 48.1432 4.34863 46.9795C3.98457 46.5783 3.77071 46.103 3.70703 45.5537C3.57147 39.9894 3.61899 34.4289 3.84961 28.872C4.53973 26.0931 6.27442 24.3821 9.05371 23.7392Z" fill="#444444"/>
</g>
<defs>
<clipPath id="clip0_248_94">
<rect width="73" height="73" fill="white"/>
</clipPath>
</defs>
</svg>
