<svg width="126" height="28" viewBox="0 0 126 28" fill="none" xmlns="http://www.w3.org/2000/svg">
<path d="M42.0096 21V7.08398H50.99V9.57959H44.867V12.7432H50.6096V15.248H44.867V18.5044H51.0828V21H42.0096ZM62.6238 21H60.2859L60.1468 19.7383C59.7509 20.1836 59.2747 20.5361 58.718 20.7959C58.1676 21.0557 57.5646 21.1855 56.909 21.1855C56.0616 21.1855 55.304 20.9784 54.636 20.564C53.9742 20.1434 53.4516 19.5682 53.0681 18.8384C52.6847 18.1086 52.493 17.2829 52.493 16.3613C52.493 15.4336 52.6847 14.6079 53.0681 13.8843C53.4516 13.1545 53.9742 12.5824 54.636 12.168C55.304 11.7474 56.0616 11.5371 56.909 11.5371C57.5151 11.5371 58.0779 11.6484 58.5974 11.8711C59.1232 12.0876 59.5777 12.3906 59.9612 12.7803V7.08398H62.6238V21ZM57.5955 18.8013C58.0346 18.8013 58.4305 18.7023 58.783 18.5044C59.1417 18.3065 59.4262 18.0374 59.6365 17.6973C59.853 17.3509 59.9612 16.9582 59.9612 16.519V16.1851C59.9612 15.7459 59.853 15.3563 59.6365 15.0161C59.4262 14.6759 59.1417 14.41 58.783 14.2183C58.4305 14.0203 58.0346 13.9214 57.5955 13.9214C57.144 13.9214 56.7389 14.0265 56.3802 14.2368C56.0214 14.4471 55.7369 14.7378 55.5266 15.1089C55.3225 15.4738 55.2205 15.8913 55.2205 16.3613C55.2205 16.8252 55.3225 17.2427 55.5266 17.6138C55.7369 17.9787 56.0214 18.2694 56.3802 18.4858C56.7389 18.6961 57.144 18.8013 57.5955 18.8013ZM67.5594 25.6387H64.8875V11.7227H67.2254L67.3645 12.9844C67.7604 12.5329 68.2335 12.1803 68.784 11.9268C69.3406 11.667 69.9467 11.5371 70.6023 11.5371C71.4558 11.5371 72.2135 11.7474 72.8753 12.168C73.5371 12.5824 74.0597 13.1545 74.4431 13.8843C74.8266 14.6079 75.0183 15.4336 75.0183 16.3613C75.0183 17.2829 74.8266 18.1086 74.4431 18.8384C74.0597 19.5682 73.5371 20.1434 72.8753 20.564C72.2135 20.9784 71.4558 21.1855 70.6023 21.1855C69.9962 21.1855 69.4334 21.0773 68.9138 20.8608C68.4005 20.6382 67.949 20.332 67.5594 19.9424V25.6387ZM69.9251 18.792C70.3889 18.792 70.7971 18.6899 71.1497 18.4858C71.5022 18.2756 71.7775 17.988 71.9754 17.623C72.1795 17.252 72.2815 16.8314 72.2815 16.3613C72.2815 15.8851 72.1795 15.4645 71.9754 15.0996C71.7775 14.7347 71.5022 14.4471 71.1497 14.2368C70.7971 14.0265 70.392 13.9214 69.9344 13.9214C69.5014 13.9214 69.1118 14.0173 68.7654 14.209C68.4191 14.3945 68.1376 14.6543 67.9212 14.9883C67.7109 15.3223 67.5903 15.7057 67.5594 16.1387V16.6025C67.5903 17.0231 67.7109 17.4004 67.9212 17.7344C68.1315 18.0622 68.4098 18.3219 68.7561 18.5137C69.1025 18.6992 69.4921 18.792 69.9251 18.792ZM79.555 21H76.7068V7.08398H79.555V21ZM90.9012 21H88.7395L88.6468 19.5156C88.319 20.0599 87.8829 20.4743 87.3387 20.7588C86.8006 21.0433 86.1697 21.1855 85.4461 21.1855C84.2586 21.1855 83.3277 20.8206 82.6536 20.0908C81.9794 19.361 81.6424 18.359 81.6424 17.085V11.7227H84.305V16.4727C84.305 17.1963 84.475 17.7653 84.8152 18.1797C85.1616 18.5879 85.6316 18.792 86.2254 18.792C86.8439 18.792 87.3325 18.5786 87.6912 18.1519C88.0561 17.7189 88.2386 17.1344 88.2386 16.3984V11.7227H90.9012V21ZM92.5154 20.2021L93.0999 17.9385C93.2854 18.1426 93.5328 18.3312 93.8421 18.5044C94.1575 18.6776 94.4946 18.8167 94.8533 18.9219C95.2182 19.0208 95.5615 19.0703 95.8831 19.0703C96.2666 19.0703 96.5665 18.9992 96.783 18.8569C96.9995 18.7085 97.1077 18.5106 97.1077 18.2632C97.1077 18.0591 97.0335 17.889 96.885 17.7529C96.7428 17.6107 96.548 17.487 96.3006 17.3818C96.0594 17.2705 95.7903 17.1623 95.4934 17.0571C95.0914 16.9025 94.677 16.7231 94.2503 16.519C93.8297 16.3149 93.4741 16.0366 93.1834 15.6841C92.8927 15.3315 92.7473 14.8646 92.7473 14.2832C92.7473 13.7266 92.8927 13.2441 93.1834 12.8359C93.4741 12.4215 93.8854 12.103 94.4173 11.8804C94.9492 11.6515 95.5677 11.5371 96.2727 11.5371C97.4169 11.5371 98.5581 11.8247 99.6961 12.3999L98.9446 14.5059C98.7467 14.3512 98.4993 14.209 98.2024 14.0791C97.9055 13.943 97.5994 13.8348 97.284 13.7544C96.9747 13.674 96.6964 13.6338 96.449 13.6338C96.1459 13.6338 95.9078 13.6956 95.7346 13.8193C95.5677 13.943 95.4842 14.1131 95.4842 14.3296C95.4842 14.4904 95.5429 14.6357 95.6604 14.7656C95.7779 14.8893 95.9511 15.0099 96.18 15.1274C96.415 15.2388 96.7026 15.3594 97.0428 15.4893C97.4633 15.6439 97.887 15.8294 98.3138 16.0459C98.7467 16.2562 99.1085 16.5407 99.3992 16.8994C99.6961 17.252 99.8445 17.722 99.8445 18.3096C99.8445 18.8848 99.6868 19.3888 99.3714 19.8218C99.0621 20.2547 98.623 20.5918 98.054 20.833C97.4912 21.068 96.8294 21.1855 96.0686 21.1855C94.8007 21.1855 93.6163 20.8577 92.5154 20.2021Z" fill="white"/>
<g clip-path="url(#clip0_300_611)">
<path opacity="0.983" fill-rule="evenodd" clip-rule="evenodd" d="M16.1752 0.194319C16.6539 0.159405 17.1191 0.213797 17.5707 0.3575C22.366 2.43194 27.1455 4.53153 31.9092 6.65627C31.966 6.81305 31.9543 6.96533 31.8743 7.11317C26.9986 9.27414 22.1144 11.4172 17.2218 13.5425C16.8912 13.5899 16.5656 13.5681 16.245 13.4772C12.3758 11.8089 8.51497 10.1227 4.66256 8.41862C4.609 10.5505 4.609 12.6827 4.66256 14.8153C5.56215 15.1041 6.02733 15.7023 6.05803 16.6103C5.98951 17.6206 5.43132 18.2406 4.38346 18.4705C4.38682 18.9077 4.42171 19.3428 4.48812 19.776C4.77348 21.1927 4.99443 22.6178 5.15097 24.0513C5.12648 25.5326 4.52176 26.751 3.33686 27.7066C3.15079 27.7501 2.96473 27.7501 2.77867 27.7066C1.79467 27.045 0.82947 26.3596 -0.11694 25.6505C-0.168677 25.4506 -0.157045 25.2548 -0.0820527 25.063C1.37476 24.1665 2.33996 22.9263 2.81355 21.3425C3.1033 20.3808 3.24285 19.4017 3.2322 18.4053C2.08638 17.8276 1.71425 16.9573 2.11582 15.7944C2.41568 15.2352 2.89247 14.887 3.54618 14.75C3.53454 12.4649 3.48802 10.1804 3.40663 7.89644C2.82519 7.64625 2.24373 7.396 1.66229 7.14581C1.54459 7.02094 1.5097 6.8795 1.55763 6.72154C6.42902 4.53538 11.3016 2.35963 16.1752 0.194319Z" fill="#4A3AFF"/>
<path opacity="0.983" fill-rule="evenodd" clip-rule="evenodd" d="M26.2227 10.5728C26.3157 11.5291 26.3622 12.5081 26.3622 13.51C26.3506 14.4891 26.339 15.4682 26.3273 16.4473C26.2287 16.8929 26.0194 17.2845 25.6994 17.6222C24.6381 18.5595 23.3938 19.2013 21.9665 19.5477C18.3636 20.4302 14.7819 20.3649 11.2213 19.3519C9.94969 18.9807 8.86819 18.3388 7.97683 17.4263C7.7179 17.0941 7.55512 16.7242 7.48842 16.3167C7.45353 14.4457 7.44188 12.5746 7.45353 10.7033C10.2208 11.8343 12.9652 13.0201 15.6868 14.2606C16.3774 14.5285 17.0751 14.5502 17.78 14.3259C20.6006 13.0718 23.4148 11.8207 26.2227 10.5728Z" fill="#14C88C"/>
</g>
<defs>
<clipPath id="clip0_300_611">
<rect width="35.0973" height="28" fill="white"/>
</clipPath>
</defs>
</svg>
