<svg width="109" height="31" viewBox="0 0 109 31" fill="none" xmlns="http://www.w3.org/2000/svg">
<path d="M41.1691 24V7.88672H51.5675V10.7764H44.4777V14.4395H51.1271V17.3398H44.4777V21.1104H51.675V24H41.1691ZM65.0382 24H62.3312L62.1701 22.5391C61.7117 23.0547 61.1603 23.4629 60.5158 23.7637C59.8784 24.0645 59.1802 24.2148 58.4211 24.2148C57.4399 24.2148 56.5627 23.9749 55.7892 23.4951C55.0229 23.0081 54.4178 22.3421 53.9738 21.4971C53.5298 20.652 53.3078 19.696 53.3078 18.6289C53.3078 17.5547 53.5298 16.5986 53.9738 15.7607C54.4178 14.9157 55.0229 14.2533 55.7892 13.7734C56.5627 13.2865 57.4399 13.043 58.4211 13.043C59.1229 13.043 59.7746 13.1719 60.3761 13.4297C60.9849 13.6803 61.5112 14.0312 61.9552 14.4824V7.88672H65.0382V24ZM59.216 21.4541C59.7244 21.4541 60.1828 21.3395 60.591 21.1104C61.0063 20.8812 61.3358 20.5697 61.5793 20.1758C61.8299 19.7747 61.9552 19.32 61.9552 18.8115V18.4248C61.9552 17.9163 61.8299 17.4652 61.5793 17.0713C61.3358 16.6774 61.0063 16.3695 60.591 16.1475C60.1828 15.9183 59.7244 15.8037 59.216 15.8037C58.6932 15.8037 58.2241 15.9255 57.8087 16.1689C57.3934 16.4124 57.064 16.749 56.8205 17.1787C56.5841 17.6012 56.466 18.0846 56.466 18.6289C56.466 19.166 56.5841 19.6494 56.8205 20.0791C57.064 20.5016 57.3934 20.8382 57.8087 21.0889C58.2241 21.3324 58.6932 21.4541 59.216 21.4541ZM70.7531 29.3711H67.6593V13.2578H70.3664L70.5275 14.7188C70.9858 14.196 71.5337 13.7878 72.1711 13.4941C72.8156 13.1934 73.5174 13.043 74.2765 13.043C75.2648 13.043 76.1421 13.2865 76.9084 13.7734C77.6746 14.2533 78.2798 14.9157 78.7238 15.7607C79.1678 16.5986 79.3898 17.5547 79.3898 18.6289C79.3898 19.696 79.1678 20.652 78.7238 21.4971C78.2798 22.3421 77.6746 23.0081 76.9084 23.4951C76.1421 23.9749 75.2648 24.2148 74.2765 24.2148C73.5747 24.2148 72.923 24.0895 72.3214 23.8389C71.727 23.5811 71.2043 23.2266 70.7531 22.7754V29.3711ZM73.4923 21.4434C74.0294 21.4434 74.5021 21.3252 74.9103 21.0889C75.3185 20.8454 75.6372 20.5124 75.8664 20.0898C76.1027 19.6602 76.2209 19.1732 76.2209 18.6289C76.2209 18.0775 76.1027 17.5905 75.8664 17.168C75.6372 16.7454 75.3185 16.4124 74.9103 16.1689C74.5021 15.9255 74.033 15.8037 73.5031 15.8037C73.0018 15.8037 72.5506 15.9147 72.1496 16.1367C71.7485 16.3516 71.4227 16.6523 71.172 17.0391C70.9285 17.4258 70.7889 17.8698 70.7531 18.3711V18.9082C70.7889 19.3952 70.9285 19.832 71.172 20.2188C71.4155 20.5983 71.7378 20.8991 72.1388 21.1211C72.5399 21.3359 72.991 21.4434 73.4923 21.4434ZM84.6427 24H81.3449V7.88672H84.6427V24ZM97.7804 24H95.2775L95.1701 22.2812C94.7905 22.9115 94.2856 23.3913 93.6554 23.7207C93.0324 24.0501 92.3019 24.2148 91.464 24.2148C90.089 24.2148 89.0112 23.7923 88.2306 22.9473C87.45 22.1022 87.0597 20.9421 87.0597 19.4668V13.2578H90.1427V18.7578C90.1427 19.5957 90.3397 20.2546 90.7336 20.7344C91.1346 21.207 91.6789 21.4434 92.3664 21.4434C93.0825 21.4434 93.6483 21.1963 94.0636 20.7021C94.4862 20.2008 94.6974 19.5241 94.6974 18.6719V13.2578H97.7804V24ZM99.6496 23.0762L100.326 20.4551C100.541 20.6914 100.828 20.9098 101.186 21.1104C101.551 21.3109 101.941 21.472 102.357 21.5938C102.779 21.7083 103.177 21.7656 103.549 21.7656C103.993 21.7656 104.34 21.6833 104.591 21.5186C104.842 21.3467 104.967 21.1175 104.967 20.8311C104.967 20.5947 104.881 20.3978 104.709 20.2402C104.544 20.0755 104.319 19.9323 104.032 19.8105C103.753 19.6816 103.442 19.5563 103.098 19.4346C102.632 19.2555 102.152 19.0479 101.658 18.8115C101.171 18.5752 100.76 18.2529 100.423 17.8447C100.086 17.4365 99.9181 16.8958 99.9181 16.2227C99.9181 15.5781 100.086 15.0195 100.423 14.5469C100.76 14.0671 101.236 13.6982 101.852 13.4404C102.468 13.1755 103.184 13.043 104 13.043C105.325 13.043 106.646 13.376 107.964 14.042L107.094 16.4805C106.865 16.3014 106.578 16.1367 106.235 15.9863C105.891 15.8288 105.536 15.7035 105.171 15.6104C104.813 15.5173 104.491 15.4707 104.204 15.4707C103.853 15.4707 103.578 15.5423 103.377 15.6855C103.184 15.8288 103.087 16.0257 103.087 16.2764C103.087 16.4626 103.155 16.6309 103.291 16.7812C103.427 16.9245 103.628 17.0641 103.893 17.2002C104.165 17.3291 104.498 17.4688 104.892 17.6191C105.379 17.7982 105.869 18.013 106.363 18.2637C106.865 18.5072 107.284 18.8366 107.62 19.252C107.964 19.6602 108.136 20.2044 108.136 20.8848C108.136 21.5508 107.953 22.1344 107.588 22.6357C107.23 23.137 106.722 23.5273 106.063 23.8066C105.411 24.0788 104.645 24.2148 103.764 24.2148C102.296 24.2148 100.924 23.8353 99.6496 23.0762Z" fill="#222222"/>
<g clip-path="url(#clip0_3_53)">
<path opacity="0.983" fill-rule="evenodd" clip-rule="evenodd" d="M16.7529 0.215802C17.2487 0.177147 17.7305 0.237366 18.1982 0.396466C23.1648 2.69317 28.115 5.01771 33.0488 7.3701C33.1076 7.54368 33.0956 7.71228 33.0127 7.87596C27.9628 10.2685 22.9042 12.6412 17.8369 14.9941C17.4944 15.0466 17.1572 15.0225 16.8252 14.9219C12.8178 13.0748 8.8191 11.2079 4.8291 9.32127C4.77364 11.6815 4.77364 14.0422 4.8291 16.4033C5.76082 16.723 6.24262 17.3854 6.27442 18.3906C6.20345 19.5091 5.62533 20.1957 4.54004 20.4502C4.54352 20.9341 4.57966 21.4159 4.64844 21.8955C4.94398 23.464 5.17283 25.0418 5.33496 26.6289C5.3096 28.2689 4.68328 29.6178 3.45606 30.6758C3.26335 30.724 3.07064 30.724 2.87793 30.6758C1.85879 29.9433 0.859123 29.1845 -0.121088 28.3994C-0.174673 28.1781 -0.162626 27.9613 -0.0849548 27.749C1.42389 26.7564 2.42356 25.3834 2.91407 23.6299C3.21416 22.5651 3.35869 21.4811 3.34766 20.3779C2.16092 19.7384 1.7755 18.7749 2.19141 17.4873C2.50199 16.8682 2.9958 16.4827 3.67285 16.331C3.6608 13.8011 3.61262 11.2718 3.52832 8.74315C2.92611 8.46616 2.32389 8.18909 1.72168 7.91209C1.59978 7.77385 1.56365 7.61725 1.61329 7.44237C6.65865 5.02197 11.7052 2.61311 16.7529 0.215802Z" fill="#4A3AFF"/>
<path opacity="0.983" fill-rule="evenodd" clip-rule="evenodd" d="M27.1592 11.7061C27.2555 12.7648 27.3036 13.8488 27.3037 14.958C27.2916 16.042 27.2796 17.126 27.2676 18.21C27.1655 18.7033 26.9487 19.1369 26.6172 19.5108C25.518 20.5485 24.2292 21.2591 22.751 21.6426C19.0194 22.6196 15.3098 22.5474 11.6221 21.4258C10.305 21.0148 9.18489 20.3042 8.2617 19.294C7.99352 18.9261 7.82493 18.5166 7.75584 18.0654C7.71971 15.9939 7.70764 13.9224 7.71971 11.8506C10.5858 13.1028 13.4283 14.4157 16.2471 15.7891C16.9623 16.0856 17.6849 16.1097 18.415 15.8613C21.3363 14.4728 24.2511 13.0877 27.1592 11.7061Z" fill="#14C88C"/>
</g>
<defs>
<clipPath id="clip0_3_53">
<rect width="33" height="31" fill="white"/>
</clipPath>
</defs>
</svg>
