<svg width="24" height="24" viewBox="0 0 24 24" fill="none" xmlns="http://www.w3.org/2000/svg">
<g clip-path="url(#clip0_299_24)">
<path opacity="0.978" fill-rule="evenodd" clip-rule="evenodd" d="M2.50781 0.726563C4.74225 0.718749 6.9766 0.726563 9.21094 0.750001C10.1822 1.00248 10.7681 1.61967 10.9688 2.60156C11 4.77342 11 6.94533 10.9688 9.11719C10.7578 10.1406 10.1406 10.7578 9.11719 10.9688C6.94533 11 4.77342 11 2.60156 10.9688C1.61967 10.7681 1.00248 10.1822 0.750001 9.21094C0.71875 6.97655 0.71875 4.7422 0.750001 2.50781C1.00073 1.57743 1.58666 0.983682 2.50781 0.726563ZM2.97656 2.22656C4.89849 2.21875 6.82036 2.22656 8.74219 2.25C9.08189 2.29052 9.30844 2.47021 9.42188 2.78906C9.45314 4.83595 9.45314 6.8828 9.42188 8.92969C9.33596 9.17189 9.17189 9.33595 8.92969 9.42188C6.8828 9.45314 4.83595 9.45314 2.78906 9.42188C2.45635 9.2963 2.27666 9.05414 2.25 8.69531C2.21875 6.78905 2.21875 4.88283 2.25 2.97656C2.31309 2.54636 2.55527 2.29636 2.97656 2.22656Z" fill="#14C88C"/>
<path opacity="0.978" fill-rule="evenodd" clip-rule="evenodd" d="M14.7422 0.726563C16.9766 0.718749 19.211 0.726563 21.4453 0.750001C22.375 0.99219 22.9609 1.57813 23.2031 2.50781C23.2344 4.7422 23.2344 6.97655 23.2031 9.21094C22.9507 10.1822 22.3335 10.7681 21.3516 10.9688C19.1797 11 17.0078 11 14.8359 10.9688C13.8125 10.7578 13.1953 10.1406 12.9844 9.11719C12.9531 6.94533 12.9531 4.77342 12.9844 2.60156C13.1937 1.61895 13.7796 0.993952 14.7422 0.726563ZM15.2109 2.22656C17.1329 2.21875 19.0547 2.22656 20.9766 2.25C21.4063 2.30469 21.6484 2.54687 21.7031 2.97656C21.7344 4.88283 21.7344 6.78905 21.7031 8.69531C21.6765 9.05414 21.4968 9.2963 21.1641 9.42188C19.1172 9.45314 17.0703 9.45314 15.0234 9.42188C14.7812 9.33595 14.6172 9.17189 14.5313 8.92969C14.5 6.8828 14.5 4.83595 14.5313 2.78906C14.6555 2.47364 14.882 2.28614 15.2109 2.22656Z" fill="#14C88C"/>
<path opacity="0.978" fill-rule="evenodd" clip-rule="evenodd" d="M2.60156 12.9609C4.77352 12.9531 6.94538 12.9609 9.11719 12.9844C10.1406 13.1953 10.7578 13.8125 10.9688 14.8359C11 17.0078 11 19.1797 10.9688 21.3516C10.7681 22.3335 10.1822 22.9507 9.21094 23.2031C6.97655 23.2344 4.7422 23.2344 2.50781 23.2031C1.57813 22.9609 0.99219 22.375 0.750001 21.4453C0.71875 19.2109 0.71875 16.9766 0.750001 14.7422C1.01079 13.7703 1.62798 13.1766 2.60156 12.9609ZM2.78906 14.5078C4.836 14.5 6.88289 14.5078 8.92969 14.5313C9.17189 14.6172 9.33596 14.7812 9.42188 15.0234C9.45314 17.0703 9.45314 19.1172 9.42188 21.1641C9.30844 21.4829 9.08189 21.6626 8.74219 21.7031C6.82031 21.7344 4.89844 21.7344 2.97656 21.7031C2.54687 21.6484 2.30469 21.4063 2.25 20.9766C2.21875 19.0703 2.21875 17.1641 2.25 15.2578C2.26161 14.8801 2.4413 14.6301 2.78906 14.5078Z" fill="#14C88C"/>
<path opacity="0.964" fill-rule="evenodd" clip-rule="evenodd" d="M17.5078 12.9609C19.6442 12.83 21.3082 13.6425 22.5 15.3984C23.2685 16.7452 23.4404 18.1671 23.0156 19.664C22.0224 22.2121 20.1552 23.3918 17.414 23.2031C15.3623 22.8458 13.9639 21.6973 13.2187 19.7578C12.6121 17.6607 13.073 15.8404 14.6015 14.2968C15.4372 13.5586 16.4059 13.1133 17.5078 12.9609ZM17.6484 14.5078C19.1705 14.4056 20.3502 14.9837 21.1875 16.2421C22.1043 18.1115 21.7683 19.7131 20.1797 21.0468C18.6476 21.9816 17.1632 21.9035 15.7265 20.8125C14.5553 19.6665 14.235 18.3149 14.7656 16.7578C15.3231 15.4891 16.2841 14.7391 17.6484 14.5078Z" fill="#14C88C"/>
</g>
<defs>
<clipPath id="clip0_299_24">
<rect width="24" height="24" fill="white"/>
</clipPath>
</defs>
</svg>
