<svg width="33" height="32" viewBox="0 0 33 32" fill="none" xmlns="http://www.w3.org/2000/svg">
<path d="M9.4452 10.6652C9.30758 10.7966 9.28882 10.8716 9.28882 11.2595C9.28882 11.6473 9.30758 11.7223 9.4452 11.8537C9.53902 11.9538 9.67038 12.0101 9.78923 12.0101C9.90808 12.0101 10.0394 11.9538 10.1333 11.8537C10.2709 11.7223 10.2896 11.6473 10.2896 11.2595C10.2896 10.8716 10.2709 10.7966 10.1333 10.6652C10.0394 10.5651 9.90808 10.5088 9.78923 10.5088C9.67038 10.5088 9.53902 10.5651 9.4452 10.6652Z" fill="white"/>
<path d="M15.4482 10.6652C15.3106 10.7966 15.2918 10.8716 15.2918 11.2595C15.2918 11.6473 15.3106 11.7223 15.4482 11.8537C15.542 11.9538 15.6734 12.0101 15.7923 12.0101C15.9111 12.0101 16.0425 11.9538 16.1363 11.8537C16.2739 11.7223 16.2927 11.6473 16.2927 11.2595C16.2927 10.8716 16.2739 10.7966 16.1363 10.6652C16.0425 10.5651 15.9111 10.5088 15.7923 10.5088C15.6734 10.5088 15.542 10.5651 15.4482 10.6652Z" fill="white"/>
<path d="M10.9487 15.6694C10.2168 16.395 12.1121 17.302 13.5758 16.9204C14.0199 16.8016 14.5141 16.5389 14.6767 16.3387C15.0458 15.8633 14.4453 15.2628 13.9762 15.6319C13.6009 15.9196 13.4069 15.9822 12.7939 15.9822C12.1809 15.9822 11.987 15.9196 11.6117 15.6319C11.4053 15.4692 11.1301 15.4818 10.9487 15.6694Z" fill="white"/>
<path d="M11.4157 0.0423965C9.5829 0.292603 7.13714 1.13705 4.52248 2.4131C2.59589 3.35138 2.6084 3.30759 3.92824 4.60866L4.86026 5.51566L4.77269 5.76587C4.57252 6.3476 4.50372 7.05443 4.50372 8.61196V10.1632L4.33483 10.2571C4.09713 10.3822 3.85318 10.6511 3.68429 10.9827C3.48412 11.358 3.44034 12.2462 3.59672 12.7654C3.79063 13.4472 4.52874 13.9851 5.26059 13.9851C5.52956 13.9851 5.50454 13.9288 5.62964 14.7358C5.77977 15.6303 6.16759 16.5748 6.74932 17.4568C7.06208 17.9321 7.98784 18.8954 8.30685 19.0831C8.50076 19.1957 8.50702 19.2207 8.50702 19.5898C8.50702 19.9463 8.49451 19.9776 8.35064 20.0151C8.25681 20.0401 8.10043 20.1965 7.9378 20.4467C7.79393 20.6594 7.66883 20.8408 7.66257 20.8533C7.65632 20.8596 6.74306 21.1348 5.6359 21.4601C4.52874 21.7853 3.44034 22.1356 3.22141 22.2357C1.60132 22.9738 0.40033 24.5188 0.0938274 26.2765C0.0187655 26.7019 0 27.3649 0 29.2602V31.6935L0.156379 31.8436L0.306503 32H12.5103H24.7141L24.8705 31.8436L25.0269 31.6872L25.0081 29.01C24.9831 26.5142 24.9769 26.3078 24.8455 25.8574C24.6641 25.1944 24.3513 24.5501 23.9385 23.9746L23.5882 23.493H27.6541H31.7199L31.87 23.3366L32.0264 23.1865V12.9843V2.78216L31.87 2.63203L31.7199 2.47565H25.1895H18.6529L18.3652 2.08158C17.6521 1.10577 16.3698 0.448982 14.5745 0.136225C13.8677 0.0111217 12.0349 -0.0451775 11.4157 0.0423965ZM13.7676 1.03697C15.2751 1.18709 16.5762 1.67499 17.2517 2.33804C17.6708 2.74463 17.8585 3.07615 17.9523 3.55154C17.9898 3.73294 18.0336 3.94562 18.0524 4.02068C18.0649 4.09574 18.2213 4.32092 18.3964 4.52109C18.7968 4.97772 19.1095 5.54068 19.3159 6.15369C19.4661 6.61031 19.4786 6.71665 19.5036 8.30546L19.5286 9.98184H19.1783C18.8843 9.98184 18.7968 9.95682 18.6717 9.82546C18.5153 9.67534 18.5153 9.65657 18.5153 8.58694C18.5153 7.22957 18.4465 6.97311 17.9773 6.49772C17.3893 5.90348 16.6825 5.83467 15.444 6.24751C14.1179 6.69163 12.454 6.94184 10.8214 6.94184C9.73928 6.94184 9.62669 6.92933 9.10126 6.77295C7.72512 6.35385 6.24265 5.41558 4.72265 4.02068L4.28478 3.61409L4.97285 3.28882C7.63755 2.02528 9.60167 1.34972 11.3656 1.0745C12.0474 0.968161 12.9169 0.95565 13.7676 1.03697ZM31.0256 12.9843V22.4922H26.6783H22.3247L21.9994 22.3295C21.8243 22.2357 21.5803 22.1294 21.4552 22.0793C21.2738 22.0168 21.9681 21.998 25.7275 21.998L30.2187 21.9917L30.3688 21.8354L30.5252 21.6852V12.9843V4.28339L30.3688 4.13327L30.2187 3.97689H24.7266H19.2346L19.097 3.77047C19.0157 3.65788 18.9531 3.54529 18.9531 3.52026C18.9531 3.49524 21.6679 3.47648 24.9894 3.47648H31.0256V12.9843ZM29.5244 12.9843V20.9909H23.6633C19.9415 20.9909 17.7146 20.9659 17.577 20.9284C17.4081 20.8783 17.3018 20.7782 17.0954 20.4592C16.9202 20.1965 16.7701 20.0401 16.67 20.0151C16.5261 19.9776 16.5136 19.9526 16.5136 19.5773C16.5136 19.3583 16.5386 19.1769 16.5637 19.1769C16.5949 19.1769 16.8326 18.9955 17.0954 18.7766C18.24 17.7945 19.1533 16.1932 19.391 14.7295C19.4285 14.473 19.4723 14.2103 19.4911 14.1353C19.5098 14.0227 19.5724 13.9977 19.8789 13.9726C20.5232 13.9101 21.0298 13.566 21.3364 12.9843C21.4677 12.7341 21.4865 12.6153 21.4865 11.9835C21.4865 11.3517 21.4677 11.2329 21.3364 10.9827C21.1612 10.6449 20.9235 10.3759 20.6921 10.2571L20.5169 10.1632V8.61196C20.5169 6.66661 20.4544 6.24126 19.9852 5.08405C19.9415 4.98397 20.1917 4.97772 24.7329 4.97772H29.5244V12.9843ZM6.15508 6.44142C6.38026 6.5978 6.60545 6.74167 6.66175 6.77295C6.74932 6.82299 6.74932 6.84801 6.64924 7.04817C6.55541 7.22332 6.53039 7.47978 6.50537 8.49937C6.47409 9.71287 6.46784 9.74415 6.32397 9.863C6.22388 9.94431 6.08002 9.98184 5.84232 9.98184H5.50454V8.55567C5.50454 7.31089 5.54833 6.68538 5.66717 6.27253C5.68594 6.21624 5.71096 6.1662 5.72973 6.1662C5.74224 6.1662 5.93615 6.2913 6.15508 6.44142ZM17.283 7.21706L17.4832 7.41723L17.5144 8.65575C17.5395 9.69411 17.5645 9.92555 17.6646 10.1257C17.7897 10.3822 18.2901 10.8576 18.434 10.8576C18.5153 10.8576 18.5215 11.114 18.5028 12.6528C18.4777 14.2354 18.459 14.5106 18.3401 14.9297C17.7271 17.1628 16.0758 18.7891 13.8489 19.3458C13.1921 19.5084 11.7597 19.4959 11.0904 19.3208C8.88858 18.7391 7.28726 17.1503 6.68051 14.9297C6.56166 14.5106 6.5429 14.2354 6.51788 12.6528C6.49911 11.114 6.50537 10.8576 6.58668 10.8576C6.73055 10.8576 7.23097 10.3822 7.35607 10.1257C7.45615 9.92555 7.48117 9.69411 7.50619 8.65575C7.52496 7.96143 7.56249 7.39846 7.60002 7.36093C7.64381 7.3234 7.79393 7.35468 8.03788 7.46101C8.65089 7.71122 9.55788 7.9239 10.2272 7.96143C11.8097 8.05525 15.0499 7.56735 16.1383 7.07319C16.2822 7.01064 16.4823 6.98562 16.72 6.99813C17.0328 7.0169 17.1141 7.04817 17.283 7.21706ZM5.50454 11.9897V13.0031L5.2168 12.9656C5.00413 12.9468 4.87277 12.8842 4.7289 12.7404C4.54125 12.5527 4.53499 12.5277 4.53499 11.9897C4.53499 11.4831 4.5475 11.4143 4.69137 11.2642C4.87902 11.0577 5.02915 10.9889 5.30438 10.9889L5.50454 10.9827V11.9897ZM20.2917 11.2266C20.4794 11.4143 20.4856 11.4393 20.4856 11.9835C20.4856 12.5277 20.4794 12.5527 20.2917 12.7404C20.1479 12.8842 20.0165 12.9468 19.8038 12.9656L19.5161 13.0031V11.9835V10.9639L19.8038 11.0014C20.0165 11.0202 20.1479 11.0828 20.2917 11.2266ZM10.9465 20.2966C12.3039 20.6156 13.8176 20.503 15.0812 19.9901L15.5003 19.8212L15.5316 20.2028C15.5503 20.4092 15.5628 20.5843 15.5566 20.5906C15.5503 20.5906 14.8623 21.1098 14.0303 21.7353L12.5103 22.8675L10.9966 21.7353C10.1584 21.1098 9.47031 20.5906 9.46406 20.5906C9.4578 20.5843 9.47031 20.4092 9.48908 20.2028L9.52035 19.8212L9.93945 19.9901C10.1646 20.0839 10.6213 20.2215 10.9465 20.2966ZM10.1584 22.3483C10.934 22.9238 11.5658 23.4179 11.572 23.4367C11.572 23.4805 10.2147 24.3062 10.1396 24.3062C10.1021 24.3062 8.41945 22.342 8.21303 22.0543C8.15673 21.973 8.18175 21.8854 8.3694 21.5977C8.49451 21.4038 8.63212 21.2536 8.67591 21.2724C8.71344 21.2849 9.38274 21.7728 10.1584 22.3483ZM16.6512 21.5977C16.8389 21.8854 16.8639 21.973 16.8076 22.0543C16.6012 22.342 14.9186 24.3062 14.881 24.3062C14.806 24.3062 13.4486 23.4805 13.4486 23.4367C13.4548 23.3929 16.326 21.2411 16.3823 21.2411C16.401 21.2411 16.5261 21.4038 16.6512 21.5977ZM8.28809 23.7119C9.00117 24.5689 9.6392 25.3257 9.70801 25.382C9.77682 25.4446 9.90192 25.4946 9.98949 25.4946C10.1146 25.4946 10.1396 25.5197 10.1021 25.601C10.0771 25.6635 10.0458 25.8199 10.027 25.945C9.99575 26.1577 10.0145 26.2015 10.2334 26.4016L10.4711 26.6206L10.271 27.6339C10.1646 28.1844 10.0646 28.6535 10.052 28.666C10.0083 28.7035 9.00743 28.372 8.52578 28.1531C7.78767 27.8153 7.01829 27.2711 6.43656 26.6894C5.54833 25.7886 5.08544 24.8191 5.02289 23.7119C5.01038 23.4054 5.01664 23.0364 5.04791 22.905L5.10421 22.661L6.00495 22.3921C6.50537 22.242 6.93072 22.1294 6.94948 22.1356C6.9745 22.1419 7.575 22.8487 8.28809 23.7119ZM19.0157 22.3921L19.9227 22.661L19.9727 22.905C20.004 23.0364 20.0103 23.4054 19.9977 23.7119C19.8852 25.8074 18.1712 27.6464 15.5253 28.5284C15.2376 28.6222 14.9936 28.6848 14.9749 28.666C14.9623 28.6535 14.856 28.1844 14.7497 27.6339L14.5495 26.6206L14.7872 26.4016C15.0061 26.2015 15.0249 26.1577 14.9936 25.945C14.9749 25.8199 14.9436 25.6635 14.9186 25.601C14.881 25.5134 14.906 25.4946 15.0437 25.4946C15.2501 25.4946 15.2251 25.5197 16.7951 23.6306C17.4832 22.7987 18.0586 22.1168 18.0774 22.1231C18.0962 22.1231 18.5153 22.242 19.0157 22.3921ZM4.15968 24.744C4.40363 25.7011 4.99162 26.6831 5.78602 27.4713C9.17632 30.8303 15.8443 30.8303 19.2346 27.4713C19.8226 26.8833 20.1854 26.3766 20.5169 25.6573C20.8359 24.9817 20.961 24.475 21.0111 23.6619L21.0486 22.9863L21.5615 23.2428C22.4685 23.6931 23.288 24.5939 23.682 25.5572C23.976 26.289 24.0198 26.7081 24.0198 28.9412V30.9992H12.5103H1.00083V28.9412C1.00083 26.7644 1.04461 26.3266 1.30733 25.6135C1.68889 24.6001 2.61466 23.6243 3.64676 23.149L3.97203 22.9926L4.00956 23.6681C4.03458 24.0372 4.10338 24.5188 4.15968 24.744ZM13.0983 24.425L13.5862 24.7253L13.7614 25.2632L13.9365 25.8011L13.2234 26.3391L12.5103 26.8708L11.7972 26.3391L11.0841 25.8011L11.2593 25.2632L11.4344 24.7253L11.9223 24.425C12.1976 24.2561 12.4603 24.1248 12.5103 24.1248C12.5604 24.1248 12.8231 24.2561 13.0983 24.425ZM11.8848 27.6527C12.1725 27.8653 12.404 27.9967 12.5103 27.9967C12.6167 27.9967 12.8481 27.8653 13.1358 27.6527C13.386 27.465 13.6112 27.3086 13.6362 27.3086C13.655 27.3086 13.7426 27.6464 13.8176 28.0655C13.9302 28.641 13.949 28.8349 13.8927 28.8912C13.7864 28.9975 11.2343 28.9975 11.1279 28.8912C11.0716 28.8349 11.0904 28.641 11.203 28.0655C11.2781 27.6464 11.3656 27.3086 11.3844 27.3086C11.4094 27.3086 11.6346 27.465 11.8848 27.6527Z" fill="white"/>
</svg>
