<svg width="40" height="30" viewBox="0 0 40 30" fill="none" xmlns="http://www.w3.org/2000/svg">
<path d="M18.9221 0.0461081C18.6371 0.0846192 18.1364 0.215559 17.8051 0.338795C16.9732 0.646883 1.08883 8.24896 0.772994 8.48773C0.387826 8.78042 0.0796912 9.25025 0.0180642 9.64306C-0.10519 10.4903 0.395529 11.1296 1.72821 11.7997L2.60639 12.2464V15.8356V19.4249L2.23663 19.6636C1.43548 20.1797 1.05032 21.1733 1.29682 22.0667C1.42008 22.5212 1.81295 23.0603 2.18271 23.2837C2.36759 23.3992 2.52936 23.5224 2.52936 23.561C2.52936 23.6149 0.657444 29.6149 0.549596 29.8922C0.518783 29.9846 0.988688 30 3.37673 30C5.93425 30 6.23468 29.9846 6.19616 29.8845C6.07291 29.561 4.2241 23.6303 4.2241 23.5533C4.2241 23.507 4.32425 23.43 4.4475 23.3838C5.18702 23.068 5.71085 21.8434 5.46434 20.9499C5.33339 20.4416 4.95592 19.9255 4.53224 19.6636L4.14707 19.4249V16.2439C4.14707 14.4878 4.17018 13.0551 4.20099 13.0551C4.23181 13.0551 4.77104 13.3016 5.39501 13.6097L6.53511 14.1566V18.9396C6.53511 23.6765 6.53511 23.7227 6.69688 23.9923C6.95109 24.4082 8.65354 26.0565 9.42387 26.6264C11.7349 28.344 14.4157 29.43 17.3198 29.8228C18.4907 29.9769 20.848 29.9769 22.0189 29.8228C24.9616 29.4223 27.5653 28.3671 29.9148 26.6341C30.7545 26.0103 32.4877 24.2927 32.6726 23.8999C32.7882 23.6457 32.8036 23.2144 32.8036 18.9165V14.2028L35.6153 12.8241C37.1637 12.0693 38.5657 11.3375 38.7352 11.2066C39.1666 10.8677 39.4593 10.2284 39.4054 9.7817C39.336 9.30416 39.1049 8.88825 38.7429 8.58016C38.2807 8.17964 22.25 0.377304 21.5182 0.192451C20.8249 0.0153005 19.6231 -0.0540206 18.9221 0.0461081ZM21.2408 1.61736C21.4719 1.68668 24.6765 3.21942 28.3664 5.02174C32.0564 6.82405 35.7078 8.61097 36.4704 8.98067C37.2407 9.35808 37.8955 9.72009 37.9186 9.78941C37.9494 9.86643 37.9109 9.98196 37.8339 10.0744C37.6952 10.2284 32.2644 12.9396 31.91 13.0243C31.8099 13.0474 31.6943 13.1168 31.6481 13.1707C31.6019 13.2246 29.2754 14.3799 26.4637 15.7355C22.6814 17.5686 21.2485 18.2233 20.9096 18.2849C20.2625 18.4005 19.2919 18.3851 18.7141 18.2541C18.3906 18.1771 16.3492 17.2374 12.8211 15.543C9.84756 14.118 7.08975 12.801 6.68918 12.6084C6.2886 12.4159 5.99588 12.2464 6.03439 12.2387C6.08061 12.2233 9.21588 11.8459 13.0059 11.3992C20.4243 10.5288 20.1932 10.5673 20.3549 10.0975C20.4551 9.83562 20.3472 9.53523 20.0776 9.33497L19.8696 9.18093L11.8735 10.1206C7.47492 10.6366 3.79271 11.0603 3.68487 11.068C3.42295 11.0834 1.56644 10.1745 1.49711 9.99737C1.45859 9.89724 1.49711 9.82021 1.62807 9.72008C1.82065 9.57374 17.1581 2.17192 17.9746 1.83302C18.7141 1.52493 19.2842 1.4248 20.093 1.46332C20.4936 1.47872 21.0097 1.55574 21.2408 1.61736ZM12.6747 17.0295C15.2091 18.2387 17.4431 19.2939 17.6434 19.371C17.8359 19.4557 18.2904 19.5789 18.6371 19.6482C19.4537 19.81 20.9019 19.7561 21.5952 19.5404C21.8494 19.4634 24.1219 18.3851 26.6486 17.1527C29.1676 15.9127 31.2552 14.9037 31.286 14.9037C31.3168 14.9037 31.3399 16.8061 31.3399 19.1322V23.3607L30.793 23.9461C29.0983 25.7561 26.6486 27.2272 24.1065 27.9589C21.4411 28.7214 18.2365 28.7599 15.6251 28.059C14.0844 27.6508 12.2818 26.8421 11.0339 26.0103C10.1788 25.4326 8.84612 24.3004 8.36851 23.7381L7.99875 23.3068V19.0706C7.99875 16.7368 8.01416 14.8266 8.03727 14.8266C8.05267 14.8266 10.1403 15.8202 12.6747 17.0295Z" fill="white"/>
</svg>
