<svg width="43" height="30" viewBox="0 0 43 30" fill="none" xmlns="http://www.w3.org/2000/svg">
<path d="M20.0257 0.0740566C17.5649 0.437397 15.5995 2.12197 14.8481 4.52497C14.5756 5.4168 14.5756 7.09312 14.8481 7.99321C15.6904 10.6935 18.0769 12.4524 20.9093 12.4606C21.9993 12.4606 22.6681 12.312 23.6591 11.833C24.9803 11.1972 25.8721 10.3054 26.5493 8.96762C27.053 7.96843 27.1934 7.24176 27.1521 5.98658C27.1191 5.17733 27.0695 4.84702 26.8878 4.31852C26.5658 3.37714 26.0786 2.59266 25.3602 1.87424C24.3445 0.858541 23.1471 0.272243 21.6937 0.0740566C20.9671 -0.0250359 20.7358 -0.0250359 20.0257 0.0740566ZM22.4617 1.63477C23.9481 2.13849 25.1289 3.31934 25.6079 4.78921C25.8639 5.5737 25.8887 6.88667 25.6492 7.58032C25.0464 9.36399 23.8242 10.5201 22.0653 10.9742C20.4716 11.3789 18.787 10.9412 17.5401 9.77687C16.8877 9.17406 16.5161 8.59602 16.2106 7.72896C15.9298 6.92796 15.9133 5.67279 16.1776 4.85528C16.6978 3.22025 18.242 1.80818 19.8605 1.47787C20.5294 1.34575 21.8424 1.42006 22.4617 1.63477Z" fill="white"/>
<path d="M32.8644 4.40012C31.1963 4.77998 29.743 6.10947 29.2228 7.7445C29.0163 8.37209 28.975 9.70984 29.1402 10.3044C29.3631 11.1136 29.8091 11.8734 30.4119 12.4927C31.089 13.1698 31.5432 13.4588 32.3772 13.7396C33.6241 14.1607 34.8793 14.0617 36.1345 13.4506C39.421 11.8238 39.7266 7.23252 36.6877 5.15157C35.5977 4.40838 34.1113 4.11936 32.8644 4.40012ZM34.9371 5.81219C35.5647 6.00212 35.9941 6.27462 36.4895 6.79486C38.1328 8.52898 37.5713 11.2788 35.3665 12.3028C33.9297 12.9799 32.0717 12.5175 31.1138 11.254C30.5935 10.5769 30.4366 10.0649 30.4284 9.10702C30.4284 8.34731 30.4532 8.23996 30.6926 7.71973C31.122 6.81138 31.9395 6.10121 32.9057 5.79568C33.3764 5.64704 34.4086 5.65529 34.9371 5.81219Z" fill="white"/>
<path d="M7.35683 4.73945C6.11817 5.0037 4.99512 5.76341 4.30148 6.79562C2.99676 8.74445 3.261 11.2713 4.92906 12.9146C5.78787 13.7651 7.19168 14.3514 8.38079 14.3514C10.437 14.3514 12.4188 12.8816 13.0547 10.8832C13.3189 10.0739 13.3024 8.81877 13.0216 8.00951C12.7244 7.15896 12.3528 6.57267 11.7087 5.96985C10.5361 4.85506 8.91754 4.40088 7.35683 4.73945ZM9.82589 6.31668C10.8168 6.78737 11.4279 7.48927 11.7417 8.52149C12.2371 10.14 11.4279 11.8989 9.85066 12.6421C8.78542 13.1376 7.35683 13.0302 6.40719 12.3696C5.90347 12.031 5.37498 11.4282 5.16028 10.941C4.30148 9.05824 5.24286 6.8782 7.23297 6.1763C7.62108 6.04417 7.87707 6.01114 8.50466 6.03591C9.18179 6.05243 9.36346 6.09372 9.82589 6.31668Z" fill="white"/>
<path d="M20.1488 13.335C17.622 13.5828 15.2025 14.6315 13.4353 16.25L12.8738 16.7702L12.0728 16.3904C11.0984 15.9279 10.4295 15.7215 9.45509 15.5894C5.58222 15.0444 1.70935 17.4391 0.437659 21.1633C0.0990926 22.1543 0 22.9883 0 24.7554C0 26.3822 0 26.3905 0.231216 26.8281C0.396371 27.1502 0.569783 27.3401 0.867061 27.5218L1.26343 27.7695L5.4501 27.7943L9.64502 27.8191L9.69456 28.1494C9.76888 28.6283 10.0084 29.0577 10.4047 29.4128C11.1066 30.0486 10.2231 29.9991 21.1398 29.9991C32.0565 29.9991 31.1729 30.0486 31.8748 29.4128C32.3455 28.9917 32.5519 28.5457 32.6015 27.8769L32.6428 27.3236L36.7799 27.2988C39.7196 27.2823 40.9831 27.241 41.1317 27.175C41.495 27.0181 41.9657 26.5556 42.1226 26.2005C42.2548 25.9198 42.2795 25.639 42.2795 24.2517C42.2795 22.4928 42.1804 21.6588 41.8419 20.6679C40.9831 18.1493 38.9847 16.2005 36.4578 15.3995C34.1704 14.681 31.5032 15.0031 29.5296 16.2252L29.125 16.4812L28.613 16.0436C26.2761 14.0617 23.0968 13.0377 20.1488 13.335ZM22.8409 14.8049C26.9697 15.5151 30.2067 18.6282 31.0573 22.7075C31.1977 23.4012 31.239 23.9297 31.2637 25.606C31.305 27.8273 31.2637 28.1907 30.9086 28.4632C30.6939 28.6366 30.6527 28.6366 21.1398 28.6366C11.6847 28.6366 11.5773 28.6366 11.3709 28.4714C11.0158 28.1907 10.9828 27.9264 11.0158 25.6638C11.0406 23.8966 11.0736 23.4177 11.2222 22.7075C12.0728 18.6613 15.285 15.5398 19.3644 14.8132C20.2562 14.6563 21.9408 14.648 22.8409 14.8049ZM35.6651 16.5886C38.1259 17.2162 40.0747 19.1732 40.7106 21.6505C40.8509 22.2038 40.8757 22.5672 40.8757 24.0123C40.8757 25.2261 40.8509 25.7381 40.7766 25.8124C40.7023 25.8868 39.6783 25.9115 36.656 25.9115H32.6428L32.5932 24.4829C32.5189 22.4185 32.2051 21.1551 31.3298 19.4622C31.1151 19.0411 30.7435 18.43 30.504 18.0997L30.0664 17.4969L30.3389 17.3235C31.7922 16.4317 33.8979 16.1426 35.6651 16.5886ZM10.0909 17.1088C10.7928 17.2822 11.8911 17.7529 11.8911 17.8685C11.8911 17.8933 11.7342 18.1328 11.5526 18.4135C11.0653 19.1237 10.3634 20.6266 10.1157 21.4936C9.79366 22.6002 9.66153 23.6572 9.66153 25.1023V26.407H5.62351C2.18004 26.407 1.57722 26.3905 1.48639 26.2831C1.41207 26.1923 1.39555 25.6803 1.42033 24.2848C1.45336 22.6002 1.47813 22.3359 1.64329 21.824C2.45254 19.3632 4.40137 17.5795 6.8952 17.0345C7.74574 16.8446 9.19084 16.8776 10.0909 17.1088Z" fill="white"/>
</svg>
