<svg width="38" height="33" viewBox="0 0 38 33" fill="none" xmlns="http://www.w3.org/2000/svg">
<path d="M18.1778 0.190684C18.0458 0.308001 17.7819 0.718606 17.5399 1.20254C17.3199 1.6498 17.1293 2.02375 17.122 2.03108C17.122 2.03108 16.7333 2.09707 16.2714 2.16306C15.0469 2.34637 14.651 2.59566 14.6437 3.2189C14.6363 3.62218 14.8123 3.9008 15.5015 4.56804L16.1174 5.16928L15.9781 5.9025C15.7508 7.083 15.8021 7.42028 16.2421 7.7649C16.594 8.04352 17.0193 7.97753 17.9505 7.5156L18.757 7.10499L19.5856 7.52293C20.5241 7.9922 20.8321 8.02152 21.294 7.66958C21.6973 7.36162 21.7486 7.06833 21.5653 6.03449L21.4113 5.16928L22.0712 4.50205C22.7971 3.76882 22.9658 3.46087 22.8631 3.0136C22.7458 2.47835 22.4158 2.31704 21.0007 2.1264L20.4068 2.03841L19.9742 1.18787C19.4756 0.212682 19.2483 4.62532e-05 18.7204 4.62532e-05C18.4931 4.62532e-05 18.3464 0.0513716 18.1778 0.190684ZM19.1017 1.92109C19.6369 3.00627 19.7396 3.07226 20.9494 3.23357C21.316 3.27756 21.624 3.33622 21.624 3.35822C21.624 3.38021 21.3453 3.68083 21.0081 4.03278C20.2602 4.788 20.2382 4.87599 20.4288 5.96116C20.5095 6.39377 20.5461 6.74571 20.5241 6.74571C20.4948 6.74571 20.1575 6.5844 19.7836 6.3791C18.8597 5.88784 18.6837 5.89517 17.7305 6.39377C17.3273 6.59907 16.99 6.75305 16.9753 6.73838C16.9606 6.72372 17.012 6.36444 17.0853 5.93917C17.2833 4.86866 17.2539 4.79534 16.484 3.99612L15.8388 3.32889L16.6894 3.21157C17.2539 3.13092 17.5986 3.05026 17.7305 2.95494C17.8332 2.88162 18.1045 2.46368 18.3244 2.03108C18.5444 1.59848 18.7351 1.24653 18.7424 1.24653C18.757 1.24653 18.9184 1.55448 19.1017 1.92109Z" fill="white"/>
<path d="M10.2958 3.02061C9.97323 3.19659 9.78992 3.44589 9.40865 4.19377C9.18868 4.63371 8.99804 4.98566 8.97604 4.98566C8.8074 4.98566 7.38494 5.22762 7.20897 5.27895C6.65905 5.46225 6.38042 6.10016 6.62972 6.60608C6.69571 6.7454 7.03299 7.14134 7.37761 7.48595L8.00085 8.12386L7.88354 8.82042C7.70756 9.83961 7.72223 10.1329 7.96419 10.4189C8.18416 10.6755 8.53611 10.8515 8.84406 10.8515C8.95405 10.8588 9.41598 10.6682 9.86325 10.4409L10.6698 10.0229L11.4617 10.4409C12.5322 10.9981 13.0015 10.9981 13.3901 10.4189C13.5954 10.1109 13.61 9.70763 13.4414 8.78376L13.3167 8.13119L13.9766 7.45663C14.7319 6.68674 14.8858 6.37145 14.7319 5.90952C14.5779 5.44759 14.2699 5.27895 13.2214 5.11031L12.2976 4.95633L11.9089 4.17911C11.447 3.25525 11.1317 2.93263 10.7138 2.93263C10.5671 2.93263 10.3765 2.97662 10.2958 3.02061ZM11.1024 5.00765C11.5497 5.90952 11.689 6.00484 12.8108 6.15882C13.2214 6.21014 13.5587 6.27613 13.5587 6.30546C13.5587 6.33479 13.2801 6.62075 12.9428 6.9507C12.1949 7.66926 12.1582 7.76458 12.3416 8.86442C12.4075 9.28236 12.4442 9.64164 12.4295 9.6563C12.4149 9.6783 12.0776 9.52432 11.689 9.31902C10.7578 8.82776 10.6111 8.82776 9.65794 9.31902C9.25467 9.52432 8.91005 9.67096 8.88806 9.6563C8.87339 9.6343 8.91005 9.34101 8.96871 9.00373C9.19601 7.78658 9.13735 7.58127 8.27948 6.82605C8.00085 6.57676 7.76622 6.34212 7.76622 6.31279C7.76622 6.28347 8.09617 6.21014 8.49945 6.15882C9.62861 6.0195 9.77526 5.92419 10.2519 4.97099C10.4718 4.53839 10.6698 4.20111 10.6918 4.2231C10.7138 4.2451 10.9044 4.59705 11.1024 5.00765Z" fill="white"/>
<path d="M26.3171 3.16386C26.1264 3.28851 25.9504 3.53781 25.6571 4.11705C25.4372 4.54232 25.2319 4.91627 25.2099 4.93826C25.1879 4.96026 24.8139 5.03358 24.3667 5.09224C23.1495 5.27555 22.7242 5.54684 22.7242 6.15542C22.7242 6.50737 22.9149 6.80065 23.5894 7.48989L24.2127 8.13512L24.0954 8.81702C23.8754 10.0195 23.9561 10.5034 24.4107 10.7381C24.8286 10.958 25.2172 10.8847 26.0751 10.4374L26.867 10.0195L27.6735 10.4374C28.5681 10.8994 28.8393 10.9434 29.25 10.6941C29.7999 10.3568 29.8732 10.0782 29.6826 8.96367L29.5359 8.11313L30.1518 7.48255C31.0097 6.61002 31.171 6.23607 30.8924 5.70815C30.7384 5.4002 30.3278 5.23889 29.3379 5.08491L28.5094 4.96026L28.1135 4.18304C27.6369 3.22252 27.4755 3.06121 26.9623 3.01721C26.647 2.99522 26.5297 3.02455 26.3171 3.16386ZM27.2996 4.97493C27.6662 5.70082 27.7322 5.78881 28.0181 5.92079C28.1941 6.00144 28.656 6.10409 29.052 6.15542C29.4406 6.20674 29.7632 6.2654 29.7632 6.29473C29.7632 6.31673 29.4773 6.61735 29.1326 6.9693C28.3921 7.71719 28.3554 7.82717 28.5534 8.90501C28.6194 9.29362 28.6634 9.6309 28.6414 9.64557C28.6194 9.66756 28.2821 9.52092 27.8935 9.31562C26.9623 8.82436 26.8156 8.82436 25.8625 9.31562C25.4592 9.52092 25.1146 9.6749 25.0999 9.66023C25.0852 9.63823 25.1219 9.35228 25.1806 9.00766C25.3492 8.06913 25.3272 7.76851 25.0852 7.43123C24.9679 7.27725 24.6746 6.9693 24.4253 6.75666C24.176 6.53669 23.9707 6.33872 23.9707 6.30939C23.9707 6.28007 24.3007 6.20674 24.704 6.15542C25.8331 6.0161 25.9724 5.92079 26.4637 4.96759C26.6837 4.53499 26.8743 4.17571 26.8816 4.17571C26.8963 4.17571 27.0796 4.53499 27.2996 4.97493Z" fill="white"/>
<path d="M32.8777 9.68926C32.7017 9.8359 32.4597 10.2098 32.2031 10.7304C31.9831 11.1777 31.7925 11.5516 31.7852 11.559C31.7852 11.559 31.3966 11.625 30.9346 11.691C29.9961 11.8303 29.6002 11.9916 29.4315 12.3142C29.2995 12.5635 29.2849 12.9888 29.4022 13.2161C29.4462 13.3041 29.7761 13.6707 30.1354 14.0373L30.788 14.6972L30.6267 15.6137C30.4727 16.5009 30.4727 16.5376 30.6047 16.8089C30.766 17.1608 31.0813 17.3808 31.4772 17.4248C31.7412 17.4541 31.9025 17.4028 32.6137 17.0435L33.4496 16.6256L34.2341 17.0362C34.8647 17.3661 35.092 17.4468 35.3633 17.4468C35.8106 17.4468 36.0892 17.2928 36.2432 16.9775C36.3898 16.6622 36.3898 16.4203 36.2212 15.4451L36.0892 14.6532L36.6318 14.1619C37.321 13.5387 37.563 13.1501 37.5117 12.7468C37.4457 12.2335 37.1377 11.9183 36.6025 11.8009C36.4485 11.7716 36.0452 11.7056 35.7006 11.6543L35.0773 11.5736L34.6154 10.6644C34.2635 9.96788 34.1022 9.71859 33.9115 9.6086C33.5449 9.3813 33.193 9.41063 32.8777 9.68926ZM34.4614 12.4828C34.5934 12.5782 34.9307 12.6588 35.5026 12.7395L36.3532 12.8568L35.7079 13.524C35.2753 13.9713 35.048 14.2646 35.0187 14.4186C34.9967 14.5432 35.0334 15.0051 35.1067 15.4451C35.1873 15.8777 35.2313 16.2516 35.2167 16.2663C35.2093 16.2809 34.8647 16.1196 34.4614 15.9143C33.5009 15.4231 33.3323 15.4231 32.4231 15.9143C32.0418 16.1196 31.7118 16.2663 31.6898 16.2443C31.6678 16.2223 31.7045 15.841 31.7778 15.4011C31.9391 14.3746 31.9098 14.2719 31.1546 13.524C30.832 13.2014 30.568 12.9228 30.568 12.8934C30.568 12.8715 30.876 12.8055 31.2499 12.7615C32.4524 12.6002 32.5551 12.5342 33.0976 11.4343L33.4423 10.7451L33.8602 11.5443C34.0875 11.9843 34.3588 12.4095 34.4614 12.4828Z" fill="white"/>
<path d="M3.73518 9.61029C3.41256 9.74227 3.21459 9.99157 2.81131 10.7908C2.59134 11.2307 2.4007 11.5827 2.37871 11.5827C2.36404 11.5827 1.9901 11.634 1.55749 11.7C0.655627 11.832 0.27435 12.0079 0.105708 12.3599C-0.150921 12.9098 0.0470498 13.4011 0.838934 14.1343L1.41818 14.6622L1.29353 15.4541C1.13956 16.4073 1.13956 16.6493 1.27154 16.9719C1.41818 17.3165 1.69681 17.4778 2.12941 17.4705C2.41537 17.4631 2.63534 17.3825 3.27324 17.0452L4.06513 16.6199L4.87168 17.0379C5.38493 17.2945 5.77354 17.4485 5.92752 17.4485C6.31613 17.4485 6.77806 17.1405 6.91738 16.7886C7.02736 16.5026 7.02736 16.4366 6.88805 15.6007L6.73407 14.7062L7.38664 14.0463C7.75325 13.6797 8.0832 13.3057 8.1272 13.2178C8.3325 12.8145 8.1272 12.2206 7.69459 11.9566C7.56261 11.8833 7.10801 11.7733 6.58742 11.6927L5.70022 11.5607L5.28961 10.7101C4.901 9.92558 4.84968 9.84492 4.54172 9.69095C4.18977 9.51497 4.02113 9.50031 3.73518 9.61029ZM4.50506 11.5753C4.87168 12.3012 4.945 12.3965 5.22362 12.5212C5.39227 12.6019 5.8542 12.7045 6.25014 12.7558C6.63875 12.8072 6.96137 12.8658 6.96137 12.8878C6.96137 12.9098 6.68274 13.2104 6.34546 13.5624C5.98618 13.929 5.70022 14.2809 5.67089 14.4056C5.64156 14.5302 5.67089 14.9628 5.74421 15.4174C5.81754 15.8574 5.8542 16.2313 5.83953 16.2533C5.81754 16.268 5.48758 16.1213 5.10631 15.916C4.19711 15.4248 4.04313 15.4248 3.06794 15.916C2.65733 16.114 2.31272 16.2753 2.29805 16.2533C2.28339 16.2386 2.32005 15.9527 2.37871 15.6081C2.51802 14.8382 2.51802 14.4202 2.38604 14.1636C2.32738 14.0536 2.03409 13.7237 1.72614 13.4231C1.41818 13.1298 1.17622 12.8731 1.18355 12.8658C1.19821 12.8585 1.57949 12.7998 2.04142 12.7338C3.11193 12.5799 3.21459 12.4992 3.69851 11.5167C3.89649 11.1134 4.06513 10.7761 4.07979 10.7761C4.08712 10.7761 4.27776 11.1354 4.50506 11.5753Z" fill="white"/>
<path d="M18.8609 11.2819C18.3256 11.4652 18.003 11.7365 17.7757 12.1984C17.5998 12.5577 17.5704 12.7263 17.5191 13.6869C17.4604 14.8454 17.3211 15.4099 16.9545 16.0552C16.6466 16.5831 15.796 17.4043 14.6962 18.2402C14.1316 18.6655 13.4644 19.1934 13.2151 19.4134L12.7531 19.8093V19.1494C12.7531 18.1155 12.9584 18.1815 9.66625 18.1815C6.98265 18.1815 6.96798 18.1815 6.814 18.3428C6.67469 18.4968 6.66736 18.5848 6.66736 21.4444V24.3919L6.836 24.5459C7.0633 24.7586 7.36392 24.7512 7.58389 24.5239L7.7672 24.348V21.811V19.2814H9.71025H11.6533V25.5871V31.8928H9.71025H7.7672V29.1432V26.3863L7.58389 26.2103C7.35659 25.9757 7.0413 25.9684 6.82867 26.1957C6.66736 26.3643 6.66736 26.3863 6.66736 29.5172V32.6774L6.836 32.8314C7.00464 32.9927 7.03397 32.9927 9.71758 32.9927H12.4378L12.5918 32.824C12.7238 32.6847 12.7531 32.5674 12.7531 32.2008V31.7535L13.0318 31.7902C13.589 31.8708 14.2856 32.1201 14.6669 32.3768C15.5687 32.9853 15.4147 32.956 17.7097 32.978L19.7774 33L19.9314 32.802C20.1294 32.5454 20.1294 32.3914 19.9094 32.1348L19.7334 31.9295L17.7977 31.8928L15.8693 31.8562L15.5174 31.6142C14.8355 31.1376 14.0363 30.837 13.0318 30.683L12.7531 30.639V26.005L12.7605 21.3711L12.9584 21.1364C13.2737 20.7772 14.0216 20.1392 15.1141 19.3107C16.4193 18.3208 16.9912 17.8149 17.4458 17.2357C18.2377 16.2458 18.5383 15.3806 18.6116 13.8555C18.6556 13.027 18.6923 12.7483 18.7949 12.5944C19.0515 12.2058 19.7554 12.1471 20.0781 12.4917C20.2467 12.675 20.452 13.2983 20.6353 14.2441C20.804 15.0947 20.8113 15.102 21.0606 15.212C21.3392 15.3293 21.6398 15.2413 21.7718 14.992C21.8818 14.794 21.8011 14.2368 21.5152 13.1443C21.3025 12.3377 21.1339 11.9931 20.804 11.6778C20.276 11.1646 19.5868 11.0253 18.8609 11.2819Z" fill="white"/>
<path d="M21.1329 16.6584C20.9276 16.7538 20.8616 16.9517 20.7223 17.8536C20.6563 18.2569 20.5243 18.8361 20.4217 19.1367C20.2604 19.5987 20.231 19.8186 20.231 20.5079C20.231 21.8423 20.0111 22.5096 19.3805 23.1475C18.9699 23.5508 18.4346 23.8074 17.6941 23.932C17.0708 24.042 16.9315 24.152 16.9315 24.5259C16.9315 24.9072 17.1515 25.0392 17.7161 25.0172C18.6253 24.9879 19.6884 24.4746 20.3044 23.7707C20.9643 23.0302 21.2429 22.2969 21.3089 21.1311L21.3529 20.3832H22.1081H22.8633L22.7533 20.6399C22.614 20.9771 22.6214 21.7397 22.7753 22.187C22.856 22.4363 23.0246 22.6709 23.3033 22.9495L23.7139 23.3528L23.5306 23.7194C23.2666 24.24 23.2813 24.9585 23.5525 25.4938C23.6625 25.7064 23.7285 25.8824 23.6919 25.8824C23.6552 25.8824 23.4939 25.9997 23.3252 26.139C22.3207 27.0042 22.4307 28.7786 23.5452 29.5045L23.7285 29.6219L23.5672 29.9518C23.2813 30.5017 23.2666 30.971 23.4939 31.7262C23.5452 31.8802 23.5306 31.8802 22.6214 31.9095C21.7928 31.9315 21.6828 31.9462 21.5435 32.0928C21.3309 32.3055 21.3382 32.6867 21.5582 32.8627C21.6975 32.9874 21.9614 32.9947 24.733 32.9947H27.7466L28.1132 32.8187C29.1617 32.3201 29.6457 31.059 29.1837 30.0105L29.0151 29.6365L29.3597 29.3212C29.7263 28.984 29.9316 28.6467 30.0196 28.2287C30.1149 27.7961 30.0636 27.2095 29.9023 26.8283L29.741 26.4617L29.917 26.337C30.7528 25.7578 31.0608 24.5626 30.6135 23.6534C30.5035 23.4334 30.2689 23.1182 30.0856 22.9642L29.763 22.6709L29.9243 22.3189C30.0416 22.0623 30.0856 21.813 30.0856 21.4464C30.0929 20.5885 29.675 19.9213 28.8611 19.4887C28.5532 19.32 28.5238 19.32 25.041 19.2981L21.5362 19.2761L21.5802 19.1147C21.7048 18.7041 21.9175 17.487 21.9175 17.223C21.9175 17.0104 21.8661 16.8784 21.7341 16.7538C21.5435 16.5558 21.3895 16.5338 21.1329 16.6584ZM28.4358 20.5152C29.1617 20.8818 29.2057 21.813 28.5238 22.2676C28.2819 22.4289 28.2305 22.4363 26.3535 22.4363C24.4764 22.4363 24.4251 22.4289 24.1831 22.2676C23.5012 21.813 23.5452 20.8818 24.2711 20.5152C24.4911 20.3979 24.755 20.3832 26.3535 20.3832C27.9519 20.3832 28.2159 20.3979 28.4358 20.5152ZM29.1324 23.6387C29.8143 23.9247 29.9536 24.7972 29.389 25.3398L29.1691 25.5525L27.1674 25.5745C25.1876 25.5965 25.173 25.5965 24.9237 25.4278C24.2344 24.9732 24.2858 24.0127 25.0117 23.6607C25.3416 23.4921 28.7511 23.4774 29.1324 23.6387ZM28.2232 26.733C28.5532 26.7989 28.9344 27.1876 28.9931 27.5175C29.0664 27.8914 28.9931 28.1187 28.6998 28.434L28.4578 28.7053H26.3608H24.2711L24.0511 28.4927C23.7798 28.2287 23.6479 27.8621 23.7065 27.5248C23.7652 27.2389 24.1758 26.7916 24.4251 26.7403C24.6964 26.689 27.9666 26.6816 28.2232 26.733ZM27.6366 29.9591C27.9886 30.0985 28.2232 30.4064 28.2745 30.7877C28.3185 31.125 28.1792 31.4329 27.8493 31.7042L27.6146 31.9022L26.3095 31.8802L25.0043 31.8582L24.7844 31.6456C24.2198 31.103 24.3444 30.2891 25.0337 29.9811C25.4369 29.7978 27.1894 29.7832 27.6366 29.9591Z" fill="white"/>
<path d="M9.05013 21.59C8.87415 21.7586 8.86682 21.8099 8.86682 22.6752C8.86682 23.5257 8.87415 23.5917 9.03546 23.7383C9.27743 23.9656 9.62204 23.951 9.81268 23.709C9.952 23.533 9.96666 23.4157 9.96666 22.6385C9.96666 21.8099 9.95933 21.7586 9.78335 21.59C9.68803 21.4873 9.51939 21.4067 9.41674 21.4067C9.31409 21.4067 9.14545 21.4873 9.05013 21.59Z" fill="white"/>
</svg>
